<svg width="12" height="10" viewBox="0 0 12 10" fill="none" xmlns="http://www.w3.org/2000/svg">
<path d="M3.25969 9.58948C3.03475 9.71935 2.76725 9.75451 2.51638 9.68729C2.26551 9.62007 2.05164 9.45591 1.9217 9.23085C1.79183 9.00591 1.75661 8.73864 1.82383 8.48777C1.89097 8.23675 2.05523 8.02282 2.28019 7.89295C2.50515 7.76307 2.77255 7.72778 3.0235 7.79514C3.27437 7.86236 3.48824 8.02651 3.6181 8.25143C3.74805 8.47651 3.78326 8.74379 3.71604 8.99466C3.64882 9.24553 3.48464 9.45961 3.25969 9.58948ZM2.78516 5.33953C2.50398 5.50186 2.1698 5.54579 1.85612 5.46163C1.54239 5.37768 1.27507 5.17245 1.11275 4.89129C0.950328 4.60997 0.906257 4.27587 0.990421 3.96219C1.07445 3.6486 1.2796 3.38114 1.56076 3.21881C1.84207 3.0564 2.17626 3.01247 2.48986 3.09649C2.80346 3.18051 3.07091 3.38567 3.23332 3.66697C3.39565 3.94815 3.43958 4.28233 3.35556 4.59593C3.27161 4.90966 3.06646 5.17712 2.78516 5.33953ZM6.78162 2.4666C6.50045 2.62894 6.16627 2.67287 5.85253 2.58893C5.53885 2.50476 5.27139 2.2996 5.10907 2.01844C4.94674 1.73729 4.9028 1.40309 4.98674 1.08935C5.07091 0.775671 5.27607 0.508212 5.55723 0.345886C5.83838 0.183559 6.17258 0.139623 6.48632 0.223562C6.8 0.307731 7.06746 0.512888 7.22978 0.794046C7.39211 1.0752 7.43605 1.4094 7.35211 1.72314C7.26794 2.03682 7.06278 2.30428 6.78162 2.4666ZM10.894 5.18181C10.5566 5.37661 10.1555 5.42942 9.77903 5.32851C9.40272 5.22768 9.08181 4.98144 8.88702 4.64405C8.69213 4.3065 8.63933 3.90545 8.74017 3.52916C8.84114 3.15277 9.08739 2.83187 9.42479 2.63707C9.76218 2.44227 10.1632 2.38946 10.5397 2.49022C10.916 2.59105 11.2369 2.83729 11.4318 3.17484C11.6266 3.51224 11.6794 3.91328 11.5785 4.28957C11.4776 4.6661 11.2314 4.98702 10.894 5.18181Z" fill="#F5C654"/>
</svg>
