<svg width="28" height="30" viewBox="0 0 28 30" fill="none" xmlns="http://www.w3.org/2000/svg">
<g clip-path="url(#clip0_250_9581)">
<path d="M13.3993 19.2189H11.5557V19.6286C11.5557 20.1501 11.1367 20.5691 10.6152 20.5691C10.0937 20.5691 9.67464 20.1501 9.67464 19.6286V19.2189H2.49514C2.05741 19.2189 1.63836 19.1445 1.24743 19.0234V23.2789C1.24743 23.9679 1.80613 24.5266 2.49514 24.5266H14.4699C13.7156 23.3905 13.2687 22.0218 13.2687 20.5598C13.2687 20.1036 13.3153 19.6567 13.399 19.219L13.3993 19.2189ZM19.9828 7.66299H16.4723V5.80067C16.4723 4.63672 15.5317 3.68683 14.3584 3.68683L6.87191 3.68704C5.70796 3.68704 4.75807 4.63693 4.75807 5.80088V7.6632L1.2477 7.66299C0.558696 7.66299 0 8.22168 0 8.91069V15.159C0 16.537 1.11739 17.6544 2.4954 17.6544H9.67491V16.9561C9.67491 16.4346 10.0939 16.0155 10.6154 16.0155C11.1369 16.0155 11.556 16.4346 11.556 16.9561V17.6544H13.8932C15.0106 15.1403 17.5341 13.3805 20.4582 13.3805C20.7188 13.3805 20.9797 13.3992 21.2403 13.427V8.9109C21.2309 8.2219 20.6722 7.6632 19.9832 7.6632L19.9828 7.66299ZM14.3677 7.66299H6.87159V5.80067H14.3677V7.66299Z" fill="#5EEFF1"/>
<path d="M14.5957 23.1415C13.0389 20.4451 14.274 16.816 17.3575 15.0357C20.441 13.2555 24.2014 14.0005 25.7581 16.697C26.7992 18.5003 26.5865 20.7579 25.3905 22.5694C24.8278 23.4151 23.9603 24.0555 23.4528 23.1765L23.3582 23.0125C23.1978 22.7254 22.9438 22.5019 22.6386 22.3793C22.3334 22.2568 21.9954 22.2425 21.681 22.339C21.2767 22.4717 20.9537 22.7793 20.8015 23.1766C20.6492 23.574 20.6841 24.0187 20.8962 24.3874C21.0293 24.5654 21.0734 24.7946 21.0159 25.0092C20.9583 25.2238 20.8056 25.4002 20.6014 25.4879C20.1847 25.6962 19.7209 25.7924 19.2557 25.7671C17.3509 25.7645 15.585 24.7695 14.5957 23.1415Z" fill="#F5C654"/>
<path d="M17.9559 23.6107C17.7659 23.7204 17.54 23.75 17.3281 23.6933C17.1162 23.6365 16.9355 23.4979 16.8258 23.3078C16.7161 23.1178 16.6864 22.892 16.7431 22.6802C16.7998 22.4681 16.9386 22.2875 17.1286 22.1778C17.3186 22.0681 17.5444 22.0383 17.7564 22.0952C17.9683 22.1519 18.1489 22.2906 18.2586 22.4805C18.3683 22.6706 18.3981 22.8964 18.3413 23.1083C18.2845 23.3202 18.1459 23.501 17.9559 23.6107ZM17.5551 20.0211C17.3176 20.1582 17.0353 20.1953 16.7704 20.1243C16.5054 20.0534 16.2797 19.88 16.1426 19.6425C16.0054 19.4049 15.9682 19.1228 16.0392 18.8578C16.1102 18.593 16.2835 18.3671 16.5209 18.23C16.7585 18.0928 17.0408 18.0557 17.3057 18.1267C17.5705 18.1976 17.7964 18.3709 17.9336 18.6085C18.0707 18.846 18.1078 19.1282 18.0368 19.3931C17.9659 19.6581 17.7927 19.884 17.5551 20.0211ZM20.9305 17.5947C20.693 17.7318 20.4108 17.7689 20.1458 17.698C19.8809 17.6269 19.655 17.4536 19.5179 17.2161C19.3808 16.9787 19.3436 16.6964 19.4145 16.4314C19.4856 16.1665 19.6589 15.9406 19.8964 15.8035C20.1338 15.6664 20.4161 15.6293 20.6811 15.7002C20.946 15.7713 21.1719 15.9445 21.309 16.182C21.4461 16.4195 21.4832 16.7017 21.4123 16.9667C21.3413 17.2317 21.168 17.4575 20.9305 17.5947ZM24.4038 19.8879C24.1189 20.0525 23.7801 20.0971 23.4621 20.0118C23.1443 19.9267 22.8733 19.7187 22.7087 19.4337C22.5441 19.1486 22.4995 18.8099 22.5847 18.4921C22.67 18.1742 22.878 17.9032 23.1629 17.7386C23.4479 17.5741 23.7866 17.5295 24.1046 17.6146C24.4224 17.6998 24.6934 17.9077 24.858 18.1928C25.0226 18.4778 25.0672 18.8165 24.982 19.1343C24.8968 19.4524 24.6888 19.7234 24.4038 19.8879Z" fill="#FCF4E1"/>
</g>
<defs>
<clipPath id="clip0_250_9581">
<rect width="27.6923" height="30" fill="white" transform="translate(0.153931)"/>
</clipPath>
</defs>
</svg>
