<svg width="17" height="21" viewBox="0 0 17 21" fill="none" xmlns="http://www.w3.org/2000/svg">
<path d="M6.37358 20.1299C6.71613 20.1299 7.05869 19.9016 7.40122 19.7873C7.97241 19.4448 8.65747 19.4448 9.3426 19.7873C9.68515 20.0156 10.0277 20.1299 10.3702 20.1299C13.111 20.5867 15.9662 17.2748 16.7656 12.7065C17.565 8.13819 15.9662 4.02683 13.2254 3.56991C12.4259 3.45559 11.7408 3.56991 11.0554 3.91246C10.4842 4.25501 9.79911 4.48365 9.11398 4.48365C8.99967 3.79854 8.99967 1.74284 10.8272 1.28602C11.1697 1.1717 11.3983 0.829151 11.284 0.486609C11.1697 0.144056 10.8272 -0.0845774 10.4846 0.0297394C8.08632 0.600926 7.6295 3.11306 7.7438 4.59802C7.0587 4.48371 6.48755 4.25547 5.91633 4.02684C5.23122 3.68429 4.43177 3.56997 3.74633 3.68429C1.00552 4.14116 -0.59334 8.25257 0.206093 12.8209C0.777279 17.2748 3.63243 20.7011 6.37355 20.13L6.37358 20.1299Z" fill="#E4582D"/>
</svg>
