<svg width="21" height="19" viewBox="0 0 21 19" fill="none" xmlns="http://www.w3.org/2000/svg">
<path d="M18.5832 13.2896C18.2644 13.6147 17.9479 13.9383 17.6506 14.3492V15.116H13.2266V14.3492C13.3017 13.7522 13.6841 12.6764 13.6956 12.3775C13.7109 11.9574 14.2979 11.1905 14.2979 11.1905L16.0972 9.00648C16.0972 9.00648 16.6061 8.48905 16.898 7.91447C17.1892 7.33989 17.81 8.06275 17.892 8.57941C17.974 9.09684 17.8176 9.36869 17.8176 9.36869L16.7892 11.3357C16.7892 11.3357 17.9809 9.7641 18.351 9.13237C18.5387 8.81264 18.5909 8.13457 18.6499 7.37773C18.7066 6.63942 18.7694 5.82621 18.9687 5.1937C19.3725 3.9117 20.5412 4.23298 20.7442 4.80524C20.9466 5.37828 20.9006 9.16249 20.827 9.79267C20.7695 10.2869 20.4607 10.7704 20.1113 11.3149C20.0147 11.4662 19.9151 11.6214 19.817 11.7836C19.4262 12.4285 19.0024 12.861 18.5832 13.2896Z" fill="#FDE0D7"/>
<path d="M13.9789 19C13.7793 19 13.588 18.9171 13.4469 18.7694C13.3058 18.6218 13.2266 18.4215 13.2266 18.2127V16.6381C13.2266 16.4293 13.3058 16.2291 13.4469 16.0814C13.588 15.9338 13.7793 15.8508 13.9789 15.8508H16.9881C17.1876 15.8508 17.3789 15.9338 17.52 16.0814C17.6611 16.2291 17.7404 16.4293 17.7404 16.6381V18.2127C17.7404 18.4215 17.6611 18.6218 17.52 18.7694C17.3789 18.9171 17.1876 19 16.9881 19H13.9789Z" fill="white"/>
<path d="M2.26614 13.2896C2.58567 13.6147 2.90291 13.9383 3.20099 14.3492V15.116H7.66298V14.3492C7.58789 13.7522 7.45609 12.6764 7.4446 12.3775C7.4285 11.9574 6.84001 11.1905 6.84001 11.1905L5.03544 9.00648C5.03544 9.00648 4.52434 8.48905 4.23162 7.91447C3.93967 7.33989 3.31746 8.06275 3.2347 8.57941C3.15195 9.09684 3.30903 9.36869 3.30903 9.36869L4.34043 11.3357C4.34043 11.3357 3.14505 9.7641 2.77341 9.13237C2.58567 8.81264 2.5328 8.13457 2.47456 7.37773C2.41709 6.63942 2.35426 5.82621 2.15426 5.1937C1.7489 3.9117 0.575743 4.23298 0.372681 4.80524C0.16962 5.37828 -0.0594958 9.16249 0.0140662 9.79267C0.0723028 10.2869 0.381877 10.7704 0.732829 11.3149C0.829379 11.4662 0.92976 11.6214 1.02784 11.7836C1.42017 12.4285 1.84545 12.861 2.26614 13.2896Z" fill="#FAC0AE"/>
<path d="M6.91056 19C7.11008 19 7.30143 18.9171 7.44252 18.7694C7.5836 18.6218 7.66286 18.4215 7.66286 18.2127V16.6381C7.66286 16.4293 7.5836 16.2291 7.44252 16.0814C7.30143 15.9338 7.11008 15.8508 6.91056 15.8508H3.90135C3.70183 15.8508 3.51048 15.9338 3.36939 16.0814C3.22831 16.2291 3.14905 16.4293 3.14905 16.6381V18.2127C3.14905 18.4215 3.22831 18.6218 3.36939 18.7694C3.51048 18.9171 3.70183 19 3.90135 19H6.91056Z" fill="white"/>
<path d="M6.61328 2.64245C6.61328 1.27163 7.47239 0 8.64865 0C9.46519 0 10.0706 0.570467 10.4448 1.37934C10.8186 0.570467 11.4244 0 12.2409 0C13.4172 0 14.2763 1.27163 14.2763 2.64245C14.2763 5.57695 10.4448 7.66298 10.4448 7.66298C10.4448 7.66298 6.61328 5.70296 6.61328 2.64245Z" fill="white"/>
</svg>
