<svg width="20" height="20" viewBox="0 0 20 20" fill="none" xmlns="http://www.w3.org/2000/svg">
<path d="M16.1943 12.8798V9.55711C16.1943 9.30533 16.094 9.06386 15.9156 8.88582C15.7372 8.70778 15.4952 8.60776 15.2428 8.60776H14.2914C16.4226 7.0793 16.9174 4.11732 15.3855 1.96228C14.6443 0.945499 13.5304 0.262208 12.2865 0.0612704C11.0425 -0.139667 9.76946 0.158033 8.74454 0.889513C8.10708 1.3452 7.59331 1.96228 7.25079 2.65531C6.71911 2.32664 6.12753 2.10615 5.51011 2.00653C4.89269 1.9069 4.26161 1.93011 3.65321 2.07482C3.04482 2.21953 2.47111 2.48288 1.96512 2.84971C1.45913 3.21654 1.03085 3.6796 0.704932 4.21225C0.0440166 5.2849 -0.162886 6.57556 0.129722 7.80041C0.42233 9.02525 1.19049 10.084 2.26528 10.7438C2.46508 10.8577 2.66488 10.9811 2.8742 11.0571V19.0506C2.8742 19.3024 2.97444 19.5439 3.15287 19.7219C3.3313 19.9 3.5733 20 3.82563 20H15.2428C15.4952 20 15.7372 19.9 15.9156 19.7219C16.094 19.5439 16.1943 19.3024 16.1943 19.0506V15.7279L20 19.5253V9.08244L16.1943 12.8798ZM11.4371 2.91164C11.9418 2.91164 12.4258 3.11168 12.7826 3.46775C13.1395 3.82383 13.34 4.30678 13.34 4.81034C13.34 5.31391 13.1395 5.79686 12.7826 6.15293C12.4258 6.50901 11.9418 6.70905 11.4371 6.70905C10.9324 6.70905 10.4484 6.50901 10.0916 6.15293C9.73471 5.79686 9.53423 5.31391 9.53423 4.81034C9.53423 4.30678 9.73471 3.82383 10.0916 3.46775C10.4484 3.11168 10.9324 2.91164 11.4371 2.91164ZM4.77707 4.81034C5.28174 4.81034 5.76574 5.01039 6.1226 5.36646C6.47945 5.72254 6.67993 6.20548 6.67993 6.70905C6.67993 7.21262 6.47945 7.69556 6.1226 8.05164C5.76574 8.40772 5.28174 8.60776 4.77707 8.60776C4.2724 8.60776 3.78839 8.40772 3.43154 8.05164C3.07468 7.69556 2.8742 7.21262 2.8742 6.70905C2.8742 6.20548 3.07468 5.72254 3.43154 5.36646C3.78839 5.01039 4.2724 4.81034 4.77707 4.81034Z" fill="#E4582D"/>
</svg>
