<svg width="16" height="16" viewBox="0 0 16 16" fill="none" xmlns="http://www.w3.org/2000/svg">
<path d="M4.35735 13.2559L2.72878 11.6273C2.4885 11.3871 2.14142 11.4138 1.95454 11.7074L0.11238 14.8311C-0.0745055 15.1248 -0.0211096 15.5519 0.219172 15.7922C0.459453 16.0325 0.886621 16.0592 1.1803 15.899L4.27726 14.0569C4.57094 13.87 4.62433 13.5229 4.35735 13.2559Z" fill="#FCF4E1"/>
<path d="M5.23837 14.1904C4.918 14.5108 4.41074 14.4841 4.09036 14.1637L1.84773 11.9211C1.52736 11.6007 1.52736 11.0934 1.82103 10.773L12.3667 0.227349C12.6871 -0.0930261 13.1944 -0.0663282 13.5147 0.254047L15.7574 2.49668C16.0777 2.81705 16.0777 3.32431 15.7841 3.64469L5.23837 14.1904Z" fill="#FCF4E1"/>
<path d="M2.67065 9.92882L11.5245 1.07498L14.9416 4.49205L6.08746 13.3459L2.67065 9.92882Z" fill="#F5C654"/>
<path d="M9.80212 2.80532L10.6706 1.9371L14.0874 5.35391L13.2192 6.22239L9.80212 2.80532Z" fill="#FCF4E1"/>
<path d="M3.52417 9.06704L4.39265 8.19882L7.80972 11.6159L6.94124 12.4841L3.52417 9.06704Z" fill="#FCF4E1"/>
<path d="M8.81589 7.19544C7.66788 8.34345 5.95921 8.50364 5.02478 7.56921L9.18966 3.40433C10.1241 4.36545 9.9639 6.04742 8.81589 7.19544Z" fill="#FCF4E1"/>
</svg>
