<svg width="30" height="30" viewBox="0 0 30 30" fill="none" xmlns="http://www.w3.org/2000/svg">
<path d="M15.2139 6.68812C17.0064 6.68812 18.4595 6.03165 18.4595 5.22187C18.4595 4.41208 17.0064 3.75562 15.2139 3.75562C13.4214 3.75562 11.9683 4.41208 11.9683 5.22187C11.9683 6.03165 13.4214 6.68812 15.2139 6.68812Z" fill="#5F1A37"/>
<path d="M23.0907 14.0531C22.9313 20.7656 22.0613 24.0919 16.0763 24.51C11.7431 24.8137 8.21252 20.1094 8.21252 14.6794C8.21252 9.24936 12.4425 4.37624 16.6557 5.42811C20.5856 6.41061 23.2425 7.61061 23.0907 14.0531Z" fill="#FFEBF3"/>
<path d="M15.9376 24.7031V24.72C15.9376 24.72 15.6282 24.7406 15.1482 24.735C14.6663 24.7406 14.3588 24.72 14.3588 24.72V24.7031C13.2563 24.63 11.7901 24.4031 10.6895 23.76V24.6113H10.6988C10.697 24.6431 10.6895 24.6731 10.6895 24.7031C10.6895 25.9463 12.6863 26.955 15.1482 26.955C17.5501 26.955 19.502 25.995 19.5976 24.795H19.607V23.76C18.5045 24.4031 17.0401 24.63 15.9376 24.7031Z" fill="#D89CB5"/>
<path d="M20.79 22.29C19.8694 22.6631 18.6525 22.7925 18.0357 22.5637C17.8669 22.5019 17.7375 22.4062 17.67 22.275C17.5463 22.0331 17.6738 21.75 17.9288 21.5925C18.3338 21.345 20.6175 21.3956 22.1082 19.8675C22.4869 19.4794 22.7719 19.0219 22.4813 18.51C22.4382 18.4331 22.3688 18.3975 22.2919 18.3844C21.9113 18.57 21.1763 18.9825 20.5969 19.1887C19.6594 19.5206 18.6525 19.5056 18.0357 19.2787C17.8669 19.2169 17.7375 19.1212 17.67 18.99C17.5463 18.7481 17.6738 18.465 17.9288 18.3075C18.3338 18.06 20.9757 17.9081 22.4663 16.38C22.845 15.9919 23.13 15.5344 22.8394 15.0225C22.7963 14.9456 22.7288 14.91 22.65 14.8969C22.2694 15.0844 21.5344 15.495 20.955 15.7012C20.0175 16.0331 18.6525 16.2206 18.0357 15.9937C17.8669 15.9319 17.7375 15.8362 17.67 15.705C17.5463 15.4631 17.6738 15.18 17.9288 15.0225C18.3338 14.775 20.9757 14.6231 22.4663 13.095C22.845 12.7069 23.13 12.2494 22.8394 11.7375C22.6613 11.4225 22.0932 11.7825 22.0932 11.7825C21.765 12.0094 21.3507 12.2756 20.955 12.4162C20.0175 12.7481 18.6525 12.9356 18.0357 12.7087C17.8669 12.6469 17.7375 12.5512 17.67 12.42C17.5463 12.1781 17.6738 11.895 17.9288 11.7375C18.3338 11.49 19.3519 11.6044 20.8313 10.8075C21.6919 10.3444 22.1475 9.70124 22.2994 9.03937C22.065 8.56874 21.7969 8.15249 21.4913 7.79624C21.0282 7.25812 20.3963 6.73687 19.6069 6.30562V7.07999H19.5975C19.5019 8.28187 17.55 9.23999 15.1482 9.23999C12.6863 9.23999 10.6894 8.23124 10.6894 6.98812C10.6894 6.95812 10.6969 6.92812 10.6988 6.89624H10.6894V6.30374C9.90003 6.73312 9.26816 7.25437 8.80691 7.79437C7.42316 9.40499 6.74628 12.2081 6.93378 16.2544C7.10441 19.9725 8.53691 22.4812 10.6613 23.7431C11.7657 24.3994 13.2469 24.6281 14.3607 24.7012V24.7181C14.3607 24.7181 14.6682 24.7387 15.15 24.7331C15.6319 24.7387 15.9394 24.7181 15.9394 24.7181V24.7012C17.0532 24.6281 18.5344 24.4012 19.6388 23.7431C20.3569 23.3156 21.1782 22.6387 21.6844 21.8062C21.5138 21.9525 21.2363 22.11 20.79 22.29Z" fill="#B05D80"/>
<ellipse cx="15" cy="5.39999" rx="3.2" ry="1.6" fill="#5F1A37"/>
<path d="M15.1482 3.04498C12.6863 3.04498 10.6895 4.05373 10.6895 5.29686V6.89623H10.6988C10.697 6.92811 10.6895 6.95623 10.6895 6.98811C10.6895 8.23123 12.6863 9.23998 15.1482 9.23998C17.5482 9.23998 19.502 8.27998 19.5976 7.07998H19.607V5.29873C19.607 4.05373 17.6101 3.04498 15.1482 3.04498ZM15.1482 6.51561C13.5488 6.51561 12.2532 5.92311 12.2532 5.18998C12.2532 4.45873 13.5507 3.86436 15.1482 3.86436C16.7457 3.86436 18.0432 4.45873 18.0432 5.18998C18.0432 5.92311 16.7476 6.51561 15.1482 6.51561Z" fill="#D89CB5"/>
</svg>
