<svg width="24" height="24" viewBox="0 0 24 24" fill="none" xmlns="http://www.w3.org/2000/svg">
<rect x="6.91528" width="11.3898" height="11.3898" rx="2.0339" fill="#849324"/>
<path d="M13.4464 6.91941H12.1024L11.9031 7.52877H10.5762L12.0512 3.49677H13.5091L14.9783 7.52877H13.6457L13.4464 6.91941ZM13.1389 5.96836L12.7744 4.84646L12.4099 5.96836H13.1389Z" fill="white"/>
<rect y="12.6102" width="11.3898" height="11.3898" rx="2.0339" fill="white"/>
<path d="M6.64519 18.0717C6.88817 18.1286 7.07611 18.2463 7.20899 18.4248C7.34567 18.5994 7.414 18.8025 7.414 19.0341C7.414 19.3872 7.29631 19.6606 7.06092 19.8542C6.82933 20.044 6.49522 20.1389 6.05861 20.1389H3.9458V16.1069H6.00167C6.4117 16.1069 6.73441 16.1962 6.9698 16.3746C7.20519 16.553 7.32289 16.8131 7.32289 17.1548C7.32289 17.3902 7.26024 17.5895 7.13495 17.7528C7.01346 17.9122 6.85021 18.0185 6.64519 18.0717ZM5.21007 17.6787H5.69983C5.81373 17.6787 5.89726 17.656 5.95041 17.6104C6.00736 17.5648 6.03584 17.4946 6.03584 17.3997C6.03584 17.301 6.00736 17.2288 5.95041 17.1833C5.89726 17.1339 5.81373 17.1092 5.69983 17.1092H5.21007V17.6787ZM5.78526 19.1252C5.89916 19.1252 5.98268 19.1044 6.03584 19.0626C6.09278 19.017 6.12126 18.9449 6.12126 18.8462C6.12126 18.6526 6.00926 18.5557 5.78526 18.5557H5.21007V19.1252H5.78526Z" fill="#7D7777"/>
<rect x="12.6101" y="12.6102" width="11.3898" height="11.3898" rx="2.0339" fill="#FCF4E1"/>
<path d="M16.4419 18.1172C16.4419 17.7186 16.5216 17.3636 16.6811 17.0523C16.8443 16.7409 17.0759 16.4999 17.3759 16.329C17.6758 16.1544 18.0289 16.067 18.4351 16.067C18.7844 16.067 19.0957 16.1335 19.3691 16.2664C19.6462 16.3955 19.8702 16.5796 20.0411 16.8188C20.2157 17.058 20.3315 17.337 20.3885 17.6559H19.0559C18.9951 17.523 18.9078 17.4205 18.7939 17.3484C18.6838 17.2725 18.5566 17.2345 18.4123 17.2345C18.1997 17.2345 18.0308 17.3142 17.9055 17.4737C17.784 17.6331 17.7233 17.8477 17.7233 18.1172C17.7233 18.3868 17.784 18.6013 17.9055 18.7607C18.0308 18.9202 18.1997 18.9999 18.4123 18.9999C18.5566 18.9999 18.6838 18.9639 18.7939 18.8917C18.9078 18.8158 18.9951 18.7114 19.0559 18.5785H20.3885C20.3315 18.8974 20.2157 19.1765 20.0411 19.4157C19.8702 19.6548 19.6462 19.8409 19.3691 19.9738C19.0957 20.1028 18.7844 20.1674 18.4351 20.1674C18.0289 20.1674 17.6758 20.082 17.3759 19.9111C17.0759 19.7365 16.8443 19.4935 16.6811 19.1822C16.5216 18.8708 16.4419 18.5159 16.4419 18.1172Z" fill="#E4582D"/>
</svg>
