<svg width="101" height="100" viewBox="0 0 101 100" fill="none" xmlns="http://www.w3.org/2000/svg">
<path d="M0.709961 0.200012H99.76V99.26H0.709961V0.200012Z" fill="#231F20"/>
<path d="M0.689941 99.19H8.84995V83.62C8.84995 77.62 10.75 75.12 15.17 75.12C18.96 75.12 20.3999 77.53 20.3999 82.42V99.19H28.5599V80.92C28.5599 73.57 26.37 68.68 17.7 68.68C15.9545 68.7127 14.2451 69.1831 12.7286 70.0479C11.2121 70.9127 9.93687 72.1444 9.01993 73.63H8.84995V40.33H0.689941V99.19Z" fill="white"/>
<path d="M28.44 85.86H36.6V68.62C36.6 62.82 40.51 61.78 42.12 61.78C47.29 61.78 47.06 65.78 47.06 69.2V85.86H55.22V69.31C55.22 65.58 56.08 61.78 60.67 61.78C65.26 61.78 65.67 65.06 65.67 69.03V85.86H73.84V66C73.84 58.3 69.29 55.37 62.98 55.37C61.1881 55.3838 59.4277 55.8423 57.8568 56.7046C56.2859 57.5668 54.9538 58.8057 53.98 60.31C52.37 56.75 49.04 55.37 45.31 55.37C43.5127 55.3476 41.7386 55.7784 40.1517 56.6225C38.5647 57.4667 37.216 58.697 36.23 60.2H36.11V56.2H28.41V85.9L28.44 85.86Z" fill="white"/>
<path d="M72.79 62.6C73.13 70.47 79.85 73.06 86.79 73.06C93.73 73.06 100.34 70.53 100.34 62.71C100.34 57.2 95.69 55.47 90.92 54.38C86.15 53.29 81.67 52.89 81.67 49.96C81.67 47.55 84.37 47.2 86.21 47.2C89.14 47.2 91.55 48.06 91.79 51.2H99.54C98.91 43.91 92.93 41.72 86.44 41.72C79.95 41.72 73.51 43.72 73.51 51.26C73.51 56.49 78.23 58.15 82.94 59.19C88.8 60.45 92.19 61.32 92.19 63.78C92.19 66.66 89.19 67.58 86.84 67.58C83.62 67.58 80.64 66.14 80.58 62.58L72.79 62.6Z" fill="white"/>
</svg>
