<svg width="22" height="24" viewBox="0 0 22 24" fill="none" xmlns="http://www.w3.org/2000/svg">
<path d="M5.48006 2.62404L12.9943 0.83493L18.7195 2.86259L21.1049 9.54192L17.7653 15.3863L5.95715 12.8816L3.33313 6.79862L5.48006 2.62404Z" fill="#A8CCF9"/>
<path d="M17.795 17.3641C18.5953 14.252 22.7745 12.7108 21.4406 6.36783C20.1069 0.0252564 12.6219 -0.621363 8.7555 0.380897C4.74775 1.41986 1.56425 5.67747 2.62118 9.2391C2.7029 9.51435 2.65443 9.80888 2.49879 10.0498C2.00998 10.8055 0.697815 12.4544 0.343458 13.4216C0.215679 13.7704 0.415147 14.1537 0.774339 14.2492C0.886889 14.2791 1.57833 14.5519 1.66824 14.5803C2.59053 14.874 2.41261 16.9145 2.41261 18.7865C2.41261 20.7427 4.48736 20.4758 5.16916 20.3278C5.85077 20.1794 7.3921 20.0418 7.3921 21.8986C7.3921 22.1466 7.39953 22.3464 7.41068 22.5071C7.43649 22.8778 7.67719 23.1985 8.02392 23.3322C9.39437 23.8599 13.3633 24.6836 18.1582 22.9692C18.4396 22.8685 18.5689 22.5424 18.435 22.2755C17.9824 21.3758 17.2003 19.679 17.7953 17.364L17.795 17.3641ZM16.2569 14.4432C15.1843 15.0015 14.3532 14.3543 13.9349 13.8892C13.6987 13.9936 13.4381 14.0527 13.1633 14.0527C12.7149 14.0527 12.3035 13.8972 11.9774 13.6387C11.9657 13.6781 10.5191 14.0107 10.2665 13.0032C10.2898 13.0037 10.312 13.0061 10.3354 13.0061C10.3596 13.0061 10.3845 13.0059 10.409 13.005C11.3048 12.9794 12.1663 12.4941 12.9701 11.5621C13.1052 11.4057 13.0875 11.1697 12.9313 11.0348C12.7749 10.8998 12.5389 10.9174 12.404 11.0736C11.7462 11.8362 11.0709 12.2344 10.3967 12.2571C10.1971 12.2638 10.0119 12.2352 9.84509 12.1889C9.79829 12.1741 9.75297 12.1613 9.7045 12.1445C9.65491 12.1275 9.61052 12.1076 9.56465 12.0886C9.19543 11.9258 8.96847 11.7036 8.9631 11.6983C8.95382 11.6886 8.94304 11.6815 8.93301 11.673C8.43269 11.1529 8.44624 10.4411 8.53371 9.96601C6.74557 10.1646 5.90254 9.50542 5.50473 8.86391C5.66389 8.84385 5.82547 8.80819 5.98503 8.74653C6.46904 8.55821 6.83229 8.19139 7.06408 7.6565C7.14617 7.46725 7.05925 7.24698 6.87 7.16507C6.68018 7.08298 6.46047 7.1699 6.37856 7.35915C6.22738 7.70794 6.0112 7.93341 5.7174 8.04856C5.45274 8.15275 5.1634 8.15182 4.91839 8.11691C4.34357 7.83312 3.94704 7.24326 3.94704 6.55884C3.94704 5.64896 4.64539 4.9035 5.53496 4.82638C5.43839 4.65793 5.39456 4.45474 5.43059 4.23929C5.49262 3.86765 5.79888 3.56956 6.17182 3.51702C6.20247 3.51275 6.23181 3.51387 6.2619 3.51257C6.37816 3.86563 6.6157 4.34998 7.07502 4.54221C7.20521 4.59681 7.34023 4.62374 7.47971 4.62374C7.77075 4.62374 8.08202 4.50599 8.40947 4.27086C8.57717 4.15052 8.61562 3.91706 8.49527 3.74953C8.37492 3.58144 8.14165 3.543 7.97374 3.66372C7.79526 3.7915 7.54509 3.92764 7.36459 3.85298C7.16141 3.76866 7.01896 3.44531 6.9469 3.19533C7.20654 2.73492 7.69869 2.42347 8.26519 2.42347C8.57405 2.42347 8.86098 2.51634 9.10037 2.67513C9.31303 2.09603 9.868 1.68224 10.5208 1.68224C10.8787 1.68224 11.2069 1.80705 11.466 2.0145C11.7392 1.61947 12.1953 1.35999 12.712 1.35999C13.2198 1.35999 13.6681 1.61072 13.943 1.99425C14.1359 1.87873 14.3612 1.81112 14.6027 1.81112C15.1565 1.81112 15.6275 2.16103 15.8099 2.65135C15.9826 2.54158 16.1875 2.47695 16.4074 2.47695C17.0244 2.47695 17.5245 2.97694 17.5245 3.59408C17.5245 3.61785 17.5224 3.64088 17.521 3.66428C17.6708 3.59686 17.8445 3.57291 18.0271 3.61414C18.3192 3.68025 18.5551 3.91576 18.621 4.20789C18.6622 4.39027 18.6388 4.56355 18.5718 4.71325C18.588 4.7125 18.6037 4.71083 18.6203 4.71083C19.1661 4.71083 19.6087 5.15341 19.6087 5.69926C19.6087 5.88368 19.5546 6.05436 19.4664 6.20219C18.8396 6.1084 18.0665 6.26738 17.4599 7.1308C17.3414 7.29981 17.3819 7.5329 17.5509 7.65138C17.6161 7.69725 17.6913 7.71935 17.7652 7.71935C17.8829 7.71935 17.9987 7.66401 18.0715 7.56037C18.8138 6.50344 19.7965 7.06913 19.9075 7.13803C19.915 7.14286 19.9229 7.14546 19.9304 7.14955C20.2032 7.61256 20.3603 8.15209 20.3603 8.7282C20.3603 9.67521 19.9372 10.523 19.2703 11.0942C19.3409 11.335 19.3533 11.6012 19.2777 11.8789C19.1414 12.3788 18.7354 12.7729 18.2321 12.897C17.9381 12.9694 17.6591 12.9436 17.4093 12.8552C17.3282 13.4384 17.0182 14.047 16.2569 14.4431L16.2569 14.4432Z" fill="#206DCD"/>
<path d="M10.4873 6.19666C9.88313 6.85322 9.68401 7.85724 9.99177 8.69523C10.0471 8.84641 10.1903 8.9402 10.3424 8.9402C10.3853 8.9402 10.4286 8.93277 10.4713 8.91735C10.6652 8.84603 10.7644 8.63134 10.6931 8.43762C10.4793 7.85614 10.6177 7.15907 11.037 6.70297C11.1769 6.55086 11.167 6.3148 11.0151 6.17497C10.8632 6.03512 10.6268 6.04496 10.4873 6.1967L10.4873 6.19666Z" fill="#094287"/>
<path d="M17.5292 4.9234C17.0495 4.05217 16.2765 3.8057 15.5644 3.82486C15.5087 3.56688 15.3997 3.19174 15.1943 2.86187C15.0855 2.68673 14.8548 2.63287 14.6797 2.74208C14.5045 2.85129 14.451 3.08158 14.5599 3.25671C14.698 3.47902 14.7787 3.74125 14.8234 3.93533C14.6171 3.99142 14.4315 4.06237 14.2811 4.13591C14.0958 4.22673 14.0189 4.45072 14.1097 4.6359C14.2001 4.82125 14.4239 4.89814 14.6097 4.80733C14.6738 4.77557 16.1945 4.04955 16.8744 5.28426C16.9426 5.40776 17.0702 5.47778 17.2022 5.47778C17.2631 5.47778 17.325 5.46292 17.3822 5.43154C17.5631 5.33143 17.6288 5.1041 17.5293 4.92337L17.5292 4.9234Z" fill="#094287"/>
<path d="M14.1345 8.9386C14.3211 9.65236 14.8235 10.0929 15.5131 10.1471C15.5231 10.1479 15.5331 10.1482 15.543 10.1482C15.736 10.1482 15.8998 9.99965 15.9152 9.8039C15.9313 9.59811 15.7777 9.41815 15.572 9.4018C15.3485 9.38416 15.1795 9.30337 15.0543 9.15479C14.8355 8.89422 14.8073 8.49158 14.8101 8.38736C14.824 8.32607 14.8225 8.26107 14.804 8.1981C14.7574 8.04135 14.6138 7.93289 14.4504 7.93085C13.162 7.91543 12.9269 6.69409 12.917 6.64008C12.8819 6.43764 12.6899 6.30113 12.4865 6.33549C12.2831 6.36985 12.1457 6.56263 12.1802 6.76638C12.2811 7.36497 12.8054 8.45629 14.0745 8.64908C14.0871 8.73767 14.107 8.83425 14.1344 8.93863L14.1345 8.9386Z" fill="#094287"/>
<path d="M11.5413 2.54579C11.3456 2.61098 11.2397 2.8227 11.3049 3.01846C11.4509 3.4564 11.4375 3.80201 11.2633 4.07506C10.9162 4.62017 10.0347 4.7301 10.0173 4.73214C9.81262 4.75499 9.66497 4.9396 9.68744 5.14427C9.70843 5.33575 9.87038 5.47727 10.0583 5.47727C10.0719 5.47727 10.0858 5.47653 10.0996 5.47523C10.1505 5.46966 11.3474 5.32925 11.8915 4.48048C12.1921 4.01134 12.2334 3.43985 12.0142 2.78201C11.9488 2.58644 11.7379 2.48039 11.5414 2.54577L11.5413 2.54579Z" fill="#094287"/>
<path d="M16.2835 12.8716C15.762 13.0961 15.3298 13.1309 14.9991 12.9743C14.5607 12.7666 14.4101 12.2706 14.4057 12.2554C14.3509 12.0572 14.146 11.9415 13.9477 11.9948C13.7486 12.049 13.6308 12.2544 13.6851 12.4535C13.6942 12.4871 13.918 13.283 14.6687 13.645C14.9094 13.761 15.1716 13.8192 15.4542 13.8192C15.8 13.8192 16.1759 13.7321 16.5793 13.5586C16.7689 13.4769 16.8562 13.257 16.7747 13.0674C16.6927 12.8774 16.4729 12.7897 16.2836 12.8716L16.2835 12.8716Z" fill="#094287"/>
</svg>
