<svg width="19" height="20" viewBox="0 0 19 20" fill="none" xmlns="http://www.w3.org/2000/svg">
<path fill-rule="evenodd" clip-rule="evenodd" d="M1.85369 9.63306e-05C1.511 -0.00341965 1.17421 0.0893761 0.881689 0.267914C0.676044 0.392773 0.497278 0.557275 0.355789 0.751853C0.2143 0.94643 0.112913 1.1672 0.0575248 1.40132C0.00869367 1.66761 -0.0083278 1.93875 0.00681803 2.20906C0.00681803 3.07295 0.00729386 3.93724 0.00776983 4.8018C0.00872157 6.53052 0.00967388 8.26029 0.00682389 9.99007H0.00660678C0.00224229 10.1095 0.00228642 10.2291 0.00233049 10.3487C0.00236575 10.4443 0.00240097 10.5398 0.00017911 10.635V18.1096C-0.00221501 18.2893 0.0194015 18.4684 0.0644553 18.6424C0.154258 18.9743 0.335961 19.2742 0.588653 19.5074C0.841345 19.7406 1.15476 19.8978 1.49282 19.9607C1.81719 19.9962 2.14375 20.0077 2.46982 19.995H15.9264C16.1602 20.0024 16.3942 19.9945 16.627 19.9715C17.062 19.907 17.4587 19.6867 17.7433 19.3516C18.0234 19.0223 18.1782 18.6047 18.1804 18.1724V13.6781C18.1804 13.2681 18.1812 12.8582 18.1821 12.4482C18.1839 11.6289 18.1856 10.8097 18.1804 9.99077H18.1806V2.00909C18.19 1.80252 18.1727 1.59561 18.1292 1.39346C18.0354 1.00254 17.8147 0.653729 17.5016 0.401608C17.1885 0.149487 16.8006 0.00828433 16.3987 9.63306e-05H1.85369ZM16.9038 10.0059C16.9025 10.0061 16.9013 10.0063 16.9 10.0065C16.762 9.99618 16.6235 9.99356 16.4851 9.99862C16.4073 10.0004 16.3286 9.99962 16.2495 9.99879C16.1107 9.99735 15.9706 9.99589 15.8323 10.0086C15.827 10.0079 15.8217 10.0072 15.8164 10.0065C15.7467 10.0215 15.6815 10.0528 15.6259 10.0978C15.5667 10.1458 15.5204 10.208 15.4915 10.2786C15.4605 10.3722 15.4495 10.4712 15.4593 10.5693V11.2935C15.4552 11.3603 15.4649 11.4272 15.488 11.4901C15.511 11.5529 15.5469 11.6103 15.5933 11.6586C15.6397 11.7069 15.6956 11.745 15.7575 11.7705C15.8194 11.7961 15.8859 11.8085 15.9528 11.8069H16.7813C16.9079 11.8074 17.0298 11.7587 17.1212 11.671C17.2126 11.5833 17.2664 11.4636 17.2712 11.337V10.6343C17.2877 10.4901 17.2629 10.3443 17.1998 10.2136C17.1668 10.1602 17.1231 10.114 17.0715 10.0782C17.021 10.0431 16.964 10.0185 16.9038 10.0059ZM11.7493 9.98304L11.8144 9.94078L7.27718 7.21761V9.99505C7.27663 9.99505 7.27609 9.99505 7.27554 9.99505V12.659C8.76437 11.7681 10.2525 10.8759 11.7399 9.98222C11.743 9.9825 11.7462 9.98278 11.7493 9.98304ZM2.36772 10.0084C2.36373 10.009 2.35974 10.0095 2.35576 10.0101C2.24224 9.99292 2.12751 9.99505 2.01248 9.9972C1.97409 9.99791 1.93567 9.99862 1.89725 9.99862C1.82705 10.0001 1.75668 9.99928 1.68628 9.99845C1.55329 9.99689 1.42021 9.99533 1.28806 10.0093C1.28471 10.0088 1.28136 10.0083 1.278 10.0079C1.16279 10.0335 1.06168 10.1025 0.995747 10.2008C0.932082 10.3131 0.904411 10.4422 0.916473 10.5707V11.317C0.916191 11.3815 0.928632 11.4454 0.953082 11.505C0.977532 11.5646 1.01351 11.6189 1.05896 11.6646C1.1044 11.7103 1.15842 11.7466 1.21792 11.7714C1.27742 11.7962 1.34123 11.809 1.40569 11.8091H2.25699C2.37034 11.8068 2.4793 11.7649 2.565 11.6907C2.65069 11.6164 2.70773 11.5146 2.72621 11.4027C2.73002 11.1895 2.72874 10.9744 2.72747 10.7608C2.72684 10.6546 2.72621 10.5487 2.72621 10.4436C2.72468 10.3387 2.68671 10.2377 2.61882 10.1578C2.55392 10.0815 2.46554 10.029 2.36772 10.0084ZM1.01919 1.9876C1.08234 1.90933 1.16958 1.85412 1.26735 1.83054C1.32008 1.82071 1.3737 1.8164 1.42732 1.81769H2.23863C2.32727 1.8135 2.41545 1.83271 2.49431 1.87339C2.567 1.91413 2.62726 1.97386 2.66864 2.04619C2.71003 2.11852 2.73099 2.20073 2.72927 2.28405C2.72927 2.38543 2.72967 2.4869 2.73007 2.58839C2.73086 2.79146 2.73166 2.99463 2.72927 3.19748C2.72417 3.31003 2.67755 3.4167 2.59841 3.49689C2.51928 3.57708 2.41324 3.62511 2.30077 3.63171H1.3659C1.25103 3.62976 1.14112 3.58456 1.05811 3.50513C0.975101 3.42569 0.925108 3.31787 0.918113 3.2032V2.26333C0.920503 2.1628 0.956036 2.06586 1.01919 1.9876ZM15.5526 1.99057C15.6137 1.91234 15.6986 1.85616 15.7945 1.83054V1.8334C15.8941 1.81695 15.9951 1.8112 16.0959 1.81626C16.1777 1.81626 16.2602 1.81555 16.3429 1.81484C16.509 1.81341 16.6762 1.81197 16.8422 1.81626C16.9555 1.82405 17.0617 1.87384 17.1402 1.95588C17.2186 2.03791 17.2637 2.14628 17.2664 2.25976C17.2664 2.36403 17.2669 2.4683 17.2674 2.57258C17.2683 2.78112 17.2693 2.98966 17.2664 3.1982C17.2605 3.31363 17.2109 3.42251 17.1278 3.50284C17.0447 3.58317 16.9342 3.62897 16.8186 3.63099C16.7148 3.63099 16.611 3.63139 16.5072 3.63178C16.2997 3.63258 16.0921 3.63337 15.8845 3.63099C15.772 3.6244 15.666 3.57637 15.5868 3.49618C15.5077 3.41598 15.4611 3.30932 15.456 3.19677V2.26405C15.4576 2.16481 15.4915 2.0688 15.5526 1.99057ZM1.07139 4.65874C1.12772 4.60889 1.19554 4.57378 1.26878 4.55657C1.37236 4.54197 1.47708 4.53695 1.58159 4.54157C1.66232 4.54157 1.74304 4.54094 1.82375 4.5403C1.98507 4.53903 2.14629 4.53776 2.30719 4.54157C2.42157 4.54837 2.52918 4.59801 2.60859 4.6806C2.68801 4.76319 2.73339 4.87267 2.7357 4.98722V5.90066C2.73542 5.98618 2.71118 6.06992 2.66574 6.14237C2.6203 6.21483 2.55547 6.2731 2.4786 6.3106C2.38979 6.34897 2.29291 6.36491 2.1965 6.35702C2.10201 6.35702 2.00769 6.35765 1.91334 6.35829C1.72455 6.35956 1.53567 6.36083 1.34519 6.35702C1.2336 6.3507 1.12824 6.30353 1.0492 6.2245C0.970171 6.14546 0.922998 6.0401 0.916684 5.92851V5.11792C0.909683 5.02501 0.919605 4.9316 0.945966 4.84224C0.971959 4.77165 1.01505 4.7086 1.07139 4.65874ZM15.6041 4.66148C15.658 4.61174 15.723 4.57575 15.7938 4.55657L15.7931 4.56014C15.8941 4.54356 15.9966 4.53829 16.0987 4.54443C16.1812 4.54443 16.264 4.54372 16.3469 4.543C16.5132 4.54157 16.6802 4.54014 16.8465 4.54443C16.9598 4.55225 17.0661 4.60216 17.1444 4.68436C17.2228 4.76656 17.2676 4.8751 17.27 4.98865V5.90566C17.2694 5.98741 17.2469 6.0675 17.2048 6.13759C17.1627 6.20769 17.1026 6.26521 17.0307 6.30417C16.9469 6.34657 16.8532 6.3658 16.7594 6.35987C16.6627 6.35987 16.566 6.36035 16.4694 6.36083C16.2761 6.36178 16.0828 6.36273 15.8895 6.35987C15.7761 6.35467 15.6688 6.30734 15.5885 6.22716C15.5082 6.14698 15.4607 6.03972 15.4553 5.92637V5.11863C15.4481 5.02548 15.458 4.93181 15.4845 4.84224C15.5093 4.77323 15.5503 4.71122 15.6041 4.66148ZM1.01861 7.44199C1.08207 7.36342 1.1698 7.30811 1.26806 7.28474C1.36128 7.27196 1.45548 7.26789 1.54945 7.2726C1.63132 7.2726 1.71374 7.27205 1.79642 7.27149C1.96258 7.27038 2.12981 7.26926 2.29577 7.2726C2.41102 7.27855 2.51971 7.32801 2.59991 7.41099C2.68011 7.49397 2.72583 7.60429 2.72785 7.71967V8.65311C2.72245 8.76646 2.67495 8.87373 2.59464 8.95391C2.51433 9.03408 2.40699 9.08141 2.29362 9.08662H1.36519C1.25026 9.08484 1.14026 9.03969 1.05721 8.96023C0.974172 8.88076 0.924231 8.77284 0.917398 8.65811C0.915018 8.44954 0.915812 8.24066 0.916605 8.03188C0.917002 7.92753 0.917398 7.8232 0.917398 7.71896C0.919557 7.61798 0.955154 7.52057 1.01861 7.44199ZM15.6032 7.39238C15.6566 7.34342 15.721 7.30798 15.7909 7.28902L15.7916 7.28474C15.8935 7.26955 15.9968 7.26595 16.0995 7.27403C16.1816 7.27403 16.2642 7.27324 16.3469 7.27245C16.5131 7.27086 16.6801 7.26926 16.8465 7.27403C16.9597 7.28202 17.0658 7.33201 17.144 7.41419C17.2222 7.49637 17.2669 7.60482 17.2693 7.71825C17.2693 7.82223 17.2698 7.92628 17.2702 8.0304C17.2712 8.23878 17.2721 8.44737 17.2693 8.65597C17.2631 8.7714 17.2134 8.8802 17.1302 8.9604C17.0469 9.0406 16.9364 9.08622 16.8208 9.08805C16.7169 9.08805 16.6132 9.08844 16.5094 9.08884C16.3022 9.08963 16.0951 9.09042 15.8881 9.08805C15.7747 9.08265 15.6674 9.03515 15.5873 8.95484C15.5071 8.87453 15.4598 8.76719 15.4545 8.65382V7.84608C15.4473 7.75317 15.4572 7.65972 15.4838 7.57041C15.5088 7.50238 15.5497 7.44133 15.6032 7.39238ZM1.01289 12.9018C1.08018 12.813 1.17876 12.7533 1.28856 12.7347C1.33426 12.7263 1.38065 12.7222 1.42711 12.7225H2.23842C2.36546 12.7181 2.48954 12.7614 2.58623 12.8439C2.63153 12.8855 2.66765 12.936 2.69225 12.9924C2.71685 13.0487 2.72939 13.1096 2.72906 13.171V14.0216C2.73593 14.1418 2.6984 14.2603 2.6236 14.3545C2.54881 14.4488 2.44197 14.5123 2.32341 14.533H1.40712C1.28052 14.5333 1.15874 14.4845 1.06737 14.3968C0.976011 14.3092 0.922177 14.1895 0.917187 14.063V13.2332C0.91226 13.1152 0.945853 12.9989 1.01289 12.9018ZM15.5738 12.8758C15.6417 12.8004 15.7334 12.7506 15.8336 12.7347V12.734C15.9298 12.7226 16.0268 12.72 16.1235 12.7261H16.8049C16.8787 12.726 16.9515 12.7431 17.0175 12.7763C17.0835 12.8094 17.1408 12.8575 17.1848 12.9168C17.2581 13.0386 17.289 13.1812 17.2726 13.3224V14.0459C17.2723 14.1611 17.2321 14.2726 17.159 14.3617C17.0858 14.4507 16.9842 14.5117 16.8713 14.5344C16.6675 14.5368 16.4633 14.536 16.2593 14.5352C16.1574 14.5348 16.0554 14.5344 15.9536 14.5344C15.8867 14.5359 15.8203 14.5235 15.7585 14.498C15.6967 14.4725 15.6408 14.4345 15.5945 14.3863C15.5482 14.3381 15.5124 14.2808 15.4894 14.218C15.4663 14.1552 15.4566 14.0884 15.4608 14.0216V13.1489C15.4661 13.0476 15.506 12.9512 15.5738 12.8758ZM1.12854 15.5209C1.17759 15.4903 1.23223 15.4699 1.28928 15.4607C1.33495 15.452 1.38134 15.4477 1.42783 15.4478H2.24271C2.36903 15.4438 2.49231 15.4871 2.58837 15.5693C2.63377 15.6109 2.66993 15.6616 2.69453 15.718C2.71914 15.7745 2.73163 15.8355 2.73121 15.8971V16.7462C2.73828 16.8664 2.70093 16.985 2.62626 17.0794C2.5516 17.1738 2.44483 17.2375 2.32627 17.2583H1.34355C1.22516 17.2412 1.11681 17.1822 1.03818 17.0921C0.959559 17.0019 0.915869 16.8866 0.915045 16.7669V15.9585C0.91071 15.8452 0.941655 15.7334 1.0036 15.6385C1.03702 15.5914 1.0795 15.5514 1.12854 15.5209ZM15.6121 15.5629C15.6742 15.509 15.7502 15.4736 15.8314 15.4607L15.8321 15.46C15.972 15.4429 16.1136 15.4451 16.2549 15.4472C16.338 15.4485 16.421 15.4498 16.5035 15.4471C16.6945 15.4209 16.889 15.4481 17.0655 15.5257C17.1288 15.569 17.1805 15.6271 17.2161 15.6949C17.2517 15.7628 17.2701 15.8383 17.2698 15.9149V16.7462C17.2727 16.8124 17.2622 16.8786 17.2389 16.9406C17.2156 17.0027 17.18 17.0594 17.1342 17.1073C17.0884 17.1553 17.0335 17.1935 16.9726 17.2197C16.9117 17.2459 16.8461 17.2595 16.7799 17.2597H15.9278C15.8149 17.2572 15.7063 17.2153 15.6208 17.1414C15.5353 17.0676 15.4782 16.9662 15.4593 16.8548V16.0013C15.453 15.9222 15.46 15.8425 15.48 15.7657C15.5043 15.6871 15.55 15.6168 15.6121 15.5629Z" fill="white"/>
<path d="M7.27892 7.21332C8.79108 8.12176 10.3035 9.02948 11.8161 9.93649L11.7447 9.98291C10.2559 10.8742 8.76775 11.7665 7.28035 12.6597V9.99148C7.27964 9.06662 7.27749 8.14175 7.27892 7.21332Z" fill="#ECBA41"/>
</svg>
