<svg width="23" height="23" viewBox="0 0 23 23" fill="none" xmlns="http://www.w3.org/2000/svg">
<path d="M11.5192 9.47667L11.04 8.96331C10.0331 7.93595 8.28846 8.11327 7.5489 9.51174C7.10523 10.3558 7.3375 11.3757 8.00877 12.0606L11.1974 15.3139C11.3412 15.4606 11.6075 15.4632 11.7541 15.3192L15.077 12.0793C16.1033 11.0712 15.9262 9.3248 14.5293 8.58448C13.6862 8.14036 12.6673 8.3729 11.9831 9.04489L11.5192 9.47667Z" fill="#E4582D"/>
<path d="M6.81488 2.6952C6.73837 3.1064 6.63638 3.63858 6.53503 4.12223L6.63177 4.12315C6.94649 4.12614 7.23598 4.22575 7.52478 4.39821C7.66907 4.49644 7.7892 4.59461 7.90911 4.71694L12.6538 4.71354C12.6069 4.54339 12.5844 4.37363 12.586 4.20392L12.6065 2.0474C12.6093 1.75668 12.6602 1.4906 12.7352 1.24894L6.2489 1.11475C6.68122 1.48228 6.91783 2.06619 6.81489 2.69517L6.81488 2.6952Z" fill="#8F67F3"/>
<path d="M14.4156 5.28767C15.1356 5.94885 16.8441 7.00702 16.8441 7.00702C17.0846 7.17902 17.4483 7.10962 17.6204 6.84469C17.7679 6.6037 17.6978 6.33645 17.458 6.09197C17.2182 5.84729 16.7139 5.43057 16.7139 5.43057C16.4982 5.21046 16.6452 5.01798 16.8631 5.02005C17.2743 5.04813 17.5162 5.07477 17.9757 5.12749C18.4351 5.18037 20.5372 5.58795 20.5372 5.58795C20.803 5.63899 21.0467 5.47159 21.0976 5.20551C21.1485 4.93943 20.9813 4.69543 20.7155 4.64457L18.1057 4.18399C18.0333 4.15913 17.9853 4.11016 17.986 4.03748L17.9864 3.98897C17.9874 3.89213 18.0607 3.81997 18.1576 3.82089L21.3024 4.04468C21.5685 4.07138 21.8127 3.85565 21.8152 3.58909C21.8177 3.32254 21.6264 3.07832 21.3601 3.07578L18.0703 2.82645C17.9977 2.82576 17.9258 2.75239 17.9265 2.67971C17.9272 2.60703 17.9763 2.53481 18.0733 2.51139L20.9064 2.41713C21.1729 2.39549 21.3928 2.17936 21.3712 1.91258C21.3737 1.64603 21.1337 1.4257 20.8672 1.44732L18.0577 1.59048C17.9851 1.58979 17.9132 1.51642 17.9139 1.44374C17.9146 1.37107 17.9638 1.29885 18.0364 1.29954L20.2173 1.05371C20.4838 1.03207 20.6797 0.791534 20.6579 0.524774C20.6363 0.257999 20.3961 0.0618173 20.1296 0.0836461C20.1296 0.0836461 17.1244 0.442835 16.0097 0.577593C14.9191 0.712594 13.8274 0.968778 13.8171 2.05913L13.7965 4.21566C13.7687 4.60299 14.1039 4.99395 14.4157 5.28766L14.4156 5.28767Z" fill="white"/>
<path d="M20.2833 6.79745C19.8725 6.72086 19.3409 6.61878 18.8575 6.5415C18.8782 6.90512 18.7541 7.24318 18.6062 7.50834C18.5081 7.65277 18.41 7.77304 18.2637 7.89284L18.267 12.6425C18.4369 12.5956 18.6065 12.573 18.776 12.5747L20.9303 12.5951C21.2207 12.5979 21.4865 12.6489 21.7279 12.7239L21.8381 6.23058C21.5199 6.59098 21.0579 6.80479 20.5497 6.79996C20.4767 6.82327 20.38 6.79818 20.2833 6.79726L20.2833 6.79745Z" fill="#8F67F3"/>
<path d="M22.4232 15.9778C22.2884 14.8861 22.0325 13.7933 20.9433 13.7829L18.789 13.7624C18.3775 13.7585 18.0111 14.0943 17.7177 14.4066C17.0572 15.1273 16.0001 16.8377 16.0001 16.8377C15.8283 17.0785 15.8976 17.4426 16.1623 17.6148C16.403 17.7624 16.67 17.6923 16.9142 17.4522C17.1586 17.2122 17.5749 16.7073 17.5749 16.7073C17.7948 16.4914 17.9871 16.6386 17.985 16.8566C17.957 17.2683 17.9303 17.5104 17.8777 17.9704C17.7523 18.4053 17.3449 20.5096 17.3449 20.5096C17.2939 20.7757 17.4611 21.0197 17.7269 21.0706C17.9927 21.1216 18.2365 20.9542 18.2873 20.6881L18.796 18.1001C18.7967 18.0275 18.8698 17.9797 18.9424 17.9803L18.9908 17.9808C19.0876 17.9817 19.1596 18.0551 19.1344 18.1519L18.9108 21.3001C18.8841 21.5664 19.0996 21.8108 19.3659 21.8134C19.6322 21.8159 19.8761 21.6243 19.8787 21.3578L20.1278 18.0645C20.1285 17.9918 20.2018 17.9198 20.2744 17.9205C20.347 17.9212 20.4189 17.9946 20.4425 18.0675L20.5366 20.9036C20.5341 21.1702 20.7741 21.3905 21.0406 21.3689C21.3071 21.3472 21.527 21.1311 21.5054 20.8643L21.4113 18.0282C21.412 17.9555 21.4853 17.8835 21.5579 17.8842C21.6305 17.8849 21.7026 17.9341 21.702 18.0068L21.9475 20.19C21.9691 20.4567 22.2094 20.6529 22.4758 20.6311C22.7423 20.6095 22.9383 20.3689 22.9165 20.1022C22.9165 20.1022 22.5578 17.094 22.4232 15.9779L22.4232 15.9778Z" fill="white"/>
<path d="M2.7165 16.1782C3.12728 16.2548 3.65889 16.3568 4.14202 16.4583C4.12133 16.0947 4.24545 15.7566 4.39359 15.4671C4.49172 15.3227 4.58979 15.2024 4.73614 15.0826L4.73284 10.3329C4.56286 10.3798 4.39329 10.4024 4.22376 10.4008L2.06951 10.3803C1.7791 10.3775 1.5133 10.3265 1.2719 10.2515L1.13771 16.7446C1.45589 16.3842 1.91812 16.1462 2.42634 16.1511C2.49894 16.1518 2.61977 16.1771 2.71652 16.178L2.7165 16.1782Z" fill="#8F67F3"/>
<path d="M4.23522 9.21358C4.64668 9.21749 5.01309 8.88173 5.3065 8.56944C5.96699 7.84869 7.02408 6.1383 7.02408 6.1383C7.1959 5.89754 7.12659 5.53345 6.86194 5.36122C6.6212 5.21356 6.35424 5.28371 6.11001 5.52378C5.86559 5.76386 5.44929 6.26867 5.44929 6.26867C5.22941 6.48464 5.03714 6.33744 5.03921 6.1194C5.06727 5.70773 5.09389 5.46559 5.14655 5.00563C5.19939 4.54566 5.60658 2.44137 5.60658 2.44137C5.65757 2.17528 5.49036 1.93129 5.22456 1.88042C4.95876 1.82938 4.71502 1.99678 4.6642 2.26286L4.20389 4.87563C4.2032 4.9483 4.13013 4.99612 4.05753 4.99543L4.00907 4.99497C3.91233 4.99405 3.84025 4.92068 3.86548 4.82389L4.0891 1.67571C4.11578 1.4094 3.90028 1.16494 3.634 1.16241C3.36773 1.15988 3.12376 1.35144 3.12123 1.618L2.87209 4.91129C2.8714 4.98397 2.7981 5.05596 2.7255 5.05527C2.6529 5.05458 2.58076 5.00538 2.55737 4.9083L2.46326 2.07217C2.4658 1.80562 2.22575 1.58529 1.95925 1.60691C1.69299 1.60438 1.47289 1.84468 1.49447 2.11146L1.58858 4.9476C1.58788 5.02028 1.51459 5.09227 1.44199 5.09158C1.36939 5.09088 1.29725 5.04169 1.29817 4.94484L1.05264 2.76163C1.03103 2.49486 0.790753 2.29868 0.524275 2.32051C0.257782 2.34214 0.0618021 2.58268 0.0836024 2.84944C0.0836024 2.84944 0.442351 5.85776 0.576944 6.97367C0.711781 8.06538 0.967672 9.15825 2.05688 9.1686C2.90391 9.20083 3.38796 9.20543 4.23518 9.21349L4.23522 9.21358Z" fill="white"/>
<path d="M16.1852 20.2804C16.2617 19.8692 16.3637 19.337 16.4651 18.8534L16.3683 18.8524C16.0536 18.8494 15.7641 18.7498 15.4753 18.5774C15.331 18.4791 15.2109 18.381 15.0912 18.2345L10.3464 18.262C10.3932 18.4322 10.4157 18.602 10.4141 18.7717L10.3936 20.9282C10.3908 21.2189 10.3399 21.485 10.2649 21.7267L16.7512 21.861C16.6311 21.763 16.5352 21.6651 16.4638 21.5432C16.201 21.1771 16.1084 20.7401 16.1854 20.2804L16.1852 20.2804Z" fill="#8F67F3"/>
<path d="M8.58469 17.6879C7.86472 17.0267 6.15616 15.9685 6.15616 15.9685C5.91565 15.7965 5.55195 15.8659 5.3799 16.1309C5.23239 16.3719 5.30246 16.6391 5.54227 16.8836C5.78209 17.1283 6.28636 17.545 6.28636 17.545C6.5021 17.7651 6.35505 17.9576 6.13724 17.9555C5.72601 17.9274 5.48413 17.9008 5.02465 17.8481C4.5898 17.7467 2.48769 17.339 2.48769 17.339C2.22189 17.2879 1.97815 17.4553 1.92733 17.7214C1.87634 17.9875 2.04355 18.2315 2.30935 18.2824L4.89459 18.7916C4.96696 18.8164 5.01496 18.8654 5.01427 18.9381L5.01381 18.9866C5.01289 19.0834 4.93959 19.1556 4.84291 19.1303L1.69806 18.9067C1.43202 18.88 1.18782 19.0957 1.18529 19.3623C1.18275 19.6288 1.37411 19.8731 1.64039 19.8756L4.93019 20.1249C5.0028 20.1256 5.07471 20.199 5.07402 20.2717C5.07333 20.3444 5.02418 20.4166 4.9272 20.44L2.09406 20.5343C1.8278 20.5317 1.6077 20.772 1.62928 21.0388C1.62675 21.3054 1.86679 21.5257 2.1333 21.5041L4.96643 21.4098C5.03904 21.4105 5.11095 21.4839 5.11026 21.5565C5.10957 21.6292 5.06042 21.7014 4.98781 21.7008L2.80692 21.9466C2.54042 21.9682 2.34444 22.2088 2.36624 22.4755C2.38785 22.7423 2.62813 22.9385 2.89461 22.9166C2.89461 22.9166 5.89976 22.5575 7.01448 22.4227C8.10505 22.2877 9.19677 22.0315 9.20713 20.9412L9.22764 18.7846C9.23156 18.3726 8.89638 17.9816 8.5846 17.6879L8.58469 17.6879Z" fill="white"/>
</svg>
