<svg width="20" height="20" viewBox="0 0 20 20" fill="none" xmlns="http://www.w3.org/2000/svg">
<path fill-rule="evenodd" clip-rule="evenodd" d="M13.2069 14.8859C11.8087 15.9794 10.0849 16.5736 8.30994 16.5739C3.89894 16.5739 0.309937 12.9849 0.309937 8.57394C0.309937 4.16294 3.89894 0.573944 8.30994 0.573944C12.7209 0.573944 16.3099 4.16294 16.3099 8.57394C16.3095 10.3494 15.7149 12.0736 14.6209 13.4719L19.0169 17.8679L17.6029 19.2819L13.2069 14.8859ZM14.3099 8.57394C14.3099 5.26494 11.6189 2.57394 8.30994 2.57394C5.00094 2.57394 2.30994 5.26494 2.30994 8.57394C2.30994 11.8829 5.00094 14.5739 8.30994 14.5739C11.6189 14.5739 14.3099 11.8829 14.3099 8.57394ZM10.3098 8.57403C10.3098 8.04203 10.1008 7.54003 9.72176 7.16003C8.96576 6.40603 7.65577 6.40403 6.89577 7.16203L5.48376 5.74603C6.99676 4.23403 9.62177 4.23403 11.1358 5.74603C11.5086 6.11645 11.8043 6.55711 12.0058 7.04251C12.2074 7.52792 12.3106 8.04846 12.3098 8.57403H10.3098Z" fill="white"/>
</svg>
