<svg width="786" height="299" viewBox="0 0 786 299" fill="none" xmlns="http://www.w3.org/2000/svg">
<rect width="786" height="299" rx="8" fill="#E37763"/>
<mask id="mask0_457_15689" style="mask-type:alpha" maskUnits="userSpaceOnUse" x="0" y="0" width="786" height="299">
<rect width="786" height="299" rx="8" fill="#23ACAD"/>
</mask>
<g mask="url(#mask0_457_15689)">
<path opacity="0.2" fill-rule="evenodd" clip-rule="evenodd" d="M597.012 156.5C597.012 264.093 509.791 351.314 402.198 351.314C294.605 351.314 207.384 264.093 207.384 156.5C207.384 48.9071 294.605 -38.3141 402.198 -38.3141C509.791 -38.3141 597.012 48.9071 597.012 156.5ZM599 156.5C599 265.191 510.889 353.302 402.198 353.302C293.507 353.302 205.396 265.191 205.396 156.5C205.396 47.8092 293.507 -40.302 402.198 -40.302C510.889 -40.302 599 47.8092 599 156.5ZM529.424 156.5C529.424 226.765 472.463 283.726 402.198 283.726C331.933 283.726 274.973 226.765 274.973 156.5C274.973 86.2356 331.933 29.2748 402.198 29.2748C472.463 29.2748 529.424 86.2356 529.424 156.5ZM531.411 156.5C531.411 227.863 473.561 285.714 402.198 285.714C330.836 285.714 272.985 227.863 272.985 156.5C272.985 85.1377 330.836 27.2869 402.198 27.2869C473.561 27.2869 531.411 85.1377 531.411 156.5Z" fill="white"/>
<path d="M484.306 252.226C480.733 255.871 477.185 259.498 473.852 264.104V272.7H424.261V264.104C425.103 257.412 429.39 245.353 429.519 242.003C429.69 237.293 436.27 228.697 436.27 228.697L456.44 204.215C456.44 204.215 462.144 198.415 465.417 191.974C468.681 185.534 475.639 193.636 476.558 199.428C477.477 205.228 475.725 208.275 475.725 208.275L464.197 230.324C464.197 230.324 477.554 212.708 481.703 205.626C483.808 202.042 484.392 194.442 485.054 185.958C485.689 177.682 486.394 168.566 488.627 161.476C493.154 147.106 506.254 150.707 508.53 157.122C510.798 163.545 510.283 205.964 509.458 213.028C508.814 218.568 505.352 223.988 501.435 230.091C500.352 231.787 499.236 233.527 498.136 235.345C493.755 242.574 489.005 247.422 484.306 252.226Z" fill="#FDE0D7"/>
<path d="M432.694 316.237C430.458 316.237 428.313 315.307 426.731 313.652C425.15 311.997 424.261 309.752 424.261 307.412V289.762C424.261 287.421 425.15 285.176 426.731 283.521C428.313 281.866 430.458 280.937 432.694 280.937H466.426C468.662 280.937 470.807 281.866 472.389 283.521C473.97 285.176 474.859 287.421 474.859 289.762V307.412C474.859 309.752 473.97 311.997 472.389 313.652C470.807 315.307 468.662 316.237 466.426 316.237H432.694Z" fill="white"/>
<path d="M301.402 252.226C304.984 255.871 308.54 259.498 311.881 264.104V272.7H361.898V264.104C361.056 257.412 359.578 245.353 359.45 242.003C359.269 237.293 352.672 228.697 352.672 228.697L332.444 204.215C332.444 204.215 326.715 198.415 323.434 191.974C320.161 185.534 313.187 193.636 312.259 199.428C311.331 205.228 313.092 208.275 313.092 208.275L324.654 230.324C324.654 230.324 311.254 212.708 307.088 205.626C304.984 202.042 304.391 194.442 303.738 185.958C303.094 177.682 302.39 168.566 300.148 161.476C295.604 147.106 282.454 150.707 280.178 157.122C277.901 163.545 275.333 205.964 276.158 213.028C276.81 218.568 280.281 223.988 284.215 230.091C285.297 231.787 286.422 233.527 287.522 235.345C291.919 242.574 296.686 247.422 301.402 252.226Z" fill="#FAC0AE"/>
<path d="M353.465 316.237C355.701 316.237 357.846 315.307 359.428 313.652C361.009 311.997 361.898 309.752 361.898 307.412V289.762C361.898 287.421 361.009 285.176 359.428 283.521C357.846 281.866 355.701 280.937 353.465 280.937H319.733C317.497 280.937 315.352 281.866 313.77 283.521C312.189 285.176 311.3 287.421 311.3 289.762V307.412C311.3 309.752 312.189 311.997 313.77 313.652C315.352 315.307 317.497 316.237 319.733 316.237H353.465Z" fill="white"/>
<path d="M350.131 132.878C350.131 117.512 359.761 103.258 372.946 103.258C382.099 103.258 388.885 109.653 393.08 118.72C397.269 109.653 404.06 103.258 413.213 103.258C426.398 103.258 436.028 117.512 436.028 132.878C436.028 165.772 393.08 189.156 393.08 189.156C393.08 189.156 350.131 167.185 350.131 132.878Z" fill="white"/>
<circle cx="515.251" cy="49.2509" r="7.25091" fill="#FDE0D7"/>
<path d="M653.254 167.118C648.288 150.272 641.068 119.523 651.92 131.298C665.484 146.016 613.067 133.922 633.494 109.191" stroke="#EDD18D" stroke-width="2.63669" stroke-linecap="round"/>
<path d="M76.3364 236.267C76.2793 235.541 75.6446 234.999 74.9188 235.056C74.1929 235.113 73.6508 235.748 73.7079 236.473L76.3364 236.267ZM109.974 254.368L109.7 253.078L109.974 254.368ZM129.825 256.997C129.504 257.65 129.773 258.44 130.427 258.762C131.08 259.083 131.87 258.814 132.192 258.16L129.825 256.997ZM73.7079 236.473C74.0593 240.942 76.3387 247.213 82.0402 251.639C87.7818 256.095 96.7821 258.519 110.248 255.657L109.7 253.078C96.778 255.824 88.6302 253.416 83.6568 249.556C78.6433 245.664 76.6406 240.134 76.3364 236.267L73.7079 236.473ZM110.248 255.657C118.482 253.908 123.993 252.979 127.6 252.625C129.406 252.448 130.687 252.421 131.57 252.493C132.01 252.529 132.32 252.588 132.532 252.65C132.747 252.714 132.814 252.768 132.811 252.765C132.791 252.749 132.733 252.685 132.706 252.584C132.683 252.501 132.703 252.473 132.687 252.544C132.645 252.726 132.491 253.049 132.15 253.557C131.817 254.055 131.431 254.552 130.994 255.153C130.584 255.716 130.142 256.354 129.825 256.997L132.192 258.16C132.4 257.737 132.724 257.256 133.126 256.704C133.5 256.191 133.97 255.577 134.34 255.026C134.702 254.486 135.099 253.822 135.257 253.136C135.34 252.773 135.373 252.341 135.25 251.891C135.122 251.422 134.852 251.029 134.483 250.726C133.809 250.174 132.842 249.952 131.785 249.865C130.676 249.774 129.218 249.817 127.342 250.001C123.585 250.369 117.958 251.324 109.7 253.078L110.248 255.657Z" fill="#F3E2BA"/>
<circle cx="540.251" cy="246.251" r="5.93256" stroke="white" stroke-width="2.63669"/>
<path d="M182.341 191.705C182.309 190.978 181.693 190.414 180.965 190.446L169.112 190.973C168.385 191.005 167.821 191.621 167.853 192.348C167.886 193.076 168.502 193.639 169.229 193.607L179.765 193.139L180.233 203.675C180.266 204.403 180.882 204.966 181.609 204.934C182.336 204.902 182.9 204.286 182.867 203.558L182.341 191.705ZM181.016 191.772L180.043 190.882L181.016 191.772ZM166.132 201.096L166.24 199.782L166.24 199.782L166.132 201.096ZM168.196 180.36C168.779 179.924 168.899 179.098 168.463 178.515C168.027 177.932 167.2 177.813 166.617 178.249L168.196 180.36ZM180.051 190.873L180.043 190.882L181.989 192.662L181.997 192.653L180.051 190.873ZM180.043 190.882C178.311 192.775 176.146 195.137 173.706 196.973C171.249 198.824 168.715 199.986 166.24 199.782L166.024 202.41C169.458 202.693 172.645 201.073 175.292 199.08C177.957 197.073 180.28 194.53 181.989 192.662L180.043 190.882ZM166.24 199.782C165.431 199.716 164.368 199.158 163.386 198.008C162.424 196.883 161.642 195.299 161.353 193.44C160.789 189.803 162.101 184.916 168.196 180.36L166.617 178.249C159.874 183.289 158.01 189.09 158.748 193.845C159.11 196.182 160.099 198.22 161.381 199.721C162.642 201.197 164.294 202.268 166.024 202.41L166.24 199.782Z" fill="white"/>
<path d="M174.252 82.4087C171.21 67.5966 168.282 40.0001 180.899 48.1106C196.67 58.2488 194.424 48.0713 194.319 45.2767C194.215 42.482 200.148 38.9951 205.533 45.7902" stroke="#EDD18D" stroke-width="2.63669" stroke-linecap="round"/>
</g>
</svg>
