<svg width="786" height="299" viewBox="0 0 786 299" fill="none" xmlns="http://www.w3.org/2000/svg">
<rect width="786" height="299" rx="8" fill="#A8CCF9"/>
<mask id="mask0_367_9354" style="mask-type:alpha" maskUnits="userSpaceOnUse" x="0" y="0" width="786" height="299">
<rect width="786" height="299" rx="8" fill="#1BC9CB"/>
</mask>
<g mask="url(#mask0_367_9354)">
<path opacity="0.2" fill-rule="evenodd" clip-rule="evenodd" d="M587.616 156.5C587.616 264.093 500.395 351.314 392.802 351.314C285.209 351.314 197.988 264.093 197.988 156.5C197.988 48.9071 285.209 -38.3141 392.802 -38.3141C500.395 -38.3141 587.616 48.9071 587.616 156.5ZM589.604 156.5C589.604 265.191 501.493 353.302 392.802 353.302C284.111 353.302 196 265.191 196 156.5C196 47.8092 284.111 -40.302 392.802 -40.302C501.493 -40.302 589.604 47.8092 589.604 156.5ZM520.027 156.5C520.027 226.765 463.067 283.726 392.802 283.726C322.537 283.726 265.576 226.765 265.576 156.5C265.576 86.2356 322.537 29.2748 392.802 29.2748C463.067 29.2748 520.027 86.2356 520.027 156.5ZM522.015 156.5C522.015 227.863 464.165 285.714 392.802 285.714C321.439 285.714 263.589 227.863 263.589 156.5C263.589 85.1377 321.439 27.2869 392.802 27.2869C464.165 27.2869 522.015 85.1377 522.015 156.5Z" fill="white"/>
<path d="M405.843 159.228C405.843 165.259 400.935 170.165 394.903 170.165C388.872 170.165 383.966 165.257 383.966 159.228C383.966 153.196 388.874 148.288 394.903 148.288C400.935 148.288 405.843 153.196 405.843 159.228Z" fill="#FCF4E1"/>
<path d="M352.434 80.5214L408.336 67.2115L450.927 82.2961L468.674 131.986L443.829 175.465L355.984 156.831L336.462 111.578L352.434 80.5214Z" fill="#A8CCF9"/>
<path d="M444.051 190.179C450.005 167.026 481.095 155.561 471.172 108.373C461.25 61.1879 405.566 56.3774 376.802 63.8336C346.987 71.5629 323.304 103.237 331.167 129.733C331.775 131.781 331.414 133.972 330.256 135.764C326.62 141.387 316.858 153.653 314.222 160.849C313.271 163.444 314.755 166.295 317.427 167.005C318.265 167.228 323.409 169.258 324.078 169.469C330.939 171.653 329.615 186.834 329.615 200.76C329.615 215.313 345.05 213.327 350.122 212.226C355.193 211.122 366.66 210.099 366.66 223.913C366.66 225.757 366.715 227.244 366.798 228.439C366.99 231.197 368.78 233.583 371.36 234.578C381.555 238.503 411.081 244.631 446.753 231.876C448.846 231.128 449.808 228.701 448.812 226.716C445.445 220.023 439.626 207.4 444.053 190.178L444.051 190.179ZM432.608 168.449C424.629 172.602 418.446 167.787 415.334 164.327C413.577 165.104 411.638 165.543 409.593 165.543C406.258 165.543 403.198 164.387 400.772 162.464C400.685 162.757 389.923 165.231 388.044 157.736C388.216 157.74 388.382 157.758 388.556 157.758C388.736 157.758 388.921 157.756 389.103 157.749C395.767 157.559 402.177 153.948 408.157 147.015C409.161 145.852 409.03 144.096 407.868 143.092C406.705 142.088 404.948 142.219 403.945 143.381C399.051 149.054 394.028 152.017 389.012 152.185C387.527 152.235 386.149 152.022 384.908 151.678C384.56 151.568 384.223 151.472 383.862 151.348C383.493 151.221 383.163 151.073 382.822 150.932C380.075 149.72 378.387 148.068 378.347 148.028C378.278 147.956 378.198 147.904 378.123 147.84C374.401 143.971 374.502 138.675 375.152 135.141C361.85 136.618 355.578 131.715 352.619 126.942C353.803 126.793 355.005 126.528 356.192 126.069C359.793 124.668 362.495 121.939 364.219 117.96C364.83 116.552 364.183 114.913 362.775 114.304C361.363 113.693 359.729 114.34 359.119 115.748C357.995 118.342 356.386 120.02 354.201 120.876C352.232 121.652 350.079 121.645 348.257 121.385C343.98 119.274 341.03 114.885 341.03 109.794C341.03 103.025 346.226 97.479 352.844 96.9053C352.125 95.6521 351.799 94.1406 352.067 92.5377C352.529 89.773 354.807 87.5554 357.581 87.1645C357.809 87.1327 358.028 87.141 358.252 87.1314C359.116 89.7579 360.884 93.3612 364.301 94.7913C365.269 95.1975 366.274 95.3978 367.311 95.3978C369.476 95.3978 371.792 94.5218 374.228 92.7726C375.476 91.8773 375.762 90.1405 374.866 88.8942C373.971 87.6438 372.236 87.3578 370.987 88.2559C369.659 89.2065 367.798 90.2192 366.455 89.6638C364.943 89.0365 363.884 86.631 363.347 84.7713C365.279 81.3461 368.94 79.0292 373.155 79.0292C375.453 79.0292 377.587 79.72 379.368 80.9014C380.95 76.5932 385.079 73.5148 389.935 73.5148C392.598 73.5148 395.039 74.4433 396.967 75.9867C398.999 73.0478 402.392 71.1175 406.236 71.1175C410.014 71.1175 413.349 72.9828 415.394 75.836C416.83 74.9766 418.506 74.4736 420.302 74.4736C424.422 74.4736 427.926 77.0767 429.283 80.7244C430.568 79.9078 432.092 79.427 433.728 79.427C438.318 79.427 442.038 83.1466 442.038 87.7377C442.038 87.9146 442.023 88.0859 442.012 88.26C443.127 87.7585 444.419 87.5802 445.777 87.887C447.951 88.3788 449.705 90.1308 450.196 92.3041C450.503 93.6609 450.328 94.95 449.83 96.0637C449.95 96.0582 450.067 96.0457 450.19 96.0457C454.251 96.0457 457.544 99.3383 457.544 103.399C457.544 104.771 457.141 106.041 456.485 107.141C451.822 106.443 446.07 107.625 441.558 114.049C440.676 115.306 440.977 117.04 442.235 117.922C442.72 118.263 443.279 118.427 443.829 118.427C444.705 118.427 445.566 118.016 446.107 117.245C451.63 109.382 458.94 113.59 459.767 114.103C459.822 114.139 459.881 114.158 459.937 114.188C461.966 117.633 463.135 121.647 463.135 125.933C463.135 132.978 459.988 139.285 455.026 143.534C455.551 145.326 455.644 147.306 455.081 149.371C454.067 153.091 451.047 156.023 447.303 156.946C445.115 157.485 443.04 157.293 441.182 156.635C440.578 160.973 438.272 165.501 432.608 168.448L432.608 168.449Z" fill="#206DCD"/>
<path d="M389.686 107.099C385.191 111.984 383.71 119.453 386 125.687C386.411 126.812 387.477 127.51 388.608 127.51C388.927 127.51 389.249 127.454 389.567 127.34C391.01 126.809 391.747 125.212 391.217 123.771C389.626 119.445 390.656 114.259 393.776 110.866C394.816 109.734 394.743 107.978 393.613 106.938C392.482 105.898 390.724 105.971 389.686 107.1L389.686 107.099Z" fill="#094287"/>
<path d="M442.074 97.6271C438.505 91.1457 432.754 89.3121 427.457 89.4547C427.042 87.5355 426.231 84.7447 424.703 82.2906C423.894 80.9877 422.177 80.587 420.875 81.3994C419.572 82.2119 419.174 83.9251 419.983 85.228C421.011 86.8819 421.611 88.8327 421.944 90.2765C420.409 90.6938 419.029 91.2216 417.91 91.7687C416.531 92.4444 415.959 94.1107 416.634 95.4883C417.307 96.8672 418.972 97.4393 420.354 96.7636C420.831 96.5274 432.144 91.1262 437.202 100.312C437.709 101.231 438.659 101.751 439.641 101.751C440.094 101.751 440.554 101.641 440.98 101.407C442.325 100.663 442.815 98.9715 442.074 97.6269L442.074 97.6271Z" fill="#094287"/>
<path d="M416.82 127.498C418.208 132.808 421.946 136.085 427.076 136.488C427.15 136.494 427.225 136.497 427.298 136.497C428.734 136.497 429.952 135.391 430.067 133.935C430.187 132.404 429.045 131.065 427.514 130.944C425.852 130.812 424.594 130.211 423.663 129.106C422.035 127.168 421.825 124.172 421.846 123.397C421.95 122.941 421.939 122.457 421.8 121.989C421.454 120.823 420.386 120.016 419.17 120.001C409.585 119.886 407.836 110.8 407.763 110.398C407.501 108.892 406.073 107.877 404.56 108.132C403.047 108.388 402.024 109.822 402.281 111.338C403.032 115.791 406.932 123.91 416.373 125.344C416.467 126.003 416.615 126.721 416.819 127.498L416.82 127.498Z" fill="#094287"/>
<path d="M397.528 79.9393C396.072 80.4243 395.285 81.9994 395.77 83.4557C396.856 86.7137 396.756 89.2848 395.46 91.3162C392.878 95.3715 386.32 96.1893 386.19 96.2045C384.668 96.3744 383.569 97.7478 383.736 99.2704C383.893 100.695 385.097 101.748 386.496 101.748C386.597 101.748 386.7 101.742 386.802 101.733C387.181 101.691 396.086 100.647 400.133 94.3323C402.37 90.8421 402.677 86.5906 401.046 81.6967C400.56 80.2418 398.99 79.4528 397.529 79.9392L397.528 79.9393Z" fill="#094287"/>
<path d="M432.807 156.757C428.927 158.427 425.712 158.686 423.251 157.521C419.99 155.976 418.869 152.286 418.836 152.172C418.429 150.698 416.905 149.837 415.429 150.234C413.948 150.637 413.072 152.165 413.476 153.647C413.543 153.897 415.208 159.817 420.793 162.51C422.584 163.374 424.535 163.806 426.636 163.806C429.209 163.806 432.006 163.158 435.007 161.868C436.417 161.26 437.067 159.624 436.46 158.213C435.851 156.8 434.215 156.148 432.807 156.757L432.807 156.757Z" fill="#094287"/>
<circle cx="515.251" cy="49.2509" r="7.25091" fill="#FDE0D7"/>
<path d="M653.255 167.118C648.288 150.272 641.068 119.523 651.92 131.298C665.484 146.016 613.067 133.922 633.495 109.191" stroke="#E4582D" stroke-width="2.63669" stroke-linecap="round"/>
<path d="M276.337 236.267C276.279 235.541 275.645 234.999 274.919 235.056C274.193 235.113 273.651 235.748 273.708 236.473L276.337 236.267ZM309.974 254.368L309.7 253.078L309.974 254.368ZM329.826 256.997C329.504 257.65 329.774 258.44 330.427 258.762C331.08 259.083 331.871 258.814 332.192 258.16L329.826 256.997ZM273.708 236.473C274.059 240.942 276.339 247.213 282.04 251.639C287.782 256.095 296.782 258.519 310.248 255.657L309.7 253.078C296.778 255.824 288.63 253.416 283.657 249.556C278.643 245.664 276.641 240.134 276.337 236.267L273.708 236.473ZM310.248 255.657C318.482 253.908 323.993 252.979 327.6 252.625C329.406 252.448 330.687 252.421 331.57 252.493C332.01 252.529 332.32 252.588 332.532 252.65C332.747 252.714 332.814 252.768 332.811 252.765C332.791 252.749 332.734 252.685 332.706 252.584C332.683 252.501 332.704 252.473 332.687 252.544C332.645 252.726 332.491 253.049 332.15 253.557C331.817 254.055 331.431 254.552 330.994 255.153C330.584 255.716 330.142 256.354 329.826 256.997L332.192 258.16C332.4 257.737 332.724 257.256 333.126 256.704C333.5 256.191 333.97 255.577 334.34 255.026C334.702 254.486 335.099 253.822 335.257 253.136C335.34 252.773 335.373 252.341 335.25 251.891C335.122 251.422 334.852 251.029 334.483 250.726C333.809 250.174 332.842 249.952 331.785 249.865C330.676 249.774 329.218 249.817 327.343 250.001C323.585 250.369 317.958 251.324 309.7 253.078L310.248 255.657Z" fill="white"/>
<circle cx="540.251" cy="246.251" r="5.93256" stroke="white" stroke-width="2.63669"/>
<path d="M182.341 191.705C182.309 190.978 181.693 190.414 180.966 190.446L169.112 190.973C168.385 191.005 167.821 191.621 167.854 192.348C167.886 193.076 168.502 193.639 169.229 193.607L179.765 193.139L180.234 203.675C180.266 204.403 180.882 204.966 181.609 204.934C182.336 204.902 182.9 204.286 182.868 203.558L182.341 191.705ZM181.016 191.772L180.043 190.882L181.016 191.772ZM166.132 201.096L166.241 199.782L166.241 199.782L166.132 201.096ZM168.196 180.36C168.779 179.924 168.899 179.098 168.463 178.515C168.027 177.932 167.201 177.813 166.617 178.249L168.196 180.36ZM180.051 190.873L180.043 190.882L181.989 192.662L181.997 192.653L180.051 190.873ZM180.043 190.882C178.311 192.775 176.146 195.137 173.706 196.973C171.249 198.824 168.715 199.986 166.241 199.782L166.024 202.41C169.458 202.693 172.645 201.073 175.292 199.08C177.957 197.073 180.28 194.53 181.989 192.662L180.043 190.882ZM166.241 199.782C165.431 199.716 164.368 199.158 163.386 198.008C162.425 196.883 161.642 195.299 161.353 193.44C160.789 189.803 162.102 184.916 168.196 180.36L166.617 178.249C159.874 183.289 158.01 189.09 158.748 193.845C159.111 196.182 160.099 198.22 161.381 199.721C162.642 201.197 164.295 202.268 166.024 202.41L166.241 199.782Z" fill="#206DCD"/>
<path d="M174.252 82.4087C171.21 67.5966 168.282 40.0001 180.899 48.1106C196.67 58.2488 194.424 48.0713 194.319 45.2767C194.215 42.482 200.148 38.9951 205.533 45.7902" stroke="#E4582D" stroke-width="2.63669" stroke-linecap="round"/>
</g>
</svg>
