<svg width="786" height="299" viewBox="0 0 786 299" fill="none" xmlns="http://www.w3.org/2000/svg">
<rect width="786" height="299" rx="8" fill="#EDD18D"/>
<mask id="mask0_457_15688" style="mask-type:alpha" maskUnits="userSpaceOnUse" x="0" y="0" width="786" height="299">
<rect width="786" height="299" rx="8" fill="#23ACAD"/>
</mask>
<g mask="url(#mask0_457_15688)">
<path opacity="0.2" fill-rule="evenodd" clip-rule="evenodd" d="M597.012 156.5C597.012 264.093 509.791 351.314 402.198 351.314C294.605 351.314 207.384 264.093 207.384 156.5C207.384 48.9071 294.605 -38.3141 402.198 -38.3141C509.791 -38.3141 597.012 48.9071 597.012 156.5ZM599 156.5C599 265.191 510.889 353.302 402.198 353.302C293.507 353.302 205.396 265.191 205.396 156.5C205.396 47.8092 293.507 -40.302 402.198 -40.302C510.889 -40.302 599 47.8092 599 156.5ZM529.424 156.5C529.424 226.765 472.463 283.726 402.198 283.726C331.933 283.726 274.973 226.765 274.973 156.5C274.973 86.2356 331.933 29.2748 402.198 29.2748C472.463 29.2748 529.424 86.2356 529.424 156.5ZM531.411 156.5C531.411 227.863 473.561 285.714 402.198 285.714C330.836 285.714 272.985 227.863 272.985 156.5C272.985 85.1377 330.836 27.2869 402.198 27.2869C473.561 27.2869 531.411 85.1377 531.411 156.5Z" fill="white"/>
<path fill-rule="evenodd" clip-rule="evenodd" d="M308.351 81.907C305.848 81.8813 303.389 82.559 301.252 83.863C299.75 84.7749 298.445 85.9763 297.411 87.3974C296.378 88.8185 295.637 90.4309 295.233 92.1408C294.876 94.0857 294.752 96.066 294.862 98.0402C294.862 104.35 294.866 110.662 294.869 116.976C294.876 129.602 294.883 142.236 294.862 154.869H294.862C294.83 155.741 294.831 156.615 294.831 157.488C294.831 158.186 294.832 158.884 294.815 159.579V214.17C294.798 215.482 294.956 216.791 295.285 218.061C295.941 220.486 297.268 222.676 299.113 224.379C300.959 226.083 303.248 227.23 305.717 227.69C308.086 227.949 310.471 228.033 312.852 227.941H411.133C412.841 227.994 414.55 227.937 416.25 227.768C419.427 227.298 422.324 225.689 424.403 223.241C426.449 220.836 427.58 217.786 427.595 214.629V181.805C427.595 178.81 427.601 175.816 427.608 172.822C427.621 166.838 427.633 160.855 427.595 154.874V96.5797C427.664 95.071 427.537 93.5598 427.22 92.0835C426.535 89.2284 424.923 86.6808 422.636 84.8394C420.349 82.998 417.517 81.9668 414.581 81.907H308.351ZM418.271 154.984C418.262 154.986 418.252 154.987 418.243 154.989C417.234 154.914 416.223 154.895 415.212 154.932C414.644 154.945 414.069 154.939 413.491 154.933C412.477 154.922 411.455 154.912 410.445 155.005C410.406 154.999 410.368 154.994 410.329 154.989C409.82 155.099 409.344 155.327 408.939 155.655C408.506 156.006 408.168 156.461 407.957 156.976C407.73 157.66 407.65 158.383 407.722 159.099V164.388C407.692 164.876 407.763 165.365 407.931 165.824C408.1 166.283 408.361 166.703 408.7 167.055C409.039 167.408 409.448 167.686 409.9 167.873C410.352 168.059 410.837 168.15 411.326 168.139H417.377C418.302 168.142 419.192 167.786 419.86 167.146C420.527 166.505 420.92 165.631 420.955 164.706V159.574C421.075 158.521 420.894 157.456 420.433 156.502C420.192 156.111 419.873 155.774 419.496 155.512C419.128 155.256 418.711 155.076 418.271 154.984ZM380.625 154.818L381.099 154.509L347.962 134.62V154.906C347.958 154.906 347.955 154.906 347.951 154.906V174.361C358.825 167.855 369.694 161.339 380.557 154.812C380.58 154.814 380.602 154.816 380.625 154.818ZM312.107 155.003C312.077 155.007 312.048 155.011 312.018 155.015C311.189 154.89 310.351 154.906 309.511 154.921C309.231 154.926 308.95 154.932 308.669 154.932C308.157 154.942 307.643 154.936 307.128 154.93C306.157 154.919 305.185 154.908 304.22 155.01C304.196 155.006 304.171 155.003 304.147 154.999C303.306 155.187 302.568 155.691 302.087 156.408C301.622 157.228 301.419 158.171 301.508 159.11V164.56C301.506 165.031 301.596 165.498 301.775 165.933C301.954 166.369 302.216 166.765 302.548 167.099C302.88 167.433 303.275 167.698 303.709 167.879C304.144 168.06 304.61 168.154 305.081 168.154H311.298C312.126 168.137 312.922 167.831 313.548 167.289C314.174 166.747 314.59 166.003 314.725 165.186C314.753 163.629 314.744 162.058 314.734 160.498C314.73 159.722 314.725 158.949 314.725 158.181C314.714 157.416 314.437 156.678 313.941 156.094C313.467 155.536 312.821 155.153 312.107 155.003ZM302.256 96.4227C302.718 95.8511 303.355 95.4479 304.069 95.2757C304.454 95.2039 304.845 95.1724 305.237 95.1818H311.163C311.81 95.1512 312.454 95.2915 313.03 95.5886C313.561 95.8862 314.001 96.3224 314.303 96.8507C314.605 97.3789 314.759 97.9794 314.746 98.5879C314.746 99.3284 314.749 100.069 314.752 100.811C314.758 102.294 314.763 103.778 314.746 105.259C314.709 106.081 314.368 106.86 313.79 107.446C313.212 108.032 312.438 108.382 311.616 108.431H304.789C303.95 108.416 303.147 108.086 302.541 107.506C301.934 106.926 301.569 106.138 301.518 105.301V98.4366C301.536 97.7023 301.795 96.9944 302.256 96.4227ZM408.402 96.4444C408.848 95.8731 409.468 95.4628 410.168 95.2757V95.2965C410.896 95.1764 411.633 95.1344 412.37 95.1714C412.967 95.1714 413.569 95.1662 414.173 95.161C415.387 95.1505 416.608 95.14 417.82 95.1714C418.647 95.2283 419.424 95.5919 419.997 96.1911C420.57 96.7902 420.899 97.5817 420.919 98.4105C420.919 99.1721 420.922 99.9336 420.926 100.695C420.933 102.218 420.94 103.741 420.919 105.264C420.875 106.108 420.513 106.903 419.906 107.489C419.299 108.076 418.492 108.411 417.648 108.425C416.89 108.425 416.132 108.428 415.374 108.431C413.858 108.437 412.342 108.443 410.826 108.425C410.004 108.377 409.23 108.026 408.652 107.441C408.074 106.855 407.733 106.076 407.696 105.254V98.4418C407.708 97.717 407.955 97.0158 408.402 96.4444ZM302.638 115.932C303.049 115.567 303.544 115.311 304.079 115.185C304.836 115.079 305.601 115.042 306.364 115.076C306.953 115.076 307.543 115.071 308.132 115.067C309.311 115.057 310.488 115.048 311.663 115.076C312.499 115.125 313.285 115.488 313.865 116.091C314.445 116.694 314.776 117.494 314.793 118.331V125.002C314.791 125.627 314.614 126.238 314.282 126.767C313.95 127.296 313.477 127.722 312.915 127.996C312.267 128.276 311.559 128.393 310.855 128.335C310.165 128.335 309.476 128.34 308.787 128.344C307.408 128.354 306.028 128.363 304.637 128.335C303.822 128.289 303.053 127.944 302.476 127.367C301.898 126.79 301.554 126.02 301.508 125.205V119.285C301.457 118.607 301.529 117.924 301.722 117.272C301.911 116.756 302.226 116.296 302.638 115.932ZM408.778 115.952C409.171 115.588 409.646 115.325 410.163 115.185L410.158 115.211C410.896 115.09 411.644 115.052 412.39 115.097C412.993 115.097 413.597 115.091 414.203 115.086C415.417 115.076 416.637 115.065 417.852 115.097C418.679 115.154 419.455 115.518 420.028 116.119C420.6 116.719 420.927 117.512 420.945 118.341V125.038C420.94 125.636 420.776 126.22 420.469 126.732C420.161 127.244 419.722 127.664 419.197 127.949C418.585 128.259 417.9 128.399 417.215 128.356C416.509 128.356 415.803 128.359 415.098 128.363C413.686 128.37 412.274 128.377 410.862 128.356C410.034 128.318 409.25 127.972 408.664 127.387C408.077 126.801 407.73 126.018 407.691 125.19V119.29C407.638 118.61 407.711 117.926 407.905 117.272C408.085 116.768 408.385 116.315 408.778 115.952ZM302.252 136.259C302.716 135.685 303.356 135.281 304.074 135.111C304.755 135.017 305.443 134.988 306.129 135.022C306.727 135.022 307.329 135.018 307.933 135.014C309.146 135.006 310.368 134.998 311.58 135.022C312.422 135.065 313.215 135.427 313.801 136.033C314.387 136.639 314.721 137.444 314.736 138.287V145.105C314.696 145.932 314.349 146.716 313.763 147.301C313.176 147.887 312.392 148.233 311.564 148.271H304.783C303.944 148.258 303.141 147.928 302.534 147.348C301.928 146.767 301.563 145.979 301.513 145.141C301.496 143.618 301.501 142.092 301.507 140.567C301.51 139.805 301.513 139.043 301.513 138.282C301.529 137.544 301.789 136.833 302.252 136.259ZM408.771 135.897C409.161 135.539 409.631 135.28 410.142 135.142L410.148 135.111C410.892 135 411.646 134.973 412.396 135.032C412.996 135.032 413.599 135.027 414.203 135.021C415.417 135.009 416.636 134.998 417.852 135.032C418.678 135.091 419.453 135.456 420.024 136.056C420.596 136.656 420.922 137.448 420.939 138.277C420.939 139.036 420.943 139.796 420.946 140.557C420.953 142.078 420.96 143.602 420.939 145.125C420.895 145.968 420.532 146.763 419.924 147.349C419.316 147.935 418.508 148.268 417.664 148.281C416.905 148.281 416.148 148.284 415.39 148.287C413.876 148.293 412.364 148.299 410.852 148.281C410.024 148.242 409.24 147.895 408.655 147.308C408.069 146.722 407.724 145.938 407.686 145.11V139.21C407.632 138.532 407.705 137.849 407.899 137.197C408.082 136.7 408.381 136.254 408.771 135.897ZM302.212 176.135C302.703 175.487 303.423 175.05 304.225 174.914C304.559 174.853 304.898 174.823 305.237 174.826H311.162C312.09 174.793 312.997 175.11 313.703 175.712C314.034 176.016 314.297 176.385 314.477 176.796C314.657 177.208 314.748 177.652 314.746 178.101V184.314C314.796 185.191 314.522 186.056 313.976 186.745C313.429 187.434 312.649 187.897 311.783 188.048H305.091C304.166 188.05 303.277 187.694 302.61 187.054C301.942 186.414 301.549 185.54 301.513 184.616V178.555C301.477 177.694 301.722 176.844 302.212 176.135ZM408.558 175.945C409.054 175.394 409.723 175.03 410.455 174.914V174.909C411.158 174.826 411.867 174.807 412.573 174.852H417.549C418.088 174.851 418.62 174.976 419.102 175.218C419.584 175.46 420.003 175.811 420.324 176.244C420.86 177.134 421.085 178.176 420.966 179.207V184.491C420.963 185.332 420.67 186.147 420.135 186.797C419.601 187.447 418.859 187.893 418.034 188.059C416.546 188.076 415.055 188.07 413.565 188.064C412.82 188.062 412.075 188.059 411.331 188.059C410.843 188.07 410.358 187.979 409.907 187.793C409.455 187.607 409.048 187.329 408.709 186.977C408.371 186.625 408.109 186.206 407.941 185.748C407.773 185.289 407.702 184.801 407.732 184.314V177.94C407.771 177.2 408.063 176.496 408.558 175.945ZM303.056 195.263C303.415 195.04 303.814 194.891 304.23 194.824C304.564 194.761 304.903 194.729 305.242 194.73H311.194C312.116 194.701 313.017 195.017 313.718 195.617C314.05 195.921 314.314 196.291 314.494 196.703C314.673 197.116 314.765 197.561 314.762 198.011V204.213C314.813 205.09 314.54 205.956 313.995 206.646C313.45 207.336 312.67 207.801 311.804 207.953H304.627C303.762 207.828 302.971 207.397 302.397 206.739C301.822 206.08 301.503 205.238 301.497 204.364V198.459C301.465 197.632 301.691 196.816 302.144 196.123C302.388 195.778 302.698 195.486 303.056 195.263ZM408.838 195.571C409.291 195.177 409.846 194.918 410.44 194.824L410.445 194.819C411.466 194.694 412.5 194.71 413.532 194.726C414.139 194.735 414.745 194.744 415.348 194.725C416.743 194.533 418.164 194.732 419.453 195.299C419.915 195.615 420.292 196.039 420.552 196.534C420.812 197.03 420.947 197.582 420.945 198.141V204.213C420.966 204.696 420.889 205.179 420.719 205.633C420.549 206.086 420.289 206.5 419.954 206.85C419.62 207.2 419.219 207.48 418.774 207.671C418.329 207.862 417.851 207.961 417.366 207.963H411.144C410.319 207.944 409.526 207.639 408.901 207.099C408.277 206.56 407.86 205.819 407.722 205.006V198.772C407.675 198.194 407.726 197.612 407.873 197.051C408.05 196.477 408.384 195.964 408.838 195.571Z" fill="white"/>
<path d="M347.977 134.589C359.021 141.224 370.067 147.854 381.115 154.478L380.593 154.817C369.719 161.327 358.851 167.843 347.987 174.367V154.88C347.982 148.125 347.967 141.37 347.977 134.589Z" fill="#F5C654"/>
<path d="M529.799 183.449V166.685C529.799 165.415 529.293 164.196 528.393 163.298C527.493 162.4 526.272 161.895 524.999 161.895H520.198C530.951 154.184 533.447 139.24 525.719 128.367C521.979 123.237 516.359 119.789 510.083 118.776C503.807 117.762 497.384 119.264 492.213 122.954C488.997 125.253 486.405 128.367 484.677 131.863C481.994 130.205 479.009 129.093 475.894 128.59C472.779 128.087 469.595 128.205 466.526 128.935C463.456 129.665 460.562 130.993 458.009 132.844C455.456 134.695 453.295 137.031 451.651 139.719C448.316 145.13 447.272 151.642 448.749 157.822C450.225 164.002 454.101 169.343 459.523 172.672C460.531 173.247 461.539 173.87 462.595 174.253V214.583C462.595 215.853 463.101 217.071 464.001 217.969C464.902 218.868 466.123 219.372 467.396 219.372H524.999C526.272 219.372 527.493 218.868 528.393 217.969C529.293 217.071 529.799 215.853 529.799 214.583V197.818L549 216.977V164.29L529.799 183.449ZM505.798 133.157C508.344 133.157 510.786 134.166 512.586 135.962C514.387 137.759 515.398 140.195 515.398 142.736C515.398 145.277 514.387 147.713 512.586 149.51C510.786 151.306 508.344 152.316 505.798 152.316C503.251 152.316 500.81 151.306 499.009 149.51C497.209 147.713 496.197 145.277 496.197 142.736C496.197 140.195 497.209 137.759 499.009 135.962C500.81 134.166 503.251 133.157 505.798 133.157ZM472.196 142.736C474.742 142.736 477.184 143.745 478.984 145.542C480.785 147.338 481.796 149.775 481.796 152.316C481.796 154.856 480.785 157.293 478.984 159.089C477.184 160.886 474.742 161.895 472.196 161.895C469.65 161.895 467.208 160.886 465.407 159.089C463.607 157.293 462.595 154.856 462.595 152.316C462.595 149.775 463.607 147.338 465.407 145.542C467.208 143.745 469.65 142.736 472.196 142.736Z" fill="#E4582D"/>
<circle cx="515.251" cy="49.2509" r="7.25091" fill="#E4582D"/>
<path d="M653.254 167.118C648.288 150.272 641.068 119.523 651.92 131.298C665.484 146.016 613.067 133.922 633.494 109.191" stroke="#EDD18D" stroke-width="2.63669" stroke-linecap="round"/>
<path d="M276.336 236.267C276.279 235.541 275.645 234.999 274.919 235.056C274.193 235.113 273.651 235.748 273.708 236.473L276.336 236.267ZM309.974 254.368L309.7 253.078L309.974 254.368ZM329.825 256.997C329.504 257.65 329.773 258.44 330.427 258.762C331.08 259.083 331.87 258.814 332.192 258.16L329.825 256.997ZM273.708 236.473C274.059 240.942 276.339 247.213 282.04 251.639C287.782 256.095 296.782 258.519 310.248 255.657L309.7 253.078C296.778 255.824 288.63 253.416 283.657 249.556C278.643 245.664 276.641 240.134 276.336 236.267L273.708 236.473ZM310.248 255.657C318.482 253.908 323.993 252.979 327.6 252.625C329.406 252.448 330.687 252.421 331.57 252.493C332.01 252.529 332.32 252.588 332.532 252.65C332.747 252.714 332.814 252.768 332.811 252.765C332.791 252.749 332.733 252.685 332.706 252.584C332.683 252.501 332.703 252.473 332.687 252.544C332.645 252.726 332.491 253.049 332.15 253.557C331.817 254.055 331.431 254.552 330.994 255.153C330.584 255.716 330.142 256.354 329.825 256.997L332.192 258.16C332.4 257.737 332.724 257.256 333.126 256.704C333.5 256.191 333.97 255.577 334.34 255.026C334.702 254.486 335.099 253.822 335.257 253.136C335.34 252.773 335.373 252.341 335.25 251.891C335.122 251.422 334.852 251.029 334.483 250.726C333.809 250.174 332.842 249.952 331.785 249.865C330.676 249.774 329.218 249.817 327.342 250.001C323.585 250.369 317.958 251.324 309.7 253.078L310.248 255.657Z" fill="#E4582D"/>
<circle cx="564.251" cy="246.251" r="5.93256" stroke="white" stroke-width="2.63669"/>
<path d="M182.341 191.705C182.309 190.978 181.693 190.414 180.965 190.446L169.112 190.973C168.385 191.005 167.821 191.621 167.853 192.348C167.886 193.076 168.502 193.639 169.229 193.607L179.765 193.139L180.233 203.675C180.266 204.403 180.882 204.966 181.609 204.934C182.336 204.902 182.9 204.286 182.867 203.558L182.341 191.705ZM181.016 191.772L180.043 190.882L181.016 191.772ZM166.132 201.096L166.24 199.782L166.24 199.782L166.132 201.096ZM168.196 180.36C168.779 179.924 168.899 179.098 168.463 178.515C168.027 177.932 167.2 177.813 166.617 178.249L168.196 180.36ZM180.051 190.873L180.043 190.882L181.989 192.662L181.997 192.653L180.051 190.873ZM180.043 190.882C178.311 192.775 176.146 195.137 173.706 196.973C171.249 198.824 168.715 199.986 166.24 199.782L166.024 202.41C169.458 202.693 172.645 201.073 175.292 199.08C177.957 197.073 180.28 194.53 181.989 192.662L180.043 190.882ZM166.24 199.782C165.431 199.716 164.368 199.158 163.386 198.008C162.424 196.883 161.642 195.299 161.353 193.44C160.789 189.803 162.101 184.916 168.196 180.36L166.617 178.249C159.874 183.289 158.01 189.09 158.748 193.845C159.11 196.182 160.099 198.22 161.381 199.721C162.642 201.197 164.294 202.268 166.024 202.41L166.24 199.782Z" fill="white"/>
<path d="M174.252 82.4087C171.21 67.5966 168.282 40.0001 180.899 48.1106C196.67 58.2488 194.424 48.0713 194.319 45.2767C194.215 42.482 200.148 38.9951 205.533 45.7902" stroke="#EDD18D" stroke-width="2.63669" stroke-linecap="round"/>
<path d="M606.102 73C617.768 84.1242 637.595 105.274 623.571 100.879C606.04 95.3856 653.271 80.9953 648.351 110.023" stroke="white" stroke-width="2.42008" stroke-linecap="round"/>
<path d="M230 68.7202V70.4937H237.651V68.7202H230ZM233.471 63.5009C232.711 68.2388 231.343 74.9528 230.329 78.7786L231.85 79.716C232.939 75.4849 234.383 68.6948 235.295 63.6783L233.471 63.5009ZM231.191 77.8918C233.674 79.6907 236.562 82.3256 237.88 84.1752L239.02 82.6803C237.677 80.9068 234.713 78.3732 232.23 76.625L231.191 77.8918ZM236.993 68.7202V69.1002C236.486 77.6385 234.104 83.0097 230.203 85.2646C230.608 85.6447 231.115 86.3287 231.368 86.7848C235.726 83.9725 238.158 78.5759 238.741 68.8468L237.626 68.6695L237.322 68.7202H236.993ZM238.412 66.2626V67.9094H253.233V66.2626H238.412ZM238.614 77.7905V79.4373H253.233V77.7905H238.614ZM242.009 70.1643V71.6591H249.61V70.1643H242.009ZM241.072 63.4756V75.5356H250.674V63.4756H248.875V73.9647H242.845V63.4756H241.072ZM244.898 75.2822V86.7848H246.747V75.2822H244.898ZM244.315 78.5506C242.947 81.0588 240.261 83.5164 237.626 84.6819C238.032 85.0366 238.64 85.7207 238.944 86.1767C241.604 84.7579 244.315 81.9963 245.81 79.108L244.315 78.5506ZM247.305 78.6266L245.936 79.184C247.355 81.8189 249.99 84.6059 252.27 86.05C252.574 85.5687 253.183 84.8846 253.613 84.5552C251.308 83.3644 248.698 80.9322 247.305 78.6266Z" fill="#E4582D"/>
<path d="M260.682 63.5769C259.441 67.4027 257.363 71.2031 255.108 73.686C255.463 74.1421 256.02 75.1302 256.223 75.5609C258.706 72.6979 261.011 68.3908 262.481 64.109L260.682 63.5769ZM258.402 70.1136V86.7595H260.201V68.3401L260.175 68.3148L258.402 70.1136ZM269.043 63.5769V86.6581H270.892V63.5769H269.043ZM261.898 68.5935V70.4177H278.493V68.5935H261.898ZM264.862 80.3494V82.0723H274.997V80.3494H264.862ZM271.805 69.5309L270.386 69.9616C271.881 74.9022 274.592 79.944 277.556 82.655C277.911 82.1483 278.544 81.4895 279 81.1602C276.036 78.7786 273.249 74.0661 271.805 69.5309ZM268.257 69.4296C266.763 74.0661 263.874 78.8799 260.91 81.2869C261.341 81.5909 261.974 82.2496 262.253 82.731C265.319 79.944 268.08 74.9275 269.651 69.8603L268.257 69.4296Z" fill="#E4582D"/>
</g>
</svg>
