<svg width="786" height="299" viewBox="0 0 786 299" fill="none" xmlns="http://www.w3.org/2000/svg">
<rect width="786" height="299" rx="8" fill="#DCCFF7"/>
<mask id="mask0_457_15687" style="mask-type:alpha" maskUnits="userSpaceOnUse" x="0" y="0" width="786" height="299">
<rect width="786" height="299" rx="8" fill="#23ACAD"/>
</mask>
<g mask="url(#mask0_457_15687)">
<path opacity="0.2" fill-rule="evenodd" clip-rule="evenodd" d="M597.012 156.5C597.012 264.093 509.791 351.314 402.198 351.314C294.605 351.314 207.384 264.093 207.384 156.5C207.384 48.9071 294.605 -38.3141 402.198 -38.3141C509.791 -38.3141 597.012 48.9071 597.012 156.5ZM599 156.5C599 265.191 510.889 353.302 402.198 353.302C293.507 353.302 205.396 265.191 205.396 156.5C205.396 47.8092 293.507 -40.302 402.198 -40.302C510.889 -40.302 599 47.8092 599 156.5ZM529.424 156.5C529.424 226.765 472.463 283.726 402.198 283.726C331.933 283.726 274.973 226.765 274.973 156.5C274.973 86.2356 331.933 29.2748 402.198 29.2748C472.463 29.2748 529.424 86.2356 529.424 156.5ZM531.411 156.5C531.411 227.863 473.561 285.714 402.198 285.714C330.836 285.714 272.985 227.863 272.985 156.5C272.985 85.1377 330.836 27.2869 402.198 27.2869C473.561 27.2869 531.411 85.1377 531.411 156.5Z" fill="white"/>
</g>
<circle cx="515.251" cy="49.2509" r="6.59173" stroke="#5924E6" stroke-width="1.31835"/>
<path d="M653.254 167.118C648.288 150.272 641.068 119.523 651.92 131.298C665.484 146.016 613.067 133.922 633.494 109.191" stroke="#E4582D" stroke-width="2.63669" stroke-linecap="round"/>
<path d="M276.336 236.267C276.279 235.541 275.645 234.999 274.919 235.056C274.193 235.113 273.651 235.748 273.708 236.473L276.336 236.267ZM309.974 254.368L309.7 253.078L309.974 254.368ZM329.825 256.997C329.504 257.65 329.773 258.44 330.427 258.762C331.08 259.083 331.87 258.814 332.192 258.16L329.825 256.997ZM273.708 236.473C274.059 240.942 276.339 247.213 282.04 251.639C287.782 256.095 296.782 258.519 310.248 255.657L309.7 253.078C296.778 255.824 288.63 253.416 283.657 249.556C278.643 245.664 276.641 240.134 276.336 236.267L273.708 236.473ZM310.248 255.657C318.482 253.908 323.993 252.979 327.6 252.625C329.406 252.448 330.687 252.421 331.57 252.493C332.01 252.529 332.32 252.588 332.532 252.65C332.747 252.714 332.814 252.768 332.811 252.765C332.791 252.749 332.733 252.685 332.706 252.584C332.683 252.501 332.703 252.473 332.687 252.544C332.645 252.726 332.491 253.049 332.15 253.557C331.817 254.055 331.431 254.552 330.994 255.153C330.584 255.716 330.142 256.354 329.825 256.997L332.192 258.16C332.4 257.737 332.724 257.256 333.126 256.704C333.5 256.191 333.97 255.577 334.34 255.026C334.702 254.486 335.099 253.822 335.257 253.136C335.34 252.773 335.373 252.341 335.25 251.891C335.122 251.422 334.852 251.029 334.483 250.726C333.809 250.174 332.842 249.952 331.785 249.865C330.676 249.774 329.218 249.817 327.342 250.001C323.585 250.369 317.958 251.324 309.7 253.078L310.248 255.657Z" fill="white"/>
<circle cx="540.251" cy="246.251" r="5.93256" stroke="white" stroke-width="2.63669"/>
<path d="M182.341 191.705C182.309 190.978 181.693 190.414 180.965 190.446L169.112 190.973C168.385 191.005 167.821 191.621 167.853 192.348C167.886 193.076 168.502 193.639 169.229 193.607L179.765 193.139L180.233 203.675C180.266 204.403 180.882 204.966 181.609 204.934C182.336 204.902 182.9 204.286 182.867 203.558L182.341 191.705ZM181.016 191.772L180.043 190.882L181.016 191.772ZM166.132 201.096L166.24 199.782L166.24 199.782L166.132 201.096ZM168.196 180.36C168.779 179.924 168.899 179.098 168.463 178.515C168.027 177.932 167.2 177.813 166.617 178.249L168.196 180.36ZM180.051 190.873L180.043 190.882L181.989 192.662L181.997 192.653L180.051 190.873ZM180.043 190.882C178.311 192.775 176.146 195.137 173.706 196.973C171.249 198.824 168.715 199.986 166.24 199.782L166.024 202.41C169.458 202.693 172.645 201.073 175.292 199.08C177.957 197.073 180.28 194.53 181.989 192.662L180.043 190.882ZM166.24 199.782C165.431 199.716 164.368 199.158 163.386 198.008C162.424 196.883 161.642 195.299 161.353 193.44C160.789 189.803 162.101 184.916 168.196 180.36L166.617 178.249C159.874 183.289 158.01 189.09 158.748 193.845C159.11 196.182 160.099 198.22 161.381 199.721C162.642 201.197 164.294 202.268 166.024 202.41L166.24 199.782Z" fill="#5924E6"/>
<path d="M174.252 82.4087C171.21 67.5966 168.282 40.0001 180.899 48.1106C196.67 58.2488 194.424 48.0713 194.319 45.2767C194.215 42.482 200.148 38.9951 205.533 45.7902" stroke="#E4582D" stroke-width="2.63669" stroke-linecap="round"/>
<path d="M398.856 135.746L395.392 132.109C388.117 124.833 375.644 126.219 370.447 136.266C367.329 142.33 369.061 149.605 373.911 154.456L396.951 177.495C397.99 178.534 399.895 178.534 400.934 177.495L424.494 154.109C431.769 146.833 430.383 134.361 420.336 129.163C414.272 126.046 406.997 127.777 402.146 132.628L398.856 135.746Z" fill="#E4582D"/>
<path d="M364.73 87.5885C364.211 90.5332 363.517 94.3444 362.825 97.8086H363.517C365.77 97.8086 367.848 98.501 369.926 99.7142C370.966 100.407 371.832 101.1 372.698 101.967L406.651 101.62C406.304 100.407 406.131 99.1946 406.131 97.9813V82.564C406.131 80.4857 406.478 78.5801 406.998 76.8475L360.573 76.3291C363.691 78.927 365.424 83.085 364.73 87.5883L364.73 87.5885Z" fill="#5924E6"/>
<path d="M419.297 105.604C424.494 110.282 436.793 117.73 436.793 117.73C438.526 118.943 441.124 118.422 442.337 116.517C443.376 114.784 442.857 112.878 441.124 111.147C439.391 109.414 435.754 106.469 435.754 106.469C434.195 104.911 435.234 103.525 436.793 103.525C439.738 103.697 441.471 103.871 444.762 104.217C448.054 104.564 463.124 107.335 463.124 107.335C465.03 107.681 466.763 106.468 467.108 104.563C467.455 102.657 466.242 100.924 464.336 100.579L445.629 97.4637C445.109 97.2909 444.762 96.9441 444.762 96.4245V96.0777C444.762 95.3853 445.282 94.8645 445.975 94.8645L468.495 96.2505C470.401 96.4233 472.134 94.8645 472.134 92.9588C472.134 91.0533 470.748 89.3204 468.842 89.3204L445.283 87.7616C444.763 87.7616 444.244 87.2421 444.244 86.7225C444.244 86.2029 444.591 85.6833 445.283 85.5093L465.551 84.6429C467.456 84.4701 469.015 82.9101 468.842 81.0045C468.842 79.0989 467.11 77.5402 465.204 77.7128L445.109 78.9272C444.59 78.9272 444.07 78.4076 444.07 77.888C444.07 77.3684 444.417 76.8489 444.936 76.8489L460.526 74.9433C462.432 74.7705 463.818 73.0377 463.644 71.1323C463.471 69.2267 461.738 67.8406 459.833 68.0148C459.833 68.0148 438.352 70.7867 430.384 71.8258C422.589 72.865 414.794 74.7705 414.794 82.5656V97.983C414.622 100.754 417.047 103.526 419.298 105.604L419.297 105.604Z" fill="white"/>
<path d="M461.392 115.998C458.447 115.478 454.636 114.784 451.172 114.265C451.344 116.863 450.479 119.288 449.439 121.193C448.746 122.232 448.053 123.099 447.014 123.965L447.36 157.918C448.574 157.571 449.786 157.398 450.999 157.398H466.416C468.495 157.398 470.4 157.745 472.133 158.265L472.48 111.84C470.227 114.438 466.936 115.997 463.298 115.997C462.778 116.169 462.084 115.996 461.392 115.996L461.392 115.998Z" fill="#5924E6"/>
<path d="M477.329 181.478C476.29 173.683 474.384 165.888 466.589 165.888H451.172C448.227 165.888 445.628 168.313 443.549 170.565C438.872 175.763 431.424 188.061 431.424 188.061C430.21 189.794 430.731 192.392 432.637 193.605C434.37 194.644 436.275 194.125 438.007 192.392C439.739 190.659 442.684 187.022 442.684 187.022C444.243 185.463 445.629 186.503 445.629 188.061C445.456 191.006 445.282 192.739 444.936 196.03C444.069 199.148 441.297 214.218 441.297 214.218C440.95 216.124 442.163 217.857 444.069 218.202C445.974 218.549 447.707 217.336 448.053 215.43L451.517 196.896C451.517 196.376 452.036 196.029 452.556 196.029H452.903C453.595 196.029 454.116 196.549 453.942 197.242L452.556 219.762C452.383 221.668 453.942 223.401 455.848 223.401C457.753 223.401 459.486 222.015 459.486 220.109L461.045 196.55C461.045 196.031 461.564 195.511 462.084 195.511C462.604 195.511 463.123 196.031 463.297 196.55L464.164 216.818C464.164 218.723 465.896 220.282 467.802 220.11C469.708 219.937 471.266 218.377 471.094 216.471L470.227 196.203C470.227 195.684 470.747 195.164 471.266 195.164C471.786 195.164 472.306 195.511 472.306 196.031L474.211 211.621C474.384 213.526 476.117 214.912 478.022 214.738C479.928 214.565 481.314 212.832 481.14 210.927C481.14 210.927 478.368 189.447 477.329 181.479L477.329 181.478Z" fill="white"/>
<path d="M336.321 184.25C339.266 184.769 343.077 185.463 346.541 186.155C346.368 183.557 347.233 181.132 348.274 179.053C348.966 178.013 349.66 177.147 350.699 176.281L350.352 142.328C349.139 142.675 347.927 142.848 346.714 142.848H331.296C329.218 142.848 327.313 142.501 325.58 141.981L325.062 188.406C327.314 185.808 330.605 184.076 334.243 184.076C334.762 184.076 335.629 184.248 336.321 184.248L336.321 184.25Z" fill="#5924E6"/>
<path d="M346.715 134.36C349.659 134.36 352.259 131.935 354.337 129.682C359.014 124.485 366.463 112.187 366.463 112.187C367.676 110.454 367.155 107.856 365.249 106.643C363.517 105.604 361.611 106.123 359.88 107.856C358.147 109.589 355.202 113.226 355.202 113.226C353.643 114.784 352.257 113.745 352.257 112.186C352.43 109.242 352.604 107.509 352.95 104.217C353.297 100.926 356.067 85.8555 356.067 85.8555C356.414 83.9499 355.201 82.2171 353.295 81.8715C351.39 81.5247 349.657 82.7379 349.311 84.6435L346.195 103.352C346.195 103.872 345.676 104.219 345.156 104.219H344.809C344.117 104.219 343.596 103.699 343.77 103.005L345.156 80.4853C345.329 78.5798 343.77 76.8469 341.864 76.8469C339.959 76.8469 338.226 78.2329 338.226 80.1386L336.667 103.698C336.667 104.217 336.148 104.737 335.628 104.737C335.108 104.737 334.589 104.39 334.415 103.698L333.548 83.4299C333.548 81.5243 331.816 79.9657 329.91 80.1383C328.004 80.1383 326.446 81.871 326.618 83.7767L327.485 104.044C327.485 104.564 326.965 105.084 326.446 105.084C325.926 105.084 325.406 104.737 325.406 104.044L323.501 88.4545C323.328 86.5489 321.595 85.1628 319.69 85.337C317.784 85.5098 316.398 87.2425 316.572 89.148C316.572 89.148 319.344 110.629 320.383 118.596C321.423 126.391 323.328 134.186 331.123 134.186C337.187 134.359 340.651 134.359 346.714 134.359L346.715 134.36Z" fill="white"/>
<path d="M432.982 212.659C433.502 209.715 434.195 205.903 434.888 202.439H434.195C431.943 202.439 429.865 201.747 427.786 200.534C426.747 199.841 425.881 199.148 425.014 198.108L391.062 198.628C391.408 199.841 391.581 201.053 391.581 202.266V217.684C391.581 219.762 391.234 221.668 390.715 223.4L437.14 223.92C436.274 223.227 435.581 222.534 435.062 221.668C433.156 219.068 432.464 215.951 432.983 212.659L432.982 212.659Z" fill="#5924E6"/>
<path d="M378.415 194.644C373.218 189.966 360.92 182.518 360.92 182.518C359.187 181.305 356.589 181.825 355.376 183.731C354.336 185.464 354.856 187.369 356.589 189.101C358.322 190.834 361.959 193.778 361.959 193.778C363.517 195.337 362.478 196.723 360.919 196.723C357.975 196.55 356.242 196.376 352.95 196.031C349.832 195.336 334.761 192.564 334.761 192.564C332.855 192.217 331.123 193.43 330.777 195.336C330.43 197.241 331.643 198.974 333.549 199.32L352.084 202.784C352.603 202.957 352.95 203.304 352.95 203.823V204.17C352.95 204.862 352.431 205.383 351.737 205.209L329.217 203.824C327.311 203.652 325.579 205.21 325.579 207.116C325.579 209.022 326.965 210.754 328.87 210.754L352.429 212.313C352.949 212.313 353.468 212.833 353.468 213.352C353.468 213.872 353.122 214.392 352.429 214.566L332.162 215.432C330.256 215.432 328.697 217.165 328.87 219.07C328.87 220.976 330.603 222.535 332.508 222.362L352.776 221.496C353.296 221.496 353.815 222.015 353.815 222.535C353.815 223.054 353.468 223.574 352.949 223.574L337.359 225.48C335.453 225.652 334.067 227.385 334.241 229.291C334.414 231.196 336.147 232.582 338.052 232.408C338.052 232.408 359.533 229.636 367.501 228.597C375.296 227.558 383.091 225.652 383.091 217.857V202.44C383.091 199.494 380.666 196.722 378.415 194.644L378.415 194.644Z" fill="white"/>
</svg>
