<svg width="786" height="299" viewBox="0 0 786 299" fill="none" xmlns="http://www.w3.org/2000/svg">
<rect width="786" height="299" rx="8" fill="#D9E2A2"/>
<mask id="mask0_457_15684" style="mask-type:alpha" maskUnits="userSpaceOnUse" x="0" y="0" width="786" height="299">
<rect width="786" height="299" rx="8" fill="#23ACAD"/>
</mask>
<g mask="url(#mask0_457_15684)">
<path opacity="0.2" fill-rule="evenodd" clip-rule="evenodd" d="M597.012 156.5C597.012 264.093 509.791 351.314 402.198 351.314C294.605 351.314 207.384 264.093 207.384 156.5C207.384 48.9073 294.605 -38.3139 402.198 -38.3139C509.791 -38.3139 597.012 48.9073 597.012 156.5ZM599 156.5C599 265.191 510.889 353.302 402.198 353.302C293.507 353.302 205.396 265.191 205.396 156.5C205.396 47.8095 293.507 -40.3018 402.198 -40.3018C510.889 -40.3018 599 47.8095 599 156.5ZM529.424 156.501C529.424 226.765 472.463 283.726 402.198 283.726C331.933 283.726 274.973 226.765 274.973 156.501C274.973 86.2359 331.933 29.2751 402.198 29.2751C472.463 29.2751 529.424 86.2359 529.424 156.501ZM531.411 156.501C531.411 227.863 473.561 285.714 402.198 285.714C330.836 285.714 272.985 227.863 272.985 156.501C272.985 85.138 330.836 27.2872 402.198 27.2872C473.561 27.2872 531.411 85.138 531.411 156.501Z" fill="white"/>
</g>
<circle cx="515.251" cy="49.2509" r="7.25091" fill="#E4582D"/>
<path d="M653.254 167.117C648.288 150.271 641.068 119.523 651.92 131.298C665.484 146.016 613.067 133.922 633.494 109.191" stroke="#E4582D" stroke-width="2.63669" stroke-linecap="round"/>
<path d="M276.336 236.267C276.279 235.541 275.645 234.999 274.919 235.056C274.193 235.113 273.651 235.748 273.708 236.473L276.336 236.267ZM309.974 254.368L309.7 253.078L309.974 254.368ZM329.825 256.997C329.504 257.65 329.773 258.44 330.427 258.762C331.08 259.083 331.87 258.814 332.192 258.16L329.825 256.997ZM273.708 236.473C274.059 240.942 276.339 247.213 282.04 251.639C287.782 256.095 296.782 258.519 310.248 255.657L309.7 253.078C296.778 255.824 288.63 253.416 283.657 249.556C278.643 245.664 276.641 240.134 276.336 236.267L273.708 236.473ZM310.248 255.657C318.482 253.908 323.993 252.979 327.6 252.625C329.406 252.448 330.687 252.421 331.57 252.493C332.01 252.529 332.32 252.588 332.532 252.65C332.747 252.714 332.814 252.768 332.811 252.765C332.791 252.749 332.733 252.685 332.706 252.584C332.683 252.501 332.703 252.473 332.687 252.544C332.645 252.726 332.491 253.049 332.15 253.557C331.817 254.055 331.431 254.552 330.994 255.153C330.584 255.716 330.142 256.354 329.825 256.997L332.192 258.16C332.4 257.737 332.724 257.256 333.126 256.704C333.5 256.191 333.97 255.577 334.34 255.026C334.702 254.486 335.099 253.822 335.257 253.136C335.34 252.773 335.373 252.341 335.25 251.891C335.122 251.422 334.852 251.029 334.483 250.726C333.809 250.174 332.842 249.952 331.785 249.865C330.676 249.774 329.218 249.817 327.342 250.001C323.585 250.369 317.958 251.324 309.7 253.078L310.248 255.657Z" fill="white"/>
<circle cx="540.251" cy="246.251" r="5.93256" stroke="white" stroke-width="2.63669"/>
<path d="M182.341 191.705C182.309 190.977 181.693 190.414 180.965 190.446L169.112 190.973C168.385 191.005 167.821 191.621 167.853 192.348C167.886 193.076 168.502 193.639 169.229 193.607L179.765 193.139L180.233 203.675C180.266 204.402 180.882 204.966 181.609 204.934C182.336 204.901 182.9 204.285 182.867 203.558L182.341 191.705ZM181.016 191.772L180.043 190.882L181.016 191.772ZM166.132 201.096L166.24 199.782L166.24 199.782L166.132 201.096ZM168.196 180.36C168.779 179.924 168.899 179.098 168.463 178.515C168.027 177.932 167.2 177.812 166.617 178.248L168.196 180.36ZM180.051 190.873L180.043 190.882L181.989 192.662L181.997 192.653L180.051 190.873ZM180.043 190.882C178.311 192.775 176.146 195.136 173.706 196.973C171.249 198.823 168.715 199.986 166.24 199.782L166.024 202.41C169.458 202.692 172.645 201.073 175.292 199.08C177.957 197.073 180.28 194.53 181.989 192.662L180.043 190.882ZM166.24 199.782C165.431 199.715 164.368 199.157 163.386 198.008C162.424 196.883 161.642 195.299 161.353 193.44C160.789 189.803 162.101 184.916 168.196 180.36L166.617 178.248C159.874 183.289 158.01 189.09 158.748 193.844C159.11 196.182 160.099 198.22 161.381 199.721C162.642 201.197 164.294 202.268 166.024 202.41L166.24 199.782Z" fill="white"/>
<path d="M174.252 82.4084C171.21 67.5964 168.282 39.9998 180.899 48.1104C196.67 58.2486 194.424 48.0711 194.319 45.2764C194.215 42.4817 200.148 38.9948 205.533 45.79" stroke="#E4582D" stroke-width="2.63669" stroke-linecap="round"/>
<rect x="369.731" y="64" width="81.4608" height="81.4608" rx="14.5466" fill="#849324"/>
<path d="M416.443 113.488H406.831L405.405 117.846H395.915L406.464 89.0093H416.891L427.4 117.846H417.869L416.443 113.488ZM414.244 106.686L411.637 98.6624L409.03 106.686H414.244Z" fill="white"/>
<rect x="320.273" y="154.189" width="81.4608" height="81.4608" rx="14.5466" fill="white"/>
<path d="M367.8 193.25C369.538 193.658 370.882 194.499 371.832 195.776C372.81 197.025 373.298 198.477 373.298 200.134C373.298 202.659 372.457 204.614 370.773 205.999C369.117 207.357 366.727 208.035 363.604 208.035H348.493V179.198H363.197C366.13 179.198 368.438 179.836 370.121 181.113C371.805 182.389 372.647 184.249 372.647 186.693C372.647 188.376 372.199 189.802 371.302 190.969C370.434 192.11 369.266 192.87 367.8 193.25ZM357.536 190.44H361.038C361.853 190.44 362.45 190.277 362.831 189.951C363.238 189.625 363.442 189.123 363.442 188.444C363.442 187.738 363.238 187.222 362.831 186.896C362.45 186.543 361.853 186.367 361.038 186.367H357.536V190.44ZM361.649 200.785C362.464 200.785 363.061 200.636 363.442 200.337C363.849 200.011 364.052 199.496 364.052 198.79C364.052 197.405 363.251 196.712 361.649 196.712H357.536V200.785H361.649Z" fill="#7D7777"/>
<rect x="410.462" y="154.189" width="81.4608" height="81.4608" rx="14.5466" fill="#FCF4E1"/>
<path d="M437.867 193.576C437.867 190.724 438.437 188.186 439.578 185.959C440.745 183.732 442.402 182.008 444.547 180.786C446.692 179.537 449.217 178.913 452.123 178.913C454.621 178.913 456.847 179.388 458.802 180.338C460.785 181.261 462.387 182.578 463.609 184.289C464.858 186 465.686 187.995 466.093 190.276H456.562C456.128 189.326 455.503 188.593 454.689 188.077C453.901 187.534 452.992 187.262 451.96 187.262C450.439 187.262 449.231 187.833 448.335 188.973C447.466 190.113 447.031 191.648 447.031 193.576C447.031 195.503 447.466 197.038 448.335 198.178C449.231 199.319 450.439 199.889 451.96 199.889C452.992 199.889 453.901 199.631 454.689 199.115C455.503 198.572 456.128 197.825 456.562 196.875H466.093C465.686 199.156 464.858 201.151 463.609 202.862C462.387 204.573 460.785 205.903 458.802 206.854C456.847 207.777 454.621 208.238 452.123 208.238C449.217 208.238 446.692 207.628 444.547 206.406C442.402 205.157 440.745 203.419 439.578 201.192C438.437 198.966 437.867 196.427 437.867 193.576Z" fill="#E4582D"/>
<path d="M485.565 132.298L480.329 127.062C479.556 126.289 478.441 126.375 477.84 127.319L471.917 137.362C471.316 138.306 471.488 139.68 472.26 140.452C473.033 141.225 474.406 141.311 475.35 140.796L485.307 134.873C486.252 134.272 486.423 133.156 485.565 132.298Z" fill="white"/>
<path d="M488.397 135.302C487.367 136.332 485.737 136.246 484.706 135.216L477.496 128.006C476.466 126.976 476.466 125.345 477.411 124.315L511.315 90.4106C512.345 89.3806 513.976 89.4664 515.006 90.4965L522.216 97.7066C523.246 98.7366 523.246 100.367 522.302 101.397L488.397 135.302Z" fill="white"/>
<path d="M480.142 121.601L508.607 93.1357L519.593 104.122L491.127 132.587L480.142 121.601Z" fill="#252121"/>
<path d="M503.07 98.6991L505.862 95.9077L516.848 106.893L514.056 109.685L503.07 98.6991Z" fill="white"/>
<path d="M482.887 118.831L485.679 116.04L496.665 127.026L493.873 129.817L482.887 118.831Z" fill="white"/>
<path d="M499.9 112.814C496.209 116.504 490.715 117.019 487.711 114.015L501.101 100.625C504.106 103.715 503.591 109.123 499.9 112.814Z" fill="white"/>
<path d="M287.869 199.523C288.621 199.322 289.238 198.62 289.922 198.168C290.973 197.081 292.476 196.679 294.179 197.027C295.065 197.327 295.883 197.376 296.634 197.175C302.914 196.566 307.229 187.625 306.298 177.136C305.366 166.648 299.444 158.571 293.165 159.179C291.344 159.399 289.909 160.052 288.607 161.206C287.556 162.293 286.188 163.197 284.685 163.599C284.032 162.164 282.824 157.656 286.563 155.58C287.247 155.128 287.547 154.242 287.095 153.558C286.643 152.874 285.758 152.574 285.074 153.026C280.15 155.688 280.624 161.466 281.747 164.655C280.178 164.807 278.791 164.642 277.404 164.477C275.7 164.128 273.88 164.347 272.444 165.001C266.701 167.613 265.611 177.569 270.049 187.118C273.919 196.55 282.194 202.387 287.869 199.523L287.869 199.523Z" fill="#E4582D"/>
</svg>
