<svg width="786" height="299" viewBox="0 0 786 299" fill="none" xmlns="http://www.w3.org/2000/svg">
<rect width="786" height="299" rx="8" fill="white"/>
<mask id="mask0_457_15685" style="mask-type:alpha" maskUnits="userSpaceOnUse" x="0" y="0" width="786" height="299">
<rect width="786" height="299" rx="8" fill="#23ACAD"/>
</mask>
<g mask="url(#mask0_457_15685)">
<path opacity="0.2" fill-rule="evenodd" clip-rule="evenodd" d="M597.012 156.5C597.012 264.093 509.791 351.314 402.198 351.314C294.605 351.314 207.384 264.093 207.384 156.5C207.384 48.9071 294.605 -38.3141 402.198 -38.3141C509.791 -38.3141 597.012 48.9071 597.012 156.5ZM599 156.5C599 265.191 510.889 353.302 402.198 353.302C293.507 353.302 205.396 265.191 205.396 156.5C205.396 47.8092 293.507 -40.302 402.198 -40.302C510.889 -40.302 599 47.8092 599 156.5ZM529.424 156.5C529.424 226.765 472.463 283.726 402.198 283.726C331.933 283.726 274.973 226.765 274.973 156.5C274.973 86.2356 331.933 29.2748 402.198 29.2748C472.463 29.2748 529.424 86.2356 529.424 156.5ZM531.411 156.5C531.411 227.863 473.561 285.714 402.198 285.714C330.836 285.714 272.985 227.863 272.985 156.5C272.985 85.1377 330.836 27.2869 402.198 27.2869C473.561 27.2869 531.411 85.1377 531.411 156.5Z" fill="#D2CCCC"/>
</g>
<circle cx="515.251" cy="49.2509" r="7.25091" fill="#E4582D"/>
<path d="M653.254 167.118C648.288 150.272 641.068 119.523 651.919 131.298C665.484 146.016 613.067 133.922 633.494 109.191" stroke="#E4582D" stroke-width="2.63669" stroke-linecap="round"/>
<path d="M276.336 236.267C276.279 235.541 275.645 234.999 274.919 235.056C274.193 235.113 273.651 235.748 273.708 236.473L276.336 236.267ZM309.974 254.368L309.7 253.078L309.974 254.368ZM329.825 256.997C329.504 257.65 329.773 258.44 330.427 258.762C331.08 259.083 331.87 258.814 332.192 258.16L329.825 256.997ZM273.708 236.473C274.059 240.942 276.339 247.213 282.04 251.639C287.782 256.095 296.782 258.519 310.248 255.657L309.7 253.078C296.778 255.824 288.63 253.416 283.657 249.556C278.643 245.664 276.641 240.134 276.336 236.267L273.708 236.473ZM310.248 255.657C318.482 253.908 323.993 252.979 327.6 252.625C329.406 252.448 330.687 252.421 331.57 252.493C332.01 252.529 332.32 252.588 332.532 252.65C332.747 252.714 332.814 252.768 332.811 252.765C332.791 252.749 332.733 252.685 332.706 252.584C332.683 252.501 332.703 252.473 332.687 252.544C332.645 252.726 332.491 253.049 332.15 253.557C331.817 254.055 331.431 254.552 330.994 255.153C330.584 255.716 330.142 256.354 329.825 256.997L332.192 258.16C332.4 257.737 332.724 257.256 333.126 256.704C333.5 256.191 333.97 255.577 334.34 255.026C334.702 254.486 335.099 253.822 335.257 253.136C335.34 252.773 335.373 252.341 335.25 251.891C335.122 251.422 334.852 251.029 334.483 250.726C333.809 250.174 332.842 249.952 331.785 249.865C330.676 249.774 329.218 249.817 327.342 250.001C323.585 250.369 317.958 251.324 309.7 253.078L310.248 255.657Z" fill="white"/>
<circle cx="540.251" cy="246.251" r="5.93256" stroke="white" stroke-width="2.63669"/>
<path d="M182.341 191.705C182.309 190.978 181.693 190.414 180.965 190.446L169.112 190.973C168.385 191.005 167.821 191.621 167.853 192.348C167.886 193.076 168.502 193.639 169.229 193.607L179.765 193.139L180.233 203.675C180.266 204.403 180.882 204.966 181.609 204.934C182.336 204.902 182.9 204.286 182.868 203.558L182.341 191.705ZM181.016 191.772L180.043 190.882L181.016 191.772ZM166.132 201.096L166.24 199.782L166.24 199.782L166.132 201.096ZM168.196 180.36C168.779 179.924 168.899 179.098 168.463 178.515C168.027 177.932 167.201 177.813 166.617 178.249L168.196 180.36ZM180.051 190.873L180.043 190.882L181.989 192.662L181.997 192.653L180.051 190.873ZM180.043 190.882C178.311 192.775 176.146 195.137 173.706 196.973C171.249 198.824 168.715 199.986 166.24 199.782L166.024 202.41C169.458 202.693 172.645 201.073 175.292 199.08C177.957 197.073 180.28 194.53 181.989 192.662L180.043 190.882ZM166.24 199.782C165.431 199.716 164.368 199.158 163.386 198.008C162.424 196.883 161.642 195.299 161.353 193.44C160.789 189.803 162.102 184.916 168.196 180.36L166.617 178.249C159.874 183.289 158.01 189.09 158.748 193.845C159.111 196.182 160.099 198.22 161.381 199.721C162.642 201.197 164.294 202.268 166.024 202.41L166.24 199.782Z" fill="white"/>
<path d="M174.252 82.4087C171.21 67.5966 168.282 40.0001 180.899 48.1106C196.67 58.2488 194.424 48.0713 194.319 45.2767C194.215 42.482 200.148 38.9951 205.533 45.7902" stroke="#E4582D" stroke-width="2.63669" stroke-linecap="round"/>
<path d="M169.636 220.189C159.786 211.219 143.004 194.122 154.674 197.487C169.262 201.693 130.513 214.479 134.027 190.403" stroke="#F5C654" stroke-width="2" stroke-linecap="round"/>
<path fill-rule="evenodd" clip-rule="evenodd" d="M438.521 75.6529C438.521 84.8937 431.023 92.401 421.776 92.401C412.531 92.401 405.033 84.8932 405.033 75.6529C405.033 66.3983 412.531 58.9087 421.776 58.9087C431.021 58.9087 438.521 66.3995 438.521 75.6529ZM421.376 71.6208C421.662 72.2163 421.809 72.8666 421.807 73.5241L421.807 73.524C421.805 74.7189 421.319 75.8638 420.456 76.7097C419.593 77.5551 418.423 78.0328 417.201 78.0376C415.645 78.0381 414.194 77.2706 413.343 75.9969C412.493 74.7237 412.357 73.1164 412.983 71.7241C413.61 70.3318 414.913 69.3421 416.448 69.0941C417.983 68.8456 419.542 69.3714 420.594 70.492C421.2 70.1615 421.865 70.0135 422.728 70.0135C423.476 70.0087 424.213 70.1851 424.874 70.5264C425.846 69.4724 427.269 68.9259 428.716 69.0509C430.163 69.1764 431.465 69.9588 432.233 71.1642C433 72.3691 433.144 73.857 432.621 75.1812C432.097 76.5058 430.968 77.5127 429.57 77.9001C428.173 78.288 426.67 78.0111 425.513 77.1532C424.356 76.2949 423.679 74.9554 423.684 73.5356C423.681 72.8949 423.82 72.261 424.092 71.678C423.664 71.4742 423.193 71.3689 422.717 71.3699C422.145 71.3699 421.749 71.4386 421.376 71.6208ZM428.279 70.3899V70.3894L428.273 70.3899C427.242 70.3899 426.275 70.8786 425.678 71.7005C425.656 71.7485 425.628 71.7942 425.597 71.8375H425.597C425.585 71.849 425.576 71.8606 425.567 71.8723C425.558 71.8835 425.55 71.8946 425.539 71.9057C425.042 72.7055 424.936 73.6793 425.247 74.5636C425.559 75.448 426.257 76.1506 427.152 76.4818C428.047 76.8134 429.046 76.7384 429.879 76.2775C430.711 75.8171 431.292 75.0183 431.462 74.0979C431.632 73.1775 431.375 72.2307 430.76 71.5145C430.144 70.7979 429.236 70.386 428.279 70.3899ZM417.201 76.647V76.6466L417.195 76.647C417.197 76.647 417.199 76.647 417.201 76.647ZM417.201 76.6471V76.647C418.051 76.6479 418.865 76.3183 419.467 75.7319C420.07 75.1437 420.408 74.3453 420.408 73.5129C420.408 72.6814 420.07 71.884 419.468 71.2962C418.867 70.7084 418.051 70.3782 417.201 70.3782C416.35 70.3782 415.535 70.7084 414.933 71.2962C414.332 71.8841 413.994 72.6814 413.994 73.5129C413.994 74.3439 414.332 75.1413 414.933 75.7291C415.535 76.3169 416.35 76.6471 417.201 76.6471Z" fill="#E4582D"/>
<path d="M421.633 116.486L395.647 107.448L394.517 142.473L421.633 151.511L446.489 143.603L447.619 107.448L421.633 116.486Z" fill="white"/>
<path d="M395.547 161.68V146.821L380.647 150.967C379.553 151.402 378.365 151.645 377.123 151.645C371.854 151.647 367.582 147.362 367.582 142.1C367.582 140.116 368.183 138.282 369.211 136.76L393.115 103.986C395.71 100.43 399.334 96.47 406.976 96.47H435.875C443.514 96.47 447.14 100.431 449.733 103.986L473.634 136.76C474.662 138.282 475.267 140.116 475.267 142.1C475.267 147.362 470.99 151.647 465.726 151.647C464.485 151.647 463.292 151.403 462.202 150.968L447.295 146.822L447.295 161.68L395.547 161.68ZM421.423 151.298L440.733 144.91L440.298 144.788C426.974 140.868 432.162 123.266 445.483 127.196L447.304 127.808V107.933L421.424 116.387L395.545 107.933V127.809L397.357 127.197C410.688 123.266 415.873 140.869 402.543 144.792L402.117 144.912L421.423 151.298Z" fill="#E4582D"/>
<path d="M490.553 161.68H303V179.757H325.597V250.937H347.064V233.99H445.36V250.937H466.827V179.757H490.553V161.68Z" fill="#F2A091"/>
<path fill-rule="evenodd" clip-rule="evenodd" d="M316.7 121.318H304.522V160.894H316.7V121.318ZM313.655 131.973H307.567V153.283H313.655V131.973Z" fill="#494141"/>
<path fill-rule="evenodd" clip-rule="evenodd" d="M331.921 121.318H319.744V160.894H331.921V121.318ZM328.877 131.973H322.788V153.283H328.877V131.973Z" fill="#ECBA41"/>
<path fill-rule="evenodd" clip-rule="evenodd" d="M343.989 121.317L333.443 127.406L353.232 161.68L363.778 155.592L343.989 121.317ZM346.68 132.067L341.408 135.111L352.063 153.567L357.336 150.522L346.68 132.067Z" fill="#494141"/>
<path d="M543.138 233.69C543.397 234.178 544.002 234.365 544.49 234.106L552.443 229.893C552.931 229.634 553.117 229.029 552.859 228.541C552.6 228.053 551.995 227.867 551.507 228.125L544.438 231.871L540.692 224.801C540.434 224.313 539.829 224.127 539.341 224.386C538.853 224.644 538.667 225.25 538.925 225.738L543.138 233.69ZM544.025 233.214L544.981 233.508L544.981 233.508L544.025 233.214ZM551.195 221.986L551.548 222.922L551.195 221.986ZM556.52 236.869C556.262 237.357 556.449 237.962 556.937 238.22C557.425 238.478 558.03 238.291 558.288 237.803L556.52 236.869ZM544.978 233.516L544.981 233.508L543.069 232.92L543.066 232.929L544.978 233.516ZM544.981 233.508C545.552 231.647 546.269 229.325 547.344 227.273C548.427 225.207 549.786 223.586 551.548 222.922L550.842 221.05C548.397 221.973 546.739 224.118 545.572 226.345C544.398 228.586 543.633 231.084 543.069 232.92L544.981 233.508ZM551.548 222.922C552.125 222.704 553.035 222.741 554.081 223.21C555.106 223.668 556.157 224.5 556.959 225.68C558.528 227.99 559.216 231.765 556.52 236.869L558.288 237.803C561.272 232.156 560.664 227.575 558.613 224.556C557.605 223.072 556.265 221.996 554.899 221.384C553.554 220.783 552.074 220.586 550.842 221.05L551.548 222.922Z" fill="#E4582D"/>
</svg>
