<svg width="786" height="300" viewBox="0 0 786 300" fill="none" xmlns="http://www.w3.org/2000/svg">
<rect width="786" height="299" rx="8" fill="#FCF4E1"/>
<mask id="mask0_879_19165" style="mask-type:alpha" maskUnits="userSpaceOnUse" x="0" y="0" width="786" height="299">
<rect width="786" height="299" rx="8" fill="#23ACAD"/>
</mask>
<g mask="url(#mask0_879_19165)">
<path opacity="0.2" fill-rule="evenodd" clip-rule="evenodd" d="M597.012 156.5C597.012 264.093 509.791 351.314 402.198 351.314C294.605 351.314 207.384 264.093 207.384 156.5C207.384 48.9073 294.605 -38.3139 402.198 -38.3139C509.791 -38.3139 597.012 48.9073 597.012 156.5ZM599 156.5C599 265.191 510.889 353.302 402.198 353.302C293.507 353.302 205.396 265.191 205.396 156.5C205.396 47.8095 293.507 -40.3018 402.198 -40.3018C510.889 -40.3018 599 47.8095 599 156.5ZM529.424 156.501C529.424 226.765 472.463 283.726 402.198 283.726C331.933 283.726 274.973 226.765 274.973 156.501C274.973 86.2359 331.933 29.2751 402.198 29.2751C472.463 29.2751 529.424 86.2359 529.424 156.501ZM531.411 156.501C531.411 227.863 473.561 285.714 402.198 285.714C330.836 285.714 272.985 227.863 272.985 156.501C272.985 85.138 330.836 27.2872 402.198 27.2872C473.561 27.2872 531.411 85.138 531.411 156.501Z" fill="#D2CCCC"/>
</g>
<path d="M340.917 208.07C340.646 207.501 340.254 207.062 339.741 206.754C339.228 206.437 338.63 206.278 337.949 206.278C337.268 206.278 336.652 206.437 336.101 206.754C335.56 207.062 335.13 207.51 334.813 208.098C334.505 208.677 334.351 209.349 334.351 210.114C334.351 210.879 334.505 211.551 334.813 212.13C335.13 212.709 335.56 213.157 336.101 213.474C336.652 213.782 337.268 213.936 337.949 213.936C338.901 213.936 339.685 213.651 340.301 213.082C340.917 212.513 341.276 211.743 341.379 210.772H337.487V209.736H342.737V210.716C342.662 211.519 342.41 212.256 341.981 212.928C341.552 213.591 340.987 214.118 340.287 214.51C339.587 214.893 338.808 215.084 337.949 215.084C337.044 215.084 336.218 214.874 335.471 214.454C334.724 214.025 334.132 213.432 333.693 212.676C333.264 211.92 333.049 211.066 333.049 210.114C333.049 209.162 333.264 208.308 333.693 207.552C334.132 206.787 334.724 206.194 335.471 205.774C336.218 205.345 337.044 205.13 337.949 205.13C338.985 205.13 339.9 205.387 340.693 205.9C341.496 206.413 342.079 207.137 342.443 208.07H340.917ZM349.559 215L347.235 211.01H345.695V215H344.421V205.242H347.571C348.309 205.242 348.929 205.368 349.433 205.62C349.947 205.872 350.329 206.213 350.581 206.642C350.833 207.071 350.959 207.561 350.959 208.112C350.959 208.784 350.763 209.377 350.371 209.89C349.989 210.403 349.41 210.744 348.635 210.912L351.085 215H349.559ZM345.695 209.988H347.571C348.262 209.988 348.78 209.82 349.125 209.484C349.471 209.139 349.643 208.681 349.643 208.112C349.643 207.533 349.471 207.085 349.125 206.768C348.789 206.451 348.271 206.292 347.571 206.292H345.695V209.988ZM358.707 212.83H354.451L353.667 215H352.323L355.851 205.298H357.321L360.835 215H359.491L358.707 212.83ZM358.343 211.794L356.579 206.866L354.815 211.794H358.343ZM365.411 205.242C366.475 205.242 367.394 205.443 368.169 205.844C368.953 206.236 369.55 206.801 369.961 207.538C370.381 208.275 370.591 209.143 370.591 210.142C370.591 211.141 370.381 212.009 369.961 212.746C369.55 213.474 368.953 214.034 368.169 214.426C367.394 214.809 366.475 215 365.411 215H362.373V205.242H365.411ZM365.411 213.95C366.671 213.95 367.632 213.619 368.295 212.956C368.957 212.284 369.289 211.346 369.289 210.142C369.289 208.929 368.953 207.981 368.281 207.3C367.618 206.619 366.661 206.278 365.411 206.278H363.647V213.95H365.411ZM373.517 205.242V211.416C373.517 212.284 373.727 212.928 374.147 213.348C374.576 213.768 375.169 213.978 375.925 213.978C376.672 213.978 377.255 213.768 377.675 213.348C378.104 212.928 378.319 212.284 378.319 211.416V205.242H379.593V211.402C379.593 212.214 379.43 212.9 379.103 213.46C378.776 214.011 378.333 214.421 377.773 214.692C377.222 214.963 376.602 215.098 375.911 215.098C375.22 215.098 374.595 214.963 374.035 214.692C373.484 214.421 373.046 214.011 372.719 213.46C372.402 212.9 372.243 212.214 372.243 211.402V205.242H373.517ZM387.486 212.83H383.23L382.446 215H381.102L384.63 205.298H386.1L389.614 215H388.27L387.486 212.83ZM387.122 211.794L385.358 206.866L383.594 211.794H387.122ZM397.158 205.242V206.278H394.498V215H393.224V206.278H390.55V205.242H397.158ZM400 206.278V209.54H403.556V210.59H400V213.95H403.976V215H398.726V205.228H403.976V206.278H400ZM408.998 215.098C408.354 215.098 407.775 214.986 407.262 214.762C406.758 214.529 406.361 214.211 406.072 213.81C405.783 213.399 405.633 212.928 405.624 212.396H406.982C407.029 212.853 407.215 213.241 407.542 213.558C407.878 213.866 408.363 214.02 408.998 214.02C409.605 214.02 410.081 213.871 410.426 213.572C410.781 213.264 410.958 212.872 410.958 212.396C410.958 212.023 410.855 211.719 410.65 211.486C410.445 211.253 410.188 211.075 409.88 210.954C409.572 210.833 409.157 210.702 408.634 210.562C407.99 210.394 407.472 210.226 407.08 210.058C406.697 209.89 406.366 209.629 406.086 209.274C405.815 208.91 405.68 208.425 405.68 207.818C405.68 207.286 405.815 206.815 406.086 206.404C406.357 205.993 406.735 205.676 407.22 205.452C407.715 205.228 408.279 205.116 408.914 205.116C409.829 205.116 410.575 205.345 411.154 205.802C411.742 206.259 412.073 206.866 412.148 207.622H410.748C410.701 207.249 410.505 206.922 410.16 206.642C409.815 206.353 409.357 206.208 408.788 206.208C408.256 206.208 407.822 206.348 407.486 206.628C407.15 206.899 406.982 207.281 406.982 207.776C406.982 208.131 407.08 208.42 407.276 208.644C407.481 208.868 407.729 209.041 408.018 209.162C408.317 209.274 408.732 209.405 409.264 209.554C409.908 209.731 410.426 209.909 410.818 210.086C411.21 210.254 411.546 210.52 411.826 210.884C412.106 211.239 412.246 211.724 412.246 212.34C412.246 212.816 412.12 213.264 411.868 213.684C411.616 214.104 411.243 214.445 410.748 214.706C410.253 214.967 409.67 215.098 408.998 215.098ZM422.277 215.098C421.372 215.098 420.546 214.888 419.799 214.468C419.052 214.039 418.46 213.446 418.021 212.69C417.592 211.925 417.377 211.066 417.377 210.114C417.377 209.162 417.592 208.308 418.021 207.552C418.46 206.787 419.052 206.194 419.799 205.774C420.546 205.345 421.372 205.13 422.277 205.13C423.192 205.13 424.022 205.345 424.769 205.774C425.516 206.194 426.104 206.782 426.533 207.538C426.962 208.294 427.177 209.153 427.177 210.114C427.177 211.075 426.962 211.934 426.533 212.69C426.104 213.446 425.516 214.039 424.769 214.468C424.022 214.888 423.192 215.098 422.277 215.098ZM422.277 213.992C422.958 213.992 423.57 213.833 424.111 213.516C424.662 213.199 425.091 212.746 425.399 212.158C425.716 211.57 425.875 210.889 425.875 210.114C425.875 209.33 425.716 208.649 425.399 208.07C425.091 207.482 424.666 207.029 424.125 206.712C423.584 206.395 422.968 206.236 422.277 206.236C421.586 206.236 420.97 206.395 420.429 206.712C419.888 207.029 419.458 207.482 419.141 208.07C418.833 208.649 418.679 209.33 418.679 210.114C418.679 210.889 418.833 211.57 419.141 212.158C419.458 212.746 419.888 213.199 420.429 213.516C420.98 213.833 421.596 213.992 422.277 213.992ZM434.375 205.242V206.278H430.133V209.568H433.577V210.604H430.133V215H428.859V205.242H434.375Z" fill="#252121"/>
<path fill-rule="evenodd" clip-rule="evenodd" d="M315.94 229.325C318.131 229.891 320.181 230.715 322.254 231.611C322.694 231.809 323.158 231.998 323.629 232.19C325.222 232.839 326.893 233.52 328.002 234.72C328.403 235.168 328.144 235.898 327.484 235.898C325.807 235.953 324.171 235.217 322.601 234.511C322.142 234.304 321.688 234.1 321.241 233.919C319.168 233.071 317.118 232.176 315.21 230.998C314.338 230.456 314.88 229.066 315.94 229.325ZM314.362 241.811C315.01 241.864 315.658 241.919 316.305 241.973C318.249 242.137 320.193 242.3 322.136 242.424C322.628 242.457 323.126 242.472 323.623 242.487C325.222 242.536 326.824 242.584 328.261 243.248C328.756 243.484 328.78 244.309 328.261 244.544C326.507 245.331 324.51 245.219 322.583 245.112L322.583 245.112C322.259 245.094 321.937 245.076 321.618 245.062C319.05 244.992 316.529 244.756 313.985 244.426C312.454 244.238 312.807 241.67 314.362 241.811ZM318.978 254.118C317.401 254.898 315.828 255.675 314.244 256.418C312.784 257.125 313.844 259.174 315.351 258.609C317.872 257.69 320.346 256.701 322.725 255.428C322.905 255.334 323.087 255.239 323.27 255.144C325.007 254.243 326.854 253.285 328.026 251.73C328.474 251.164 327.908 250.41 327.225 250.505C325.544 250.735 324.01 251.549 322.502 252.35C322.002 252.615 321.504 252.879 321.005 253.12C320.328 253.451 319.653 253.785 318.978 254.118Z" fill="#ECBA41"/>
<path d="M340.123 251.794C340.985 251.11 341.377 250.793 341.301 250.844C343.784 248.792 345.735 247.107 347.153 245.79C348.597 244.473 349.813 243.092 350.801 241.648C351.789 240.204 352.283 238.798 352.283 237.43C352.283 236.391 352.043 235.581 351.561 234.998C351.08 234.415 350.358 234.124 349.395 234.124C348.433 234.124 347.673 234.491 347.115 235.226C346.583 235.935 346.317 236.949 346.317 238.266H340.047C340.098 236.113 340.554 234.314 341.415 232.87C342.302 231.426 343.455 230.362 344.873 229.678C346.317 228.994 347.913 228.652 349.661 228.652C352.676 228.652 354.943 229.425 356.463 230.97C358.009 232.515 358.781 234.529 358.781 237.012C358.781 239.723 357.857 242.243 356.007 244.574C354.158 246.879 351.802 249.134 348.939 251.338H359.199V256.62H340.123V251.794ZM362.06 242.75C362.06 238.393 362.896 234.96 364.568 232.452C366.266 229.944 368.989 228.69 372.738 228.69C376.488 228.69 379.198 229.944 380.87 232.452C382.568 234.96 383.416 238.393 383.416 242.75C383.416 247.158 382.568 250.616 380.87 253.124C379.198 255.632 376.488 256.886 372.738 256.886C368.989 256.886 366.266 255.632 364.568 253.124C362.896 250.616 362.06 247.158 362.06 242.75ZM377.032 242.75C377.032 240.191 376.754 238.228 376.196 236.86C375.639 235.467 374.486 234.77 372.738 234.77C370.99 234.77 369.838 235.467 369.28 236.86C368.723 238.228 368.444 240.191 368.444 242.75C368.444 244.473 368.546 245.904 368.748 247.044C368.951 248.159 369.356 249.071 369.964 249.78C370.598 250.464 371.522 250.806 372.738 250.806C373.954 250.806 374.866 250.464 375.474 249.78C376.108 249.071 376.526 248.159 376.728 247.044C376.931 245.904 377.032 244.473 377.032 242.75ZM386.621 251.794C387.483 251.11 387.875 250.793 387.799 250.844C390.282 248.792 392.233 247.107 393.651 245.79C395.095 244.473 396.311 243.092 397.299 241.648C398.287 240.204 398.781 238.798 398.781 237.43C398.781 236.391 398.541 235.581 398.059 234.998C397.578 234.415 396.856 234.124 395.893 234.124C394.931 234.124 394.171 234.491 393.613 235.226C393.081 235.935 392.815 236.949 392.815 238.266H386.545C386.596 236.113 387.052 234.314 387.913 232.87C388.8 231.426 389.953 230.362 391.371 229.678C392.815 228.994 394.411 228.652 396.159 228.652C399.174 228.652 401.441 229.425 402.961 230.97C404.507 232.515 405.279 234.529 405.279 237.012C405.279 239.723 404.355 242.243 402.505 244.574C400.656 246.879 398.3 249.134 395.437 251.338H405.697V256.62H386.621V251.794ZM408.33 251.794C409.192 251.11 409.584 250.793 409.508 250.844C411.991 248.792 413.942 247.107 415.36 245.79C416.804 244.473 418.02 243.092 419.008 241.648C419.996 240.204 420.49 238.798 420.49 237.43C420.49 236.391 420.25 235.581 419.768 234.998C419.287 234.415 418.565 234.124 417.602 234.124C416.64 234.124 415.88 234.491 415.322 235.226C414.79 235.935 414.524 236.949 414.524 238.266H408.254C408.305 236.113 408.761 234.314 409.622 232.87C410.509 231.426 411.662 230.362 413.08 229.678C414.524 228.994 416.12 228.652 417.868 228.652C420.883 228.652 423.15 229.425 424.67 230.97C426.216 232.515 426.988 234.529 426.988 237.012C426.988 239.723 426.064 242.243 424.214 244.574C422.365 246.879 420.009 249.134 417.146 251.338H427.406V256.62H408.33V251.794Z" fill="#252121"/>
<path fill-rule="evenodd" clip-rule="evenodd" d="M451.342 229.325C449.151 229.891 447.102 230.715 445.029 231.611C444.588 231.809 444.124 231.998 443.654 232.19C442.061 232.839 440.39 233.52 439.28 234.72C438.88 235.168 439.139 235.898 439.799 235.898C441.476 235.953 443.111 235.217 444.682 234.511C445.141 234.304 445.594 234.1 446.042 233.919C448.115 233.071 450.164 232.176 452.073 230.998C452.944 230.456 452.402 229.066 451.342 229.325ZM452.921 241.811C452.273 241.864 451.625 241.919 450.977 241.973C449.034 242.137 447.09 242.3 445.146 242.424C444.654 242.457 444.157 242.472 443.659 242.487C442.06 242.536 440.459 242.584 439.021 243.248C438.527 243.484 438.503 244.309 439.021 244.544C440.776 245.331 442.772 245.219 444.7 245.112L444.7 245.112C445.024 245.094 445.346 245.076 445.665 245.062C448.233 244.992 450.753 244.756 453.298 244.426C454.829 244.238 454.476 241.67 452.921 241.811ZM448.304 254.118C449.882 254.898 451.454 255.675 453.039 256.418C454.499 257.125 453.439 259.174 451.931 258.609C449.411 257.69 446.937 256.701 444.557 255.428C444.378 255.334 444.195 255.239 444.012 255.144C442.275 254.243 440.429 253.285 439.257 251.73C438.809 251.164 439.375 250.41 440.058 250.505C441.738 250.735 443.273 251.549 444.781 252.35C445.281 252.615 445.778 252.879 446.277 253.12C446.955 253.451 447.63 253.785 448.304 254.118Z" fill="#ECBA41"/>
<path d="M176.694 118.292C218.412 107.463 387.45 70.7457 609.133 118.877C613.154 119.736 614.357 124.687 611.23 127.231L573.154 158.207C571.161 159.823 570.817 162.642 572.295 164.67L595.628 196.368C598.309 199.978 594.907 204.86 590.405 203.828C540.577 192.311 356.487 156.041 184.357 202.006C179.511 203.313 175.938 197.606 179.408 194.065L212.982 159.823C215.044 157.691 214.735 154.322 212.261 152.603L175.044 126.819C171.676 124.481 172.639 119.358 176.694 118.292Z" fill="#ECBA41"/>
<path d="M559.237 180.931C452.261 154.872 335.628 151.227 227.999 176.771C223.979 177.734 225.731 183.372 229.683 182.685C284.116 173.024 338.549 166.457 393.979 166.664C448.996 166.87 504.597 172.749 558.412 183.75C560.336 184.163 561.161 181.412 559.237 180.931Z" fill="#FCF4E1"/>
<path fill-rule="evenodd" clip-rule="evenodd" d="M417.278 121.077L416.006 146.483L411.023 146.243L412.295 120.836L417.278 121.077ZM379.786 130.359L379.752 139.573C379.752 140.226 379.924 140.673 380.233 140.983C380.542 141.258 381.092 141.43 381.848 141.43H384.151V145.486H381.023C376.831 145.486 374.735 143.492 374.735 139.539L374.769 130.359H372.432V126.406H374.769V121.696H379.786V126.406H384.219V130.359H379.786ZM352.604 127.609C351.264 128.434 350.199 129.603 349.443 131.116C348.687 132.594 348.309 134.313 348.343 136.238C348.377 138.198 348.824 139.917 349.649 141.395C350.508 142.908 351.608 144.042 352.982 144.833C354.357 145.624 355.903 146.002 357.553 145.968C359.03 145.933 360.302 145.624 361.436 145.005C362.57 144.386 363.429 143.63 364.048 142.736L364.116 145.521L369.133 145.418L368.721 126.371L363.704 126.475L363.773 129.191C363.085 128.331 362.192 127.643 361.058 127.093C359.958 126.543 358.652 126.268 357.175 126.303C355.456 126.337 353.944 126.784 352.604 127.609ZM361.161 131.116C361.986 131.563 362.639 132.182 363.12 133.007C363.635 133.832 363.876 134.829 363.944 135.998C363.979 137.167 363.738 138.164 363.292 139.023C362.845 139.848 362.192 140.501 361.402 140.983C360.611 141.43 359.752 141.67 358.824 141.705C357.896 141.739 357.037 141.533 356.247 141.086C355.456 140.639 354.804 140.02 354.288 139.161C353.773 138.301 353.532 137.304 353.498 136.17C353.463 135.035 353.67 134.038 354.151 133.179C354.597 132.319 355.216 131.666 356.006 131.219C356.762 130.772 357.621 130.531 358.549 130.497C359.477 130.497 360.336 130.703 361.161 131.116ZM342.226 127.678C343.223 127.059 344.391 126.715 345.731 126.647L345.972 131.7L344.666 131.769C343.085 131.838 341.917 132.25 341.161 133.007C340.405 133.763 340.061 135.001 340.13 136.754L340.577 146.243L335.594 146.483L334.735 127.472L339.718 127.231L339.855 130.188C340.439 129.122 341.23 128.297 342.226 127.678ZM324.735 130.737C324.048 129.878 323.12 129.225 321.951 128.743C320.817 128.262 319.511 128.09 317.999 128.159C316.316 128.262 314.804 128.778 313.498 129.672C312.192 130.566 311.195 131.769 310.508 133.316C309.821 134.863 309.546 136.582 309.683 138.507C309.821 140.467 310.336 142.151 311.23 143.595C312.123 145.039 313.292 146.105 314.735 146.861C316.178 147.618 317.725 147.893 319.374 147.79C320.817 147.687 322.054 147.308 323.154 146.621C324.254 145.968 325.078 145.142 325.663 144.214L325.869 147.171C325.972 148.855 325.628 150.162 324.769 151.056C323.91 151.984 322.776 152.465 321.333 152.568C320.096 152.637 319.03 152.465 318.137 152.018C317.243 151.571 316.625 150.918 316.316 150.059L311.367 150.403C311.745 152.534 312.914 154.184 314.769 155.319C316.625 156.453 318.996 156.935 321.78 156.728C323.876 156.591 325.628 156.075 327.037 155.147C328.481 154.219 329.477 153.05 330.13 151.606C330.749 150.196 331.023 148.58 330.886 146.827L329.546 127.678L324.529 128.022L324.735 130.737ZM322.261 132.8C323.12 133.178 323.773 133.797 324.322 134.588C324.838 135.379 325.147 136.376 325.216 137.51C325.285 138.679 325.113 139.676 324.7 140.57C324.288 141.464 323.67 142.117 322.914 142.633C322.158 143.148 321.298 143.423 320.371 143.492C319.477 143.561 318.618 143.389 317.793 142.977C316.969 142.598 316.281 141.98 315.731 141.154C315.216 140.329 314.872 139.332 314.804 138.198C314.735 137.029 314.907 136.032 315.319 135.172C315.766 134.313 316.35 133.625 317.106 133.144C317.862 132.663 318.687 132.388 319.615 132.319C320.542 132.25 321.402 132.422 322.261 132.8ZM303.223 131.563C304.804 132.835 305.731 134.76 306.006 137.304L307.14 148.409L302.158 148.925L301.092 138.473C300.955 136.961 300.439 135.86 299.58 135.104C298.721 134.382 297.621 134.073 296.281 134.21C294.907 134.348 293.876 134.863 293.154 135.757C292.432 136.651 292.158 137.854 292.329 139.333L293.395 149.784L288.412 150.3L286.487 131.357L291.47 130.841L291.711 133.213C292.295 132.319 293.085 131.597 294.048 131.013C295.044 130.429 296.144 130.085 297.347 129.982C299.649 129.775 301.608 130.291 303.223 131.563ZM240.199 134.485C238.481 135.86 237.243 137.545 236.487 139.573C235.731 141.602 235.525 143.802 235.972 146.105C236.384 148.443 237.278 150.403 238.687 152.053C240.061 153.703 241.814 154.872 243.876 155.56C245.938 156.282 248.137 156.419 250.474 156.007C253.257 155.525 255.525 154.425 257.347 152.74C259.168 151.022 260.267 148.89 260.68 146.346L255.01 147.343C254.632 148.546 254.013 149.543 253.085 150.3C252.192 151.056 251.058 151.537 249.718 151.778C248.274 152.019 246.969 151.915 245.731 151.468C244.494 151.022 243.463 150.231 242.639 149.165C241.814 148.099 241.264 146.758 240.989 145.211C240.714 143.63 240.783 142.186 241.195 140.914C241.608 139.642 242.329 138.576 243.326 137.751C244.322 136.926 245.525 136.376 246.969 136.135C248.309 135.895 249.511 135.998 250.645 136.376C251.78 136.754 252.707 137.476 253.463 138.507L259.133 137.51C257.896 135.241 256.144 133.626 253.841 132.629C251.539 131.632 249.03 131.357 246.281 131.838C243.944 132.25 241.917 133.144 240.199 134.485ZM265.422 148.924C266.487 150.299 267.828 151.262 269.443 151.881C271.058 152.465 272.81 152.637 274.666 152.362C276.556 152.121 278.24 151.468 279.683 150.471C281.127 149.44 282.192 148.133 282.913 146.552C283.635 144.97 283.876 143.183 283.601 141.258C283.36 139.332 282.707 137.682 281.608 136.341C280.508 134.966 279.168 133.969 277.518 133.385C275.869 132.8 274.082 132.628 272.226 132.869C270.371 133.11 268.687 133.763 267.278 134.76C265.869 135.791 264.804 137.098 264.116 138.679C263.429 140.295 263.223 142.048 263.463 143.973C263.704 145.899 264.357 147.549 265.422 148.924ZM278.24 145.142C277.862 146.036 277.312 146.758 276.59 147.274C275.869 147.79 275.044 148.133 274.151 148.271C272.742 148.443 271.505 148.133 270.439 147.274C269.374 146.449 268.721 145.108 268.48 143.32C268.24 141.533 268.549 140.089 269.374 138.988C270.199 137.888 271.333 137.235 272.742 137.063C274.151 136.857 275.422 137.201 276.522 138.026C277.621 138.885 278.309 140.192 278.549 141.979C278.687 143.183 278.618 144.249 278.24 145.142ZM406.247 145.968L406.762 126.921L401.711 126.784L401.436 137.27C401.401 138.748 400.989 139.917 400.164 140.708C399.374 141.498 398.274 141.876 396.9 141.842C395.56 141.808 394.494 141.361 393.738 140.536C392.982 139.711 392.639 138.542 392.673 137.029L392.948 126.543L387.931 126.406L387.621 137.579C387.587 139.264 387.862 140.742 388.515 141.98C389.168 143.217 390.061 144.18 391.23 144.833C392.432 145.521 393.773 145.864 395.319 145.899C396.556 145.933 397.656 145.693 398.721 145.28C399.786 144.867 400.645 144.249 401.298 143.424L401.23 145.83L406.247 145.968ZM425.216 128.812C423.807 129.534 422.639 130.566 421.745 132.01C420.852 133.454 420.336 135.104 420.199 136.96C420.061 138.92 420.336 140.673 421.023 142.22C421.711 143.767 422.707 145.005 424.013 145.933C425.319 146.862 426.797 147.377 428.446 147.515C429.924 147.618 431.23 147.446 432.398 146.93C433.566 146.415 434.494 145.761 435.216 144.902L435.01 147.687L440.027 148.065L441.401 129.087L436.384 128.709L436.178 131.425C435.559 130.531 434.7 129.741 433.669 129.087C432.639 128.434 431.367 128.056 429.889 127.953C428.206 127.815 426.625 128.125 425.216 128.812ZM433.429 133.11C434.219 133.625 434.803 134.313 435.216 135.173C435.628 136.066 435.766 137.063 435.731 138.198C435.663 139.367 435.353 140.364 434.803 141.155C434.254 141.945 433.566 142.564 432.742 142.942C431.917 143.32 431.023 143.492 430.096 143.424C429.168 143.355 428.343 143.08 427.587 142.564C426.797 142.014 426.212 141.326 425.8 140.433C425.353 139.539 425.182 138.507 425.285 137.373C425.388 136.238 425.697 135.241 426.247 134.451C426.762 133.66 427.45 133.041 428.274 132.697C429.099 132.353 429.958 132.182 430.886 132.25C431.814 132.319 432.639 132.594 433.429 133.11ZM451.951 134.141L451.023 143.32C450.955 143.974 451.058 144.455 451.367 144.764C451.642 145.074 452.192 145.28 452.948 145.349L455.25 145.589L454.838 149.612L451.711 149.302C447.518 148.89 445.628 146.724 446.006 142.805L446.9 133.66L444.563 133.419L444.941 129.5L447.278 129.741L447.759 125.065L452.776 125.581L452.295 130.256L456.694 130.703L456.316 134.622L451.951 134.141ZM463.36 150.575L465.56 131.666L460.611 131.082L458.412 149.99L463.36 150.575ZM460.68 125.959C460.577 126.75 460.783 127.472 461.298 128.056C461.814 128.675 462.501 129.019 463.395 129.122C464.254 129.225 465.01 129.019 465.663 128.572C466.316 128.125 466.659 127.472 466.762 126.681C466.865 125.89 466.659 125.169 466.144 124.584C465.628 123.965 464.907 123.621 464.048 123.518C463.189 123.415 462.432 123.621 461.78 124.068C461.127 124.515 460.783 125.169 460.68 125.959ZM471.78 150.712C470.371 149.681 469.374 148.374 468.721 146.793C468.068 145.212 467.862 143.424 468.137 141.499C468.412 139.573 469.099 137.923 470.164 136.582C471.264 135.242 472.604 134.279 474.254 133.66C475.903 133.076 477.656 132.904 479.546 133.179C481.436 133.454 483.085 134.073 484.494 135.104C485.903 136.135 486.969 137.442 487.621 139.023C488.309 140.639 488.481 142.392 488.24 144.318C487.965 146.243 487.278 147.893 486.178 149.234C485.044 150.575 483.67 151.537 482.02 152.122C480.371 152.706 478.584 152.878 476.694 152.603C474.804 152.362 473.154 151.709 471.78 150.712ZM479.89 148.203C480.749 147.893 481.47 147.343 482.054 146.587C482.639 145.83 483.017 144.833 483.189 143.63C483.429 141.842 483.154 140.398 482.295 139.298C481.436 138.198 480.336 137.545 478.927 137.339C477.518 137.132 476.247 137.442 475.182 138.301C474.082 139.126 473.429 140.433 473.154 142.221C472.914 144.008 473.154 145.452 473.979 146.552C474.769 147.652 475.869 148.306 477.278 148.512C478.171 148.615 479.03 148.512 479.89 148.203ZM510.921 146.621C511.367 144.077 510.989 141.98 509.821 140.329C508.652 138.679 506.9 137.648 504.529 137.201C503.326 136.995 502.158 137.029 501.058 137.304C499.958 137.579 498.996 138.095 498.206 138.782L498.618 136.444L493.704 135.585L490.405 154.356L495.319 155.216L497.14 144.867C497.415 143.389 498 142.289 498.927 141.636C499.855 140.983 500.989 140.776 502.364 141.017C503.704 141.258 504.701 141.842 505.319 142.77C505.938 143.698 506.144 144.936 505.869 146.414L504.048 156.763L508.962 157.622L510.921 146.621ZM516.625 158.654C515.491 157.828 514.632 156.866 514.116 155.8C513.566 154.7 513.395 153.565 513.566 152.431L518.48 153.462C518.412 154.184 518.652 154.872 519.202 155.491C519.752 156.11 520.474 156.488 521.436 156.694C522.364 156.9 523.12 156.866 523.738 156.625C524.322 156.385 524.7 155.972 524.803 155.422C524.941 154.803 524.7 154.287 524.116 153.84C523.532 153.394 522.604 152.843 521.264 152.19C519.889 151.537 518.79 150.953 517.931 150.403C517.072 149.852 516.419 149.131 515.903 148.271C515.388 147.377 515.285 146.311 515.559 145.074C515.766 144.042 516.281 143.183 517.072 142.461C517.862 141.739 518.893 141.258 520.164 141.017C521.436 140.776 522.845 140.811 524.391 141.154C526.693 141.636 528.412 142.598 529.546 143.974C530.68 145.383 531.126 147.033 530.852 148.959L526.178 147.962C526.281 147.205 526.075 146.552 525.594 146.002C525.113 145.452 524.391 145.074 523.463 144.867C522.57 144.696 521.883 144.696 521.333 144.902C520.783 145.108 520.474 145.486 520.336 146.071C520.199 146.69 520.439 147.24 521.023 147.721C521.608 148.202 522.535 148.718 523.841 149.371C525.181 149.99 526.247 150.609 527.071 151.159C527.896 151.709 528.584 152.431 529.065 153.325C529.58 154.219 529.718 155.284 529.477 156.522C529.236 157.588 528.755 158.482 527.931 159.204C527.14 159.926 526.109 160.407 524.872 160.648C523.601 160.888 522.226 160.854 520.68 160.51C519.133 160.063 517.759 159.479 516.625 158.654ZM533.601 160.304C533.395 161.095 533.532 161.817 533.979 162.47C534.426 163.123 535.113 163.536 535.972 163.776C536.831 163.983 537.587 163.88 538.274 163.501C538.962 163.123 539.408 162.539 539.58 161.748C539.752 160.957 539.615 160.27 539.202 159.582C538.79 158.895 538.137 158.482 537.278 158.276C536.384 158.07 535.594 158.173 534.907 158.551C534.219 158.929 533.773 159.513 533.601 160.304ZM539.786 156.385L544.185 140.364L538.962 139.126L535.697 155.422L539.786 156.385Z" fill="#252121"/>
<path fill-rule="evenodd" clip-rule="evenodd" d="M454.013 55.9968C453.807 55.1029 452.467 55.0342 452.158 55.8936C450.793 59.7561 450.547 64.0429 450.308 68.2195C450.227 69.6192 450.148 71.0065 450.027 72.3614C449.849 74.4687 449.637 76.5761 449.425 78.6848L449.425 78.6849C449.151 81.4165 448.877 84.1505 448.674 86.89C441.641 89.1647 441.269 103.973 442.158 109.01C442.295 109.801 443.601 109.869 443.807 109.113C444.351 107.048 444.517 104.813 444.684 102.563C444.981 98.5591 445.282 94.5059 447.725 91.2702C447.966 90.9532 448.209 90.7049 448.452 90.5177C448.452 90.5278 448.451 90.5379 448.451 90.548C448.026 92.348 447.866 94.2278 447.71 96.065C447.67 96.5329 447.631 96.9981 447.587 97.4585C447.492 98.394 447.377 99.336 447.262 100.281C446.919 103.088 446.574 105.923 446.728 108.701C446.797 110.041 448.79 110.626 449.271 109.182C450.308 106.132 450.641 102.865 450.967 99.6697L450.967 99.6695C451.008 99.2634 451.05 98.8586 451.092 98.4555C451.124 98.162 451.156 97.8671 451.189 97.571L451.189 97.571C451.423 95.4489 451.663 93.2691 451.52 91.1397C451.529 91.1176 451.537 91.095 451.544 91.0722C452.347 91.9992 452.912 93.412 453.017 94.6737C453.154 96.2552 453.188 97.8366 453.188 99.4181C453.223 102.581 453.051 105.744 452.57 108.872C452.261 110.832 455.628 111.073 455.834 109.044C455.863 108.696 455.908 108.242 455.962 107.703C456.487 102.442 457.822 89.0714 452.238 86.8956C452.786 82.9987 453.131 79.0635 453.475 75.1447L453.475 75.1447L453.476 75.1442C453.551 74.2843 453.626 73.4253 453.704 72.5676C453.792 71.496 453.902 70.4097 454.012 69.3153C454.461 64.862 454.924 60.2743 454.013 55.9968Z" fill="#252121"/>
<path d="M433.223 103.681C422.707 111.588 404.7 117.605 394.804 120.493C390.405 121.765 385.663 121.524 381.436 119.771L351.78 107.532C345.388 104.884 341.195 98.8336 341.23 92.1296C341.264 86.3882 341.745 80.9219 342.329 75.765C342.604 73.3928 342.879 71.2613 343.154 69.4736C343.704 65.8294 346.659 62.9759 350.439 62.4946C368.618 60.1224 409.615 55.4468 426.281 53.5559C430.749 53.0402 434.804 55.9969 435.628 60.2255C436.522 64.8324 436.969 69.8518 437.175 74.8024C437.518 84.2567 436.865 93.2985 436.419 98.0085C436.213 100.243 435.044 102.306 433.223 103.681Z" fill="#252121"/>
<path d="M437.175 74.802C423.67 82.4686 410.817 89.7227 395.938 96.3923C394.529 97.0455 393.051 97.6643 391.505 97.905C388.034 98.3863 384.666 96.7361 381.573 95.1546C372.742 90.5822 360.749 85.8378 351.951 81.2653C348.962 79.7183 345.388 77.9993 342.329 75.7646C343.188 68.4418 344.151 63.3537 344.151 63.3537C359.271 61.0847 433.532 52.7305 433.532 52.7305C435.938 58.85 436.9 66.9635 437.175 74.802Z" fill="#F3E2BA"/>
<path d="M324.804 65.0729L388.927 92.989C389.924 93.4359 391.092 93.4015 392.089 92.8858L454.116 60.913C456.797 59.5035 456.522 55.6873 453.635 54.656L390.13 32.2062C389.271 31.8968 388.309 31.9312 387.484 32.275L324.838 58.7815C322.02 59.9848 321.986 63.8353 324.804 65.0729Z" fill="#252121"/>
<path d="M384.597 82.8815C376.831 77.6903 367.209 74.1836 358.687 70.1612C350.68 66.3794 342.398 61.532 333.876 59.0223C332.81 58.7128 332.158 60.0536 333.017 60.6725C340.68 66.0356 350.233 69.6455 358.687 73.771C366.659 77.6559 374.872 82.6065 383.36 85.2881C384.907 85.7694 385.903 83.741 384.597 82.8815Z" fill="#494141"/>
<path d="M444.185 55.4121C434.804 57.5092 425.903 63.5944 417.69 68.27C408.549 73.4269 398.515 77.3118 389.58 82.7437C387.793 83.8095 389.099 86.1473 391.023 85.4941C400.852 82.0905 410.302 76.4179 419.237 71.261C427.553 66.4479 437.278 62.6318 444.975 56.9592C445.731 56.4091 445.044 55.2402 444.185 55.4121Z" fill="#494141"/>
<path fill-rule="evenodd" clip-rule="evenodd" d="M132.531 185.815C132.531 191.783 127.688 196.632 121.716 196.632C115.744 196.632 110.901 191.783 110.901 185.815C110.901 179.837 115.744 175 121.716 175C127.687 175 132.531 179.838 132.531 185.815ZM121.457 183.211C121.642 183.595 121.737 184.015 121.736 184.44L121.736 184.44C121.734 185.212 121.421 185.951 120.863 186.498C120.306 187.044 119.55 187.352 118.761 187.355C117.756 187.356 116.819 186.86 116.269 186.037C115.72 185.215 115.632 184.177 116.037 183.278C116.441 182.378 117.283 181.739 118.274 181.579C119.266 181.418 120.273 181.758 120.952 182.482C121.344 182.268 121.773 182.173 122.331 182.173C122.814 182.17 123.29 182.284 123.717 182.504C124.345 181.823 125.264 181.47 126.198 181.551C127.133 181.632 127.974 182.137 128.47 182.916C128.965 183.694 129.058 184.655 128.72 185.51C128.382 186.366 127.652 187.016 126.75 187.267C125.848 187.517 124.877 187.338 124.13 186.784C123.382 186.23 122.945 185.365 122.948 184.448C122.946 184.034 123.036 183.624 123.212 183.248C122.935 183.116 122.631 183.048 122.323 183.049C121.954 183.049 121.698 183.093 121.457 183.211ZM125.916 182.416V182.415L125.912 182.416C125.246 182.416 124.621 182.731 124.236 183.262C124.221 183.293 124.204 183.323 124.183 183.351H124.184C124.176 183.358 124.17 183.366 124.164 183.373C124.159 183.38 124.153 183.388 124.146 183.395C123.825 183.911 123.757 184.54 123.958 185.112C124.159 185.683 124.61 186.137 125.188 186.35C125.766 186.565 126.411 186.516 126.949 186.218C127.487 185.921 127.862 185.405 127.972 184.811C128.081 184.216 127.915 183.605 127.518 183.142C127.121 182.679 126.534 182.413 125.916 182.416ZM118.761 186.457V186.457L118.757 186.457C118.758 186.457 118.76 186.457 118.761 186.457ZM118.761 186.457V186.457C119.31 186.458 119.836 186.245 120.224 185.866C120.614 185.486 120.832 184.971 120.832 184.433C120.832 183.896 120.614 183.381 120.225 183.001C119.837 182.621 119.31 182.408 118.761 182.408C118.211 182.408 117.685 182.621 117.296 183.001C116.908 183.381 116.69 183.896 116.69 184.433C116.69 184.97 116.908 185.485 117.296 185.864C117.685 186.244 118.211 186.457 118.761 186.457Z" fill="#E4582D"/>
<path d="M121.623 212.189L104.839 206.351L104.109 228.973L121.623 234.811L137.678 229.702L138.407 206.351L121.623 212.189Z" fill="white"/>
<path d="M104.775 241.378V231.781L95.1509 234.459C94.4444 234.74 93.677 234.897 92.8749 234.897C89.4717 234.898 86.7122 232.13 86.7122 228.732C86.7122 227.451 87.1009 226.266 87.765 225.283L103.204 204.115C104.88 201.818 107.221 199.26 112.157 199.26H130.822C135.756 199.26 138.098 201.819 139.772 204.115L155.21 225.283C155.874 226.266 156.265 227.451 156.265 228.732C156.265 232.131 153.502 234.898 150.102 234.898C149.301 234.898 148.53 234.741 147.826 234.46L138.198 231.782L138.198 241.379L104.775 241.378ZM121.488 234.673L133.96 230.547L133.679 230.468C125.073 227.936 128.424 216.568 137.027 219.106L138.204 219.501V206.664L121.488 212.124L104.773 206.664V219.502L105.944 219.106C114.554 216.568 117.903 227.937 109.294 230.471L109.018 230.548L121.488 234.673Z" fill="#E4582D"/>
<path d="M166.138 241.378H44.9999V253.054H59.5949V299.028H73.4601V288.082H136.948V299.028H150.813V253.054H166.138V241.378Z" fill="#F2A091"/>
<path fill-rule="evenodd" clip-rule="evenodd" d="M53.8483 215.309H45.9831V240.871H53.8483V215.309ZM51.882 222.191H47.9494V235.955H51.882V222.191Z" fill="#494141"/>
<path fill-rule="evenodd" clip-rule="evenodd" d="M63.6799 215.309H55.8147V240.871H63.6799V215.309ZM61.7137 222.191H57.7811V235.955H61.7137V222.191Z" fill="#ECBA41"/>
<path fill-rule="evenodd" clip-rule="evenodd" d="M71.4744 215.309L64.663 219.242L77.4439 241.379L84.2554 237.446L71.4744 215.309ZM73.2126 222.252L69.8068 224.219L76.6889 236.139L80.0946 234.173L73.2126 222.252Z" fill="#494141"/>
<circle cx="524.251" cy="49.2509" r="7.25091" fill="#E4582D"/>
<path d="M662.254 167.118C657.288 150.272 650.068 119.524 660.92 131.298C674.484 146.016 622.067 133.923 642.494 109.192" stroke="#E4582D" stroke-width="2.63669" stroke-linecap="round"/>
<path d="M672.337 54.2667C672.279 53.5409 671.645 52.9987 670.919 53.0558C670.193 53.1129 669.651 53.7476 669.708 54.4735L672.337 54.2667ZM705.974 72.3679L705.7 71.0783L705.974 72.3679ZM725.826 74.9969C725.504 75.6503 725.774 76.4404 726.427 76.7617C727.08 77.0829 727.871 76.8136 728.192 76.1602L725.826 74.9969ZM669.708 54.4735C670.059 58.9418 672.339 65.2134 678.04 69.6387C683.782 74.0952 692.782 76.5185 706.248 73.6574L705.7 71.0783C692.778 73.8238 684.63 71.4159 679.657 67.5558C674.643 63.6644 672.641 58.1338 672.337 54.2667L669.708 54.4735ZM706.248 73.6574C714.482 71.9079 719.993 70.9785 723.6 70.6251C725.406 70.4481 726.687 70.4208 727.57 70.4931C728.01 70.5292 728.32 70.5876 728.532 70.6501C728.747 70.7135 728.814 70.7676 728.811 70.7651C728.791 70.7488 728.734 70.6852 728.706 70.584C728.683 70.5009 728.704 70.4732 728.687 70.5444C728.645 70.7262 728.491 71.0488 728.15 71.5574C727.817 72.0547 727.431 72.5516 726.994 73.1525C726.584 73.7156 726.142 74.3537 725.826 74.9969L728.192 76.1602C728.4 75.7369 728.724 75.2559 729.126 74.7043C729.5 74.1905 729.97 73.5773 730.34 73.0261C730.702 72.4862 731.099 71.822 731.257 71.136C731.34 70.7733 731.373 70.3414 731.25 69.891C731.122 69.4225 730.852 69.0285 730.483 68.7258C729.809 68.1739 728.842 67.9518 727.785 67.8653C726.676 67.7744 725.218 67.8172 723.343 68.001C719.585 68.3692 713.958 69.3237 705.7 71.0783L706.248 73.6574Z" fill="#ECBA41"/>
<circle cx="600.251" cy="276.251" r="5.93256" stroke="#ECBA41" stroke-width="2.63669"/>
<path d="M167.252 82.4084C164.21 67.5964 161.282 39.9998 173.899 48.1104C189.67 58.2486 187.424 48.0711 187.319 45.2764C187.215 42.4817 193.148 38.9948 198.533 45.79" stroke="#E4582D" stroke-width="2.63669" stroke-linecap="round"/>
<path d="M122.636 140.189C112.786 131.219 96.0039 114.122 107.674 117.487C122.262 121.693 83.513 134.479 87.0269 110.403" stroke="#F5C654" stroke-width="2" stroke-linecap="round"/>
<path d="M552.138 233.69C552.397 234.178 553.002 234.365 553.49 234.106L561.443 229.893C561.931 229.634 562.117 229.029 561.859 228.541C561.6 228.053 560.995 227.867 560.507 228.125L553.438 231.871L549.692 224.801C549.434 224.313 548.829 224.127 548.341 224.386C547.853 224.644 547.667 225.25 547.925 225.738L552.138 233.69ZM553.025 233.214L553.981 233.508L553.981 233.508L553.025 233.214ZM560.195 221.986L560.548 222.922L560.195 221.986ZM565.52 236.869C565.262 237.357 565.449 237.962 565.937 238.22C566.425 238.478 567.03 238.291 567.288 237.803L565.52 236.869ZM553.978 233.516L553.981 233.508L552.069 232.92L552.066 232.929L553.978 233.516ZM553.981 233.508C554.552 231.647 555.269 229.325 556.344 227.273C557.427 225.207 558.786 223.586 560.548 222.922L559.842 221.05C557.397 221.973 555.739 224.118 554.572 226.345C553.398 228.586 552.633 231.084 552.069 232.92L553.981 233.508ZM560.548 222.922C561.125 222.704 562.035 222.741 563.081 223.21C564.106 223.668 565.157 224.5 565.959 225.68C567.528 227.99 568.216 231.765 565.52 236.869L567.288 237.803C570.272 232.156 569.664 227.575 567.613 224.556C566.605 223.072 565.265 221.996 563.899 221.384C562.554 220.783 561.074 220.586 559.842 221.05L560.548 222.922Z" fill="#E4582D"/>
</svg>
