<svg width="786" height="299" viewBox="0 0 786 299" fill="none" xmlns="http://www.w3.org/2000/svg">
<rect width="786" height="299" rx="8" fill="#D89CB5"/>
<mask id="mask0_457_15686" style="mask-type:alpha" maskUnits="userSpaceOnUse" x="0" y="0" width="786" height="299">
<rect width="786" height="299" rx="8" fill="#23ACAD"/>
</mask>
<g mask="url(#mask0_457_15686)">
<path opacity="0.2" fill-rule="evenodd" clip-rule="evenodd" d="M597.012 156.5C597.012 264.093 509.791 351.314 402.198 351.314C294.605 351.314 207.384 264.093 207.384 156.5C207.384 48.9071 294.605 -38.3141 402.198 -38.3141C509.791 -38.3141 597.012 48.9071 597.012 156.5ZM599 156.5C599 265.191 510.889 353.302 402.198 353.302C293.507 353.302 205.396 265.191 205.396 156.5C205.396 47.8092 293.507 -40.302 402.198 -40.302C510.889 -40.302 599 47.8092 599 156.5ZM529.424 156.5C529.424 226.765 472.463 283.726 402.198 283.726C331.933 283.726 274.973 226.765 274.973 156.5C274.973 86.2356 331.933 29.2748 402.198 29.2748C472.463 29.2748 529.424 86.2356 529.424 156.5ZM531.411 156.5C531.411 227.863 473.561 285.714 402.198 285.714C330.836 285.714 272.985 227.863 272.985 156.5C272.985 85.1377 330.836 27.2869 402.198 27.2869C473.561 27.2869 531.411 85.1377 531.411 156.5Z" fill="white"/>
</g>
<circle cx="515.251" cy="49.2509" r="7.25091" fill="#882A52"/>
<path d="M653.254 167.118C648.288 150.272 641.068 119.523 651.92 131.298C665.484 146.016 613.067 133.922 633.494 109.191" stroke="#882A52" stroke-width="2.63669" stroke-linecap="round"/>
<path d="M276.336 236.267C276.279 235.541 275.645 234.999 274.919 235.056C274.193 235.113 273.651 235.748 273.708 236.473L276.336 236.267ZM309.974 254.368L309.7 253.078L309.974 254.368ZM329.825 256.997C329.504 257.65 329.773 258.44 330.427 258.762C331.08 259.083 331.87 258.814 332.192 258.16L329.825 256.997ZM273.708 236.473C274.059 240.942 276.339 247.213 282.04 251.639C287.782 256.095 296.782 258.519 310.248 255.657L309.7 253.078C296.778 255.824 288.63 253.416 283.657 249.556C278.643 245.664 276.641 240.134 276.336 236.267L273.708 236.473ZM310.248 255.657C318.482 253.908 323.993 252.979 327.6 252.625C329.406 252.448 330.687 252.421 331.57 252.493C332.01 252.529 332.32 252.588 332.532 252.65C332.747 252.714 332.814 252.768 332.811 252.765C332.791 252.749 332.733 252.685 332.706 252.584C332.683 252.501 332.703 252.473 332.687 252.544C332.645 252.726 332.491 253.049 332.15 253.557C331.817 254.055 331.431 254.552 330.994 255.153C330.584 255.716 330.142 256.354 329.825 256.997L332.192 258.16C332.4 257.737 332.724 257.256 333.126 256.704C333.5 256.191 333.97 255.577 334.34 255.026C334.702 254.486 335.099 253.822 335.257 253.136C335.34 252.773 335.373 252.341 335.25 251.891C335.122 251.422 334.852 251.029 334.483 250.726C333.809 250.174 332.842 249.952 331.785 249.865C330.676 249.774 329.218 249.817 327.342 250.001C323.585 250.369 317.958 251.324 309.7 253.078L310.248 255.657Z" fill="#882A52"/>
<circle cx="540.251" cy="246.251" r="5.93256" stroke="white" stroke-width="2.63669"/>
<path d="M182.341 182.705C182.309 181.978 181.693 181.414 180.965 181.446L169.112 181.973C168.385 182.005 167.821 182.621 167.853 183.348C167.886 184.076 168.502 184.639 169.229 184.607L179.765 184.139L180.233 194.675C180.266 195.403 180.882 195.966 181.609 195.934C182.336 195.902 182.9 195.286 182.867 194.558L182.341 182.705ZM181.016 182.772L180.043 181.882L181.016 182.772ZM166.132 192.096L166.24 190.782L166.24 190.782L166.132 192.096ZM168.196 171.36C168.779 170.924 168.899 170.098 168.463 169.515C168.027 168.932 167.2 168.813 166.617 169.249L168.196 171.36ZM180.051 181.873L180.043 181.882L181.989 183.662L181.997 183.653L180.051 181.873ZM180.043 181.882C178.311 183.775 176.146 186.137 173.706 187.973C171.249 189.824 168.715 190.986 166.24 190.782L166.024 193.41C169.458 193.693 172.645 192.073 175.292 190.08C177.957 188.073 180.28 185.53 181.989 183.662L180.043 181.882ZM166.24 190.782C165.431 190.716 164.368 190.158 163.386 189.008C162.424 187.883 161.642 186.299 161.353 184.44C160.789 180.803 162.101 175.916 168.196 171.36L166.617 169.249C159.874 174.289 158.01 180.09 158.748 184.845C159.11 187.182 160.099 189.22 161.381 190.721C162.642 192.197 164.294 193.268 166.024 193.41L166.24 190.782Z" fill="#E37763"/>
<path d="M174.252 82.4087C171.21 67.5966 168.282 40.0001 180.899 48.1106C196.67 58.2488 194.424 48.0713 194.319 45.2767C194.215 42.482 200.148 38.9951 205.533 45.7902" stroke="#882A52" stroke-width="2.63669" stroke-linecap="round"/>
<path d="M293.501 23.3776L303.736 28.2585L295.263 34.567L293.501 23.3776Z" fill="#E4582D" stroke="#E4582D" stroke-width="1.18987" stroke-linecap="round"/>
<path d="M323.97 174.104H319.985V177.647H316V181.189H319.985V184.731H323.97V181.189H327.955V177.647H323.97V174.104Z" fill="#882A52"/>
<path d="M465.219 99.7165H468.318V96.617H471.418V93.5175H468.318V90.418H465.219V93.5175H462.119V96.617H465.219V99.7165Z" fill="#882A52"/>
<path d="M343.231 99.7164C343.613 99.7164 343.979 99.5531 344.249 99.2625C344.519 98.972 344.67 98.5776 344.67 98.1667C344.598 96.5 345.182 94.8784 346.278 93.6986C347.373 92.519 348.879 91.8901 350.427 91.9676C351.221 91.9676 351.866 91.2737 351.866 90.4179C351.866 89.5621 351.221 88.8682 350.427 88.8682C348.879 88.9456 347.373 88.3167 346.278 87.1372C345.182 85.9575 344.598 84.3359 344.67 82.6691C344.67 81.8133 344.026 81.1194 343.231 81.1194C342.437 81.1194 341.792 81.8133 341.792 82.6691C341.864 84.3358 341.28 85.9574 340.185 87.1372C339.09 88.3168 337.584 88.9457 336.036 88.8682C335.241 88.8682 334.597 89.5621 334.597 90.4179C334.597 91.2737 335.241 91.9676 336.036 91.9676C337.584 91.8901 339.089 92.519 340.185 93.6986C341.28 94.8782 341.864 96.4999 341.792 98.1667C341.792 98.5776 341.944 98.972 342.214 99.2625C342.484 99.5531 342.85 99.7164 343.231 99.7164ZM343.231 88.0222C343.818 88.9714 344.575 89.7864 345.456 90.418C344.575 91.0496 343.818 91.8646 343.231 92.8138C342.645 91.8646 341.888 91.0496 341.007 90.418C341.888 89.7863 342.645 88.9713 343.231 88.0222Z" fill="#882A52"/>
<path d="M487.925 196.514L487.925 196.514C489.144 197.826 490.829 198.539 492.574 198.458C492.952 198.466 493.336 198.813 493.336 199.343C493.336 199.873 492.952 200.221 492.574 200.229C490.829 200.147 489.143 200.86 487.925 202.172L487.925 202.172C486.708 203.483 486.066 205.273 486.14 207.104C486.134 207.633 485.745 207.978 485.366 207.978C484.986 207.978 484.597 207.633 484.591 207.104C484.666 205.273 484.023 203.483 482.806 202.172L482.806 202.172C481.588 200.86 479.903 200.147 478.157 200.229C477.779 200.221 477.396 199.873 477.396 199.343C477.396 198.813 477.779 198.466 478.157 198.458C479.903 198.539 481.588 197.826 482.806 196.514L482.806 196.514C484.023 195.203 484.666 193.414 484.591 191.582C484.597 191.053 484.986 190.709 485.366 190.709C485.745 190.709 486.134 191.053 486.14 191.582C486.066 193.414 486.708 195.204 487.925 196.514ZM484.801 202.088L485.366 203.003L485.931 202.088C486.472 201.211 487.169 200.462 487.977 199.883L488.731 199.343L487.977 198.803C487.169 198.224 486.472 197.475 485.931 196.598L485.366 195.684L484.801 196.598C484.259 197.475 483.562 198.224 482.754 198.803L482.001 199.343L482.754 199.883C483.562 200.462 484.259 201.211 484.801 202.088Z" fill="#E4582D" stroke="#E4582D" stroke-width="1.32836"/>
<path fill-rule="evenodd" clip-rule="evenodd" d="M430.393 87.5329C431.009 88.1479 431.018 88.256 431.097 95.9427L431.178 103.729L432.557 104.139C434.431 104.695 439.593 106.596 441.202 107.322C446.608 109.762 449.037 111.096 453.188 113.905C480.985 132.72 485.376 164.093 463.466 187.332C461.833 189.064 456.621 193.514 454.83 194.707C450.268 197.744 448.56 198.75 444.727 200.659C442.332 201.852 440.207 202.828 440.005 202.828C439.716 202.828 439.639 203.638 439.639 206.65V210.473L438.815 211.412C438.361 211.928 437.684 212.427 437.309 212.521L436.628 212.692V220.907C436.628 227.987 436.571 229.144 436.214 229.28C435.746 229.46 434.96 228.917 435.014 228.452C435.034 228.284 435.036 226.329 435.018 224.109L434.986 220.072H434.164H433.343V224.597C433.343 228.383 433.276 229.147 432.929 229.28C431.886 229.681 431.701 228.947 431.701 224.418V220.072H430.88H430.059V224.597C430.059 228.383 429.991 229.147 429.645 229.28C428.602 229.681 428.416 228.947 428.416 224.418V220.072H427.595H426.774V224.597C426.774 228.543 426.717 229.144 426.324 229.294C425.367 229.661 425.132 228.668 425.132 224.262V220.072H424.311H423.49V224.597C423.49 228.383 423.422 229.147 423.075 229.28C422.033 229.681 421.847 228.947 421.847 224.418V220.072H421.026H420.205V224.597C420.205 228.383 420.137 229.147 419.791 229.28C418.748 229.681 418.563 228.947 418.563 224.418V220.072H417.742H416.92V224.597C416.92 228.383 416.853 229.147 416.506 229.28C416.039 229.46 415.252 228.917 415.307 228.452C415.327 228.284 415.329 226.329 415.31 224.109L415.278 220.072H414.457H413.636V224.597C413.636 228.383 413.568 229.147 413.222 229.28C412.179 229.681 411.994 228.947 411.994 224.418V220.072H411.172H410.351V224.597C410.351 228.543 410.294 229.144 409.901 229.294C408.981 229.647 408.739 228.681 408.733 224.625C408.729 222.497 408.722 220.602 408.717 220.414C408.713 220.226 408.586 220.072 408.435 220.072C408.258 220.072 408.162 223.63 408.162 230.199V240.327H408.791C409.962 240.327 410.455 241.37 409.688 242.221C409.372 242.571 409.284 244.26 409.225 251.138C409.151 259.734 409.117 260.308 408.68 260.308C408.545 260.308 408.435 258.837 408.435 257.039C408.435 255.156 408.319 253.699 408.162 253.602C407.985 253.493 407.888 254.648 407.888 256.87C407.888 259.743 407.821 260.308 407.477 260.308C407.134 260.308 407.067 259.745 407.067 256.886C407.067 254.788 406.961 253.465 406.793 253.465C406.625 253.465 406.519 254.795 406.519 256.909C406.519 261.232 405.882 261.769 405.762 257.548C405.643 253.384 405.515 253.067 405.468 256.818C405.432 259.718 405.355 260.308 405.014 260.308C404.671 260.308 404.603 259.745 404.603 256.886C404.603 254.788 404.497 253.465 404.33 253.465C404.162 253.465 404.056 254.795 404.056 256.909C404.056 259.543 403.975 260.327 403.714 260.239C403.452 260.152 403.355 258.075 403.299 251.351C403.239 243.984 403.162 242.523 402.82 242.24C401.975 241.538 402.532 240.327 403.7 240.327C404.329 240.327 404.33 240.324 404.354 236.016C404.368 233.644 404.429 229.087 404.491 225.888C404.588 220.89 404.547 220.072 404.2 220.072C403.862 220.072 403.783 220.829 403.72 224.657C403.646 229.177 403.637 229.242 403.029 229.329C402.671 229.38 402.397 229.265 402.373 229.055C402.351 228.856 402.307 228.509 402.277 228.283C402.246 228.057 402.203 226.117 402.18 223.972L402.14 220.072H401.319H400.498V224.597C400.498 228.383 400.43 229.147 400.083 229.28C399.041 229.681 398.855 228.947 398.855 224.418V220.072H398.034H397.213V224.597C397.213 228.383 397.145 229.147 396.799 229.28C395.756 229.681 395.571 228.947 395.571 224.418V220.072H394.75H393.928V224.597C393.928 228.543 393.871 229.144 393.478 229.294C392.522 229.661 392.286 228.668 392.286 224.262V220.072H391.465H390.644V224.597C390.644 228.383 390.576 229.147 390.23 229.28C389.762 229.46 388.976 228.917 389.03 228.452C389.05 228.284 389.052 226.329 389.034 224.109L389.002 220.072H388.18H387.359V224.597C387.359 228.383 387.292 229.147 386.945 229.28C385.902 229.681 385.717 228.947 385.717 224.418V220.072H384.902H384.088L384.013 224.657C383.939 229.177 383.929 229.242 383.322 229.329C382.917 229.386 382.694 229.269 382.672 228.987C382.653 228.75 382.607 228.434 382.569 228.283C382.532 228.133 382.486 226.224 382.467 224.041L382.432 220.072H381.611H380.79V224.597C380.79 228.453 380.727 229.146 380.361 229.286C379.328 229.683 379.203 229.109 379.171 223.835L379.148 220.072H378.327H377.506V224.597C377.506 228.383 377.438 229.147 377.091 229.28C376.624 229.46 375.837 228.917 375.892 228.452C375.912 228.284 375.914 224.682 375.896 220.447L375.863 212.748L375.033 212.404C373.578 211.801 373.126 210.936 373.124 208.744C373.123 207.673 373.046 205.996 372.952 205.018L372.783 203.238L370.423 202.214C339.966 188.989 326.718 160.382 339.363 135.145C346.306 121.288 361.054 109.79 378.943 104.289L380.79 103.721V96.1291C380.79 87.9651 380.846 87.6169 382.256 87.0421C382.579 86.9107 393.402 86.827 406.306 86.8565L429.77 86.9099L430.393 87.5329Z" fill="#882A52"/>
<mask id="mask1_457_15686" style="mask-type:alpha" maskUnits="userSpaceOnUse" x="334" y="86" width="144" height="175">
<path fill-rule="evenodd" clip-rule="evenodd" d="M430.393 87.5329C431.009 88.1479 431.018 88.256 431.097 95.9427L431.178 103.729L432.557 104.139C434.431 104.695 439.593 106.596 441.202 107.322C446.608 109.762 449.037 111.096 453.188 113.905C480.985 132.72 485.376 164.093 463.466 187.332C461.833 189.064 456.621 193.514 454.83 194.707C450.268 197.744 448.56 198.75 444.727 200.659C442.332 201.852 440.207 202.828 440.005 202.828C439.716 202.828 439.639 203.638 439.639 206.65V210.473L438.815 211.412C438.361 211.928 437.684 212.427 437.309 212.521L436.628 212.692V220.907C436.628 227.987 436.571 229.144 436.214 229.28C435.746 229.46 434.96 228.917 435.014 228.452C435.034 228.284 435.036 226.329 435.018 224.109L434.986 220.072H434.164H433.343V224.597C433.343 228.383 433.276 229.147 432.929 229.28C431.886 229.681 431.701 228.947 431.701 224.418V220.072H430.88H430.059V224.597C430.059 228.383 429.991 229.147 429.645 229.28C428.602 229.681 428.416 228.947 428.416 224.418V220.072H427.595H426.774V224.597C426.774 228.543 426.717 229.144 426.324 229.294C425.367 229.661 425.132 228.668 425.132 224.262V220.072H424.311H423.49V224.597C423.49 228.383 423.422 229.147 423.075 229.28C422.033 229.681 421.847 228.947 421.847 224.418V220.072H421.026H420.205V224.597C420.205 228.383 420.137 229.147 419.791 229.28C418.748 229.681 418.563 228.947 418.563 224.418V220.072H417.742H416.92V224.597C416.92 228.383 416.853 229.147 416.506 229.28C416.039 229.46 415.252 228.917 415.307 228.452C415.327 228.284 415.329 226.329 415.31 224.109L415.278 220.072H414.457H413.636V224.597C413.636 228.383 413.568 229.147 413.222 229.28C412.179 229.681 411.994 228.947 411.994 224.418V220.072H411.172H410.351V224.597C410.351 228.543 410.294 229.144 409.901 229.294C408.981 229.647 408.739 228.681 408.733 224.625C408.729 222.497 408.722 220.602 408.717 220.414C408.713 220.226 408.586 220.072 408.435 220.072C408.258 220.072 408.162 223.63 408.162 230.199V240.327H408.791C409.962 240.327 410.455 241.37 409.688 242.221C409.372 242.571 409.284 244.26 409.225 251.138C409.151 259.734 409.117 260.308 408.68 260.308C408.545 260.308 408.435 258.837 408.435 257.039C408.435 255.156 408.319 253.699 408.162 253.602C407.985 253.493 407.888 254.648 407.888 256.87C407.888 259.743 407.821 260.308 407.477 260.308C407.134 260.308 407.067 259.745 407.067 256.886C407.067 254.788 406.961 253.465 406.793 253.465C406.625 253.465 406.519 254.795 406.519 256.909C406.519 261.232 405.882 261.769 405.762 257.548C405.643 253.384 405.515 253.067 405.468 256.818C405.432 259.718 405.355 260.308 405.014 260.308C404.671 260.308 404.603 259.745 404.603 256.886C404.603 254.788 404.497 253.465 404.33 253.465C404.162 253.465 404.056 254.795 404.056 256.909C404.056 259.543 403.975 260.327 403.714 260.239C403.452 260.152 403.355 258.075 403.299 251.351C403.239 243.984 403.162 242.523 402.82 242.24C401.975 241.538 402.532 240.327 403.7 240.327C404.329 240.327 404.33 240.324 404.354 236.016C404.368 233.644 404.429 229.087 404.491 225.888C404.588 220.89 404.547 220.072 404.2 220.072C403.862 220.072 403.783 220.829 403.72 224.657C403.646 229.177 403.637 229.242 403.029 229.329C402.671 229.38 402.397 229.265 402.373 229.055C402.351 228.856 402.307 228.509 402.277 228.283C402.246 228.057 402.203 226.117 402.18 223.972L402.14 220.072H401.319H400.498V224.597C400.498 228.383 400.43 229.147 400.083 229.28C399.041 229.681 398.855 228.947 398.855 224.418V220.072H398.034H397.213V224.597C397.213 228.383 397.145 229.147 396.799 229.28C395.756 229.681 395.571 228.947 395.571 224.418V220.072H394.75H393.928V224.597C393.928 228.543 393.871 229.144 393.478 229.294C392.522 229.661 392.286 228.668 392.286 224.262V220.072H391.465H390.644V224.597C390.644 228.383 390.576 229.147 390.23 229.28C389.762 229.46 388.976 228.917 389.03 228.452C389.05 228.284 389.052 226.329 389.034 224.109L389.002 220.072H388.18H387.359V224.597C387.359 228.383 387.292 229.147 386.945 229.28C385.902 229.681 385.717 228.947 385.717 224.418V220.072H384.902H384.088L384.013 224.657C383.939 229.177 383.929 229.242 383.322 229.329C382.917 229.386 382.694 229.269 382.672 228.987C382.653 228.75 382.607 228.434 382.569 228.283C382.532 228.133 382.486 226.224 382.467 224.041L382.432 220.072H381.611H380.79V224.597C380.79 228.453 380.727 229.146 380.361 229.286C379.328 229.683 379.203 229.109 379.171 223.835L379.148 220.072H378.327H377.506V224.597C377.506 228.383 377.438 229.147 377.091 229.28C376.624 229.46 375.837 228.917 375.892 228.452C375.912 228.284 375.914 224.682 375.896 220.447L375.863 212.748L375.033 212.404C373.578 211.801 373.126 210.936 373.124 208.744C373.123 207.673 373.046 205.996 372.952 205.018L372.783 203.238L370.423 202.214C339.966 188.989 326.718 160.382 339.363 135.145C346.306 121.288 361.054 109.79 378.943 104.289L380.79 103.721V96.1291C380.79 87.9651 380.846 87.6169 382.256 87.0421C382.579 86.9107 393.402 86.827 406.306 86.8565L429.77 86.9099L430.393 87.5329Z" fill="#882A52"/>
</mask>
<g mask="url(#mask1_457_15686)">
<path fill-rule="evenodd" clip-rule="evenodd" d="M479.875 140.936H334.806V135.462H479.875V140.936ZM479.875 155.169H334.806V149.695H479.875V155.169ZM334.806 169.403H479.875V163.928H334.806V169.403Z" fill="#FFEBF3"/>
<path d="M372.579 202.796H439.912V208.818C439.912 210.934 438.197 212.65 436.08 212.65H376.411C374.294 212.65 372.579 210.934 372.579 208.818V202.796Z" fill="#FFEBF3"/>
<rect x="380.79" y="92.2153" width="50.3634" height="11.496" fill="#FFEBF3"/>
</g>
<line x1="405.763" y1="86.8506" x2="405.763" y2="54.5523" stroke="#882A52" stroke-width="7.664"/>
</svg>
