<svg width="786" height="299" viewBox="0 0 786 299" fill="none" xmlns="http://www.w3.org/2000/svg">
<rect width="786" height="299" rx="8" fill="#23ACAD"/>
<mask id="mask0_367_9355" style="mask-type:alpha" maskUnits="userSpaceOnUse" x="0" y="0" width="786" height="299">
<rect width="786" height="299" rx="8" fill="#23ACAD"/>
</mask>
<g mask="url(#mask0_367_9355)">
<path opacity="0.2" fill-rule="evenodd" clip-rule="evenodd" d="M597.012 156.5C597.012 264.093 509.791 351.314 402.198 351.314C294.605 351.314 207.384 264.093 207.384 156.5C207.384 48.9071 294.605 -38.3141 402.198 -38.3141C509.791 -38.3141 597.012 48.9071 597.012 156.5ZM599 156.5C599 265.191 510.889 353.302 402.198 353.302C293.507 353.302 205.396 265.191 205.396 156.5C205.396 47.8092 293.507 -40.302 402.198 -40.302C510.889 -40.302 599 47.8092 599 156.5ZM529.424 156.5C529.424 226.765 472.463 283.726 402.198 283.726C331.933 283.726 274.973 226.765 274.973 156.5C274.973 86.2356 331.933 29.2748 402.198 29.2748C472.463 29.2748 529.424 86.2356 529.424 156.5ZM531.411 156.5C531.411 227.863 473.561 285.714 402.198 285.714C330.836 285.714 272.985 227.863 272.985 156.5C272.985 85.1377 330.836 27.2869 402.198 27.2869C473.561 27.2869 531.411 85.1377 531.411 156.5Z" fill="white"/>
<path d="M410.599 188.926H395.107V192.368C395.107 196.751 391.585 200.272 387.203 200.272C382.821 200.272 379.299 196.751 379.299 192.368V188.926H318.968C315.289 188.926 311.768 188.3 308.483 187.282V223.043C308.483 228.833 313.178 233.528 318.968 233.528H419.595C413.257 223.98 409.502 212.479 409.502 200.193C409.502 196.359 409.893 192.604 410.597 188.926L410.599 188.926ZM465.923 91.8169H436.422V76.1672C436.422 66.3861 428.519 58.4038 418.659 58.4038L355.747 58.4056C345.966 58.4056 337.984 66.3878 337.984 76.1689V91.8186L308.485 91.8169C302.695 91.8169 298 96.5118 298 102.302V154.809C298 166.389 307.39 175.779 318.97 175.779H379.302V169.91C379.302 165.528 382.823 162.006 387.205 162.006C391.588 162.006 395.109 165.528 395.109 169.91V175.779H414.75C424.14 154.651 445.345 139.863 469.917 139.863C472.107 139.863 474.3 140.02 476.49 140.254V102.304C476.411 96.5136 471.716 91.8187 465.926 91.8187L465.923 91.8169ZM418.737 91.8169H355.744V76.1672H418.737V91.8169Z" fill="#A6F7F8"/>
<path d="M527.345 218.111C521.626 219.943 521.622 229.026 521.622 229.026C521.622 234.383 516.775 238.789 511.507 239.141C514.528 242.042 518.558 243.654 522.746 243.636C526.621 243.636 530.337 242.097 533.077 239.357C535.817 236.617 537.356 232.901 537.356 229.026C537.356 229.026 537.355 228.664 537.311 228.077L527.345 218.111Z" fill="#F5C654"/>
<path d="M579.871 178.452L576.692 175.273C575.849 174.43 574.706 173.956 573.513 173.956C572.321 173.956 571.177 174.43 570.334 175.273L532.188 213.418L531.393 212.623C530.972 212.202 530.401 211.965 529.805 211.965C529.208 211.965 528.636 212.202 528.215 212.623C527.794 213.045 527.557 213.617 527.557 214.213C527.557 214.809 527.794 215.381 528.215 215.802L539.341 226.928C539.909 227.496 540.736 227.718 541.512 227.51C542.288 227.302 542.894 226.696 543.101 225.92C543.309 225.145 543.087 224.317 542.52 223.749L541.725 222.954L579.87 184.809C580.713 183.966 581.187 182.823 581.187 181.631C581.187 180.438 580.713 179.295 579.87 178.452L579.871 178.452ZM553.079 200.845L551.489 199.255L553.079 197.666L554.668 199.255L553.079 200.845ZM567.384 186.541L556.258 197.667V197.666C555.819 198.106 555.107 198.106 554.669 197.666C554.23 197.228 554.23 196.517 554.669 196.078L565.795 184.952H565.794C566.005 184.74 566.291 184.622 566.589 184.621C566.887 184.621 567.174 184.739 567.385 184.951C567.596 185.161 567.714 185.448 567.714 185.746C567.714 186.044 567.595 186.33 567.384 186.541L567.384 186.541Z" fill="#A6F7F8"/>
<path d="M420.654 221.888C407.572 199.23 417.951 168.733 443.863 153.772C469.775 138.812 501.375 145.073 514.456 167.733C523.205 182.887 521.417 201.859 511.367 217.08C506.638 224.188 499.349 229.569 495.084 222.183L494.288 220.805C492.941 218.392 490.806 216.514 488.242 215.483C485.677 214.454 482.837 214.334 480.194 215.145C476.797 216.26 474.083 218.845 472.804 222.183C471.524 225.522 471.817 229.26 473.6 232.358C474.718 233.854 475.089 235.78 474.605 237.583C474.122 239.387 472.838 240.869 471.122 241.606C467.621 243.356 463.724 244.165 459.814 243.952C443.808 243.931 428.968 235.569 420.654 221.888Z" fill="#FCF4E1"/>
<path d="M448.89 225.831C447.294 226.752 445.395 227.002 443.615 226.525C441.834 226.048 440.316 224.883 439.394 223.285C438.472 221.689 438.222 219.792 438.699 218.011C439.176 216.23 440.342 214.711 441.938 213.79C443.535 212.868 445.433 212.617 447.214 213.095C448.995 213.572 450.512 214.738 451.434 216.334C452.356 217.931 452.606 219.828 452.129 221.609C451.652 223.39 450.487 224.909 448.89 225.831ZM445.522 195.667C443.527 196.819 441.155 197.131 438.928 196.533C436.702 195.937 434.804 194.481 433.652 192.485C432.5 190.489 432.187 188.117 432.784 185.891C433.381 183.665 434.837 181.767 436.832 180.615C438.829 179.462 441.201 179.15 443.426 179.747C445.652 180.343 447.55 181.799 448.703 183.796C449.855 185.791 450.167 188.163 449.571 190.389C448.975 192.616 447.519 194.514 445.522 195.667ZM473.887 175.276C471.892 176.428 469.52 176.74 467.293 176.144C465.067 175.547 463.168 174.091 462.016 172.095C460.864 170.1 460.552 167.728 461.148 165.501C461.745 163.275 463.202 161.376 465.197 160.224C467.193 159.072 469.565 158.76 471.791 159.356C474.018 159.953 475.916 161.41 477.068 163.405C478.22 165.401 478.532 167.773 477.936 169.999C477.339 172.226 475.883 174.124 473.887 175.276ZM503.075 194.547C500.68 195.93 497.834 196.305 495.161 195.588C492.491 194.873 490.213 193.125 488.83 190.73C487.447 188.335 487.072 185.488 487.788 182.818C488.505 180.146 490.252 177.868 492.647 176.486C495.042 175.103 497.888 174.729 500.56 175.444C503.231 176.159 505.508 177.907 506.892 180.303C508.274 182.697 508.649 185.544 507.933 188.215C507.217 190.887 505.47 193.165 503.075 194.547Z" fill="#F5C654"/>
<circle cx="515.251" cy="49.2509" r="7.25091" fill="#FDE0D7"/>
<path d="M653.254 167.118C648.288 150.272 641.068 119.523 651.92 131.298C665.484 146.016 613.067 133.922 633.494 109.191" stroke="#EDD18D" stroke-width="2.63669" stroke-linecap="round"/>
<path d="M276.336 236.267C276.279 235.541 275.645 234.999 274.919 235.056C274.193 235.113 273.651 235.748 273.708 236.473L276.336 236.267ZM309.974 254.368L309.7 253.078L309.974 254.368ZM329.825 256.997C329.504 257.65 329.773 258.44 330.427 258.762C331.08 259.083 331.87 258.814 332.192 258.16L329.825 256.997ZM273.708 236.473C274.059 240.942 276.339 247.213 282.04 251.639C287.782 256.095 296.782 258.519 310.248 255.657L309.7 253.078C296.778 255.824 288.63 253.416 283.657 249.556C278.643 245.664 276.641 240.134 276.336 236.267L273.708 236.473ZM310.248 255.657C318.482 253.908 323.993 252.979 327.6 252.625C329.406 252.448 330.687 252.421 331.57 252.493C332.01 252.529 332.32 252.588 332.532 252.65C332.747 252.714 332.814 252.768 332.811 252.765C332.791 252.749 332.733 252.685 332.706 252.584C332.683 252.501 332.703 252.473 332.687 252.544C332.645 252.726 332.491 253.049 332.15 253.557C331.817 254.055 331.431 254.552 330.994 255.153C330.584 255.716 330.142 256.354 329.825 256.997L332.192 258.16C332.4 257.737 332.724 257.256 333.126 256.704C333.5 256.191 333.97 255.577 334.34 255.026C334.702 254.486 335.099 253.822 335.257 253.136C335.34 252.773 335.373 252.341 335.25 251.891C335.122 251.422 334.852 251.029 334.483 250.726C333.809 250.174 332.842 249.952 331.785 249.865C330.676 249.774 329.218 249.817 327.342 250.001C323.585 250.369 317.958 251.324 309.7 253.078L310.248 255.657Z" fill="white"/>
<circle cx="540.251" cy="246.251" r="5.93256" stroke="white" stroke-width="2.63669"/>
<path d="M182.341 191.705C182.309 190.978 181.693 190.414 180.965 190.446L169.112 190.973C168.385 191.005 167.821 191.621 167.853 192.348C167.886 193.076 168.502 193.639 169.229 193.607L179.765 193.139L180.233 203.675C180.266 204.403 180.882 204.966 181.609 204.934C182.336 204.902 182.9 204.286 182.867 203.558L182.341 191.705ZM181.016 191.772L180.043 190.882L181.016 191.772ZM166.132 201.096L166.24 199.782L166.24 199.782L166.132 201.096ZM168.196 180.36C168.779 179.924 168.899 179.098 168.463 178.515C168.027 177.932 167.2 177.813 166.617 178.249L168.196 180.36ZM180.051 190.873L180.043 190.882L181.989 192.662L181.997 192.653L180.051 190.873ZM180.043 190.882C178.311 192.775 176.146 195.137 173.706 196.973C171.249 198.824 168.715 199.986 166.24 199.782L166.024 202.41C169.458 202.693 172.645 201.073 175.292 199.08C177.957 197.073 180.28 194.53 181.989 192.662L180.043 190.882ZM166.24 199.782C165.431 199.716 164.368 199.158 163.386 198.008C162.424 196.883 161.642 195.299 161.353 193.44C160.789 189.803 162.101 184.916 168.196 180.36L166.617 178.249C159.874 183.289 158.01 189.09 158.748 193.845C159.11 196.182 160.099 198.22 161.381 199.721C162.642 201.197 164.294 202.268 166.024 202.41L166.24 199.782Z" fill="white"/>
<path d="M174.252 82.4087C171.21 67.5966 168.282 40.0001 180.899 48.1106C196.67 58.2488 194.424 48.0713 194.319 45.2767C194.215 42.482 200.148 38.9951 205.533 45.7902" stroke="#EDD18D" stroke-width="2.63669" stroke-linecap="round"/>
</g>
</svg>
