<svg width="308" height="308" viewBox="0 0 308 308" fill="none" xmlns="http://www.w3.org/2000/svg">
<circle cx="154" cy="154" r="153.5" stroke="#ECBA41" stroke-dasharray="4 4"/>
<circle cx="153.5" cy="154.5" r="141.5" fill="#E37763"/>
<path opacity="0.2" fill-rule="evenodd" clip-rule="evenodd" d="M252 154C252 208.124 208.124 252 154 252C99.8761 252 56 208.124 56 154C56 99.8761 99.8761 56 154 56C208.124 56 252 99.8761 252 154ZM253 154C253 208.676 208.676 253 154 253C99.3238 253 55 208.676 55 154C55 99.3238 99.3238 55 154 55C208.676 55 253 99.3238 253 154ZM218 154C218 189.346 189.346 218 154 218C118.654 218 90 189.346 90 154C90 118.654 118.654 90 154 90C189.346 90 218 118.654 218 154ZM219 154C219 189.898 189.898 219 154 219C118.101 219 89 189.898 89 154C89 118.101 118.101 89 154 89C189.898 89 219 118.101 219 154Z" fill="white"/>
<mask id="mask0_248_6470" style="mask-type:alpha" maskUnits="userSpaceOnUse" x="12" y="13" width="283" height="283">
<circle cx="153.5" cy="154.5" r="141.5" fill="#E37763"/>
</mask>
<g mask="url(#mask0_248_6470)">
<path d="M231.029 248.601C227.992 251.698 224.977 254.78 222.145 258.694V266H180V258.694C180.715 253.007 184.358 242.759 184.468 239.912C184.614 235.91 190.206 228.604 190.206 228.604L207.347 207.798C207.347 207.798 212.194 202.869 214.976 197.395C217.75 191.922 223.663 198.808 224.444 203.73C225.225 208.659 223.736 211.249 223.736 211.249L213.939 229.987C213.939 229.987 225.291 215.016 228.817 208.998C230.606 205.952 231.102 199.492 231.664 192.282C232.204 185.249 232.803 177.502 234.701 171.477C238.548 159.264 249.681 162.324 251.616 167.776C253.543 173.235 253.105 209.284 252.404 215.288C251.857 219.996 248.915 224.602 245.586 229.789C244.666 231.231 243.717 232.709 242.782 234.254C239.059 240.397 235.022 244.517 231.029 248.601V248.601Z" fill="#FDE0D7"/>
<path d="M187.167 303C185.266 303 183.443 302.21 182.099 300.803C180.755 299.397 180 297.489 180 295.5V280.5C180 278.511 180.755 276.603 182.099 275.197C183.443 273.79 185.266 273 187.167 273H215.833C217.734 273 219.557 273.79 220.901 275.197C222.245 276.603 223 278.511 223 280.5V295.5C223 297.489 222.245 299.397 220.901 300.803C219.557 302.21 217.734 303 215.833 303H187.167Z" fill="white"/>
<path d="M75.5879 248.601C78.6319 251.698 81.654 254.78 84.4936 258.694V266H127V258.694C126.285 253.007 125.029 242.759 124.92 239.912C124.766 235.91 119.16 228.604 119.16 228.604L101.969 207.798C101.969 207.798 97.1003 202.869 94.3118 197.395C91.5306 191.922 85.6032 198.808 84.8148 203.73C84.0264 208.659 85.5229 211.249 85.5229 211.249L95.3483 229.987C95.3483 229.987 83.9607 215.016 80.4204 208.998C78.6319 205.952 78.1282 199.492 77.5735 192.282C77.026 185.249 76.4274 177.502 74.5222 171.477C70.6606 159.264 59.4847 162.324 57.5503 167.776C55.6158 173.235 53.4332 209.284 54.134 215.288C54.6888 219.996 57.6379 224.602 60.9812 229.789C61.9009 231.231 62.8572 232.709 63.7916 234.254C67.529 240.397 71.5804 244.517 75.5879 248.601V248.601Z" fill="#FAC0AE"/>
<path d="M119.833 303C121.734 303 123.557 302.21 124.901 300.803C126.245 299.397 127 297.489 127 295.5V280.5C127 278.511 126.245 276.603 124.901 275.197C123.557 273.79 121.734 273 119.833 273H91.1667C89.2659 273 87.4431 273.79 86.0991 275.197C84.7551 276.603 84 278.511 84 280.5V295.5C84 297.489 84.7551 299.397 86.0991 300.803C87.4431 302.21 89.2659 303 91.1667 303H119.833Z" fill="white"/>
<path d="M117 147.173C117 134.114 125.184 122 136.39 122C144.168 122 149.935 127.434 153.5 135.14C157.061 127.434 162.832 122 170.61 122C181.816 122 190 134.114 190 147.173C190 175.128 153.5 195 153.5 195C153.5 195 117 176.328 117 147.173Z" fill="white"/>
</g>
<circle cx="167.5" cy="75.5" r="5.5" fill="#FDE0D7"/>
<path d="M225.084 60.0004C234.725 69.1937 251.111 86.6722 239.521 83.0403C225.033 78.5004 264.066 66.6079 260 90.5967" stroke="#FDE0D7" stroke-width="2" stroke-linecap="round"/>
<path d="M177.082 243.221C176.524 236.904 170.413 225.38 150.44 229.826C125.472 235.383 132.902 230.795 134.461 227.544" stroke="#F5C654" stroke-width="2" stroke-linecap="round"/>
<path d="M72.7371 73.9228C71.8478 62.4876 72.2516 41.4412 80.9809 48.7377C91.8925 57.8584 91.1638 49.9863 91.3492 47.8731C91.5347 45.7599 96.3297 43.6964 99.7402 49.3194" stroke="#F5C654" stroke-width="2" stroke-linecap="round"/>
<path d="M70.7389 121.637C70.7144 121.086 70.2473 120.658 69.6955 120.683L60.7044 121.082C60.1527 121.107 59.7253 121.574 59.7498 122.125C59.7743 122.677 60.2414 123.105 60.7932 123.08L68.7853 122.725L69.1403 130.717C69.1648 131.269 69.6319 131.696 70.1837 131.672C70.7354 131.647 71.1628 131.18 71.1383 130.628L70.7389 121.637ZM69.7339 121.688L68.9961 121.013L68.9961 121.013L69.7339 121.688ZM58.4443 128.761L58.5263 127.764L58.4443 128.761ZM60.0096 113.032C60.452 112.701 60.5425 112.075 60.2118 111.632C59.8812 111.19 59.2545 111.1 58.8121 111.43L60.0096 113.032ZM69.0021 121.007L68.9961 121.013L70.4717 122.363L70.4777 122.357L69.0021 121.007ZM68.9961 121.013C67.6823 122.449 66.0399 124.24 64.1893 125.634C62.3255 127.037 60.403 127.919 58.5263 127.764L58.3623 129.757C60.967 129.972 63.3842 128.743 65.3923 127.231C67.4137 125.709 69.1753 123.78 70.4717 122.363L68.9961 121.013ZM58.5263 127.764C57.9119 127.714 57.1056 127.29 56.3608 126.418C55.6317 125.565 55.038 124.364 54.8192 122.954C54.391 120.195 55.3868 116.488 60.0096 113.032L58.8121 111.43C53.6972 115.254 52.2831 119.654 52.8429 123.26C53.118 125.033 53.8677 126.579 54.8402 127.718C55.7968 128.837 57.0502 129.65 58.3623 129.757L58.5263 127.764Z" fill="white"/>
<circle cx="274.5" cy="189.5" r="4.5" stroke="#FDE0D7" stroke-width="2"/>
</svg>
