<svg width="308" height="308" viewBox="0 0 308 308" fill="none" xmlns="http://www.w3.org/2000/svg">
<circle cx="154" cy="154" r="153.5" stroke="#ECBA41" stroke-dasharray="4 4"/>
<circle cx="154.5" cy="154.5" r="141.5" fill="#A6F7F8"/>
<circle cx="154.5" cy="154.5" r="141.5" fill="#23ACAD"/>
<path opacity="0.2" fill-rule="evenodd" clip-rule="evenodd" d="M253 154C253 208.124 209.124 252 155 252C100.876 252 57 208.124 57 154C57 99.8761 100.876 56 155 56C209.124 56 253 99.8761 253 154ZM254 154C254 208.676 209.676 253 155 253C100.324 253 56 208.676 56 154C56 99.3238 100.324 55 155 55C209.676 55 254 99.3238 254 154ZM219 154C219 189.346 190.346 218 155 218C119.654 218 91 189.346 91 154C91 118.654 119.654 90 155 90C190.346 90 219 118.654 219 154ZM220 154C220 189.898 190.898 219 155 219C119.101 219 90 189.898 90 154C90 118.101 119.101 89 155 89C190.898 89 220 118.101 220 154Z" fill="white"/>
<path d="M130.186 43.9189C129.865 44.3683 129.969 44.9929 130.419 45.3139C130.868 45.6349 131.493 45.5308 131.814 45.0814L130.186 43.9189ZM153.5 30.5001L154.484 30.3243L153.5 30.5001ZM166.512 42.8481C166.428 43.3939 166.802 43.9045 167.348 43.9885C167.894 44.0725 168.404 43.698 168.488 43.1522L166.512 42.8481ZM131.814 45.0814C135.132 40.4364 140.196 34.2217 144.635 30.5726C145.74 29.6647 146.782 28.9349 147.73 28.4294C148.688 27.9185 149.485 27.6713 150.113 27.6495C150.699 27.6292 151.14 27.8009 151.504 28.1882C151.902 28.6113 152.283 29.375 152.516 30.6759L154.484 30.3243C154.217 28.8252 153.729 27.6347 152.961 26.8183C152.16 25.966 151.14 25.6127 150.043 25.6507C148.989 25.6873 147.882 26.0818 146.789 26.6647C145.686 27.2529 144.531 28.0689 143.365 29.0276C138.721 32.8453 133.535 39.2305 130.186 43.9189L131.814 45.0814ZM152.516 30.6759C153.148 34.2154 153.923 36.5756 154.813 38.0671C155.717 39.5832 156.852 40.3623 158.163 40.3119C159.346 40.2664 160.354 39.5397 161.058 38.9092C161.429 38.5769 161.762 38.2275 162.041 37.9257C162.338 37.6039 162.538 37.3764 162.707 37.2072L161.293 35.793C161.087 35.9988 160.818 36.3026 160.572 36.5687C160.308 36.8548 160.024 37.1499 159.724 37.4192C159.084 37.9918 158.529 38.2963 158.087 38.3134C157.773 38.3254 157.22 38.1983 156.531 37.0425C155.827 35.8622 155.102 33.7848 154.484 30.3243L152.516 30.6759ZM162.707 37.2072C162.828 37.0862 163.115 36.9456 163.586 36.9678C164.04 36.9891 164.581 37.1642 165.081 37.5456C166.038 38.2743 166.969 39.8719 166.512 42.8481L168.488 43.1522C169.031 39.6283 167.962 37.2259 166.294 35.9547C165.482 35.3361 164.554 35.0111 163.68 34.97C162.823 34.9296 161.922 35.164 161.293 35.793L162.707 37.2072Z" fill="white"/>
<path d="M117.499 229.053C117.528 228.501 117.104 228.03 116.553 228.001C116.001 227.972 115.53 228.396 115.501 228.947L117.499 229.053ZM141 246L140.922 245.003L141 246ZM155.668 249.945C155.362 250.405 155.486 251.026 155.945 251.332C156.405 251.638 157.026 251.514 157.332 251.055L155.668 249.945ZM115.501 228.947C115.323 232.343 116.415 237.285 120.264 241.178C124.14 245.099 130.668 247.813 141.078 246.997L140.922 245.003C130.932 245.787 125.043 243.168 121.686 239.772C118.302 236.348 117.344 231.991 117.499 229.053L115.501 228.947ZM141.078 246.997C147.444 246.498 151.68 246.345 154.427 246.437C155.804 246.483 156.769 246.589 157.426 246.731C157.754 246.802 157.981 246.877 158.134 246.945C158.29 247.014 158.335 247.061 158.333 247.059C158.32 247.045 158.282 246.991 158.272 246.912C158.263 246.848 158.281 246.829 158.261 246.881C158.212 247.013 158.064 247.241 157.757 247.589C157.457 247.93 157.118 248.266 156.729 248.674C156.365 249.057 155.97 249.493 155.668 249.945L157.332 251.055C157.53 250.757 157.822 250.427 158.179 250.052C158.511 249.703 158.926 249.289 159.258 248.911C159.584 248.541 159.948 248.081 160.135 247.58C160.234 247.316 160.301 246.994 160.253 246.643C160.204 246.278 160.04 245.955 159.792 245.691C159.34 245.209 158.635 244.946 157.849 244.776C157.024 244.598 155.923 244.486 154.494 244.438C151.632 244.342 147.306 244.502 140.922 245.003L141.078 246.997Z" fill="white"/>
<path d="M199 274.29C208.167 264.623 225.6 248.19 222 259.79C217.5 274.29 205.5 235.29 229.5 239.29" stroke="#F3E2BA" stroke-width="2" stroke-linecap="round"/>
<path d="M134 81.5L135.5 62.5L150.5 72L134 81.5Z" fill="white"/>
<path d="M173.331 87.1073C173.4 87.6552 173.901 88.0429 174.449 87.9732L183.377 86.8381C183.925 86.7685 184.312 86.2679 184.243 85.72C184.173 85.1721 183.673 84.7845 183.125 84.8541L175.189 85.8631L174.18 77.9269C174.11 77.3791 173.609 76.9914 173.061 77.0611C172.514 77.1307 172.126 77.6313 172.196 78.1792L173.331 87.1073ZM174.328 86.9741L175.119 87.5864L175.119 87.5864L174.328 86.9741ZM185 78.9999L185 79.9999L185 78.9999ZM184.729 94.804C184.316 95.1698 184.277 95.8018 184.642 96.2155C185.008 96.6293 185.64 96.6681 186.054 96.3023L184.729 94.804ZM175.113 87.5935L175.119 87.5864L173.538 86.3619L173.532 86.3689L175.113 87.5935ZM175.119 87.5864C176.31 86.0477 177.801 84.1278 179.531 82.5875C181.273 81.0361 183.117 79.9999 185 79.9999L185 77.9999C182.387 77.9999 180.078 79.4223 178.201 81.0937C176.311 82.7762 174.713 84.8435 173.537 86.3619L175.119 87.5864ZM185 79.9999C185.616 79.9999 186.455 80.3558 187.269 81.1636C188.065 81.9543 188.755 83.1032 189.089 84.4904C189.742 87.2051 189.053 90.9809 184.729 94.804L186.054 96.3023C190.838 92.0722 191.887 87.5714 191.033 84.0227C190.614 82.2784 189.74 80.7989 188.678 79.7442C187.632 78.7066 186.317 77.9999 185 77.9999L185 79.9999Z" fill="#F3E2BA"/>
<path d="M156.744 168.307H149.182V169.987C149.182 172.126 147.463 173.845 145.324 173.845C143.185 173.845 141.466 172.127 141.466 169.987V168.307H112.017C110.221 168.307 108.502 168.002 106.899 167.505V184.96C106.899 187.786 109.191 190.078 112.017 190.078H161.136C158.042 185.418 156.209 179.804 156.209 173.807C156.209 171.936 156.4 170.102 156.743 168.307L156.744 168.307ZM183.749 120.906H169.349V113.267C169.349 108.493 165.491 104.596 160.679 104.596L129.97 104.597C125.195 104.597 121.299 108.493 121.299 113.268V120.907L106.9 120.906C104.074 120.906 101.782 123.198 101.782 126.024V151.654C101.782 157.306 106.366 161.89 112.018 161.89H141.467V159.025C141.467 156.886 143.186 155.167 145.325 155.167C147.464 155.167 149.183 156.886 149.183 159.025V161.89H158.77C163.354 151.577 173.705 144.358 185.699 144.358C186.768 144.358 187.838 144.435 188.907 144.549V126.025C188.869 123.198 186.577 120.907 183.751 120.907L183.749 120.906ZM160.717 120.906H129.968V113.267H160.717V120.906Z" fill="#A6F7F8"/>
<path d="M213.731 182.553C210.939 183.447 210.937 187.881 210.937 187.881C210.937 190.496 208.571 192.647 206 192.818C207.474 194.234 209.442 195.021 211.486 195.012C213.377 195.012 215.191 194.261 216.529 192.924C217.866 191.586 218.618 189.772 218.618 187.881C218.618 187.881 218.617 187.704 218.595 187.418L213.731 182.553Z" fill="#F5C654"/>
<path d="M239.37 163.194L237.818 161.643C237.407 161.231 236.849 161 236.266 161C235.685 161 235.126 161.231 234.715 161.643L216.095 180.262L215.707 179.874C215.501 179.668 215.222 179.553 214.931 179.553C214.64 179.553 214.361 179.668 214.155 179.874C213.95 180.08 213.834 180.359 213.834 180.65C213.834 180.941 213.95 181.22 214.155 181.426L219.586 186.857C219.863 187.134 220.267 187.242 220.646 187.141C221.025 187.039 221.32 186.744 221.422 186.365C221.523 185.986 221.415 185.582 221.138 185.305L220.75 184.917L239.369 166.298C239.781 165.886 240.012 165.328 240.012 164.746C240.012 164.164 239.781 163.606 239.369 163.194L239.37 163.194ZM226.292 174.125L225.516 173.349L226.292 172.573L227.068 173.349L226.292 174.125ZM233.275 167.143L227.844 172.574V172.573C227.629 172.788 227.282 172.788 227.068 172.573C226.854 172.359 226.854 172.012 227.068 171.798L232.499 166.367H232.499C232.602 166.264 232.741 166.206 232.887 166.206C233.032 166.206 233.172 166.264 233.275 166.367C233.378 166.469 233.436 166.609 233.436 166.755C233.436 166.901 233.378 167.04 233.275 167.143L233.275 167.143Z" fill="#A6F7F8"/>
<path d="M161.653 184.397C155.267 173.336 160.333 158.45 172.981 151.148C185.629 143.845 201.054 146.902 207.439 157.962C211.71 165.359 210.837 174.62 205.932 182.05C203.623 185.519 200.065 188.146 197.983 184.54L197.595 183.868C196.938 182.69 195.895 181.773 194.644 181.27C193.392 180.768 192.005 180.709 190.716 181.105C189.057 181.649 187.732 182.911 187.108 184.541C186.483 186.171 186.626 187.995 187.496 189.507C188.043 190.237 188.223 191.177 187.987 192.058C187.751 192.938 187.125 193.662 186.287 194.021C184.578 194.876 182.676 195.27 180.767 195.167C172.954 195.156 165.711 191.074 161.653 184.397Z" fill="#FCF4E1"/>
<path d="M175.435 186.321C174.656 186.771 173.729 186.893 172.86 186.66C171.991 186.427 171.25 185.858 170.8 185.079C170.35 184.299 170.228 183.373 170.461 182.504C170.693 181.635 171.262 180.893 172.042 180.443C172.821 179.994 173.748 179.871 174.617 180.105C175.486 180.338 176.227 180.906 176.677 181.685C177.127 182.465 177.249 183.391 177.016 184.26C176.783 185.129 176.215 185.871 175.435 186.321ZM173.791 171.597C172.817 172.16 171.659 172.312 170.573 172.02C169.486 171.729 168.56 171.018 167.997 170.044C167.435 169.07 167.282 167.912 167.573 166.826C167.865 165.739 168.575 164.813 169.549 164.25C170.524 163.687 171.682 163.535 172.768 163.826C173.855 164.117 174.781 164.828 175.344 165.803C175.906 166.777 176.058 167.935 175.767 169.021C175.477 170.108 174.766 171.035 173.791 171.597ZM187.637 161.644C186.663 162.207 185.505 162.359 184.418 162.068C183.331 161.776 182.405 161.066 181.842 160.092C181.28 159.117 181.128 157.96 181.419 156.873C181.71 155.786 182.421 154.859 183.395 154.297C184.369 153.735 185.527 153.582 186.614 153.873C187.7 154.165 188.627 154.876 189.189 155.85C189.752 156.824 189.904 157.982 189.613 159.068C189.322 160.155 188.611 161.082 187.637 161.644ZM201.884 171.051C200.715 171.726 199.326 171.909 198.021 171.559C196.718 171.21 195.606 170.357 194.931 169.188C194.256 168.018 194.073 166.629 194.422 165.325C194.772 164.021 195.625 162.91 196.794 162.235C197.963 161.56 199.352 161.377 200.656 161.726C201.96 162.075 203.072 162.928 203.747 164.098C204.422 165.267 204.605 166.656 204.255 167.96C203.906 169.264 203.053 170.376 201.884 171.051Z" fill="#F5C654"/>
</svg>
