<svg width="308" height="308" viewBox="0 0 308 308" fill="none" xmlns="http://www.w3.org/2000/svg">
<circle cx="154" cy="154" r="153.5" stroke="#ECBA41" stroke-dasharray="4 4"/>
<circle cx="153.5" cy="154.5" r="141.5" fill="#D9E2A2"/>
<path opacity="0.4" fill-rule="evenodd" clip-rule="evenodd" d="M252 154C252 208.124 208.124 252 154 252C99.8761 252 56 208.124 56 154C56 99.8761 99.8761 56 154 56C208.124 56 252 99.8761 252 154ZM253 154C253 208.676 208.676 253 154 253C99.3238 253 55 208.676 55 154C55 99.3238 99.3238 55 154 55C208.676 55 253 99.3238 253 154ZM218 154C218 189.346 189.346 218 154 218C118.654 218 90 189.346 90 154C90 118.654 118.654 90 154 90C189.346 90 218 118.654 218 154ZM219 154C219 189.898 189.898 219 154 219C118.101 219 89 189.898 89 154C89 118.101 118.101 89 154 89C189.898 89 219 118.101 219 154Z" fill="white"/>
<rect x="125.662" y="91" width="60.2713" height="60.2713" rx="10.7627" fill="#849324"/>
<path d="M160.223 127.615H153.111L152.057 130.84H145.035L152.84 109.504H160.555L168.33 130.84H161.278L160.223 127.615ZM158.596 122.583L156.667 116.646L154.739 122.583H158.596Z" fill="white"/>
<rect x="89.0687" y="157.729" width="60.2713" height="60.2713" rx="10.7627" fill="white"/>
<path d="M124.233 186.629C125.519 186.931 126.513 187.553 127.216 188.498C127.939 189.422 128.301 190.497 128.301 191.722C128.301 193.591 127.678 195.037 126.433 196.062C125.207 197.066 123.439 197.569 121.129 197.569H109.948V176.233H120.827C122.997 176.233 124.705 176.705 125.951 177.649C127.196 178.593 127.819 179.969 127.819 181.777C127.819 183.023 127.487 184.078 126.824 184.942C126.182 185.786 125.318 186.348 124.233 186.629ZM116.639 184.55H119.23C119.833 184.55 120.275 184.429 120.556 184.188C120.858 183.947 121.008 183.576 121.008 183.073C121.008 182.551 120.858 182.169 120.556 181.928C120.275 181.667 119.833 181.536 119.23 181.536H116.639V184.55ZM119.682 192.204C120.285 192.204 120.727 192.094 121.008 191.873C121.31 191.632 121.46 191.25 121.46 190.728C121.46 189.703 120.868 189.191 119.682 189.191H116.639V192.204H119.682Z" fill="#7D7777"/>
<rect x="155.798" y="157.729" width="60.2713" height="60.2713" rx="10.7627" fill="#FCF4E1"/>
<path d="M176.074 186.87C176.074 184.761 176.496 182.882 177.34 181.235C178.204 179.588 179.429 178.312 181.017 177.408C182.604 176.484 184.472 176.022 186.622 176.022C188.47 176.022 190.118 176.373 191.564 177.076C193.031 177.759 194.216 178.734 195.12 179.999C196.044 181.265 196.657 182.742 196.958 184.429H189.907C189.585 183.726 189.123 183.184 188.52 182.802C187.938 182.4 187.265 182.199 186.501 182.199C185.376 182.199 184.482 182.621 183.819 183.465C183.176 184.309 182.855 185.444 182.855 186.87C182.855 188.297 183.176 189.432 183.819 190.276C184.482 191.119 185.376 191.541 186.501 191.541C187.265 191.541 187.938 191.351 188.52 190.969C189.123 190.567 189.585 190.015 189.907 189.311H196.958C196.657 190.999 196.044 192.476 195.12 193.741C194.216 195.007 193.031 195.991 191.564 196.695C190.118 197.378 188.47 197.719 186.622 197.719C184.472 197.719 182.604 197.267 181.017 196.363C179.429 195.439 178.204 194.153 177.34 192.506C176.496 190.858 176.074 188.98 176.074 186.87Z" fill="#E4582D"/>
<path d="M211.365 141.532L207.491 137.659C206.919 137.087 206.094 137.15 205.649 137.849L201.267 145.279C200.823 145.978 200.95 146.994 201.521 147.566C202.093 148.137 203.109 148.201 203.808 147.82L211.175 143.438C211.873 142.993 212 142.168 211.365 141.532Z" fill="white"/>
<path d="M213.461 143.755C212.699 144.517 211.492 144.454 210.73 143.692L205.395 138.357C204.633 137.595 204.633 136.388 205.332 135.626L230.417 110.541C231.179 109.779 232.386 109.842 233.148 110.604L238.483 115.939C239.245 116.701 239.245 117.908 238.546 118.67L213.461 143.755Z" fill="white"/>
<path d="M207.353 133.618L228.414 112.557L236.542 120.685L215.48 141.746L207.353 133.618Z" fill="#252121"/>
<path d="M224.317 116.673L226.383 114.608L234.511 122.736L232.445 124.802L224.317 116.673Z" fill="white"/>
<path d="M209.384 131.568L211.45 129.503L219.578 137.631L217.512 139.696L209.384 131.568Z" fill="white"/>
<path d="M221.971 127.116C219.24 129.847 215.176 130.228 212.953 128.005L222.86 118.098C225.083 120.384 224.702 124.385 221.971 127.116Z" fill="white"/>
<path d="M65.094 191.271C65.6498 191.122 66.1064 190.603 66.6125 190.268C67.3904 189.464 68.502 189.166 69.7626 189.424C70.4177 189.646 71.0232 189.682 71.579 189.533C76.225 189.083 79.4178 182.468 78.7287 174.707C78.0397 166.947 73.6579 160.971 69.0119 161.421C67.665 161.584 66.603 162.067 65.6397 162.921C64.8618 163.725 63.8496 164.394 62.7379 164.692C62.2546 163.63 61.3608 160.294 64.1275 158.758C64.6336 158.424 64.8557 157.769 64.5213 157.262C64.1868 156.756 63.5316 156.534 63.0255 156.869C59.3823 158.838 59.7333 163.113 60.5644 165.473C59.403 165.585 58.377 165.463 57.3507 165.341C56.0901 165.083 54.7432 165.245 53.6807 165.728C49.4321 167.661 48.6253 175.028 51.9087 182.093C54.772 189.072 60.8945 193.39 65.094 191.271L65.094 191.271Z" fill="#E4582D"/>
<circle cx="167.5" cy="75.5" r="5.5" fill="#E4582D"/>
<path d="M225.084 60.0004C234.725 69.1937 251.111 86.6722 239.521 83.0403C225.033 78.5004 264.066 66.6079 260 90.5967" stroke="white" stroke-width="2" stroke-linecap="round"/>
<path d="M162.362 282.289C161.804 275.972 155.694 264.448 135.72 268.894C110.752 274.451 118.182 269.864 119.742 266.613" stroke="#E4582D" stroke-width="2" stroke-linecap="round"/>
<circle cx="270.5" cy="189.5" r="4.5" stroke="#E4582D" stroke-width="2"/>
<path d="M147.171 44.9653C146.749 45.3214 146.695 45.9523 147.051 46.3744C147.407 46.7966 148.038 46.8501 148.46 46.494L147.171 44.9653ZM173.078 37.7268L174.076 37.7998L173.078 37.7268ZM182.633 52.9082C182.417 53.4164 182.653 54.0037 183.162 54.22C183.67 54.4363 184.257 54.1997 184.473 53.6916L182.633 52.9082ZM148.46 46.494C152.823 42.8135 159.267 38.0437 164.47 35.6054C165.765 34.9987 166.956 34.5494 168 34.2939C169.054 34.0357 169.887 33.9932 170.501 34.1273C171.074 34.2524 171.459 34.5279 171.716 34.9931C171.996 35.5015 172.177 36.3358 172.081 37.6537L174.076 37.7998C174.187 36.2811 174.008 35.0069 173.466 34.026C172.901 33.0021 172 32.4076 170.928 32.1734C169.897 31.9481 168.727 32.0567 167.524 32.3513C166.31 32.6486 164.989 33.1537 163.622 33.7944C158.178 36.3453 151.575 41.2504 147.171 44.9653L148.46 46.494ZM172.081 37.6537C171.818 41.2397 171.986 43.7183 172.48 45.3835C172.981 47.0761 173.888 48.1116 175.171 48.3869C176.328 48.6351 177.484 48.1801 178.322 47.7433C178.764 47.513 179.174 47.257 179.519 47.0334C179.886 46.7952 180.136 46.624 180.341 46.5019L179.321 44.782C179.07 44.9305 178.734 45.1582 178.43 45.3554C178.104 45.5672 177.756 45.7831 177.398 45.9697C176.637 46.3664 176.024 46.5243 175.591 46.4314C175.284 46.3656 174.78 46.1057 174.397 44.8154C174.007 43.4976 173.819 41.3057 174.076 37.7998L172.081 37.6537ZM180.341 46.5019C180.489 46.4146 180.801 46.3492 181.252 46.4871C181.687 46.6202 182.168 46.9234 182.558 47.4167C183.305 48.3593 183.813 50.1377 182.633 52.9082L184.473 53.6916C185.87 50.4111 185.429 47.8192 184.126 46.1749C183.492 45.3748 182.673 44.8305 181.837 44.5746C181.016 44.3236 180.086 44.328 179.321 44.782L180.341 46.5019Z" fill="#E4582D"/>
<path d="M210.816 232.016C210.265 231.982 209.791 232.401 209.756 232.952L209.199 241.935C209.165 242.486 209.584 242.961 210.135 242.995C210.686 243.029 211.161 242.61 211.195 242.059L211.691 234.074L219.675 234.57C220.227 234.604 220.701 234.185 220.735 233.634C220.77 233.082 220.35 232.608 219.799 232.574L210.816 232.016ZM210.76 233.021L210.011 233.683L210.011 233.683L210.76 233.021ZM216.594 244.998L215.612 244.81L216.594 244.998ZM201.121 241.771C200.839 241.296 200.225 241.14 199.751 241.422C199.276 241.703 199.119 242.317 199.401 242.792L201.121 241.771ZM210.005 233.676L210.011 233.683L211.51 232.359L211.504 232.352L210.005 233.676ZM210.011 233.683C211.299 235.142 212.906 236.965 214.095 238.953C215.292 240.955 215.965 242.961 215.612 244.81L217.577 245.185C218.066 242.618 217.102 240.084 215.811 237.927C214.513 235.755 212.781 233.798 211.51 232.359L210.011 233.683ZM215.612 244.81C215.497 245.416 214.99 246.173 214.044 246.821C213.118 247.455 211.86 247.918 210.435 247.986C207.646 248.119 204.066 246.735 201.121 241.771L199.401 242.792C202.66 248.284 206.885 250.157 210.53 249.983C212.322 249.898 213.939 249.317 215.174 248.471C216.389 247.638 217.33 246.478 217.577 245.185L215.612 244.81Z" fill="white"/>
<circle cx="54.5" cy="223.5" r="4.5" stroke="white" stroke-width="2"/>
</svg>
