<svg width="308" height="308" viewBox="0 0 308 308" fill="none" xmlns="http://www.w3.org/2000/svg">
<circle cx="154" cy="154" r="153.5" stroke="#ECBA41" stroke-dasharray="4 4"/>
<circle cx="153.5" cy="154.5" r="141.5" fill="#EDD18D"/>
<path opacity="0.4" fill-rule="evenodd" clip-rule="evenodd" d="M252 154C252 208.124 208.124 252 154 252C99.8761 252 56 208.124 56 154C56 99.8761 99.8761 56 154 56C208.124 56 252 99.8761 252 154ZM253 154C253 208.676 208.676 253 154 253C99.3238 253 55 208.676 55 154C55 99.3238 99.3238 55 154 55C208.676 55 253 99.3238 253 154ZM218 154C218 189.346 189.346 218 154 218C118.654 218 90 189.346 90 154C90 118.654 118.654 90 154 90C189.346 90 218 118.654 218 154ZM219 154C219 189.898 189.898 219 154 219C118.101 219 89 189.898 89 154C89 118.101 118.101 89 154 89C189.898 89 219 118.101 219 154Z" fill="white"/>
<path fill-rule="evenodd" clip-rule="evenodd" d="M78.2568 104C76.5454 103.983 74.8634 104.446 73.4025 105.338C72.3754 105.962 71.4826 106.783 70.776 107.755C70.0694 108.727 69.563 109.829 69.2864 110.998C69.0426 112.328 68.9575 113.683 69.0332 115.032C69.0332 119.347 69.0356 123.663 69.0379 127.981C69.0427 136.615 69.0474 145.254 69.0332 153.892H69.0331C69.0113 154.489 69.0115 155.086 69.0117 155.683C69.0119 156.161 69.0121 156.638 69.001 157.113V194.443C68.989 195.34 69.097 196.235 69.322 197.104C69.7705 198.762 70.6779 200.259 71.9399 201.424C73.2019 202.589 74.7671 203.373 76.4555 203.688C78.0755 203.865 79.7064 203.922 81.3348 203.859H148.54C149.707 203.896 150.876 203.857 152.039 203.741C154.211 203.42 156.192 202.319 157.614 200.646C159.013 199.001 159.786 196.916 159.797 194.757V172.311C159.797 170.264 159.801 168.216 159.805 166.169C159.814 162.077 159.823 157.986 159.797 153.896H159.797V114.034C159.843 113.002 159.757 111.969 159.54 110.959C159.072 109.007 157.969 107.265 156.406 106.006C154.842 104.747 152.905 104.041 150.898 104H78.2568ZM153.421 153.971C153.414 153.972 153.408 153.973 153.401 153.974C152.712 153.923 152.02 153.91 151.329 153.935C150.941 153.944 150.547 153.94 150.152 153.936C149.459 153.929 148.76 153.922 148.069 153.985C148.043 153.981 148.016 153.978 147.99 153.975C147.642 154.05 147.316 154.206 147.039 154.43C146.743 154.67 146.512 154.981 146.368 155.333C146.213 155.801 146.158 156.295 146.207 156.785V160.402C146.186 160.735 146.235 161.07 146.35 161.384C146.465 161.698 146.644 161.984 146.876 162.225C147.108 162.466 147.387 162.657 147.696 162.784C148.005 162.912 148.338 162.974 148.672 162.966H152.809C153.442 162.969 154.05 162.725 154.507 162.287C154.963 161.849 155.232 161.251 155.256 160.619V157.11C155.338 156.39 155.215 155.661 154.899 155.009C154.734 154.742 154.516 154.512 154.259 154.332C154.006 154.157 153.721 154.034 153.421 153.971ZM127.678 153.857L128.003 153.646L105.343 140.046V153.917C105.34 153.917 105.338 153.917 105.336 153.917V167.221C112.771 162.772 120.203 158.316 127.631 153.853C127.647 153.855 127.663 153.856 127.678 153.857ZM80.8249 153.984C80.8047 153.987 80.7845 153.989 80.7643 153.992C80.1973 153.907 79.6243 153.917 79.0499 153.928C78.8582 153.932 78.6663 153.935 78.4744 153.935C78.1238 153.943 77.7723 153.938 77.4208 153.934C76.7566 153.927 76.092 153.919 75.432 153.989C75.4153 153.986 75.3987 153.984 75.382 153.981C74.8069 154.11 74.3022 154.454 73.973 154.945C73.6551 155.505 73.5169 156.15 73.5771 156.792V160.519C73.5757 160.841 73.6378 161.16 73.7599 161.458C73.8821 161.756 74.0617 162.027 74.2887 162.255C74.5157 162.484 74.7855 162.665 75.0826 162.789C75.3798 162.912 75.6984 162.976 76.0204 162.977H80.2719C80.838 162.965 81.3822 162.756 81.8102 162.385C82.2382 162.015 82.523 161.506 82.6153 160.947C82.6344 159.883 82.628 158.808 82.6216 157.742C82.6184 157.211 82.6153 156.682 82.6153 156.157C82.6077 155.634 82.4181 155.129 82.079 154.73C81.7548 154.349 81.3134 154.087 80.8249 153.984ZM74.0892 113.926C74.4046 113.536 74.8403 113.26 75.3285 113.142C75.5919 113.093 75.8597 113.071 76.1275 113.078H80.1793C80.622 113.057 81.0624 113.153 81.4562 113.356C81.8193 113.56 82.1202 113.858 82.3269 114.219C82.5336 114.58 82.6382 114.991 82.6297 115.407C82.6297 115.913 82.6317 116.42 82.6337 116.927C82.6376 117.941 82.6416 118.956 82.6297 119.969C82.6042 120.531 82.3714 121.064 81.9761 121.464C81.5809 121.865 81.0513 122.105 80.4896 122.137H75.8207C75.247 122.128 74.6981 121.902 74.2835 121.505C73.869 121.109 73.6193 120.57 73.5844 119.997V115.304C73.5963 114.801 73.7738 114.317 74.0892 113.926ZM146.672 113.941C146.977 113.551 147.401 113.27 147.88 113.142V113.156C148.377 113.074 148.882 113.046 149.385 113.071C149.794 113.071 150.206 113.067 150.619 113.064C151.449 113.057 152.284 113.049 153.113 113.071C153.678 113.11 154.209 113.358 154.601 113.768C154.993 114.178 155.217 114.719 155.231 115.286C155.231 115.806 155.234 116.327 155.236 116.848C155.241 117.889 155.245 118.931 155.231 119.972C155.201 120.549 154.954 121.093 154.539 121.494C154.124 121.895 153.572 122.124 152.995 122.134C152.476 122.134 151.958 122.136 151.44 122.138C150.403 122.142 149.366 122.146 148.329 122.134C147.768 122.101 147.238 121.861 146.843 121.461C146.448 121.06 146.215 120.527 146.189 119.965V115.307C146.197 114.811 146.367 114.332 146.672 113.941ZM74.3499 127.267C74.6312 127.018 74.9699 126.842 75.3357 126.756C75.853 126.684 76.376 126.658 76.8979 126.682C77.3011 126.682 77.7043 126.678 78.1073 126.675C78.913 126.669 79.7182 126.663 80.5217 126.682C81.0929 126.716 81.6304 126.963 82.027 127.376C82.4236 127.788 82.6502 128.335 82.6618 128.907V133.469C82.6604 133.896 82.5393 134.314 82.3124 134.676C82.0854 135.038 81.7617 135.329 81.3778 135.516C80.9342 135.708 80.4504 135.788 79.9689 135.748C79.497 135.748 79.0259 135.751 78.5547 135.755C77.6119 135.761 76.6686 135.767 75.7173 135.748C75.16 135.717 74.6338 135.481 74.2391 135.086C73.8444 134.692 73.6088 134.166 73.5772 133.608V129.56C73.5423 129.096 73.5918 128.629 73.7235 128.183C73.8533 127.831 74.0685 127.516 74.3499 127.267ZM146.929 127.28C147.198 127.032 147.523 126.852 147.877 126.756L147.873 126.774C148.377 126.691 148.889 126.665 149.4 126.696C149.811 126.696 150.225 126.692 150.639 126.689C151.469 126.682 152.303 126.674 153.134 126.696C153.7 126.735 154.231 126.984 154.622 127.395C155.013 127.805 155.237 128.347 155.249 128.914V133.494C155.246 133.902 155.134 134.302 154.923 134.652C154.713 135.002 154.413 135.29 154.054 135.484C153.635 135.696 153.167 135.792 152.699 135.763C152.216 135.763 151.733 135.765 151.251 135.767C150.285 135.772 149.32 135.777 148.354 135.763C147.788 135.737 147.252 135.5 146.851 135.1C146.45 134.699 146.213 134.164 146.186 133.597V129.563C146.15 129.098 146.2 128.63 146.332 128.183C146.456 127.839 146.66 127.529 146.929 127.28ZM74.0863 141.167C74.4032 140.774 74.8414 140.498 75.3321 140.381C75.7976 140.318 76.2681 140.297 76.7374 140.321C77.1463 140.321 77.5579 140.318 77.9708 140.315C78.8007 140.31 79.6359 140.304 80.4647 140.321C81.0402 140.351 81.5831 140.598 81.9836 141.012C82.3841 141.426 82.6125 141.977 82.6226 142.554V147.215C82.5956 147.782 82.3584 148.317 81.9573 148.718C81.5562 149.118 81.0201 149.354 80.454 149.38H75.8172C75.2432 149.372 74.6938 149.146 74.2791 148.749C73.8643 148.352 73.6149 147.813 73.5808 147.24C73.5689 146.199 73.5729 145.156 73.5768 144.113C73.5788 143.592 73.5808 143.071 73.5808 142.55C73.5916 142.046 73.7694 141.559 74.0863 141.167ZM146.925 140.919C147.191 140.675 147.513 140.498 147.862 140.403L147.866 140.381C148.375 140.306 148.89 140.288 149.403 140.328C149.813 140.328 150.226 140.324 150.639 140.32C151.469 140.312 152.303 140.304 153.134 140.328C153.699 140.368 154.229 140.618 154.62 141.028C155.01 141.438 155.234 141.98 155.245 142.547C155.245 143.066 155.248 143.585 155.25 144.105C155.255 145.146 155.26 146.188 155.245 147.23C155.215 147.806 154.967 148.35 154.551 148.75C154.135 149.151 153.583 149.378 153.006 149.388C152.487 149.388 151.969 149.39 151.451 149.392C150.416 149.395 149.381 149.399 148.347 149.388C147.781 149.361 147.246 149.123 146.845 148.722C146.445 148.321 146.208 147.785 146.182 147.219V143.185C146.146 142.721 146.195 142.254 146.329 141.808C146.453 141.468 146.658 141.164 146.925 140.919ZM74.0586 168.434C74.3947 167.991 74.887 167.692 75.4354 167.599C75.6636 167.558 75.8953 167.537 76.1274 167.539H80.1792C80.8136 167.517 81.4333 167.733 81.9162 168.145C82.1425 168.353 82.3228 168.605 82.4457 168.886C82.5685 169.168 82.6312 169.472 82.6296 169.779V174.027C82.6639 174.627 82.4764 175.219 82.1029 175.689C81.7293 176.16 81.1958 176.477 80.6036 176.581H76.0275C75.3952 176.582 74.787 176.338 74.3307 175.901C73.8745 175.463 73.6056 174.865 73.5807 174.234V170.089C73.5561 169.5 73.7238 168.919 74.0586 168.434ZM146.779 168.304C147.118 167.928 147.576 167.679 148.076 167.599V167.596C148.557 167.539 149.041 167.526 149.524 167.557H152.927C153.296 167.556 153.659 167.642 153.989 167.807C154.319 167.973 154.605 168.213 154.824 168.509C155.191 169.117 155.345 169.83 155.263 170.535V174.148C155.261 174.723 155.061 175.28 154.696 175.725C154.33 176.17 153.823 176.474 153.259 176.588C152.241 176.6 151.221 176.596 150.202 176.592C149.693 176.59 149.184 176.588 148.675 176.588C148.342 176.595 148.01 176.533 147.701 176.406C147.392 176.279 147.114 176.089 146.882 175.848C146.651 175.607 146.472 175.321 146.357 175.007C146.242 174.694 146.193 174.36 146.214 174.027V169.668C146.241 169.162 146.44 168.681 146.779 168.304ZM74.6362 181.514C74.8812 181.362 75.1541 181.26 75.439 181.214C75.6671 181.171 75.8988 181.149 76.1309 181.15H80.2006C80.8315 181.129 81.4472 181.346 81.9269 181.756C82.1536 181.964 82.3342 182.217 82.4571 182.499C82.58 182.781 82.6424 183.086 82.6403 183.393V187.634C82.6756 188.234 82.489 188.826 82.1161 189.298C81.7433 189.769 81.21 190.087 80.6179 190.191H75.71C75.1187 190.106 74.5776 189.811 74.185 189.361C73.7923 188.911 73.5741 188.335 73.57 187.737V183.7C73.5483 183.134 73.7029 182.576 74.0123 182.102C74.1792 181.867 74.3913 181.667 74.6362 181.514ZM146.97 181.724C147.28 181.455 147.66 181.278 148.065 181.214L148.069 181.21C148.768 181.125 149.475 181.136 150.18 181.147C150.595 181.153 151.01 181.159 151.422 181.146C152.376 181.015 153.347 181.151 154.229 181.538C154.545 181.754 154.803 182.045 154.981 182.383C155.158 182.722 155.251 183.1 155.249 183.482V187.634C155.263 187.965 155.211 188.295 155.094 188.605C154.978 188.915 154.8 189.198 154.572 189.437C154.343 189.677 154.069 189.868 153.765 189.999C153.461 190.129 153.133 190.197 152.802 190.198H148.547C147.983 190.186 147.441 189.977 147.014 189.608C146.587 189.239 146.301 188.733 146.207 188.176V183.914C146.175 183.518 146.21 183.121 146.311 182.737C146.432 182.344 146.66 181.994 146.97 181.724Z" fill="white"/>
<path d="M105.353 140.025C112.905 144.562 120.458 149.095 128.013 153.625L127.656 153.857C120.221 158.308 112.789 162.764 105.36 167.225V153.899C105.357 149.281 105.346 144.662 105.353 140.025V140.025Z" fill="#F5C654"/>
<path d="M229.684 173.435V161.972C229.684 161.103 229.338 160.27 228.723 159.656C228.107 159.042 227.272 158.697 226.402 158.697H223.119C230.472 153.424 232.179 143.205 226.894 135.77C224.337 132.262 220.494 129.905 216.202 129.211C211.911 128.518 207.519 129.545 203.983 132.069C201.783 133.641 200.011 135.77 198.829 138.161C196.995 137.027 194.954 136.266 192.824 135.923C190.694 135.579 188.517 135.659 186.418 136.158C184.319 136.657 182.339 137.566 180.594 138.831C178.848 140.097 177.37 141.695 176.246 143.532C173.966 147.233 173.252 151.686 174.262 155.911C175.271 160.137 177.921 163.79 181.629 166.066C182.319 166.459 183.008 166.885 183.73 167.147V194.725C183.73 195.593 184.076 196.426 184.691 197.041C185.307 197.655 186.142 198 187.012 198H226.402C227.272 198 228.107 197.655 228.723 197.041C229.338 196.426 229.684 195.593 229.684 194.725V183.261L242.814 196.362V160.334L229.684 173.435ZM213.272 139.045C215.013 139.045 216.683 139.735 217.914 140.964C219.145 142.192 219.837 143.858 219.837 145.596C219.837 147.333 219.145 148.999 217.914 150.228C216.683 151.456 215.013 152.146 213.272 152.146C211.531 152.146 209.861 151.456 208.63 150.228C207.399 148.999 206.707 147.333 206.707 145.596C206.707 143.858 207.399 142.192 208.63 140.964C209.861 139.735 211.531 139.045 213.272 139.045ZM190.295 145.596C192.036 145.596 193.706 146.286 194.937 147.514C196.168 148.743 196.86 150.409 196.86 152.146C196.86 153.884 196.168 155.55 194.937 156.778C193.706 158.007 192.036 158.697 190.295 158.697C188.554 158.697 186.884 158.007 185.653 156.778C184.422 155.55 183.73 153.884 183.73 152.146C183.73 150.409 184.422 148.743 185.653 147.514C186.884 146.286 188.554 145.596 190.295 145.596V145.596Z" fill="#E4582D"/>
<circle cx="167.5" cy="75.5" r="5.5" fill="#E4582D"/>
<path d="M225.084 60.0004C234.725 69.1937 251.111 86.6722 239.521 83.0403C225.033 78.5004 264.066 66.6079 260 90.5967" stroke="white" stroke-width="2" stroke-linecap="round"/>
<path d="M162.362 282.289C161.804 275.972 155.694 264.448 135.72 268.894C110.752 274.451 118.182 269.864 119.742 266.613" stroke="#E4582D" stroke-width="2" stroke-linecap="round"/>
<circle cx="270.5" cy="189.5" r="4.5" stroke="#E4582D" stroke-width="2"/>
<path d="M147.816 45.7297C156.583 38.3342 173.909 26.38 173.078 37.7268C172.039 51.9103 178.007 46.7245 179.831 45.6419C181.655 44.5593 186.129 47.2489 183.553 53.2999" stroke="#E4582D" stroke-width="2" stroke-linecap="round"/>
<path d="M210.816 232.016C210.265 231.982 209.791 232.401 209.756 232.952L209.199 241.935C209.165 242.486 209.584 242.961 210.135 242.995C210.686 243.029 211.161 242.61 211.195 242.059L211.691 234.074L219.675 234.57C220.227 234.604 220.701 234.185 220.735 233.634C220.77 233.082 220.35 232.608 219.799 232.574L210.816 232.016ZM210.76 233.021L210.011 233.683L210.011 233.683L210.76 233.021ZM216.594 244.998L215.612 244.81L216.594 244.998ZM201.121 241.771C200.839 241.296 200.225 241.14 199.751 241.422C199.276 241.703 199.119 242.317 199.401 242.792L201.121 241.771ZM210.005 233.676L210.011 233.683L211.51 232.359L211.504 232.352L210.005 233.676ZM210.011 233.683C211.299 235.142 212.906 236.965 214.095 238.953C215.292 240.955 215.965 242.961 215.612 244.81L217.577 245.185C218.066 242.618 217.102 240.084 215.811 237.927C214.513 235.755 212.781 233.798 211.51 232.359L210.011 233.683ZM215.612 244.81C215.497 245.416 214.99 246.173 214.044 246.821C213.118 247.455 211.86 247.918 210.435 247.986C207.646 248.119 204.066 246.735 201.121 241.771L199.401 242.792C202.66 248.284 206.885 250.157 210.53 249.983C212.322 249.898 213.939 249.317 215.174 248.471C216.389 247.638 217.33 246.478 217.577 245.185L215.612 244.81Z" fill="white"/>
<circle cx="54.5" cy="223.5" r="4.5" stroke="white" stroke-width="2"/>
<path d="M105.702 74.606V75.866H111.138V74.606H105.702ZM108.168 70.898C107.628 74.264 106.656 79.034 105.936 81.752L107.016 82.418C107.79 79.412 108.816 74.588 109.464 71.024L108.168 70.898ZM106.548 81.122C108.312 82.4 110.364 84.272 111.3 85.586L112.11 84.524C111.156 83.264 109.05 81.464 107.286 80.222L106.548 81.122ZM110.67 74.606V74.876C110.31 80.942 108.618 84.758 105.846 86.36C106.134 86.63 106.494 87.116 106.674 87.44C109.77 85.442 111.498 81.608 111.912 74.696L111.12 74.57L110.904 74.606H110.67ZM111.678 72.86V74.03H122.208V72.86H111.678ZM111.822 81.05V82.22H122.208V81.05H111.822ZM114.234 75.632V76.694H119.634V75.632H114.234ZM113.568 70.88V79.448H120.39V70.88H119.112V78.332H114.828V70.88H113.568ZM116.286 79.268V87.44H117.6V79.268H116.286ZM115.872 81.59C114.9 83.372 112.992 85.118 111.12 85.946C111.408 86.198 111.84 86.684 112.056 87.008C113.946 86 115.872 84.038 116.934 81.986L115.872 81.59ZM117.996 81.644L117.024 82.04C118.032 83.912 119.904 85.892 121.524 86.918C121.74 86.576 122.172 86.09 122.478 85.856C120.84 85.01 118.986 83.282 117.996 81.644Z" fill="#E4582D"/>
<path d="M127.5 70.952C126.618 73.67 125.142 76.37 123.54 78.134C123.792 78.458 124.188 79.16 124.332 79.466C126.096 77.432 127.734 74.372 128.778 71.33L127.5 70.952ZM125.88 75.596V87.422H127.158V74.336L127.14 74.318L125.88 75.596ZM133.44 70.952V87.35H134.754V70.952H133.44ZM128.364 74.516V75.812H140.154V74.516H128.364ZM130.47 82.868V84.092H137.67V82.868H130.47ZM135.402 75.182L134.394 75.488C135.456 78.998 137.382 82.58 139.488 84.506C139.74 84.146 140.19 83.678 140.514 83.444C138.408 81.752 136.428 78.404 135.402 75.182ZM132.882 75.11C131.82 78.404 129.768 81.824 127.662 83.534C127.968 83.75 128.418 84.218 128.616 84.56C130.794 82.58 132.756 79.016 133.872 75.416L132.882 75.11Z" fill="#E4582D"/>
</svg>
