<svg width="308" height="308" viewBox="0 0 308 308" fill="none" xmlns="http://www.w3.org/2000/svg">
<circle cx="154" cy="154" r="153.5" stroke="#ECBA41" stroke-dasharray="4 4"/>
<circle cx="153.5" cy="154.5" r="141.5" fill="#A8CCF9"/>
<path d="M181.625 176.791C184.98 163.745 202.499 157.284 196.907 130.694C191.316 104.106 159.939 101.395 143.731 105.597C126.93 109.952 113.585 127.8 118.015 142.731C118.358 143.884 118.155 145.119 117.502 146.129C115.453 149.297 109.953 156.209 108.467 160.264C107.932 161.726 108.768 163.333 110.273 163.733C110.745 163.859 113.644 165.002 114.021 165.121C117.887 166.352 117.141 174.906 117.141 182.753C117.141 190.954 125.839 189.835 128.697 189.215C131.554 188.593 138.015 188.016 138.015 195.8C138.015 196.839 138.046 197.677 138.093 198.35C138.201 199.904 139.21 201.249 140.664 201.81C146.409 204.022 163.047 207.474 183.147 200.287C184.327 199.865 184.869 198.498 184.307 197.379C182.41 193.608 179.131 186.495 181.626 176.791L181.625 176.791ZM175.177 164.547C170.68 166.887 167.196 164.174 165.443 162.224C164.453 162.662 163.36 162.909 162.208 162.909C160.329 162.909 158.604 162.258 157.237 161.174C157.188 161.339 151.124 162.733 150.065 158.51C150.162 158.512 150.256 158.522 150.354 158.522C150.455 158.522 150.559 158.521 150.662 158.517C154.417 158.41 158.029 156.376 161.399 152.469C161.965 151.813 161.891 150.824 161.236 150.258C160.58 149.692 159.591 149.766 159.026 150.421C156.268 153.618 153.437 155.287 150.611 155.382C149.774 155.41 148.998 155.29 148.298 155.096C148.102 155.034 147.912 154.98 147.709 154.91C147.501 154.839 147.315 154.755 147.123 154.676C145.575 153.993 144.624 153.062 144.601 153.039C144.562 152.999 144.517 152.969 144.475 152.934C142.377 150.754 142.434 147.769 142.801 145.778C135.305 146.61 131.771 143.847 130.103 141.158C130.771 141.074 131.448 140.924 132.117 140.666C134.146 139.876 135.669 138.339 136.64 136.096C136.984 135.303 136.62 134.38 135.827 134.036C135.031 133.692 134.11 134.056 133.767 134.85C133.133 136.312 132.227 137.257 130.995 137.74C129.885 138.177 128.672 138.173 127.645 138.026C125.236 136.837 123.573 134.364 123.573 131.495C123.573 127.681 126.501 124.556 130.23 124.232C129.825 123.526 129.642 122.674 129.793 121.771C130.053 120.213 131.336 118.964 132.9 118.743C133.028 118.726 133.151 118.73 133.277 118.725C133.765 120.205 134.761 122.235 136.686 123.041C137.232 123.27 137.798 123.383 138.383 123.383C139.603 123.383 140.907 122.889 142.28 121.904C142.983 121.399 143.144 120.42 142.64 119.718C142.135 119.014 141.157 118.852 140.454 119.358C139.705 119.894 138.657 120.465 137.9 120.152C137.048 119.798 136.451 118.443 136.149 117.395C137.237 115.465 139.301 114.159 141.675 114.159C142.97 114.159 144.173 114.549 145.176 115.214C146.068 112.787 148.394 111.052 151.131 111.052C152.631 111.052 154.007 111.575 155.093 112.445C156.238 110.789 158.15 109.701 160.316 109.701C162.445 109.701 164.324 110.752 165.477 112.36C166.286 111.876 167.23 111.592 168.242 111.592C170.564 111.592 172.538 113.059 173.303 115.115C174.027 114.654 174.886 114.383 175.808 114.383C178.394 114.383 180.491 116.479 180.491 119.066C180.491 119.166 180.482 119.263 180.476 119.361C181.104 119.078 181.832 118.978 182.597 119.151C183.822 119.428 184.811 120.415 185.087 121.64C185.26 122.404 185.162 123.131 184.881 123.758C184.949 123.755 185.015 123.748 185.084 123.748C187.372 123.748 189.228 125.603 189.228 127.891C189.228 128.665 189.001 129.38 188.631 130C186.004 129.607 182.763 130.273 180.22 133.893C179.723 134.601 179.893 135.578 180.601 136.075C180.874 136.267 181.19 136.36 181.5 136.36C181.993 136.36 182.478 136.128 182.784 135.693C185.895 131.263 190.015 133.634 190.48 133.923C190.512 133.943 190.545 133.954 190.576 133.971C191.72 135.912 192.379 138.174 192.379 140.589C192.379 144.559 190.605 148.113 187.809 150.507C188.105 151.517 188.157 152.633 187.84 153.797C187.269 155.893 185.567 157.545 183.457 158.065C182.224 158.368 181.055 158.26 180.008 157.889C179.668 160.334 178.368 162.885 175.177 164.546L175.177 164.547Z" fill="#094287"/>
<path d="M150.99 129.977C148.458 132.729 147.623 136.938 148.913 140.451C149.145 141.084 149.746 141.478 150.383 141.478C150.563 141.478 150.744 141.446 150.924 141.382C151.736 141.083 152.152 140.183 151.853 139.371C150.957 136.933 151.537 134.011 153.295 132.099C153.881 131.461 153.84 130.472 153.203 129.886C152.566 129.299 151.575 129.341 150.99 129.977L150.99 129.977Z" fill="#094287"/>
<path d="M180.511 124.639C178.5 120.987 175.259 119.954 172.274 120.034C172.041 118.952 171.584 117.38 170.723 115.997C170.266 115.263 169.299 115.037 168.565 115.495C167.831 115.953 167.607 116.918 168.063 117.652C168.642 118.584 168.98 119.683 169.168 120.497C168.303 120.732 167.525 121.03 166.894 121.338C166.117 121.719 165.795 122.658 166.176 123.434C166.555 124.211 167.493 124.533 168.272 124.152C168.54 124.019 174.915 120.976 177.766 126.152C178.051 126.67 178.586 126.963 179.14 126.963C179.395 126.963 179.654 126.901 179.894 126.769C180.653 126.349 180.928 125.397 180.511 124.639L180.511 124.639Z" fill="#094287"/>
<path d="M166.28 141.471C167.062 144.463 169.168 146.31 172.059 146.537C172.101 146.54 172.143 146.542 172.184 146.542C172.993 146.542 173.68 145.919 173.745 145.098C173.812 144.236 173.168 143.481 172.306 143.413C171.369 143.339 170.661 143 170.136 142.377C169.219 141.285 169.1 139.597 169.112 139.16C169.17 138.903 169.164 138.631 169.086 138.367C168.891 137.71 168.289 137.255 167.604 137.246C162.203 137.182 161.217 132.062 161.176 131.835C161.029 130.987 160.224 130.415 159.371 130.559C158.519 130.703 157.943 131.511 158.088 132.365C158.51 134.874 160.708 139.449 166.028 140.257C166.081 140.629 166.164 141.033 166.28 141.471L166.28 141.471Z" fill="#094287"/>
<path d="M155.409 114.672C154.589 114.945 154.145 115.833 154.418 116.653C155.03 118.489 154.974 119.938 154.244 121.083C152.789 123.368 149.093 123.829 149.02 123.837C148.162 123.933 147.543 124.707 147.638 125.565C147.726 126.368 148.404 126.961 149.192 126.961C149.249 126.961 149.308 126.958 149.365 126.952C149.579 126.929 154.596 126.34 156.877 122.782C158.137 120.816 158.31 118.42 157.392 115.662C157.117 114.842 156.233 114.398 155.409 114.672L155.409 114.672Z" fill="#094287"/>
<path d="M175.289 157.958C173.102 158.899 171.291 159.045 169.904 158.389C168.067 157.518 167.435 155.439 167.417 155.375C167.187 154.544 166.328 154.059 165.497 154.282C164.662 154.51 164.168 155.371 164.396 156.206C164.434 156.346 165.372 159.683 168.519 161.2C169.528 161.687 170.628 161.93 171.812 161.93C173.262 161.93 174.837 161.565 176.528 160.838C177.323 160.496 177.689 159.574 177.347 158.779C177.004 157.982 176.082 157.615 175.289 157.958L175.289 157.958Z" fill="#094287"/>
<path opacity="0.34" fill-rule="evenodd" clip-rule="evenodd" d="M252 154C252 208.124 208.124 252 154 252C99.8761 252 56 208.124 56 154C56 99.8761 99.8761 56 154 56C208.124 56 252 99.8761 252 154ZM253 154C253 208.676 208.676 253 154 253C99.3238 253 55 208.676 55 154C55 99.3238 99.3238 55 154 55C208.676 55 253 99.3238 253 154ZM218 154C218 189.346 189.346 218 154 218C118.654 218 90 189.346 90 154C90 118.654 118.654 90 154 90C189.346 90 218 118.654 218 154ZM219 154C219 189.898 189.898 219 154 219C118.101 219 89 189.898 89 154C89 118.101 118.101 89 154 89C189.898 89 219 118.101 219 154Z" fill="white"/>
<circle cx="212.5" cy="94.5" r="5.5" fill="#FDE0D7"/>
<path d="M279.533 177.084C275.765 164.306 270.289 140.982 278.52 149.914C288.809 161.078 249.049 151.904 264.544 133.145" stroke="#E4582D" stroke-width="2" stroke-linecap="round"/>
<path d="M129.014 266.511C128.97 265.961 128.489 265.549 127.938 265.593C127.388 265.636 126.977 266.117 127.02 266.668L129.014 266.511ZM154.529 280.241L154.321 279.263L154.529 280.241ZM169.587 282.236C169.343 282.731 169.547 283.331 170.043 283.574C170.538 283.818 171.138 283.614 171.381 283.118L169.587 282.236ZM127.02 266.668C127.287 270.057 129.016 274.815 133.34 278.171C137.695 281.552 144.522 283.39 154.737 281.22L154.321 279.263C144.519 281.346 138.339 279.519 134.567 276.591C130.764 273.64 129.245 269.444 129.014 266.511L127.02 266.668ZM154.737 281.22C160.983 279.892 165.163 279.188 167.898 278.919C169.269 278.785 170.24 278.764 170.91 278.819C171.244 278.847 171.479 278.891 171.64 278.938C171.803 278.987 171.854 279.028 171.851 279.026C171.836 279.013 171.792 278.965 171.772 278.888C171.754 278.825 171.77 278.804 171.757 278.858C171.725 278.996 171.609 279.241 171.35 279.627C171.097 280.004 170.805 280.381 170.473 280.837C170.162 281.264 169.826 281.748 169.587 282.236L171.381 283.118C171.539 282.797 171.785 282.432 172.09 282.014C172.374 281.624 172.731 281.159 173.011 280.741C173.286 280.331 173.586 279.827 173.706 279.307C173.77 279.032 173.794 278.704 173.701 278.363C173.604 278.007 173.399 277.708 173.119 277.479C172.608 277.06 171.875 276.892 171.073 276.826C170.232 276.757 169.126 276.79 167.703 276.929C164.853 277.208 160.585 277.932 154.321 279.263L154.737 281.22Z" fill="white"/>
<circle cx="218.5" cy="255.5" r="4.5" stroke="white" stroke-width="2"/>
<path d="M98.7389 234.637C98.7144 234.086 98.2472 233.658 97.6955 233.683L88.7044 234.082C88.1526 234.107 87.7252 234.574 87.7497 235.125C87.7742 235.677 88.2414 236.105 88.7931 236.08L96.7852 235.725L97.1402 243.717C97.1647 244.269 97.6319 244.696 98.1836 244.672C98.7354 244.647 99.1628 244.18 99.1383 243.628L98.7389 234.637ZM97.7338 234.688L96.9961 234.013L96.9961 234.013L97.7338 234.688ZM86.4442 241.761L86.5262 240.764L86.4442 241.761ZM88.0096 226.032C88.4519 225.702 88.5424 225.075 88.2118 224.633C87.8811 224.19 87.2544 224.1 86.8121 224.43L88.0096 226.032ZM97.0021 234.007L96.9961 234.013L98.4716 235.363L98.4777 235.357L97.0021 234.007ZM96.9961 234.013C95.6823 235.449 94.0398 237.24 92.1893 238.634C90.3255 240.037 88.4029 240.919 86.5262 240.764L86.3623 242.757C88.9669 242.972 91.3842 241.743 93.3923 240.231C95.4136 238.71 97.1753 236.78 98.4716 235.363L96.9961 234.013ZM86.5262 240.764C85.9119 240.714 85.1056 240.29 84.3607 239.419C83.6317 238.565 83.038 237.364 82.8191 235.954C82.391 233.195 83.3867 229.488 88.0096 226.032L86.8121 224.43C81.6971 228.254 80.2831 232.654 80.8428 236.26C81.1179 238.033 81.8676 239.579 82.8401 240.718C83.7968 241.837 85.0501 242.65 86.3623 242.757L86.5262 240.764Z" fill="#206DCD"/>
<path d="M68.0863 88.9948C65.7792 77.7594 63.5577 56.8268 73.1281 62.9788C85.091 70.6689 83.3872 62.949 83.3079 60.8292C83.2286 58.7093 87.7292 56.0645 91.8137 61.2187" stroke="#E4582D" stroke-width="2" stroke-linecap="round"/>
</svg>
