<svg width="308" height="308" viewBox="0 0 308 308" fill="none" xmlns="http://www.w3.org/2000/svg">
<circle cx="154" cy="154" r="153.5" stroke="#ECBA41" stroke-dasharray="4 4"/>
<circle cx="153.5" cy="154.5" r="141.5" fill="#B05D80"/>
<circle cx="153.5" cy="154.5" r="141.5" fill="#D89CB5"/>
<path opacity="0.4" fill-rule="evenodd" clip-rule="evenodd" d="M252 154C252 208.124 208.124 252 154 252C99.8761 252 56 208.124 56 154C56 99.8761 99.8761 56 154 56C208.124 56 252 99.8761 252 154ZM253 154C253 208.676 208.676 253 154 253C99.3238 253 55 208.676 55 154C55 99.3238 99.3238 55 154 55C208.676 55 253 99.3238 253 154ZM218 154C218 189.346 189.346 218 154 218C118.654 218 90 189.346 90 154C90 118.654 118.654 90 154 90C189.346 90 218 118.654 218 154ZM219 154C219 189.898 189.898 219 154 219C118.101 219 89 189.898 89 154C89 118.101 118.101 89 154 89C189.898 89 219 118.101 219 154Z" fill="white"/>
<path d="M96 169H93V171.667H90V174.333H93V177H96V174.333H99V171.667H96V169Z" fill="#882A52"/>
<path d="M202.333 113H204.667V110.667H207V108.333H204.667V106H202.333V108.333H200V110.667H202.333V113Z" fill="#882A52"/>
<path d="M110.5 113C110.787 113 111.063 112.877 111.266 112.658C111.469 112.44 111.583 112.143 111.583 111.833C111.529 110.579 111.969 109.358 112.793 108.47C113.618 107.582 114.752 107.108 115.917 107.167C116.515 107.167 117 106.644 117 106C117 105.356 116.515 104.833 115.917 104.833C114.752 104.892 113.618 104.418 112.793 103.53C111.969 102.642 111.529 101.421 111.583 100.167C111.583 99.5224 111.098 99 110.5 99C109.902 99 109.417 99.5224 109.417 100.167C109.471 101.421 109.031 102.642 108.207 103.53C107.382 104.418 106.248 104.892 105.083 104.833C104.485 104.833 104 105.356 104 106C104 106.644 104.485 107.167 105.083 107.167C106.248 107.108 107.382 107.582 108.207 108.47C109.031 109.358 109.471 110.579 109.417 111.833C109.417 112.143 109.531 112.44 109.734 112.658C109.937 112.877 110.213 113 110.5 113ZM110.5 104.196C110.942 104.911 111.511 105.525 112.175 106C111.511 106.476 110.942 107.089 110.5 107.804C110.058 107.089 109.489 106.476 108.825 106C109.489 105.525 110.058 104.911 110.5 104.196Z" fill="#882A52"/>
<path d="M219.427 185.87L219.427 185.87C220.344 186.858 221.613 187.395 222.927 187.333C223.211 187.339 223.5 187.601 223.5 188C223.5 188.399 223.211 188.661 222.927 188.667C221.613 188.605 220.344 189.142 219.427 190.13L219.427 190.13C218.511 191.116 218.027 192.464 218.083 193.843C218.079 194.241 217.786 194.5 217.5 194.5C217.214 194.5 216.921 194.241 216.917 193.843C216.973 192.464 216.489 191.116 215.573 190.13L215.573 190.13C214.656 189.142 213.387 188.605 212.073 188.667C211.789 188.661 211.5 188.399 211.5 188C211.5 187.601 211.789 187.339 212.073 187.333C213.387 187.395 214.656 186.858 215.573 185.87L215.573 185.87C216.489 184.884 216.973 183.536 216.917 182.157C216.921 181.759 217.214 181.5 217.5 181.5C217.786 181.5 218.079 181.759 218.083 182.157C218.027 183.536 218.511 184.884 219.427 185.87ZM217.075 190.066L217.5 190.755L217.925 190.066C218.333 189.406 218.858 188.842 219.466 188.406L220.033 188L219.466 187.594C218.858 187.158 218.333 186.594 217.925 185.934L217.5 185.245L217.075 185.934C216.667 186.594 216.142 187.158 215.534 187.594L214.967 188L215.534 188.406C216.142 188.842 216.667 189.406 217.075 190.066Z" fill="#E4582D" stroke="#E4582D"/>
<path fill-rule="evenodd" clip-rule="evenodd" d="M176.116 103.828C176.58 104.291 176.586 104.372 176.646 110.159L176.707 116.021L177.745 116.329C179.156 116.748 183.042 118.179 184.253 118.726C188.323 120.562 190.152 121.566 193.276 123.681C214.202 137.845 217.508 161.463 201.013 178.958C199.784 180.262 195.861 183.612 194.512 184.51C191.078 186.796 189.793 187.553 186.907 188.99C185.104 189.888 183.504 190.623 183.352 190.623C183.135 190.623 183.076 191.233 183.076 193.501V196.378L182.456 197.085C182.115 197.474 181.605 197.849 181.323 197.92L180.81 198.049V204.233C180.81 209.563 180.767 210.434 180.498 210.537C180.146 210.672 179.554 210.263 179.595 209.913C179.61 209.787 179.611 208.315 179.598 206.644L179.573 203.605H178.955H178.337V207.011C178.337 209.861 178.286 210.437 178.025 210.537C177.24 210.838 177.101 210.286 177.101 206.876V203.605H176.483H175.864V207.011C175.864 209.861 175.814 210.437 175.553 210.537C174.768 210.838 174.628 210.286 174.628 206.876V203.605H174.01H173.392V207.011C173.392 209.982 173.349 210.434 173.053 210.547C172.333 210.824 172.155 210.076 172.155 206.759V203.605H171.537H170.919V207.011C170.919 209.861 170.868 210.437 170.607 210.537C169.822 210.838 169.683 210.286 169.683 206.876V203.605H169.065H168.446V207.011C168.446 209.861 168.396 210.437 168.135 210.537C167.35 210.838 167.21 210.286 167.21 206.876V203.605H166.592H165.974V207.011C165.974 209.861 165.923 210.437 165.662 210.537C165.31 210.672 164.718 210.263 164.759 209.913C164.774 209.787 164.775 208.315 164.762 206.644L164.737 203.605H164.119H163.501V207.011C163.501 209.861 163.45 210.437 163.189 210.537C162.404 210.838 162.265 210.286 162.265 206.876V203.605H161.647H161.029V207.011C161.029 209.982 160.985 210.434 160.69 210.547C159.997 210.813 159.815 210.085 159.81 207.032C159.807 205.43 159.802 204.004 159.799 203.862C159.795 203.721 159.699 203.605 159.586 203.605C159.452 203.605 159.38 206.283 159.38 211.229V218.853H159.854C160.735 218.853 161.107 219.638 160.529 220.279C160.291 220.542 160.225 221.814 160.181 226.992C160.125 233.463 160.099 233.895 159.77 233.895C159.669 233.895 159.586 232.787 159.586 231.434C159.586 230.016 159.499 228.92 159.38 228.846C159.247 228.764 159.174 229.634 159.174 231.307C159.174 233.47 159.123 233.895 158.865 233.895C158.607 233.895 158.556 233.471 158.556 231.319C158.556 229.739 158.476 228.743 158.35 228.743C158.223 228.743 158.144 229.745 158.144 231.336C158.144 234.59 157.664 234.995 157.573 231.817C157.484 228.683 157.388 228.443 157.352 231.267C157.325 233.451 157.267 233.895 157.01 233.895C156.752 233.895 156.701 233.471 156.701 231.319C156.701 229.739 156.622 228.743 156.495 228.743C156.369 228.743 156.289 229.745 156.289 231.336C156.289 233.319 156.229 233.909 156.032 233.843C155.834 233.777 155.761 232.214 155.72 227.152C155.674 221.606 155.616 220.506 155.359 220.293C154.723 219.764 155.142 218.853 156.021 218.853C156.495 218.853 156.495 218.851 156.514 215.607C156.524 213.822 156.571 210.392 156.617 207.983C156.69 204.22 156.659 203.605 156.397 203.605C156.143 203.605 156.084 204.175 156.037 207.056C155.981 210.459 155.974 210.508 155.517 210.573C155.247 210.612 155.04 210.526 155.022 210.367C155.006 210.218 154.973 209.956 154.95 209.786C154.927 209.616 154.894 208.156 154.877 206.541L154.847 203.605H154.229H153.611V207.011C153.611 209.861 153.56 210.437 153.299 210.537C152.514 210.838 152.374 210.286 152.374 206.876V203.605H151.756H151.138V207.011C151.138 209.861 151.087 210.437 150.826 210.537C150.041 210.838 149.902 210.286 149.902 206.876V203.605H149.283H148.665V207.011C148.665 209.982 148.622 210.434 148.326 210.547C147.606 210.824 147.429 210.076 147.429 206.759V203.605H146.811H146.193V207.011C146.193 209.861 146.142 210.437 145.881 210.537C145.529 210.672 144.937 210.263 144.978 209.913C144.993 209.787 144.994 208.315 144.981 206.644L144.956 203.605H144.338H143.72V207.011C143.72 209.861 143.669 210.437 143.408 210.537C142.623 210.838 142.484 210.286 142.484 206.876V203.605H141.87H141.257L141.201 207.056C141.145 210.459 141.138 210.508 140.681 210.573C140.376 210.616 140.208 210.528 140.191 210.316C140.177 210.138 140.142 209.9 140.114 209.786C140.086 209.673 140.051 208.236 140.037 206.592L140.011 203.605H139.393H138.775V207.011C138.775 209.914 138.727 210.436 138.452 210.541C137.674 210.84 137.58 210.408 137.555 206.438L137.538 203.605H136.92H136.302V207.011C136.302 209.861 136.251 210.437 135.99 210.537C135.638 210.672 135.046 210.263 135.087 209.913C135.102 209.787 135.104 207.075 135.09 203.887L135.066 198.091L134.44 197.832C133.345 197.378 133.005 196.727 133.004 195.077C133.003 194.271 132.945 193.008 132.874 192.272L132.747 190.932L130.97 190.161C108.042 180.205 98.069 158.669 107.588 139.671C112.815 129.239 123.917 120.584 137.384 116.443L138.775 116.015V110.299C138.775 104.153 138.817 103.891 139.878 103.459C140.121 103.36 148.269 103.297 157.983 103.319L175.647 103.359L176.116 103.828Z" fill="#882A52"/>
<mask id="mask0_248_6517" style="mask-type:alpha" maskUnits="userSpaceOnUse" x="104" y="103" width="108" height="131">
<path fill-rule="evenodd" clip-rule="evenodd" d="M176.116 103.828C176.58 104.291 176.586 104.372 176.646 110.159L176.707 116.021L177.745 116.329C179.156 116.748 183.042 118.179 184.253 118.726C188.323 120.562 190.152 121.566 193.276 123.681C214.202 137.845 217.508 161.463 201.013 178.958C199.784 180.262 195.861 183.612 194.512 184.51C191.078 186.796 189.793 187.553 186.907 188.99C185.104 189.888 183.504 190.623 183.352 190.623C183.135 190.623 183.076 191.233 183.076 193.501V196.378L182.456 197.085C182.115 197.474 181.605 197.849 181.323 197.92L180.81 198.049V204.233C180.81 209.563 180.767 210.434 180.498 210.537C180.146 210.672 179.554 210.263 179.595 209.913C179.61 209.787 179.611 208.315 179.598 206.644L179.573 203.605H178.955H178.337V207.011C178.337 209.861 178.286 210.437 178.025 210.537C177.24 210.838 177.101 210.286 177.101 206.876V203.605H176.483H175.864V207.011C175.864 209.861 175.814 210.437 175.553 210.537C174.768 210.838 174.628 210.286 174.628 206.876V203.605H174.01H173.392V207.011C173.392 209.982 173.349 210.434 173.053 210.547C172.333 210.824 172.155 210.076 172.155 206.759V203.605H171.537H170.919V207.011C170.919 209.861 170.868 210.437 170.607 210.537C169.822 210.838 169.683 210.286 169.683 206.876V203.605H169.065H168.446V207.011C168.446 209.861 168.396 210.437 168.135 210.537C167.35 210.838 167.21 210.286 167.21 206.876V203.605H166.592H165.974V207.011C165.974 209.861 165.923 210.437 165.662 210.537C165.31 210.672 164.718 210.263 164.759 209.913C164.774 209.787 164.775 208.315 164.762 206.644L164.737 203.605H164.119H163.501V207.011C163.501 209.861 163.45 210.437 163.189 210.537C162.404 210.838 162.265 210.286 162.265 206.876V203.605H161.647H161.029V207.011C161.029 209.982 160.985 210.434 160.69 210.547C159.997 210.813 159.815 210.085 159.81 207.032C159.807 205.43 159.802 204.004 159.799 203.862C159.795 203.721 159.699 203.605 159.586 203.605C159.452 203.605 159.38 206.283 159.38 211.229V218.853H159.854C160.735 218.853 161.107 219.638 160.529 220.279C160.291 220.542 160.225 221.814 160.181 226.992C160.125 233.463 160.099 233.895 159.77 233.895C159.669 233.895 159.586 232.787 159.586 231.434C159.586 230.016 159.499 228.92 159.38 228.846C159.247 228.764 159.174 229.634 159.174 231.307C159.174 233.47 159.123 233.895 158.865 233.895C158.607 233.895 158.556 233.471 158.556 231.319C158.556 229.739 158.476 228.743 158.35 228.743C158.223 228.743 158.144 229.745 158.144 231.336C158.144 234.59 157.664 234.995 157.573 231.817C157.484 228.683 157.388 228.443 157.352 231.267C157.325 233.451 157.267 233.895 157.01 233.895C156.752 233.895 156.701 233.471 156.701 231.319C156.701 229.739 156.622 228.743 156.495 228.743C156.369 228.743 156.289 229.745 156.289 231.336C156.289 233.319 156.229 233.909 156.032 233.843C155.834 233.777 155.761 232.214 155.72 227.152C155.674 221.606 155.616 220.506 155.359 220.293C154.723 219.764 155.142 218.853 156.021 218.853C156.495 218.853 156.495 218.851 156.514 215.607C156.524 213.822 156.571 210.392 156.617 207.983C156.69 204.22 156.659 203.605 156.397 203.605C156.143 203.605 156.084 204.175 156.037 207.056C155.981 210.459 155.974 210.508 155.517 210.573C155.247 210.612 155.04 210.526 155.022 210.367C155.006 210.218 154.973 209.956 154.95 209.786C154.927 209.616 154.894 208.156 154.877 206.541L154.847 203.605H154.229H153.611V207.011C153.611 209.861 153.56 210.437 153.299 210.537C152.514 210.838 152.374 210.286 152.374 206.876V203.605H151.756H151.138V207.011C151.138 209.861 151.087 210.437 150.826 210.537C150.041 210.838 149.902 210.286 149.902 206.876V203.605H149.283H148.665V207.011C148.665 209.982 148.622 210.434 148.326 210.547C147.606 210.824 147.429 210.076 147.429 206.759V203.605H146.811H146.193V207.011C146.193 209.861 146.142 210.437 145.881 210.537C145.529 210.672 144.937 210.263 144.978 209.913C144.993 209.787 144.994 208.315 144.981 206.644L144.956 203.605H144.338H143.72V207.011C143.72 209.861 143.669 210.437 143.408 210.537C142.623 210.838 142.484 210.286 142.484 206.876V203.605H141.87H141.257L141.201 207.056C141.145 210.459 141.138 210.508 140.681 210.573C140.376 210.616 140.208 210.528 140.191 210.316C140.177 210.138 140.142 209.9 140.114 209.786C140.086 209.673 140.051 208.236 140.037 206.592L140.011 203.605H139.393H138.775V207.011C138.775 209.914 138.727 210.436 138.452 210.541C137.674 210.84 137.58 210.408 137.555 206.438L137.538 203.605H136.92H136.302V207.011C136.302 209.861 136.251 210.437 135.99 210.537C135.638 210.672 135.046 210.263 135.087 209.913C135.102 209.787 135.104 207.075 135.09 203.887L135.066 198.091L134.44 197.832C133.345 197.378 133.005 196.727 133.004 195.077C133.003 194.271 132.945 193.008 132.874 192.272L132.747 190.932L130.97 190.161C108.042 180.205 98.069 158.669 107.588 139.671C112.815 129.239 123.917 120.584 137.384 116.443L138.775 116.015V110.299C138.775 104.153 138.817 103.891 139.878 103.459C140.121 103.36 148.269 103.297 157.983 103.319L175.647 103.359L176.116 103.828Z" fill="#882A52"/>
</mask>
<g mask="url(#mask0_248_6517)">
<path fill-rule="evenodd" clip-rule="evenodd" d="M213.366 144.031H104.157V139.91H213.366V144.031ZM213.366 154.745H104.157V150.624H213.366V154.745ZM104.157 165.46H213.366V161.339H104.157V165.46Z" fill="#FFEBF3"/>
<path d="M132.593 190.599H183.282V195.132C183.282 196.725 181.991 198.017 180.398 198.017H135.478C133.885 198.017 132.593 196.725 132.593 195.132V190.599Z" fill="#FFEBF3"/>
<rect x="138.775" y="107.353" width="37.914" height="8.65429" fill="#FFEBF3"/>
</g>
<line x1="157.574" y1="103.314" x2="157.574" y2="79" stroke="#882A52" stroke-width="5.76952"/>
<path d="M146.908 33L164.111 41.2041L149.87 51.8077L146.908 33Z" fill="#E4582D" stroke="#E4582D" stroke-width="2" stroke-linecap="round"/>
<path d="M49.3473 120.753C49.8996 120.755 50.3483 120.308 50.3495 119.756C50.3507 119.203 49.904 118.755 49.3517 118.753L49.3473 120.753ZM33.6046 145.078L34.5963 144.95L33.6046 145.078ZM30.4028 159.926C29.9285 159.643 29.3146 159.799 29.0318 160.273C28.749 160.747 28.9043 161.361 29.3786 161.644L30.4028 159.926ZM49.3517 118.753C45.9519 118.746 41.0709 120.086 37.3764 124.126C33.6559 128.194 31.2733 134.851 32.6129 145.206L34.5963 144.95C33.3109 135.012 35.6296 128.999 38.8523 125.475C42.101 121.923 46.405 120.747 49.3473 120.753L49.3517 118.753ZM32.6129 145.206C33.432 151.539 33.7977 155.762 33.8443 158.511C33.8676 159.887 33.81 160.857 33.7012 161.521C33.6471 161.851 33.584 162.082 33.5238 162.238C33.4626 162.397 33.4177 162.445 33.4197 162.443C33.4333 162.428 33.4849 162.389 33.5631 162.374C33.6273 162.362 33.647 162.379 33.5942 162.362C33.4593 162.319 33.2248 162.183 32.8612 161.894C32.5056 161.612 32.1534 161.29 31.7258 160.922C31.3252 160.578 30.8698 160.205 30.4028 159.926L29.3786 161.644C29.6859 161.827 30.0298 162.102 30.4223 162.439C30.7878 162.753 31.2227 163.147 31.6168 163.46C32.0029 163.767 32.4808 164.107 32.9897 164.269C33.2589 164.354 33.5835 164.405 33.9314 164.34C34.2935 164.272 34.6079 164.092 34.8593 163.831C35.3178 163.355 35.5448 162.638 35.6749 161.844C35.8115 161.011 35.8682 159.906 35.844 158.477C35.7954 155.613 35.4179 151.301 34.5963 144.95L32.6129 145.206Z" fill="white"/>
<path d="M110.739 222.637C110.714 222.086 110.247 221.658 109.696 221.683L100.704 222.082C100.153 222.107 99.7253 222.574 99.7498 223.125C99.7743 223.677 100.241 224.105 100.793 224.08L108.785 223.725L109.14 231.717C109.165 232.269 109.632 232.696 110.184 232.672C110.735 232.647 111.163 232.18 111.138 231.628L110.739 222.637ZM109.734 222.688L108.996 222.013L108.996 222.013L109.734 222.688ZM98.4443 229.761L98.5263 228.764L98.4443 229.761ZM100.01 214.032C100.452 213.701 100.542 213.075 100.212 212.632C99.8811 212.19 99.2545 212.1 98.8121 212.43L100.01 214.032ZM109.002 222.007L108.996 222.013L110.472 223.363L110.478 223.357L109.002 222.007ZM108.996 222.013C107.682 223.449 106.04 225.24 104.189 226.634C102.326 228.037 100.403 228.919 98.5263 228.764L98.3623 230.757C100.967 230.972 103.384 229.743 105.392 228.231C107.414 226.709 109.175 224.78 110.472 223.363L108.996 222.013ZM98.5263 228.764C97.9119 228.714 97.1056 228.29 96.3608 227.418C95.6317 226.565 95.038 225.364 94.8192 223.954C94.391 221.195 95.3867 217.488 100.01 214.032L98.8121 212.43C93.6972 216.254 92.2831 220.654 92.8428 224.26C93.118 226.033 93.8677 227.579 94.8401 228.718C95.7968 229.837 97.0501 230.65 98.3623 230.757L98.5263 228.764Z" fill="#E4582D"/>
<path d="M225.774 59.2767C225.374 58.8956 224.741 58.9106 224.36 59.3103C223.979 59.71 223.994 60.343 224.394 60.7242L225.774 59.2767ZM239.521 83.0403L239.222 83.9945L239.521 83.0403ZM259.014 90.4296C258.922 90.9741 259.288 91.4904 259.833 91.5827C260.377 91.675 260.894 91.3084 260.986 90.7639L259.014 90.4296ZM224.394 60.7242C229.206 65.3125 235.665 71.936 239.468 76.9352C240.417 78.1825 241.184 79.307 241.715 80.2583C242.266 81.2439 242.494 81.9215 242.511 82.3101C242.519 82.4815 242.481 82.5026 242.504 82.4697C242.534 82.4276 242.544 82.4621 242.398 82.4958C242.035 82.5796 241.246 82.5331 239.82 82.086L239.222 83.9945C240.692 84.4554 241.927 84.6572 242.848 84.4445C243.345 84.3299 243.812 84.0798 244.132 83.6314C244.446 83.1921 244.53 82.6849 244.509 82.2206C244.47 81.3377 244.037 80.3137 243.461 79.2825C242.866 78.2171 242.038 77.0096 241.06 75.7244C237.157 70.594 230.603 63.8816 225.774 59.2767L224.394 60.7242ZM239.82 82.086C238.968 81.819 238.362 81.5397 237.951 81.2739C237.536 81.0054 237.374 80.7864 237.317 80.6605C237.268 80.5551 237.184 80.2643 237.843 79.6813C238.48 79.1182 239.575 78.5363 241.019 78.0607C242.445 77.5908 244.143 77.2474 245.925 77.1176C249.523 76.8554 253.283 77.4732 255.871 79.4517C258.372 81.3641 259.983 84.7098 259.014 90.4296L260.986 90.7639C262.049 84.4893 260.307 80.3257 257.085 77.8629C253.951 75.4662 249.621 74.843 245.78 75.1229C243.842 75.264 241.983 75.6374 240.393 76.1611C238.82 76.6791 237.44 77.3678 236.518 78.1832C235.618 78.9788 234.893 80.1745 235.499 81.4947C235.768 82.0817 236.258 82.5603 236.865 82.953C237.476 83.3484 238.263 83.6941 239.222 83.9945L239.82 82.086Z" fill="#882A52"/>
<circle cx="270.5" cy="189.5" r="4.5" stroke="white" stroke-width="2"/>
<path d="M169.757 262.4C169.978 261.894 169.747 261.305 169.241 261.083C168.735 260.862 168.146 261.093 167.925 261.599L169.757 262.4ZM149.718 280.345L150.645 279.97L149.718 280.345ZM134.436 270.951C134.406 270.4 133.934 269.978 133.382 270.008C132.831 270.039 132.409 270.511 132.439 271.062L134.436 270.951ZM167.925 261.599C165.638 266.829 161.966 273.956 158.377 278.443C157.484 279.56 156.614 280.489 155.791 281.18C154.959 281.877 154.231 282.284 153.621 282.435C153.052 282.576 152.585 282.499 152.149 282.195C151.672 281.863 151.141 281.195 150.645 279.97L148.791 280.721C149.363 282.132 150.086 283.196 151.006 283.836C151.966 284.505 153.037 284.64 154.102 284.376C155.126 284.122 156.127 283.508 157.076 282.712C158.034 281.908 158.995 280.871 159.938 279.693C163.694 274.998 167.449 267.679 169.757 262.4L167.925 261.599ZM150.645 279.97C149.295 276.637 148.049 274.488 146.87 273.213C145.672 271.916 144.401 271.388 143.128 271.708C141.981 271.997 141.145 272.916 140.586 273.679C140.292 274.08 140.037 274.491 139.827 274.844C139.603 275.22 139.454 275.484 139.324 275.685L141 276.776C141.159 276.532 141.359 276.179 141.545 275.868C141.744 275.534 141.961 275.186 142.199 274.861C142.707 274.168 143.187 273.756 143.616 273.648C143.921 273.571 144.488 273.581 145.401 274.57C146.334 275.579 147.472 277.462 148.791 280.721L150.645 279.97ZM139.324 275.685C139.23 275.828 138.979 276.025 138.514 276.1C138.065 276.173 137.499 276.114 136.931 275.844C135.844 275.329 134.603 273.958 134.436 270.951L132.439 271.062C132.637 274.622 134.178 276.752 136.074 277.651C136.996 278.088 137.971 278.215 138.834 278.074C139.681 277.937 140.514 277.521 141 276.776L139.324 275.685Z" fill="#882A52"/>
</svg>
