<svg width="308" height="308" viewBox="0 0 308 308" fill="none" xmlns="http://www.w3.org/2000/svg">
<circle cx="154" cy="154" r="153.5" stroke="#ECBA41" stroke-dasharray="4 4"/>
<circle cx="153.5" cy="154.5" r="141.5" fill="white"/>
<path opacity="0.32" fill-rule="evenodd" clip-rule="evenodd" d="M252 154C252 208.124 208.124 252 154 252C99.8761 252 56 208.124 56 154C56 99.8761 99.8761 56 154 56C208.124 56 252 99.8761 252 154ZM253 154C253 208.676 208.676 253 154 253C99.3238 253 55 208.676 55 154C55 99.3238 99.3238 55 154 55C208.676 55 253 99.3238 253 154ZM218 154C218 189.346 189.346 218 154 218C118.654 218 90 189.346 90 154C90 118.654 118.654 90 154 90C189.346 90 218 118.654 218 154ZM219 154C219 189.898 189.898 219 154 219C118.101 219 89 189.898 89 154C89 118.101 118.101 89 154 89C189.898 89 219 118.101 219 154Z" fill="#D2CCCC"/>
<path fill-rule="evenodd" clip-rule="evenodd" d="M184.928 94.7172C184.928 101.736 179.233 107.437 172.21 107.437C165.188 107.437 159.494 101.735 159.494 94.7172C159.494 87.6884 165.189 82 172.21 82C179.232 82 184.928 87.6893 184.928 94.7172ZM171.906 91.6548C172.124 92.1071 172.236 92.601 172.234 93.1003L172.234 93.1003C172.232 94.0078 171.863 94.8773 171.208 95.5198C170.553 96.1619 169.664 96.5247 168.736 96.5284C167.554 96.5288 166.452 95.9458 165.806 94.9784C165.16 94.0114 165.057 92.7907 165.532 91.7333C166.008 90.6758 166.998 89.9241 168.164 89.7358C169.33 89.547 170.514 89.9463 171.313 90.7975C171.773 90.5465 172.278 90.4341 172.933 90.4341C173.501 90.4304 174.061 90.5644 174.563 90.8236C175.302 90.0231 176.383 89.608 177.481 89.7029C178.58 89.7983 179.569 90.3925 180.152 91.308C180.735 92.2231 180.844 93.3532 180.447 94.3589C180.049 95.365 179.191 96.1297 178.13 96.4239C177.069 96.7185 175.928 96.5083 175.049 95.8567C174.17 95.2048 173.656 94.1874 173.66 93.1091C173.657 92.6225 173.763 92.141 173.97 91.6982C173.644 91.5434 173.287 91.4635 172.925 91.4642C172.491 91.4642 172.19 91.5164 171.906 91.6548ZM177.149 90.7199V90.7196L177.145 90.7199C176.362 90.7199 175.627 91.0911 175.174 91.7153C175.157 91.7518 175.136 91.7865 175.112 91.8194H175.113C175.103 91.8281 175.097 91.837 175.09 91.8458C175.083 91.8543 175.077 91.8628 175.068 91.8712C174.691 92.4786 174.61 93.2182 174.847 93.8899C175.084 94.5615 175.614 95.0952 176.293 95.3467C176.973 95.5986 177.732 95.5417 178.365 95.1916C178.997 94.8419 179.437 94.2352 179.567 93.5361C179.696 92.8371 179.501 92.118 179.033 91.5741C178.566 91.0298 177.876 90.717 177.149 90.7199ZM168.736 95.4722V95.4719L168.731 95.4722C168.733 95.4722 168.734 95.4722 168.736 95.4722ZM168.736 95.4722V95.4722C169.381 95.4729 170 95.2226 170.457 94.7772C170.915 94.3304 171.172 93.7241 171.171 93.0918C171.171 92.4603 170.915 91.8547 170.458 91.4083C170.001 90.9618 169.382 90.7111 168.736 90.7111C168.09 90.7111 167.47 90.9618 167.013 91.4083C166.557 91.8548 166.3 92.4603 166.3 93.0918C166.3 93.723 166.557 94.3286 167.013 94.775C167.47 95.2215 168.09 95.4722 168.736 95.4722Z" fill="#E4582D"/>
<path d="M172.102 125.73L152.365 118.865L151.507 145.467L172.102 152.332L190.98 146.325L191.838 118.865L172.102 125.73Z" fill="white"/>
<path d="M152.29 160.055V148.769L140.973 151.919C140.142 152.249 139.24 152.434 138.296 152.434C134.295 152.435 131.05 149.18 131.05 145.184C131.05 143.677 131.507 142.284 132.288 141.128L150.442 116.236C152.413 113.536 155.166 110.528 160.97 110.528H182.919C188.72 110.528 191.474 113.536 193.443 116.236L211.596 141.128C212.377 142.284 212.837 143.677 212.837 145.184C212.837 149.181 209.588 152.435 205.59 152.435C204.648 152.435 203.742 152.25 202.914 151.92L191.592 148.77L191.592 160.055L152.29 160.055ZM171.943 152.17L186.608 147.318L186.278 147.225C176.159 144.248 180.099 130.88 190.216 133.864L191.599 134.329V119.234L171.943 125.655L152.288 119.234V134.33L153.664 133.865C163.789 130.88 167.727 144.249 157.603 147.228L157.279 147.319L171.943 152.17Z" fill="#E4582D"/>
<path d="M224.447 160.055H82V173.785H99.1622V227.846H115.466V214.974H190.122V227.846H206.426V173.785H224.447V160.055Z" fill="#F2A091"/>
<path fill-rule="evenodd" clip-rule="evenodd" d="M92.4048 129.4H83.1561V159.458H92.4048V129.4ZM90.0927 137.492H85.4683V153.678H90.0927V137.492Z" fill="#494141"/>
<path fill-rule="evenodd" clip-rule="evenodd" d="M103.966 129.4H94.717V159.458H103.966V129.4ZM101.654 137.492H97.0293V153.678H101.654V137.492Z" fill="#ECBA41"/>
<path fill-rule="evenodd" clip-rule="evenodd" d="M113.131 129.4L105.122 134.024L120.151 160.055L128.161 155.431L113.131 129.4ZM115.175 137.564L111.171 139.876L119.263 153.893L123.268 151.581L115.175 137.564Z" fill="#494141"/>
<path d="M142.899 71.4678C142.88 65.1257 137.771 53.1246 117.491 55.8568C92.1421 59.2719 99.935 55.3324 101.765 52.2258" stroke="#F5C654" stroke-width="2" stroke-linecap="round"/>
<path d="M214.138 252.69C214.397 253.178 215.002 253.365 215.49 253.106L223.443 248.893C223.931 248.634 224.117 248.029 223.859 247.541C223.6 247.053 222.995 246.867 222.507 247.125L215.438 250.871L211.692 243.801C211.434 243.313 210.829 243.127 210.341 243.386C209.853 243.644 209.667 244.25 209.925 244.738L214.138 252.69ZM215.025 252.214L215.981 252.508L215.981 252.508L215.025 252.214ZM222.195 240.986L222.548 241.922L222.195 240.986ZM227.52 255.869C227.262 256.357 227.449 256.962 227.937 257.22C228.425 257.478 229.03 257.291 229.288 256.803L227.52 255.869ZM215.978 252.516L215.981 252.508L214.069 251.92L214.066 251.929L215.978 252.516ZM215.981 252.508C216.552 250.647 217.269 248.325 218.344 246.273C219.427 244.207 220.786 242.586 222.548 241.922L221.842 240.05C219.397 240.973 217.739 243.118 216.572 245.345C215.398 247.586 214.633 250.084 214.069 251.92L215.981 252.508ZM222.548 241.922C223.125 241.704 224.035 241.741 225.081 242.21C226.106 242.668 227.157 243.5 227.959 244.68C229.528 246.99 230.216 250.765 227.52 255.869L229.288 256.803C232.272 251.156 231.664 246.575 229.613 243.556C228.605 242.072 227.265 240.996 225.899 240.384C224.554 239.783 223.074 239.586 221.842 240.05L222.548 241.922Z" fill="#E4582D"/>
<path d="M232.225 65.8708C231.687 65.7466 231.15 66.0822 231.026 66.6204C230.902 67.1585 231.237 67.6954 231.775 67.8196L232.225 65.8708ZM253.557 82.2573L254.097 83.0991L253.557 82.2573ZM247.142 99.0091C246.606 99.1408 246.278 99.6824 246.41 100.219C246.541 100.755 247.083 101.083 247.619 100.951L247.142 99.0091ZM231.775 67.8196C237.337 69.1028 245.019 71.3971 250.091 74.0977C251.353 74.7697 252.427 75.4531 253.258 76.1347C254.097 76.8235 254.631 77.4646 254.891 78.036C255.135 78.5694 255.145 79.0425 254.927 79.5273C254.689 80.0569 254.13 80.7022 253.018 81.4155L254.097 83.0991C255.379 82.2771 256.291 81.3697 256.751 80.3478C257.231 79.281 257.166 78.2035 256.711 77.2056C256.273 76.2456 255.484 75.3746 254.527 74.5888C253.56 73.7957 252.364 73.0419 251.031 72.3324C245.725 69.5069 237.839 67.1659 232.225 65.8708L231.775 67.8196ZM253.018 81.4155C249.991 83.3565 248.109 84.9779 247.072 86.3715C246.019 87.788 245.734 89.1347 246.284 90.3265C246.779 91.401 247.837 92.0531 248.689 92.4617C249.138 92.677 249.589 92.8512 249.974 92.993C250.385 93.1441 250.672 93.2411 250.893 93.3325L251.657 91.4841C251.388 91.3729 251.004 91.2407 250.664 91.1157C250.299 90.9814 249.917 90.8327 249.553 90.6582C248.779 90.2871 248.285 89.8915 248.1 89.4892C247.969 89.2042 247.874 88.6448 248.677 87.565C249.497 86.4621 251.138 84.9967 254.097 83.0991L253.018 81.4155ZM250.893 93.3325C251.051 93.3978 251.291 93.6086 251.451 94.0522C251.606 94.48 251.651 95.0465 251.491 95.6551C251.185 96.8179 250.067 98.2908 247.142 99.0091L247.619 100.951C251.082 100.101 252.891 98.1929 253.425 96.1645C253.685 95.1774 253.63 94.1958 253.332 93.373C253.041 92.5659 252.479 91.8238 251.657 91.4841L250.893 93.3325Z" fill="#E4582D"/>
<circle cx="68.5" cy="100.5" r="5.5" fill="#E4582D"/>
<circle cx="26.5" cy="183.5" r="4.5" stroke="#F5C654" stroke-width="2"/>
<path d="M118.636 270.189C108.786 261.219 92.0039 244.122 103.674 247.487C118.262 251.693 79.513 264.479 83.0269 240.403" stroke="#F5C654" stroke-width="2" stroke-linecap="round"/>
</svg>
