<svg width="308" height="308" viewBox="0 0 308 308" fill="none" xmlns="http://www.w3.org/2000/svg">
<circle cx="154" cy="154" r="153.5" stroke="#ECBA41" stroke-dasharray="4 4"/>
<circle cx="153.5" cy="154.5" r="141.5" fill="#DCCFF7"/>
<path opacity="0.4" fill-rule="evenodd" clip-rule="evenodd" d="M252 154C252 208.124 208.124 252 154 252C99.8761 252 56 208.124 56 154C56 99.8761 99.8761 56 154 56C208.124 56 252 99.8761 252 154ZM253 154C253 208.676 208.676 253 154 253C99.3238 253 55 208.676 55 154C55 99.3238 99.3238 55 154 55C208.676 55 253 99.3238 253 154ZM218 154C218 189.346 189.346 218 154 218C118.654 218 90 189.346 90 154C90 118.654 118.654 90 154 90C189.346 90 218 118.654 218 154ZM219 154C219 189.898 189.898 219 154 219C118.101 219 89 189.898 89 154C89 118.101 118.101 89 154 89C189.898 89 219 118.101 219 154Z" fill="white"/>
<path d="M225.774 59.2767C225.374 58.8956 224.741 58.9106 224.36 59.3103C223.979 59.71 223.994 60.343 224.394 60.7242L225.774 59.2767ZM239.521 83.0403L239.222 83.9945L239.521 83.0403ZM259.014 90.4296C258.922 90.9741 259.288 91.4904 259.833 91.5827C260.377 91.675 260.894 91.3084 260.986 90.7639L259.014 90.4296ZM224.394 60.7242C229.206 65.3125 235.665 71.936 239.468 76.9352C240.417 78.1825 241.184 79.307 241.715 80.2583C242.266 81.2439 242.494 81.9215 242.511 82.3101C242.519 82.4815 242.481 82.5026 242.504 82.4697C242.534 82.4276 242.544 82.4621 242.398 82.4958C242.035 82.5796 241.246 82.5331 239.82 82.086L239.222 83.9945C240.692 84.4554 241.927 84.6572 242.848 84.4445C243.345 84.3299 243.812 84.0798 244.132 83.6314C244.446 83.1921 244.53 82.6849 244.509 82.2206C244.47 81.3377 244.037 80.3137 243.461 79.2825C242.866 78.2171 242.038 77.0096 241.06 75.7244C237.157 70.594 230.603 63.8816 225.774 59.2767L224.394 60.7242ZM239.82 82.086C238.968 81.819 238.362 81.5397 237.951 81.2739C237.536 81.0054 237.374 80.7864 237.317 80.6605C237.268 80.5551 237.184 80.2643 237.843 79.6813C238.48 79.1182 239.575 78.5363 241.019 78.0607C242.445 77.5908 244.143 77.2474 245.925 77.1176C249.523 76.8554 253.283 77.4732 255.871 79.4517C258.372 81.3641 259.983 84.7098 259.014 90.4296L260.986 90.7639C262.049 84.4893 260.307 80.3257 257.085 77.8629C253.951 75.4662 249.621 74.843 245.78 75.1229C243.842 75.264 241.983 75.6374 240.393 76.1611C238.82 76.6791 237.44 77.3678 236.518 78.1832C235.618 78.9788 234.893 80.1745 235.499 81.4947C235.768 82.0817 236.258 82.5603 236.865 82.953C237.476 83.3484 238.263 83.6941 239.222 83.9945L239.82 82.086Z" fill="white"/>
<circle cx="167.5" cy="75.5" r="5" stroke="#361F70"/>
<path d="M72.7371 73.9228C71.8478 62.4876 72.2516 41.4412 80.9809 48.7377C91.8925 57.8584 91.1638 49.9863 91.3492 47.8731C91.5347 45.7599 96.3297 43.6964 99.7402 49.3194" stroke="#E4582D" stroke-width="2" stroke-linecap="round"/>
<path d="M181.512 257C181.56 257.55 182.046 257.956 182.596 257.908C183.146 257.859 183.553 257.374 183.504 256.824L181.512 257ZM155.865 243.516L156.083 244.492L155.865 243.516ZM140.789 238.993C141.028 238.495 140.818 237.898 140.32 237.659C139.822 237.42 139.225 237.63 138.986 238.128L140.789 238.993ZM183.504 256.824C183.205 253.437 181.43 248.697 177.073 245.382C172.685 242.044 165.841 240.272 155.648 242.54L156.083 244.492C165.864 242.315 172.061 244.082 175.862 246.974C179.693 249.889 181.253 254.069 181.512 257L183.504 256.824ZM155.648 242.54C149.426 243.925 145.287 244.496 142.599 244.544C141.253 244.568 140.322 244.459 139.696 244.284C139.07 244.109 138.836 243.894 138.748 243.768C138.67 243.657 138.616 243.487 138.663 243.17C138.713 242.836 138.865 242.423 139.109 241.935C139.351 241.453 139.649 240.959 139.956 240.455C140.25 239.971 140.568 239.454 140.789 238.993L138.986 238.128C138.817 238.479 138.561 238.9 138.248 239.415C137.948 239.908 137.605 240.472 137.321 241.04C137.039 241.603 136.781 242.235 136.685 242.875C136.588 243.53 136.653 244.263 137.11 244.915C137.556 245.553 138.271 245.963 139.158 246.211C140.044 246.458 141.19 246.569 142.634 246.543C145.526 246.492 149.821 245.886 156.083 244.492L155.648 242.54Z" fill="white"/>
<path d="M70.7389 225.637C70.7144 225.086 70.2472 224.658 69.6955 224.683L60.7044 225.082C60.1526 225.107 59.7252 225.574 59.7497 226.125C59.7742 226.677 60.2414 227.105 60.7931 227.08L68.7852 226.725L69.1402 234.717C69.1647 235.269 69.6319 235.696 70.1836 235.672C70.7354 235.647 71.1628 235.18 71.1383 234.628L70.7389 225.637ZM69.7338 225.688L68.9961 225.013L68.9961 225.013L69.7338 225.688ZM58.4442 232.761L58.5262 231.764L58.4442 232.761ZM60.0096 217.032C60.4519 216.701 60.5424 216.075 60.2118 215.632C59.8811 215.19 59.2544 215.1 58.8121 215.43L60.0096 217.032ZM69.0021 225.007L68.9961 225.013L70.4716 226.363L70.4777 226.357L69.0021 225.007ZM68.9961 225.013C67.6823 226.449 66.0398 228.24 64.1893 229.634C62.3255 231.037 60.4029 231.919 58.5262 231.764L58.3623 233.757C60.9669 233.972 63.3842 232.743 65.3923 231.231C67.4136 229.709 69.1753 227.78 70.4716 226.363L68.9961 225.013ZM58.5262 231.764C57.9119 231.714 57.1056 231.29 56.3607 230.418C55.6317 229.565 55.038 228.364 54.8191 226.954C54.391 224.195 55.3867 220.488 60.0096 217.032L58.8121 215.43C53.6971 219.254 52.2831 223.654 52.8428 227.26C53.1179 229.033 53.8676 230.579 54.8401 231.718C55.7968 232.837 57.0501 233.65 58.3623 233.757L58.5262 231.764Z" fill="#E4582D"/>
<path d="M159.856 142.565L157.168 139.742C151.523 134.097 141.846 135.173 137.813 142.969C135.394 147.673 136.738 153.318 140.501 157.082L158.378 174.958C159.184 175.764 160.662 175.764 161.469 174.958L179.748 156.812C185.394 151.167 184.318 141.49 176.522 137.457C171.818 135.038 166.173 136.382 162.409 140.145L159.856 142.565Z" fill="#E4582D"/>
<path d="M133.378 105.199C132.974 107.484 132.436 110.441 131.899 113.129H132.436C134.184 113.129 135.797 113.666 137.409 114.607C138.216 115.145 138.888 115.683 139.56 116.355L165.904 116.086C165.635 115.144 165.501 114.204 165.501 113.263V101.3C165.501 99.6877 165.77 98.2091 166.173 96.8648L130.152 96.4626C132.571 98.4783 133.916 101.705 133.378 105.199L133.378 105.199Z" fill="#5924E6"/>
<path d="M175.717 119.177C179.749 122.807 189.292 128.586 189.292 128.586C190.636 129.527 192.652 129.123 193.593 127.644C194.4 126.3 193.996 124.821 192.652 123.478C191.307 122.134 188.485 119.849 188.485 119.849C187.276 118.639 188.082 117.564 189.292 117.564C191.577 117.698 192.921 117.833 195.475 118.101C198.029 118.37 209.722 120.52 209.722 120.52C211.201 120.789 212.545 119.848 212.813 118.369C213.083 116.891 212.141 115.546 210.663 115.278L196.147 112.861C195.744 112.727 195.475 112.458 195.475 112.055V111.786C195.475 111.248 195.878 110.844 196.416 110.844L213.89 111.92C215.368 112.054 216.713 110.844 216.713 109.366C216.713 107.887 215.637 106.543 214.159 106.543L195.879 105.333C195.476 105.333 195.073 104.93 195.073 104.527C195.073 104.124 195.342 103.721 195.879 103.586L211.605 102.913C213.084 102.779 214.293 101.569 214.159 100.09C214.159 98.6117 212.815 97.4023 211.336 97.5363L195.744 98.4785C195.341 98.4785 194.938 98.0754 194.938 97.6722C194.938 97.269 195.207 96.8659 195.61 96.8659L207.706 95.3873C209.185 95.2533 210.261 93.9088 210.125 92.4303C209.991 90.9518 208.647 89.8763 207.168 90.0115C207.168 90.0115 190.501 92.1622 184.319 92.9685C178.271 93.7748 172.223 95.2533 172.223 101.302V113.264C172.089 115.414 173.97 117.565 175.717 119.177L175.717 119.177Z" fill="white"/>
<path d="M208.378 127.242C206.093 126.839 203.136 126.301 200.448 125.897C200.582 127.913 199.911 129.795 199.104 131.273C198.566 132.08 198.028 132.752 197.222 133.424L197.491 159.768C198.432 159.499 199.373 159.365 200.314 159.365H212.277C213.889 159.365 215.368 159.634 216.712 160.037L216.981 124.016C215.233 126.032 212.68 127.242 209.857 127.242C209.453 127.375 208.915 127.241 208.378 127.241L208.378 127.242Z" fill="#5924E6"/>
<path d="M220.744 178.049C219.937 172 218.459 165.952 212.411 165.952H200.448C198.163 165.952 196.147 167.834 194.534 169.582C190.905 173.614 185.125 183.157 185.125 183.157C184.184 184.501 184.588 186.517 186.067 187.458C187.411 188.265 188.89 187.861 190.233 186.517C191.578 185.172 193.863 182.35 193.863 182.35C195.072 181.141 196.147 181.947 196.147 183.157C196.013 185.442 195.878 186.786 195.61 189.34C194.937 191.759 192.786 203.452 192.786 203.452C192.517 204.931 193.458 206.275 194.937 206.543C196.415 206.813 197.76 205.871 198.028 204.393L200.716 190.011C200.716 189.608 201.119 189.339 201.522 189.339H201.791C202.329 189.339 202.733 189.742 202.598 190.281L201.522 207.754C201.388 209.232 202.598 210.577 204.076 210.577C205.555 210.577 206.899 209.502 206.899 208.023L208.109 189.743C208.109 189.34 208.512 188.937 208.915 188.937C209.318 188.937 209.721 189.34 209.856 189.743L210.529 205.469C210.529 206.948 211.873 208.157 213.352 208.023C214.83 207.889 216.04 206.679 215.906 205.2L215.234 189.474C215.234 189.071 215.637 188.668 216.04 188.668C216.443 188.668 216.846 188.937 216.846 189.34L218.325 201.437C218.459 202.915 219.803 203.991 221.282 203.855C222.76 203.721 223.836 202.377 223.701 200.898C223.701 200.898 221.55 184.232 220.744 178.049L220.744 178.049Z" fill="white"/>
<path d="M111.335 180.199C113.619 180.602 116.576 181.14 119.264 181.678C119.13 179.662 119.802 177.78 120.609 176.167C121.146 175.36 121.684 174.688 122.491 174.016L122.221 147.672C121.28 147.941 120.34 148.075 119.398 148.075H107.436C105.823 148.075 104.345 147.806 103 147.403L102.598 183.424C104.346 181.409 106.9 180.064 109.722 180.064C110.125 180.064 110.797 180.198 111.335 180.198L111.335 180.199Z" fill="#5924E6"/>
<path d="M119.399 141.489C121.684 141.489 123.701 139.608 125.313 137.86C128.943 133.828 134.722 124.285 134.722 124.285C135.663 122.94 135.259 120.925 133.78 119.983C132.436 119.177 130.957 119.58 129.614 120.925C128.269 122.269 125.985 125.091 125.985 125.091C124.775 126.301 123.7 125.494 123.7 124.285C123.834 122 123.969 120.656 124.237 118.102C124.506 115.547 126.656 103.854 126.656 103.854C126.925 102.376 125.984 101.031 124.505 100.763C123.027 100.494 121.682 101.435 121.414 102.914L118.996 117.43C118.996 117.833 118.593 118.102 118.19 118.102H117.921C117.383 118.102 116.979 117.699 117.114 117.161L118.19 99.6876C118.324 98.2091 117.114 96.8646 115.636 96.8646C114.157 96.8646 112.813 97.94 112.813 99.4186L111.603 117.698C111.603 118.101 111.2 118.505 110.797 118.505C110.394 118.505 109.991 118.235 109.856 117.698L109.183 101.972C109.183 100.494 107.839 99.2844 106.36 99.4183C104.882 99.4183 103.672 100.763 103.806 102.241L104.479 117.967C104.479 118.37 104.075 118.774 103.672 118.774C103.269 118.774 102.866 118.505 102.866 117.967L101.387 105.871C101.253 104.392 99.9088 103.317 98.4303 103.452C96.9518 103.586 95.8763 104.931 96.0115 106.409C96.0115 106.409 98.1622 123.076 98.9685 129.258C99.7748 135.307 101.253 141.355 107.302 141.355C112.006 141.489 114.694 141.489 119.399 141.489L119.399 141.489Z" fill="white"/>
<path d="M186.335 202.242C186.738 199.957 187.276 197 187.813 194.312H187.276C185.529 194.312 183.916 193.775 182.303 192.834C181.497 192.297 180.825 191.758 180.152 190.952L153.808 191.355C154.077 192.297 154.211 193.237 154.211 194.178V206.141C154.211 207.753 153.942 209.232 153.539 210.576L189.561 210.979C188.889 210.442 188.351 209.904 187.948 209.232C186.47 207.215 185.932 204.796 186.336 202.242L186.335 202.242Z" fill="#5924E6"/>
<path d="M143.996 188.264C139.963 184.634 130.421 178.855 130.421 178.855C129.076 177.914 127.061 178.318 126.119 179.797C125.313 181.141 125.716 182.62 127.061 183.963C128.405 185.308 131.227 187.592 131.227 187.592C132.436 188.802 131.63 189.877 130.421 189.877C128.136 189.743 126.791 189.608 124.237 189.34C121.818 188.801 110.124 186.65 110.124 186.65C108.646 186.381 107.301 187.322 107.033 188.801C106.764 190.279 107.705 191.624 109.184 191.892L123.565 194.58C123.968 194.714 124.237 194.983 124.237 195.386V195.655C124.237 196.193 123.834 196.597 123.296 196.462L105.823 195.387C104.344 195.253 103 196.463 103 197.941C103 199.42 104.075 200.764 105.554 200.764L123.833 201.974C124.236 201.974 124.639 202.377 124.639 202.78C124.639 203.183 124.37 203.586 123.833 203.721L108.107 204.394C106.629 204.394 105.419 205.738 105.553 207.217C105.553 208.695 106.898 209.905 108.376 209.771L124.102 209.099C124.505 209.099 124.909 209.502 124.909 209.905C124.909 210.308 124.639 210.711 124.236 210.711L112.14 212.19C110.661 212.324 109.586 213.668 109.721 215.147C109.855 216.625 111.2 217.701 112.678 217.566C112.678 217.566 129.345 215.415 135.527 214.609C141.576 213.802 147.624 212.324 147.624 206.275V194.313C147.624 192.027 145.742 189.877 143.995 188.264L143.996 188.264Z" fill="white"/>
</svg>
