<svg width="134" height="56" viewBox="0 0 134 56" fill="none" xmlns="http://www.w3.org/2000/svg">
<path d="M94.5883 54.5347H95.2275V50.286H96.8174V49.7542H92.9931V50.286H94.5883V54.5347Z" fill="white"/>
<path d="M97.2525 54.5347H97.8219V52.5796C97.8068 52.4389 97.8225 52.2967 97.868 52.1628C97.9136 52.0289 97.9878 51.9065 98.0854 51.8043C98.1831 51.702 98.3019 51.6222 98.4336 51.5706C98.5653 51.519 98.7066 51.4967 98.8478 51.5053C98.9413 51.4973 99.0354 51.5097 99.1237 51.5415C99.2119 51.5734 99.2923 51.6239 99.3591 51.6898C99.426 51.7556 99.4778 51.8351 99.511 51.9229C99.5442 52.0107 99.558 52.1046 99.5514 52.1982V54.5454H100.115V52.268C100.115 51.5268 99.8361 51.0004 98.9284 51.0004C98.712 50.9887 98.4967 51.0379 98.3068 51.1423C98.117 51.2467 97.9601 51.4023 97.8541 51.5912V49.765H97.2848V54.5454L97.2525 54.5347Z" fill="white"/>
<path d="M101.576 49.7542H101.007V50.4471H101.576V49.7542ZM101.007 54.5347H101.576V51.0702H101.007V54.5347Z" fill="white"/>
<path d="M102.457 54.5346H103.027V52.5795C103.012 52.4391 103.029 52.2972 103.075 52.1637C103.121 52.0302 103.195 51.9083 103.292 51.8062C103.39 51.7041 103.508 51.6244 103.639 51.5724C103.771 51.5205 103.912 51.4975 104.053 51.5052C104.146 51.4972 104.24 51.5096 104.328 51.5415C104.417 51.5733 104.497 51.6239 104.564 51.6897C104.631 51.7555 104.683 51.8351 104.716 51.9228C104.749 52.0106 104.763 52.1045 104.756 52.1981V54.5454H105.326V52.2679C105.326 51.5267 105.041 51.0003 104.133 51.0003C103.905 50.9883 103.678 51.041 103.479 51.1521C103.279 51.2633 103.115 51.4285 103.005 51.6288V51.0916H102.468V54.5561L102.457 54.5346Z" fill="white"/>
<path d="M106.212 54.5347H106.781V53.2187L107.318 52.7246L108.5 54.5347H109.225L107.753 52.3324L109.123 51.0702H108.36L106.781 52.5849V49.7542H106.212V54.5347Z" fill="white"/>
<path d="M112.238 50.286H113.485C114.199 50.286 114.559 50.5975 114.559 51.1615C114.559 51.7255 114.226 52.0478 113.485 52.0424H112.238V50.286ZM111.588 54.5347H112.222V52.5795H113.683C114.058 52.5795 114.417 52.4307 114.682 52.1658C114.947 51.9008 115.096 51.5415 115.096 51.1669C115.096 50.7922 114.947 50.4329 114.682 50.168C114.417 49.9031 114.058 49.7542 113.683 49.7542H111.588V54.5347Z" fill="white"/>
<path d="M116.262 52.4667C116.262 52.2031 116.366 51.9504 116.553 51.764C116.739 51.5777 116.992 51.473 117.255 51.473C117.519 51.473 117.771 51.5777 117.958 51.764C118.144 51.9504 118.249 52.2031 118.249 52.4667H116.262ZM118.238 53.4335C118.2 53.638 118.087 53.8208 117.921 53.9461C117.755 54.0713 117.548 54.1299 117.341 54.1103C117.192 54.1192 117.043 54.0953 116.904 54.0403C116.765 53.9852 116.64 53.9005 116.538 53.7919C116.436 53.6833 116.358 53.5536 116.311 53.4118C116.265 53.2701 116.249 53.1198 116.267 52.9716H118.861C118.893 52.1336 118.517 50.9896 117.293 50.9896C117.067 50.9961 116.845 51.0486 116.64 51.1437C116.435 51.2389 116.251 51.3748 116.101 51.5431C115.95 51.7115 115.835 51.9088 115.763 52.1229C115.691 52.3371 115.663 52.5637 115.681 52.789C115.714 53.8632 116.219 54.6098 117.341 54.6098C117.691 54.6356 118.037 54.529 118.312 54.311C118.587 54.0931 118.769 53.7799 118.824 53.4335H118.238Z" fill="white"/>
<path d="M119.855 52.8051C119.855 51.9618 120.338 51.4945 120.929 51.4945C121.52 51.4945 122.003 51.9618 122.003 52.8051C122.003 53.6484 121.52 54.1103 120.929 54.1103C120.338 54.1103 119.855 53.643 119.855 52.8051ZM119.253 52.8051C119.24 53.0335 119.274 53.2622 119.353 53.4771C119.431 53.692 119.553 53.8886 119.71 54.0548C119.867 54.2211 120.056 54.3536 120.267 54.4441C120.477 54.5346 120.703 54.5813 120.932 54.5813C121.161 54.5813 121.387 54.5346 121.597 54.4441C121.807 54.3536 121.997 54.2211 122.154 54.0548C122.311 53.8886 122.432 53.692 122.511 53.4771C122.589 53.2622 122.623 53.0335 122.61 52.8051C122.61 51.7846 122.03 50.9896 120.935 50.9896C120.7 50.9821 120.467 51.025 120.25 51.1154C120.034 51.2059 119.839 51.3418 119.68 51.5139C119.52 51.6861 119.4 51.8904 119.326 52.1132C119.253 52.3359 119.228 52.5719 119.253 52.8051Z" fill="white"/>
<path d="M123.303 55.8559H123.873V54.0673C124 54.2417 124.169 54.382 124.364 54.4757C124.559 54.5693 124.774 54.6136 124.99 54.6044C126.064 54.6044 126.574 53.7826 126.574 52.805C126.574 51.8275 126.037 50.9842 124.963 50.9842C124.747 50.9616 124.529 51 124.333 51.0949C124.138 51.1898 123.973 51.3375 123.857 51.5213V51.054H123.287V55.8398L123.303 55.8559ZM125.989 52.7674C125.989 53.4442 125.731 54.1102 124.952 54.1102C124.173 54.1102 123.878 53.4818 123.878 52.7997C123.878 52.1175 124.173 51.4944 124.952 51.4944C125.731 51.4944 126.027 52.1229 126.027 52.7674H125.989Z" fill="white"/>
<path d="M127.283 54.5347H127.853V49.7542H127.283V54.5347Z" fill="white"/>
<path d="M129.147 52.4667C129.166 52.2151 129.279 51.9797 129.464 51.808C129.648 51.6363 129.891 51.5408 130.144 51.5408C130.396 51.5408 130.639 51.6363 130.824 51.808C131.008 51.9797 131.121 52.2151 131.14 52.4667H129.147ZM131.124 53.4335C131.086 53.638 130.973 53.8208 130.807 53.9461C130.641 54.0713 130.434 54.1299 130.227 54.1103C130.078 54.1182 129.929 54.0937 129.791 54.0384C129.653 53.983 129.528 53.8982 129.426 53.7899C129.324 53.6815 129.246 53.5521 129.199 53.4108C129.152 53.2695 129.136 53.1196 129.153 52.9716H131.747C131.779 52.1336 131.403 50.9896 130.179 50.9896C129.953 50.9961 129.73 51.0486 129.525 51.1437C129.321 51.2389 129.137 51.3748 128.986 51.5431C128.836 51.7115 128.721 51.9088 128.649 52.1229C128.577 52.3371 128.549 52.5637 128.567 52.789C128.599 53.8632 129.104 54.6098 130.227 54.6098C130.577 54.6356 130.923 54.529 131.198 54.311C131.472 54.0931 131.655 53.7799 131.709 53.4335H131.124Z" fill="white"/>
<path d="M85.6075 0H133.052V47.4446H85.6075V0Z" fill="white"/>
<path d="M23.0696 47.4446H133.047V47.7561H23.0696V47.4446Z" fill="white"/>
<path d="M0 47.4446H109.977V47.7561H0V47.4446Z" fill="white"/>
<path d="M85.6022 47.4124H89.5071V39.9571C89.5071 37.0673 90.4202 35.8803 92.5365 35.8803C94.352 35.8803 95.0395 37.0404 95.0395 39.377V47.4339H98.9498V38.6626C98.9498 35.139 97.8756 32.7971 93.745 32.7971C92.9101 32.8134 92.0926 33.0388 91.3673 33.4526C90.642 33.8664 90.032 34.4555 89.593 35.1659H89.5071V19.2185H85.6022V47.4124Z" fill="#231F20"/>
<path d="M98.8961 41.0259H102.801V32.7702C102.801 29.9932 104.676 29.4937 105.444 29.4937C107.92 29.4937 107.812 31.3951 107.812 33.0441V41.0259H111.717V33.0978C111.717 31.3092 112.131 29.4937 114.333 29.4937C116.535 29.4937 116.729 31.0621 116.729 32.9636V41.0205H120.634V31.5026C120.634 27.8179 118.485 26.416 115.434 26.416C114.578 26.4227 113.737 26.6422 112.987 27.0548C112.237 27.4673 111.601 28.06 111.137 28.7793C110.364 27.0713 108.769 26.416 106.98 26.416C106.12 26.4054 105.271 26.6114 104.512 27.015C103.752 27.4187 103.107 28.0069 102.635 28.7256H102.575V26.7973H98.8907V41.0259H98.8961Z" fill="#231F20"/>
<path d="M120.134 29.8859C120.295 33.6458 123.518 34.8919 126.816 34.8919C130.114 34.8919 133.31 33.6834 133.31 29.9396C133.31 27.2969 131.081 26.4751 128.798 25.9487C126.515 25.4223 124.367 25.2344 124.367 23.8325C124.367 22.6723 125.661 22.5111 126.515 22.5111C127.923 22.5111 129.077 22.9193 129.201 24.434H132.918C132.612 20.9427 129.754 19.8953 126.644 19.8953C123.534 19.8953 120.451 20.8299 120.451 24.4609C120.451 26.9693 122.707 27.7642 124.963 28.2638C127.772 28.8654 129.394 29.2789 129.394 30.4606C129.394 31.841 127.96 32.2815 126.838 32.2815C125.296 32.2815 123.862 31.5886 123.835 29.8859H120.134Z" fill="#231F20"/>
<path d="M23.4135 41.4127H21.6463V47.4392H23.4135V41.4127Z" fill="white"/>
<path d="M23.4135 39.205H21.6463V40.7465H23.4135V39.205Z" fill="white"/>
<path d="M13.772 42.1377C13.5037 41.8562 13.1775 41.6363 12.8159 41.4932C12.4193 41.3365 11.9961 41.258 11.5698 41.2622C11.1468 41.2574 10.727 41.3358 10.3344 41.4932C9.97468 41.6369 9.65036 41.8568 9.38364 42.1377C9.1117 42.4241 8.90308 42.7645 8.77132 43.1368C8.62224 43.5555 8.54946 43.9976 8.55646 44.442C8.54993 44.8829 8.62271 45.3214 8.77132 45.7365C8.90317 46.1072 9.11183 46.4458 9.38364 46.7302C9.64872 47.0117 9.97362 47.2301 10.3344 47.3694C10.7286 47.5199 11.1478 47.5946 11.5698 47.5896C11.9952 47.5946 12.4179 47.5198 12.8159 47.3694C13.1782 47.2302 13.5049 47.0118 13.772 46.7302C14.042 46.4444 14.2505 46.1062 14.3843 45.7365C14.5304 45.3207 14.6031 44.8827 14.5992 44.442C14.603 43.9978 14.5304 43.5563 14.3843 43.1368C14.2504 42.7655 14.0421 42.4255 13.772 42.1377ZM12.1606 46.0319C11.9771 46.1343 11.769 46.1845 11.559 46.1769C11.3532 46.1837 11.1492 46.1355 10.9682 46.0373C10.8132 45.9414 10.6827 45.8109 10.5868 45.6559C10.4898 45.4887 10.4191 45.3075 10.3773 45.1188C10.3388 44.9025 10.319 44.6832 10.3182 44.4635C10.319 44.2402 10.3388 44.0174 10.3773 43.7975C10.416 43.6078 10.4869 43.4261 10.5868 43.2603C10.684 43.105 10.8142 42.9729 10.9682 42.8736C11.1477 42.771 11.3524 42.7207 11.559 42.7286C11.7564 42.719 11.9526 42.7641 12.126 42.8589C12.2995 42.9536 12.4434 43.0944 12.542 43.2657C12.6463 43.4293 12.7174 43.6118 12.7514 43.8028C12.7947 44.0222 12.8163 44.2453 12.8159 44.4689C12.816 44.6889 12.7944 44.9084 12.7514 45.1242C12.7119 45.3136 12.6411 45.4951 12.542 45.6613C12.4511 45.8109 12.3236 45.9348 12.1713 46.0212L12.1606 46.0319Z" fill="white"/>
<path d="M19.2453 45.0865C19.2183 45.3814 19.0978 45.6598 18.9016 45.8815C18.7239 46.0388 18.5013 46.1364 18.2652 46.1605C18.0291 46.1846 17.7914 46.134 17.5856 46.0158C17.4365 45.9152 17.3132 45.7808 17.2257 45.6237C17.1344 45.455 17.0675 45.2741 17.027 45.0865C16.9849 44.8851 16.9633 44.68 16.9626 44.4742C16.9631 44.2613 16.9846 44.049 17.027 43.8404C17.0657 43.6406 17.1365 43.4483 17.2365 43.271C17.3293 43.1068 17.4578 42.9655 17.6125 42.8575C17.7612 42.7605 17.9322 42.7029 18.1093 42.6901C18.2864 42.6773 18.4639 42.7098 18.625 42.7844C18.7861 42.8591 18.9256 42.9735 19.0304 43.1168C19.1351 43.2602 19.2017 43.4279 19.2239 43.6041V43.7007H20.9534V43.5826C20.9396 43.2262 20.846 42.8775 20.6795 42.562C20.5223 42.281 20.3083 42.0359 20.051 41.8423C19.7921 41.6496 19.5011 41.5042 19.1916 41.4126C18.8686 41.3197 18.5341 41.2727 18.1979 41.2729C17.7646 41.2671 17.3348 41.3512 16.9357 41.52C16.5739 41.6743 16.2524 41.9095 15.9957 42.2075C15.7287 42.4987 15.5224 42.8402 15.3888 43.212C15.2569 43.627 15.1916 44.0603 15.1954 44.4957C15.1895 44.9173 15.2624 45.3363 15.4103 45.7311C15.542 46.0918 15.7448 46.4223 16.0065 46.7033C16.269 46.9804 16.5876 47.1983 16.9411 47.3425C17.3234 47.496 17.7323 47.5726 18.1442 47.5681C18.835 47.5966 19.5126 47.3733 20.051 46.9396C20.5774 46.4653 20.9038 45.8087 20.9642 45.1027V44.9791H19.2453V45.0865Z" fill="white"/>
<path d="M7.12773 43.0562C6.87608 42.8891 6.6009 42.7606 6.31129 42.6748C6.0481 42.5996 5.84399 42.5405 5.70434 42.5137L4.52265 42.2021C4.28776 42.1389 4.05794 42.0581 3.83513 41.9604C3.7203 41.912 3.62026 41.8342 3.54508 41.7348C3.49329 41.6356 3.46917 41.5243 3.47525 41.4126C3.46799 41.2844 3.49984 41.157 3.56657 41.0473C3.62845 40.9485 3.71089 40.8643 3.80827 40.8002C3.9106 40.7352 4.02321 40.688 4.1413 40.6606C4.45461 40.593 4.7787 40.593 5.09201 40.6606C5.24689 40.6918 5.39449 40.7519 5.52708 40.8378C5.65026 40.9204 5.75014 41.0332 5.81714 41.1655C5.89979 41.3329 5.94558 41.516 5.95142 41.7026V41.81H7.826V41.6919C7.83606 41.2646 7.74399 40.841 7.55744 40.4565C7.38355 40.125 7.13538 39.8382 6.83231 39.6185C6.52217 39.3961 6.172 39.2356 5.80102 39.1459C5.05635 38.9499 4.27364 38.9499 3.52897 39.1459C3.17992 39.2432 2.85079 39.4014 2.55676 39.6132C2.27115 39.8244 2.03324 40.0935 1.8585 40.4028C1.6743 40.7497 1.58185 41.138 1.58994 41.5307C1.57837 41.8498 1.64184 42.1672 1.77524 42.4574C1.90864 42.7475 2.10825 43.0022 2.35803 43.2012C2.5928 43.3823 2.85123 43.5305 3.12612 43.6416C3.40748 43.7483 3.69435 43.8397 3.98553 43.9156C4.27557 44.0015 4.56025 44.0767 4.82344 44.1412C5.07042 44.2005 5.31277 44.2777 5.54857 44.3721C5.73016 44.4433 5.89617 44.5491 6.03736 44.6837C6.09424 44.7426 6.13837 44.8126 6.16702 44.8893C6.19567 44.966 6.20821 45.0477 6.20387 45.1295C6.2105 45.2824 6.16713 45.4332 6.08033 45.5592C5.98992 45.6773 5.87186 45.7714 5.73656 45.8331C5.59396 45.903 5.44199 45.9519 5.28538 45.9782C4.92799 46.0354 4.56279 46.0208 4.21112 45.9352C4.02683 45.8888 3.85346 45.8067 3.70085 45.6935C3.55305 45.587 3.43475 45.4447 3.35709 45.2799C3.2653 45.0815 3.22115 44.8645 3.22817 44.6461V44.5333H1.3536V44.6461C1.3368 45.1056 1.43075 45.5625 1.62753 45.9782C1.80874 46.3413 2.07166 46.6575 2.39563 46.902C2.71634 47.1477 3.08093 47.33 3.46989 47.4391C3.8854 47.5486 4.31319 47.6045 4.74288 47.6056C5.22819 47.6118 5.71165 47.5448 6.17701 47.4069C6.55827 47.299 6.91429 47.1164 7.22441 46.8698C7.50271 46.6391 7.7234 46.3466 7.86896 46.0157C8.0156 45.6768 8.08883 45.3107 8.08382 44.9415C8.10116 44.5308 7.99851 44.1239 7.7884 43.7705C7.61669 43.4917 7.39229 43.2491 7.12773 43.0562Z" fill="white"/>
<path d="M82.2613 44.2325C82.0776 44.0976 81.8749 43.9908 81.6597 43.9156C81.4395 43.8404 81.2139 43.776 80.9883 43.7223L80.3491 43.5772C80.1673 43.5395 79.988 43.4911 79.812 43.4322C79.6803 43.3897 79.5582 43.3222 79.4521 43.2335C79.4155 43.2003 79.3865 43.1596 79.367 43.1142C79.3475 43.0688 79.3381 43.0197 79.3393 42.9703C79.3353 42.8933 79.3581 42.8174 79.4037 42.7554C79.4482 42.6998 79.5053 42.6556 79.5703 42.6265C79.6472 42.5931 79.7286 42.5714 79.812 42.562C80.1299 42.5072 80.457 42.5542 80.7466 42.6963C80.8362 42.753 80.909 42.8328 80.9572 42.9273C81.0054 43.0218 81.0273 43.1276 81.0205 43.2335V43.3355H82.7178V43.212C82.6984 42.8806 82.6008 42.5585 82.4332 42.272C82.2843 42.0275 82.0801 41.8215 81.8369 41.6704C81.5926 41.5152 81.321 41.4077 81.0366 41.3535C80.4357 41.2327 79.8167 41.2327 79.2158 41.3535C78.9265 41.4056 78.6485 41.5073 78.394 41.6543C78.1482 41.8043 77.9434 42.0129 77.7977 42.2613C77.6355 42.5609 77.5558 42.8983 77.5668 43.2388C77.5604 43.4845 77.6198 43.7274 77.7387 43.9425C77.8453 44.1315 77.9942 44.2932 78.1737 44.4151C78.357 44.5421 78.5579 44.6417 78.7699 44.7106C78.9848 44.7804 79.2104 44.8449 79.4414 44.8986C79.8722 44.9847 80.296 45.1032 80.709 45.2531C80.9722 45.3551 81.1011 45.4948 81.1011 45.6828C81.1062 45.7856 81.0779 45.8873 81.0205 45.9728C80.9675 46.05 80.8977 46.1143 80.8164 46.1608C80.724 46.2128 80.6245 46.2508 80.521 46.2736C80.2811 46.3332 80.0303 46.3332 79.7905 46.2736C79.6695 46.2418 79.555 46.1891 79.4521 46.1178C79.3589 46.0457 79.2805 45.9564 79.2211 45.8546C79.1596 45.7334 79.1301 45.5984 79.1352 45.4625V45.3497H77.4325V45.4679C77.4351 45.8276 77.5294 46.1807 77.7064 46.4938C77.8639 46.7583 78.0786 46.9841 78.3349 47.1545C78.6025 47.3205 78.8969 47.4386 79.205 47.5036C79.528 47.5729 79.8576 47.6071 80.188 47.6057C80.5109 47.606 80.833 47.5736 81.1494 47.509C81.4551 47.4501 81.7468 47.3334 82.0088 47.1652C82.2631 46.9959 82.4746 46.7697 82.6265 46.5046C82.7925 46.1907 82.874 45.8389 82.8629 45.484C82.8718 45.2466 82.8221 45.0107 82.7181 44.797C82.6141 44.5834 82.4591 44.3988 82.2667 44.2594L82.2613 44.2325Z" fill="white"/>
<path d="M41.9121 43.0563C41.6678 42.8874 41.3999 42.7553 41.1172 42.6642C40.854 42.589 40.6499 42.5299 40.5049 42.503L39.3285 42.1915C39.0929 42.1307 38.8629 42.0499 38.641 41.9498C38.5252 41.9031 38.4248 41.8249 38.351 41.7242C38.2973 41.6255 38.2713 41.5142 38.2758 41.4019C38.2713 41.274 38.303 41.1475 38.3671 41.0367C38.4326 40.939 38.5165 40.8551 38.6142 40.7896C38.716 40.7236 38.8288 40.6763 38.9472 40.6499C39.2587 40.5824 39.581 40.5824 39.8925 40.6499C40.0477 40.6801 40.1955 40.7403 40.3276 40.8272C40.4537 40.9079 40.5558 41.021 40.623 41.1548C40.7045 41.3224 40.7484 41.5057 40.7519 41.692V41.7994H42.6211V41.6812C42.6344 41.2536 42.5422 40.8293 42.3526 40.4458C42.1806 40.1147 41.9342 39.8279 41.6328 39.6079C41.3213 39.3845 40.9692 39.2239 40.5962 39.1352C39.8533 38.9392 39.0723 38.9392 38.3295 39.1352C37.98 39.2314 37.6507 39.3897 37.3573 39.6026C37.0717 39.8138 36.8338 40.0828 36.659 40.3921C36.4723 40.7381 36.3797 41.1271 36.3904 41.5201C36.3807 41.8615 36.4525 42.2003 36.5999 42.5084C36.728 42.7717 36.9112 43.0043 37.1371 43.1906C37.3705 43.3736 37.6292 43.522 37.9052 43.631C38.1862 43.7384 38.4732 43.8299 38.7646 43.9049C39.0492 43.9909 39.3339 44.0661 39.6025 44.1306C39.8497 44.1891 40.0921 44.2663 40.3276 44.3615C40.5085 44.434 40.6743 44.5396 40.8164 44.673C40.8733 44.7319 40.9174 44.8019 40.9461 44.8786C40.9747 44.9553 40.9872 45.0371 40.9829 45.1189C40.9905 45.2726 40.945 45.4243 40.854 45.5485C40.7645 45.6654 40.6485 45.7593 40.5156 45.8225C40.3715 45.8933 40.2176 45.9422 40.059 45.9675C39.7016 46.0246 39.3365 46.01 38.9848 45.9245C38.8013 45.876 38.6283 45.794 38.4745 45.6828C38.3301 45.5742 38.214 45.4324 38.1361 45.2693C38.0438 45.0711 37.9996 44.8539 38.0072 44.6355V44.5226H36.1273V44.6355C36.1109 45.095 36.2048 45.5517 36.4012 45.9675C36.5826 46.329 36.8434 46.6448 37.1639 46.8914C37.4953 47.1391 37.8708 47.3214 38.2704 47.4285C38.6858 47.5383 39.1137 47.5943 39.5434 47.595C40.027 47.6018 40.5088 47.5348 40.9722 47.3963C41.3621 47.2898 41.7272 47.1072 42.0464 46.8591C42.3247 46.6284 42.5454 46.336 42.691 46.0051C42.8356 45.6656 42.9088 45.2999 42.9058 44.9309C42.9213 44.5203 42.8188 44.114 42.6104 43.7599C42.4265 43.4815 42.1892 43.2423 41.9121 43.0563Z" fill="white"/>
<path d="M51.5643 41.4127H49.7918V47.4392H51.5643V41.4127Z" fill="white"/>
<path d="M47.3908 45.0865C47.3637 45.3814 47.2433 45.6598 47.0471 45.8815C46.9464 45.9805 46.8259 46.0571 46.6935 46.1062C46.5611 46.1553 46.4199 46.1757 46.279 46.1662C46.089 46.1702 45.9021 46.1179 45.7418 46.0158C45.59 45.9168 45.4646 45.7822 45.3766 45.6237C45.2845 45.4553 45.2175 45.2743 45.1779 45.0865C45.1384 44.8847 45.1168 44.6798 45.1134 44.4742C45.1165 44.2615 45.1381 44.0494 45.1779 43.8404C45.2166 43.6406 45.2873 43.4483 45.3873 43.271C45.4788 43.1058 45.6075 42.9642 45.7633 42.8575C45.911 42.7665 46.0791 42.7137 46.2524 42.7042C46.4256 42.6946 46.5985 42.7284 46.7554 42.8025C46.9122 42.8767 47.0481 42.9889 47.1506 43.1288C47.2531 43.2688 47.3191 43.4321 47.3425 43.6041V43.7007H49.072V43.5826C49.0563 43.2258 48.9609 42.8771 48.7927 42.562C48.6395 42.2815 48.4291 42.0363 48.175 41.8423C47.9141 41.6497 47.6214 41.5042 47.3103 41.4126C46.9872 41.3197 46.6527 41.2727 46.3166 41.2729C45.8833 41.2671 45.4534 41.3512 45.0543 41.52C44.6945 41.6777 44.3736 41.9124 44.1143 42.2075C43.857 42.5011 43.6599 42.8424 43.5342 43.212C43.4024 43.627 43.3371 44.0603 43.3409 44.4957C43.3355 44.9173 43.4084 45.3361 43.5557 45.7311C43.6888 46.0911 43.8914 46.4215 44.1519 46.7033C44.4145 46.9804 44.7331 47.1983 45.0865 47.3425C45.4689 47.496 45.8777 47.5726 46.2897 47.5681C46.9799 47.6074 47.661 47.3956 48.2073 46.9719C48.7338 46.4983 49.0587 45.8409 49.115 45.1349V45.0113H47.3962L47.3908 45.0865Z" fill="white"/>
<path d="M51.5643 39.205H49.7918V40.7465H51.5643V39.205Z" fill="white"/>
<path d="M63.8484 41.9551C63.6774 41.7185 63.4454 41.5329 63.177 41.4179C62.836 41.2808 62.4701 41.2168 62.1028 41.2299C61.7523 41.2339 61.4072 41.3165 61.093 41.4717C60.8471 41.6032 60.6327 41.7864 60.4645 42.0088V41.4126H58.7887V47.4338H60.5612V44.2862C60.5274 43.8679 60.619 43.449 60.8244 43.083C60.9217 42.9633 61.0473 42.8697 61.1898 42.8106C61.3324 42.7515 61.4874 42.7288 61.6408 42.7447C61.7698 42.7288 61.9006 42.7478 62.0197 42.7998C62.1387 42.8517 62.2416 42.9347 62.3176 43.0401C62.4716 43.3552 62.5401 43.7053 62.5164 44.0552V47.4392H64.2889V43.7491C64.2913 43.4118 64.2589 43.0752 64.1922 42.7447C64.1348 42.4601 64.0176 42.191 63.8484 41.9551Z" fill="white"/>
<path d="M57.4782 42.3579C57.2422 42.0206 56.9291 41.7444 56.565 41.5522C56.1615 41.3455 55.7131 41.2421 55.2598 41.2514C54.8424 41.2482 54.4289 41.3324 54.0459 41.4985C53.6903 41.6563 53.3705 41.8847 53.1059 42.1699C52.8379 42.4634 52.6299 42.8064 52.4936 43.1797C52.3492 43.5811 52.2765 44.0047 52.2787 44.4313C52.2739 44.8628 52.3448 45.2918 52.4882 45.6989C52.6179 46.0689 52.8186 46.4101 53.0791 46.7033C53.3421 46.9874 53.665 47.2094 54.0244 47.3532C54.4174 47.5087 54.8372 47.5854 55.2598 47.5788C55.858 47.5971 56.4477 47.4342 56.9518 47.1115C57.4808 46.7361 57.861 46.1866 58.026 45.5592L58.0744 45.4142H56.463V45.4948C56.3989 45.6839 56.2693 45.8439 56.0977 45.946C55.8819 46.0954 55.6243 46.1724 55.3619 46.1662C55.1945 46.1777 55.0266 46.1556 54.8679 46.1011C54.7092 46.0467 54.5631 45.961 54.438 45.8492C54.2218 45.5897 54.1022 45.2632 54.0996 44.9254H58.1388V44.8233C58.1724 44.3779 58.1343 43.93 58.026 43.4967C57.9203 43.0846 57.7341 42.6976 57.4782 42.3579ZM54.6582 42.7984C54.8251 42.7161 55.0094 42.6756 55.1954 42.6802C55.3343 42.6691 55.474 42.6883 55.6048 42.7365C55.7355 42.7848 55.8543 42.8609 55.9527 42.9595C56.1228 43.1695 56.2373 43.4188 56.2857 43.6846H54.062C54.062 43.6148 54.0942 43.5396 54.1157 43.4537C54.1565 43.3202 54.2201 43.1948 54.3037 43.0831C54.3987 42.9646 54.5177 42.8675 54.6529 42.7984H54.6582Z" fill="white"/>
<path d="M32.4587 39.205H30.6862V47.4392H32.4587V39.205Z" fill="white"/>
<path d="M29.7193 46.7678C29.6882 46.5238 29.6738 46.2779 29.6764 46.032V43.0187C29.6909 42.6953 29.6025 42.3756 29.4239 42.1056C29.2634 41.876 29.0472 41.6912 28.7955 41.5684C28.5352 41.4401 28.2558 41.3549 27.9683 41.316C27.3619 41.2235 26.7441 41.2362 26.1421 41.3536C25.8367 41.4136 25.5441 41.5263 25.2773 41.6866C25.0163 41.8429 24.7956 42.0581 24.6327 42.315C24.4509 42.6133 24.3508 42.9541 24.3427 43.3033V43.4215H26.1045V43.3195C26.1047 43.2073 26.1282 43.0964 26.1735 42.9938C26.2188 42.8911 26.2849 42.799 26.3676 42.7233C26.5569 42.5943 26.7836 42.5319 27.0122 42.546C27.1356 42.5376 27.2594 42.5376 27.3828 42.546C27.4781 42.5592 27.5695 42.5922 27.6514 42.6427C27.7255 42.6915 27.7864 42.7579 27.8286 42.836C27.8819 42.9482 27.9059 43.072 27.8985 43.1959C27.9056 43.2481 27.9 43.3012 27.8822 43.3507C27.8645 43.4003 27.835 43.4448 27.7964 43.4806C27.69 43.5661 27.5648 43.625 27.4312 43.6525C27.2404 43.6986 27.0465 43.7309 26.8511 43.7492C26.6147 43.776 26.3838 43.8029 26.1582 43.8405C25.9208 43.879 25.6859 43.931 25.4545 43.9963C25.2253 44.0579 25.0089 44.1597 24.8153 44.297C24.6195 44.4384 24.458 44.622 24.3427 44.8342C24.2289 45.1008 24.1703 45.3876 24.1703 45.6775C24.1703 45.9673 24.2289 46.2541 24.3427 46.5207C24.4372 46.7472 24.5868 46.9466 24.7777 47.1008C24.97 47.2553 25.1909 47.3703 25.4277 47.4392C25.683 47.5098 25.947 47.5442 26.2119 47.5413C26.5761 47.5433 26.9385 47.489 27.2861 47.3802C27.5622 47.2956 27.8168 47.1527 28.0327 46.9612V47.031C28.0503 47.1272 28.0736 47.2223 28.1026 47.3157L28.1294 47.3963H29.9449L29.8375 47.2244C29.7695 47.081 29.7294 46.9261 29.7193 46.7678ZM27.9038 44.6945V45.0759C27.9098 45.1922 27.9098 45.3087 27.9038 45.425C27.8863 45.5669 27.8407 45.7038 27.7696 45.8278C27.6907 45.9651 27.5778 46.0798 27.4419 46.1609C27.2435 46.2645 27.0208 46.3127 26.7973 46.3005C26.6838 46.301 26.5704 46.2902 26.459 46.2683C26.3657 46.2508 26.2764 46.2162 26.1958 46.1662C26.123 46.1213 26.0651 46.0559 26.0293 45.9783C25.983 45.883 25.9608 45.7779 25.9648 45.6721C25.9604 45.5628 25.9825 45.454 26.0293 45.3552C26.0694 45.276 26.1262 45.2063 26.1958 45.1511C26.2761 45.0944 26.3649 45.0508 26.459 45.0222C26.5651 44.9829 26.6748 44.9541 26.7866 44.9362C26.9048 44.9094 27.0229 44.8932 27.1465 44.8771L27.5064 44.8234C27.6189 44.7987 27.73 44.7682 27.8394 44.7321L27.9038 44.6945Z" fill="white"/>
<path d="M69.107 45.0866C69.0774 45.3808 68.9573 45.6585 68.7632 45.8815C68.5855 46.0389 68.363 46.1365 68.1269 46.1606C67.8908 46.1847 67.6531 46.1341 67.4473 46.0158C67.2963 45.9174 67.1726 45.7826 67.0874 45.6237C66.9953 45.4554 66.9283 45.2744 66.8886 45.0866C66.8462 44.8852 66.8246 44.6801 66.8242 44.4743C66.8244 44.2614 66.846 44.049 66.8886 43.8405C66.9274 43.6406 66.9981 43.4484 67.0981 43.2711C67.1896 43.1059 67.3183 42.9643 67.4741 42.8575C67.6333 42.7526 67.8206 42.6983 68.0112 42.7018C68.1388 42.6892 68.2675 42.703 68.3895 42.7422C68.5114 42.7815 68.624 42.8455 68.7202 42.9301C68.8164 43.0147 68.8942 43.1182 68.9487 43.2342C69.0033 43.3501 69.0334 43.4761 69.0372 43.6041V43.7008H70.7667V43.5827C70.7583 43.2437 70.6733 42.911 70.5179 42.6096C70.3625 42.3082 70.1409 42.0459 69.8697 41.8424C69.6101 41.6507 69.3194 41.5054 69.0103 41.4127C68.6871 41.3205 68.3527 41.2735 68.0166 41.273C67.5832 41.2665 67.1533 41.3507 66.7544 41.5201C66.3918 41.6756 66.0687 41.9106 65.809 42.2076C65.5477 42.5105 65.3504 42.8631 65.2289 43.2443C65.097 43.6593 65.0318 44.0926 65.0355 44.528C65.0307 44.949 65.1016 45.3675 65.245 45.7634C65.3813 46.1231 65.5856 46.4531 65.8466 46.7356C66.1092 47.0127 66.4278 47.2306 66.7812 47.3748C67.1636 47.5283 67.5724 47.6049 67.9844 47.6004C68.675 47.6279 69.3523 47.4047 69.8912 46.9719C70.4178 46.4984 70.7427 45.8409 70.7989 45.135V45.0114H69.0855L69.107 45.0866Z" fill="white"/>
<path d="M76.3904 42.3579C76.1531 42.0218 75.8404 41.7459 75.4773 41.5522C75.0738 41.3455 74.6253 41.2421 74.1721 41.2514C73.7546 41.2482 73.3411 41.3324 72.9582 41.4985C72.6026 41.6563 72.2827 41.8847 72.0182 42.1699C71.7483 42.462 71.5401 42.8054 71.4059 43.1797C71.2615 43.5811 71.1888 44.0047 71.191 44.4313C71.1862 44.8628 71.2571 45.2918 71.4005 45.6989C71.5299 46.0703 71.7326 46.4119 71.9967 46.7033C72.2567 46.9884 72.5782 47.2106 72.9367 47.3532C73.3297 47.5087 73.7495 47.5854 74.1721 47.5788C74.7719 47.5965 75.3632 47.4337 75.8694 47.1115C76.3854 46.7298 76.7536 46.1813 76.9114 45.5592L76.9598 45.4142H75.3484L75.3215 45.4948C75.2535 45.6817 75.125 45.8405 74.9563 45.946C74.7388 46.0961 74.4792 46.1732 74.2151 46.1662C74.0494 46.1777 73.883 46.1556 73.7261 46.1012C73.5691 46.0467 73.4249 45.961 73.3019 45.8492C73.0842 45.5902 72.9627 45.2638 72.9582 44.9254H76.9974V44.8233C77.0309 44.3779 76.9929 43.93 76.8846 43.4967C76.7936 43.0892 76.6259 42.7027 76.3904 42.3579ZM73.5705 42.7984C73.7373 42.7161 73.9217 42.6756 74.1076 42.6802C74.2466 42.6691 74.3863 42.6883 74.517 42.7365C74.6478 42.7848 74.7665 42.8609 74.865 42.9595C75.035 43.1695 75.1495 43.4188 75.198 43.6846H72.9582C72.9702 43.6068 72.9863 43.5298 73.0065 43.4537C73.0473 43.3202 73.1109 43.1948 73.1945 43.0831C73.2985 42.9628 73.4266 42.8658 73.5705 42.7984Z" fill="white"/>
<path d="M66.5556 34.5427C66.5841 34.0973 66.5461 33.6502 66.4428 33.216C66.3426 32.8105 66.1697 32.4265 65.9326 32.0827C65.6952 31.7466 65.3825 31.4706 65.0194 31.277C64.616 31.0703 64.1675 30.9669 63.7142 30.9762C63.2968 30.973 62.8833 31.0571 62.5003 31.2233C62.1423 31.3796 61.8205 31.6082 61.555 31.8947C61.2882 32.187 61.0803 32.528 60.9426 32.8991C60.8005 33.3009 60.7297 33.7244 60.7332 34.1506C60.7289 34.5834 60.7979 35.0138 60.9373 35.4236C61.0666 35.795 61.2694 36.1366 61.5335 36.428C61.7945 36.712 62.1156 36.934 62.4735 37.078C62.8685 37.2329 63.2899 37.3096 63.7142 37.3036C64.3122 37.3205 64.9016 37.1577 65.4062 36.8363C65.9238 36.4561 66.2924 35.907 66.4482 35.284L66.4965 35.1389H64.8852V35.2195C64.8169 35.4079 64.6861 35.5671 64.5145 35.6707C64.2635 35.8301 63.9686 35.9065 63.6718 35.8892C63.3749 35.8718 63.091 35.7616 62.8602 35.574C62.6412 35.3139 62.5213 34.9848 62.5218 34.6448H66.5556V34.5427ZM63.1126 32.5231C63.2795 32.4409 63.4638 32.4003 63.6498 32.405C63.7882 32.3942 63.9274 32.4131 64.058 32.4603C64.1885 32.5075 64.3076 32.5821 64.4071 32.6789C64.5736 32.8925 64.686 33.1431 64.7348 33.4094H62.4949C62.5069 33.3294 62.5248 33.2504 62.5487 33.173C62.5865 33.0411 62.6484 32.9172 62.7313 32.8078C62.8355 32.6856 62.9658 32.5883 63.1126 32.5231Z" fill="white"/>
<path d="M53.3852 31.132H51.618V37.1532H53.3852V31.132Z" fill="white"/>
<path d="M60.0133 28.9244H58.2462V30.466H60.0133V28.9244Z" fill="white"/>
<path d="M76.4066 33.3127C76.2362 33.5108 76.1 33.7359 76.0037 33.9788C75.9003 34.2402 75.8492 34.5194 75.8533 34.8006C75.8457 35.169 75.9153 35.5349 76.0575 35.8748C76.1855 36.1752 76.3764 36.4447 76.6173 36.6652C76.8582 36.8857 77.1435 37.0521 77.454 37.1532C77.7833 37.2614 78.1279 37.3158 78.4745 37.3143C78.9004 37.3209 79.323 37.2386 79.7153 37.0726C80.0593 36.9091 80.3748 36.6915 80.6499 36.4281L81.2354 37.1693H83.4215L81.751 35.1551C81.9481 34.8825 82.1071 34.5843 82.2237 34.2688C82.3476 33.9219 82.4287 33.5611 82.4654 33.1945V33.0656H80.9185V33.1677C80.8971 33.3273 80.8648 33.4852 80.8218 33.6404C80.7952 33.7353 80.7629 33.8286 80.7251 33.9197L79.9194 32.8991C80.2614 32.698 80.5651 32.438 80.8164 32.131C81.1025 31.7757 81.2529 31.3302 81.2407 30.8741C81.2471 30.5711 81.1866 30.2703 81.0635 29.9933C80.9491 29.7472 80.7822 29.529 80.5747 29.3541C80.3653 29.1823 80.1245 29.0528 79.8657 28.9727C79.3263 28.7975 78.7453 28.7975 78.206 28.9727C77.9553 29.0579 77.7236 29.1911 77.5238 29.3648C77.3241 29.5353 77.1599 29.7433 77.0404 29.9771C76.9196 30.2264 76.8589 30.5005 76.8632 30.7775C76.8549 31.1154 76.9325 31.4499 77.0887 31.7497C77.22 31.9925 77.3709 32.2243 77.5399 32.4426C77.3573 32.5446 77.1747 32.6574 77.0028 32.7809C76.7828 32.9328 76.5825 33.1114 76.4066 33.3127ZM78.5551 35.7728C78.4276 35.7748 78.3011 35.7492 78.1845 35.6976C78.0661 35.6509 77.957 35.5836 77.8622 35.4988C77.7712 35.4127 77.6966 35.3108 77.642 35.198C77.5892 35.0854 77.5617 34.9626 77.5614 34.8382C77.5608 34.6993 77.5901 34.5619 77.6474 34.4353C77.7021 34.3102 77.7785 34.1956 77.873 34.0969C77.965 33.9889 78.0738 33.8964 78.1952 33.823C78.2925 33.7591 78.3949 33.7034 78.5014 33.6565L79.7099 35.1766C79.5658 35.3383 79.4015 35.4808 79.2211 35.6009C79.0143 35.7208 78.778 35.7804 78.539 35.7728H78.5551ZM78.496 30.7238C78.4908 30.6438 78.5036 30.5638 78.5333 30.4894C78.563 30.4151 78.609 30.3483 78.6679 30.2941C78.7779 30.1894 78.9243 30.1317 79.0761 30.1329C79.1546 30.1321 79.2323 30.1486 79.3038 30.181C79.3752 30.2135 79.4387 30.2613 79.4897 30.3209C79.549 30.381 79.5957 30.4524 79.6271 30.5308C79.6585 30.6092 79.6738 30.693 79.6723 30.7775C79.6845 30.9985 79.6114 31.2157 79.4682 31.3844C79.3312 31.5265 79.18 31.6543 79.017 31.7658C78.8989 31.61 78.7807 31.4542 78.6733 31.3038C78.5463 31.1372 78.4783 30.9332 78.4799 30.7238H78.496Z" fill="white"/>
<path d="M66.9638 35.0477V35.1551C66.9629 35.5146 67.0555 35.8681 67.2324 36.181C67.3904 36.4454 67.6073 36.6697 67.8662 36.8363C68.1314 37.0081 68.4266 37.1284 68.7364 37.1908C69.0576 37.2601 69.3853 37.2944 69.7139 37.2929C70.0369 37.2934 70.359 37.261 70.6754 37.1962C70.9821 37.1379 71.2743 37.0192 71.5348 36.8471C71.7928 36.6821 72.0052 36.4549 72.1525 36.1864C72.3221 35.8756 72.4055 35.5251 72.3942 35.1712C72.4001 34.9177 72.3429 34.6667 72.2277 34.4407C72.1198 34.2467 71.9714 34.0782 71.7926 33.9466C71.609 33.8115 71.4063 33.7047 71.191 33.6297C70.9708 33.5545 70.7452 33.49 70.525 33.4363L69.8804 33.2913C69.6984 33.2527 69.519 33.2024 69.3433 33.1409C69.2118 33.1008 69.0895 33.0351 68.9834 32.9475C68.9209 32.886 68.8818 32.8045 68.873 32.7172C68.8641 32.6299 68.8861 32.5423 68.9351 32.4695C68.9805 32.4148 69.0373 32.3708 69.1016 32.3406C69.1804 32.3072 69.2636 32.2855 69.3487 32.2761C69.6666 32.222 69.9935 32.269 70.2833 32.4104C70.373 32.4671 70.4457 32.5469 70.4939 32.6414C70.5421 32.7359 70.564 32.8416 70.5572 32.9475V33.0549H72.2545V32.9314C72.2384 32.6002 72.1426 32.2777 71.9752 31.9914C71.8219 31.7505 71.6186 31.5453 71.379 31.3898C71.1319 31.2351 70.859 31.126 70.5733 31.0676C69.9719 30.9522 69.354 30.9522 68.7525 31.0676C68.4646 31.1214 68.1883 31.225 67.936 31.3737C67.6875 31.522 67.4805 31.7308 67.3344 31.9807C67.1741 32.2808 67.0962 32.6182 67.1089 32.9583C67.1009 33.2034 67.1583 33.4463 67.2754 33.6619C67.3837 33.8497 67.5323 34.0111 67.7104 34.1346C67.8957 34.2616 68.0983 34.3611 68.312 34.43C68.5269 34.4998 68.7525 34.5643 68.9781 34.618C69.4091 34.7033 69.8329 34.8218 70.2457 34.9725C70.5089 35.0745 70.6378 35.2142 70.6378 35.4022C70.6421 35.5049 70.6139 35.6064 70.5572 35.6922C70.5042 35.7695 70.4344 35.8337 70.3531 35.8802C70.26 35.9306 70.1607 35.9685 70.0577 35.993C69.8197 36.0526 69.5706 36.0526 69.3326 35.993C69.2116 35.9612 69.0971 35.9085 68.9942 35.8373C68.8966 35.7662 68.816 35.6745 68.7579 35.5687C68.6987 35.4485 68.6692 35.3159 68.6719 35.182V35.0692L66.9638 35.0477Z" fill="white"/>
<path d="M60.0133 31.132H58.2462V37.1532H60.0133V31.132Z" fill="white"/>
<path d="M19.573 31.9968H16.6618V28.9244H14.7281V37.1586H16.6618V33.7048H19.573V37.1586H21.5066V28.9244H19.573V31.9968Z" fill="white"/>
<path d="M53.3852 28.9244H51.618V30.466H53.3852V28.9244Z" fill="white"/>
<path d="M37.9105 37.1586V33.1677C37.9188 32.8276 37.8642 32.4889 37.7494 32.1686C37.6571 31.911 37.5047 31.6791 37.3048 31.4923C37.1048 31.3054 36.8632 31.169 36.5999 31.0944C36.3203 31.0154 36.0311 30.9756 35.7405 30.9762C35.3594 30.971 34.9854 31.0794 34.6662 31.2877C34.4417 31.4359 34.2407 31.617 34.07 31.8249C33.9308 31.5502 33.7066 31.3279 33.4309 31.1911C33.1126 31.0383 32.7633 30.9611 32.4103 30.9655C32.0476 30.9605 31.69 31.0513 31.3736 31.2287C31.1515 31.3563 30.9534 31.5217 30.7882 31.7175V31.1212H29.107V37.1478H30.8741V33.6726C30.8664 33.4527 30.903 33.2335 30.9815 33.028C31.0429 32.8907 31.1305 32.7666 31.2394 32.6628C31.3291 32.5871 31.4332 32.5304 31.5455 32.4963C31.6291 32.4702 31.7158 32.4558 31.8034 32.4533C31.9751 32.4397 32.1469 32.4771 32.2975 32.5608C32.4011 32.6306 32.4815 32.7297 32.5285 32.8454C32.5766 32.9841 32.6055 33.1286 32.6144 33.2751C32.6144 33.447 32.6144 33.6135 32.6144 33.78V37.1478H34.3816V33.8069C34.3821 33.6272 34.3946 33.4477 34.4192 33.2697C34.4395 33.1176 34.4868 32.9703 34.5588 32.8347C34.6271 32.7154 34.7229 32.6141 34.8381 32.5393C34.9783 32.4591 35.1389 32.4218 35.3001 32.4318C35.4591 32.4248 35.6175 32.4561 35.762 32.5231C35.8659 32.5837 35.95 32.6733 36.0037 32.781C36.0646 32.9091 36.1011 33.0476 36.1111 33.1892C36.1111 33.3557 36.1111 33.5383 36.1111 33.7263V37.1263L37.9105 37.1586Z" fill="white"/>
<path d="M46.8269 31.132H45.1349V37.1586H46.9021V34.0056C46.8683 33.5873 46.9599 33.1684 47.1653 32.8024C47.2626 32.6827 47.3881 32.589 47.5307 32.53C47.6732 32.4709 47.8282 32.4482 47.9817 32.464C48.1106 32.4481 48.2415 32.4672 48.3605 32.5191C48.4796 32.5711 48.5825 32.6541 48.6585 32.7595C48.8125 33.0727 48.881 33.421 48.8572 33.7693V37.1586H50.6297V33.4792C50.6326 33.142 50.6002 32.8053 50.5331 32.4748C50.478 32.1888 50.3626 31.9178 50.1947 31.6798C50.0212 31.4456 49.7898 31.2605 49.5233 31.1427C49.181 31.0105 48.8157 30.9484 48.449 30.9601C48.1 30.9623 47.7563 31.045 47.4446 31.2018C47.1962 31.3296 46.9811 31.5135 46.8161 31.7389L46.8269 31.132Z" fill="white"/>
<path d="M54.7871 35.7352C54.7768 35.9965 54.8303 36.2565 54.9429 36.4925C55.0402 36.6836 55.1891 36.8436 55.3726 36.9545C55.56 37.0617 55.7659 37.1327 55.9795 37.1639C56.209 37.1968 56.4406 37.213 56.6724 37.2123C56.8282 37.2123 56.984 37.2123 57.1451 37.2123C57.2962 37.207 57.4469 37.1926 57.5963 37.1693H57.6876V35.6922L57.5533 35.7191C57.4827 35.7354 57.4108 35.7462 57.3385 35.7513C57.258 35.7568 57.1772 35.7568 57.0968 35.7513C56.8013 35.7513 56.6939 35.6922 56.6563 35.6546C56.5735 35.5157 56.5394 35.3531 56.5596 35.1927V32.4372H57.6876V31.1427H56.5596V29.4078H54.7871V31.1427H53.8525V32.4372H54.7871V35.7352Z" fill="white"/>
<path d="M41.9229 33.404C41.7342 33.4515 41.542 33.4839 41.3482 33.5007C41.1118 33.5007 40.8755 33.5544 40.6553 33.592C40.418 33.6305 40.183 33.6825 39.9516 33.7478C39.7204 33.8082 39.502 33.9101 39.3071 34.0486C39.1118 34.189 38.9518 34.3729 38.8398 34.5857C38.7084 34.8563 38.6456 35.1552 38.6572 35.4558C38.6518 35.7358 38.7048 36.0139 38.8129 36.2723C38.9135 36.4967 39.0642 36.6952 39.2534 36.8524C39.4457 37.0068 39.6665 37.1218 39.9033 37.1908C40.1585 37.2632 40.4222 37.3011 40.6875 37.3036C41.0518 37.3055 41.4141 37.2512 41.7618 37.1424C42.0373 37.0567 42.2916 36.9139 42.5084 36.7235C42.5114 36.7466 42.5114 36.7701 42.5084 36.7933C42.5277 36.8896 42.5528 36.9846 42.5836 37.078L42.6104 37.1585H44.4474L44.3454 36.9867C44.2661 36.8333 44.2203 36.6649 44.2111 36.4925C44.1799 36.2485 44.1656 36.0026 44.1681 35.7566V32.738C44.1812 32.4147 44.0929 32.0955 43.9157 31.8248C43.7564 31.5942 43.5398 31.4091 43.2872 31.2877C43.0269 31.1594 42.7476 31.0742 42.46 31.0353C41.8538 30.94 41.2356 30.9528 40.6338 31.0729C40.3284 31.1329 40.0358 31.2456 39.769 31.4059C39.507 31.5607 39.2859 31.7763 39.1245 32.0343C38.9423 32.3308 38.8405 32.6695 38.829 33.0173V33.1408H40.5962V33.0388C40.5965 32.9266 40.62 32.8157 40.6653 32.713C40.7106 32.6104 40.7767 32.5183 40.8594 32.4425C41.0483 32.3128 41.2753 32.2503 41.5039 32.2653C41.628 32.2658 41.7518 32.2748 41.8746 32.2922C41.9698 32.3054 42.0613 32.3383 42.1431 32.3888C42.2191 32.4355 42.2805 32.5025 42.3204 32.5822C42.3741 32.6942 42.3981 32.8181 42.3902 32.9421C42.3973 32.9942 42.3918 33.0473 42.374 33.0969C42.3562 33.1464 42.3268 33.191 42.2882 33.2268C42.1799 33.3103 42.0556 33.3707 41.9229 33.404ZM41.2246 34.6555L41.5899 34.6018C41.7108 34.5882 41.8309 34.5685 41.9498 34.5427C42.0609 34.5218 42.1703 34.4931 42.2774 34.4568L42.3741 34.4192V34.8005C42.3741 34.8865 42.3741 34.9993 42.3472 35.1497C42.3303 35.29 42.2846 35.4253 42.213 35.5472C42.1344 35.6861 42.0216 35.8026 41.8853 35.8855C41.6851 35.9896 41.4606 36.0378 41.2354 36.0252C41.1237 36.0227 41.0124 36.0119 40.9024 35.993C40.8091 35.9755 40.7198 35.9409 40.6392 35.8909C40.5676 35.8429 40.5087 35.7784 40.4673 35.7029C40.4256 35.6063 40.4055 35.5019 40.4082 35.3968C40.4049 35.2881 40.4251 35.18 40.4673 35.0798C40.5094 35.0004 40.568 34.9308 40.6392 34.8757C40.7179 34.8184 40.8048 34.7731 40.897 34.7415C41.0045 34.7066 41.1139 34.6779 41.2246 34.6555Z" fill="white"/>
<path d="M25.7875 37.0672C26.0331 36.9496 26.2481 36.7768 26.4159 36.5623V37.1586H28.1079V31.132H26.3407V34.2849C26.3734 34.7049 26.2818 35.1251 26.0775 35.4935C25.9793 35.6121 25.8536 35.705 25.7113 35.7639C25.569 35.8229 25.4145 35.8462 25.2611 35.8318C25.1316 35.8477 25.0003 35.8282 24.8811 35.7752C24.7619 35.7222 24.6593 35.6378 24.5843 35.5311C24.4296 35.2181 24.361 34.8695 24.3856 34.5213V31.132H22.6131V34.8113C22.6102 35.1486 22.6426 35.4852 22.7097 35.8157C22.7638 36.1037 22.8792 36.3767 23.0481 36.6161C23.2215 36.8439 23.4536 37.0202 23.7195 37.1263C24.0622 37.2567 24.4275 37.317 24.7938 37.3036C25.1384 37.299 25.4777 37.2183 25.7875 37.0672Z" fill="white"/>
<path d="M80.2524 26.8833H82.0464V22.1512H83.1207V20.8567H82.0464V20.6526C82.029 20.4994 82.0671 20.345 82.1538 20.2175C82.2035 20.1743 82.2616 20.142 82.3245 20.1226C82.3874 20.1031 82.4537 20.0971 82.5191 20.1047C82.6986 20.1049 82.878 20.1156 83.0562 20.137H83.1851V18.7136H83.0777L82.6802 18.6813H82.2559C81.9833 18.6615 81.7095 18.6991 81.4523 18.7916C81.1951 18.8841 80.9602 19.0295 80.7627 19.2185C80.4249 19.5823 80.2453 20.0652 80.2631 20.5613V20.8943H79.3393V22.1888H80.2631L80.2524 26.8833Z" fill="white"/>
<path d="M35.1712 26.3677C35.4999 26.6165 35.8739 26.799 36.2723 26.9048C37.1543 27.1327 38.0808 27.1235 38.958 26.8779C39.3389 26.7691 39.6947 26.5866 40.0054 26.3408C40.2958 26.1128 40.5293 25.8204 40.6875 25.4868C40.8315 25.147 40.9046 24.7815 40.9024 24.4125C40.9168 24.0038 40.8144 23.5994 40.607 23.2469C40.4293 22.9626 40.1954 22.7176 39.9194 22.5272C39.6738 22.3571 39.404 22.225 39.1191 22.1351C38.872 22.0599 38.6625 22.0008 38.5122 21.9686C38.0287 21.8451 37.6366 21.743 37.3358 21.6571C37.0999 21.5971 36.8698 21.5163 36.6483 21.4154C36.5331 21.3703 36.4326 21.2941 36.3583 21.1951C36.3046 21.0964 36.2786 20.9851 36.2831 20.8728C36.2771 20.7448 36.3089 20.6178 36.3744 20.5076C36.4368 20.4075 36.5213 20.3229 36.6215 20.2605C36.7132 20.1928 36.8171 20.1436 36.9276 20.1155C37.2391 20.0479 37.5615 20.0479 37.873 20.1155C38.0275 20.1449 38.1751 20.2033 38.308 20.2874C38.4305 20.3724 38.5316 20.4845 38.6035 20.615C38.6812 20.7839 38.725 20.9664 38.7324 21.1521V21.2596H40.6016V21.1468C40.6129 20.7194 40.5208 20.2955 40.333 19.9114C40.1612 19.5786 39.9149 19.2901 39.6133 19.0681C39.2993 18.8489 38.948 18.6887 38.5766 18.5954C37.8341 18.3967 37.0524 18.3967 36.3099 18.5954C35.9607 18.6897 35.6314 18.8462 35.3377 19.0574C35.0519 19.2705 34.814 19.5413 34.6395 19.8523C34.4522 20.1981 34.3596 20.5872 34.3709 20.9803C34.3612 21.3217 34.433 21.6605 34.5804 21.9686C34.7098 22.231 34.8928 22.4634 35.1175 22.6507C35.3512 22.8321 35.6099 22.9787 35.8856 23.0858C36.1647 23.195 36.4499 23.2883 36.7396 23.3651L37.5829 23.5907C37.8304 23.6484 38.0728 23.7256 38.308 23.8217C38.49 23.8921 38.6562 23.998 38.7968 24.1332C38.8537 24.1921 38.8979 24.2621 38.9265 24.3388C38.9551 24.4155 38.9677 24.4973 38.9633 24.579C38.97 24.7327 38.9246 24.8841 38.8344 25.0087C38.7434 25.1241 38.6278 25.2176 38.496 25.2827C38.3523 25.3533 38.1982 25.4005 38.0395 25.4223C37.6824 25.4843 37.3162 25.4697 36.9652 25.3793C36.7732 25.3341 36.5912 25.254 36.4281 25.143C36.2861 25.0319 36.1705 24.8906 36.0897 24.7294C35.9985 24.5309 35.9544 24.314 35.9608 24.0956V23.9828H34.0808V24.0956C34.0639 24.5535 34.1578 25.0086 34.3548 25.4223C34.5442 25.8004 34.8248 26.1252 35.1712 26.3677Z" fill="white"/>
<path d="M61.4689 26.1689C61.7379 26.4458 62.0617 26.6635 62.4197 26.8081C63.2208 27.1018 64.1001 27.1018 64.9012 26.8081C65.2615 26.6649 65.5873 26.4471 65.8573 26.1689C66.1292 25.8825 66.3379 25.5421 66.4696 25.1698C66.6187 24.7548 66.6915 24.3163 66.6845 23.8754C66.6911 23.4327 66.6183 22.9925 66.4696 22.5755C66.3423 22.2039 66.1362 21.8643 65.8655 21.5797C65.5948 21.2951 65.2659 21.0723 64.9012 20.9265C64.1014 20.6256 63.2195 20.6256 62.4197 20.9265C62.0625 21.0749 61.7391 21.2942 61.4689 21.5711C61.1999 21.8617 60.9917 22.2032 60.8566 22.5755C60.7124 22.9935 60.6415 23.4332 60.6471 23.8754C60.6406 24.3158 60.7115 24.7539 60.8566 25.1698C60.9905 25.5411 61.1989 25.8811 61.4689 26.1689ZM63.0803 22.2747C63.2592 22.1704 63.4644 22.1201 63.6712 22.1297C63.8795 22.122 64.0859 22.1722 64.2674 22.2747C64.4239 22.3704 64.5563 22.5009 64.6541 22.6561C64.7528 22.8225 64.8236 23.0039 64.8636 23.1932C64.9024 23.4113 64.9222 23.6323 64.9227 23.8539C64.9224 24.0736 64.9026 24.2929 64.8636 24.5092C64.8236 24.6984 64.7528 24.8799 64.6541 25.0463C64.56 25.2044 64.4268 25.3358 64.2674 25.4277C64.0844 25.5258 63.8787 25.5739 63.6712 25.5673C63.4635 25.5747 63.2577 25.5265 63.075 25.4277C62.9194 25.3343 62.7901 25.2031 62.699 25.0463C62.5961 24.882 62.525 24.6997 62.4895 24.5092C62.446 24.2935 62.4244 24.0739 62.425 23.8539C62.4247 23.6321 62.4463 23.4108 62.4895 23.1932C62.525 23.0026 62.5961 22.8204 62.699 22.6561C62.7871 22.496 62.9147 22.361 63.0696 22.264L63.0803 22.2747Z" fill="white"/>
<path d="M54.8355 26.1689C55.1027 26.4479 55.427 26.6659 55.7862 26.8081C56.1803 26.9592 56.5996 27.0339 57.0216 27.0284C57.4453 27.0329 57.8661 26.9582 58.2624 26.8081C58.6249 26.6664 58.9528 26.4484 59.2238 26.1689C59.4941 25.8823 59.7009 25.5419 59.8308 25.1699C59.9721 24.7534 60.0376 24.315 60.0241 23.8754C60.0303 23.4328 59.9575 22.9926 59.8093 22.5756C59.6845 22.2026 59.4794 21.8617 59.2084 21.5767C58.9374 21.2918 58.6071 21.0699 58.2409 20.9266C57.4428 20.626 56.5627 20.626 55.7647 20.9266C55.4061 21.0724 55.0822 21.292 54.814 21.5711C54.5413 21.859 54.3326 22.2013 54.2017 22.5756C54.0534 22.9926 53.9807 23.4328 53.9868 23.8754C53.9803 24.3163 54.0531 24.7548 54.2017 25.1699C54.3376 25.5451 54.554 25.8861 54.8355 26.1689ZM56.4469 22.2748C56.6264 22.1722 56.8311 22.1219 57.0377 22.1297C57.246 22.1221 57.4524 22.1723 57.6339 22.2748C57.7916 22.369 57.9242 22.4998 58.0206 22.6561C58.1193 22.8225 58.1901 23.004 58.2301 23.1933C58.2734 23.4108 58.2949 23.6321 58.2946 23.8539C58.2952 24.074 58.2736 24.2935 58.2301 24.5092C58.1901 24.6985 58.1193 24.8799 58.0206 25.0463C57.9265 25.2045 57.7934 25.3358 57.6339 25.4277C57.4509 25.5259 57.2453 25.574 57.0377 25.5674C56.8318 25.5749 56.6276 25.5266 56.4469 25.4277C56.2894 25.3351 56.1581 25.2038 56.0655 25.0463C55.9668 24.8799 55.8961 24.6985 55.856 24.5092C55.8152 24.2931 55.7936 24.0738 55.7916 23.8539C55.7939 23.6322 55.8154 23.4112 55.856 23.1933C55.8952 23.0037 55.966 22.8222 56.0655 22.6561C56.1555 22.4991 56.2805 22.3649 56.4308 22.264L56.4469 22.2748Z" fill="white"/>
<path d="M49.5125 23.7304C49.4774 23.3126 49.5671 22.8939 49.7703 22.5272C49.8679 22.406 49.9941 22.3111 50.1376 22.2511C50.2811 22.1911 50.4373 22.1678 50.5921 22.1834C50.7207 22.1691 50.8507 22.1895 50.9688 22.2423C51.0869 22.2952 51.1886 22.3788 51.2635 22.4842C51.4199 22.7968 51.4903 23.1453 51.4676 23.494V26.8833H53.2348V23.204C53.2367 22.867 53.2061 22.5306 53.1435 22.1995C53.0887 21.9125 52.9713 21.6411 52.7997 21.4046C52.6287 21.168 52.3966 20.9824 52.1283 20.8675C51.7864 20.7338 51.4208 20.6717 51.054 20.6848C50.726 20.6899 50.4038 20.7728 50.1141 20.9266C49.869 21.0548 49.6574 21.2388 49.4964 21.4637V18.6545H47.7238V26.8833H49.4964L49.5125 23.7304Z" fill="white"/>
<path d="M42.1431 26.1635C42.4065 26.4396 42.7249 26.6574 43.0777 26.8027C43.4601 26.9562 43.8689 27.0329 44.2809 27.0283C44.9721 27.0539 45.6493 26.8288 46.1877 26.3945C46.7144 25.9233 47.0394 25.2674 47.0954 24.5629V24.434H45.382V24.5307C45.3549 24.8271 45.2346 25.1073 45.0382 25.331C44.8587 25.4848 44.6365 25.58 44.4013 25.604C44.1661 25.628 43.9292 25.5796 43.7223 25.4653C43.573 25.3625 43.4498 25.2265 43.3624 25.0678C43.2698 24.8996 43.2028 24.7186 43.1637 24.5307C43.1215 24.3275 43.0999 24.1205 43.0992 23.913C43.0999 23.7001 43.1215 23.4878 43.1637 23.2792C43.2042 23.0798 43.2748 22.8878 43.3731 22.7098C43.4663 22.5473 43.5948 22.4078 43.7491 22.3016C43.9073 22.1944 44.0953 22.1399 44.2863 22.1458C44.4138 22.1332 44.5425 22.147 44.6645 22.1863C44.7864 22.2256 44.899 22.2895 44.9952 22.3741C45.0914 22.4588 45.1692 22.5623 45.2238 22.6782C45.2783 22.7942 45.3084 22.9201 45.3122 23.0482V23.1449H47.0417V23.0213C47.0254 22.6664 46.93 22.3195 46.7624 22.0062C46.6101 21.7234 46.3974 21.4776 46.1393 21.2864C45.8823 21.0907 45.5908 20.9449 45.2799 20.8567C44.9569 20.7638 44.6224 20.7168 44.2863 20.7171C43.8527 20.7079 43.4222 20.7922 43.024 20.9641C42.6636 21.1184 42.3424 21.3515 42.084 21.6463C41.821 21.9489 41.6219 22.3015 41.4986 22.6829C41.3667 23.0998 41.3015 23.5349 41.3052 23.972C41.3008 24.393 41.3717 24.8115 41.5147 25.2075C41.6628 25.5625 41.8759 25.8868 42.1431 26.1635Z" fill="white"/>
<path d="M69.2735 18.649H67.501V26.8832H69.2735V18.649Z" fill="white"/>
<path d="M73.9304 26.169C74.1993 26.4459 74.5231 26.6636 74.8811 26.8081C75.2753 26.9587 75.6945 27.0334 76.1165 27.0284C76.542 27.0333 76.9646 26.9586 77.3626 26.8081C77.7237 26.6666 78.0499 26.4486 78.3187 26.169C78.5888 25.8812 78.7972 25.5412 78.931 25.1699C79.078 24.7543 79.1507 24.3162 79.1459 23.8754C79.1498 23.433 79.0771 22.9932 78.931 22.5756C78.798 22.2023 78.5895 21.8604 78.3187 21.5711C78.049 21.2913 77.7232 21.0716 77.3626 20.9266C76.9657 20.7716 76.5425 20.695 76.1165 20.701C75.6939 20.6945 75.2741 20.7711 74.8811 20.9266C74.5177 21.0736 74.1902 21.2969 73.9205 21.5814C73.6509 21.8659 73.4454 22.2049 73.318 22.5756C73.172 22.9932 73.0993 23.433 73.1032 23.8754C73.0984 24.3162 73.1711 24.7543 73.318 25.1699C73.4498 25.5422 73.6584 25.8826 73.9304 26.169ZM75.5418 22.2748C75.7213 22.1722 75.926 22.1219 76.1326 22.1298C76.3426 22.1222 76.5507 22.1724 76.7342 22.2748C76.8903 22.3692 77.0211 22.5001 77.1155 22.6561C77.2163 22.8216 77.2872 23.0034 77.325 23.1933C77.3682 23.4108 77.3898 23.6321 77.3895 23.8539C77.3901 24.074 77.3685 24.2935 77.325 24.5092C77.2872 24.6992 77.2163 24.881 77.1155 25.0464C77.0243 25.2049 76.8927 25.3365 76.7342 25.4277C76.5492 25.5258 76.3419 25.574 76.1326 25.5674C75.9267 25.5741 75.7228 25.5259 75.5418 25.4277C75.3862 25.3344 75.2569 25.2032 75.1658 25.0464C75.0629 24.882 74.9918 24.6998 74.9563 24.5092C74.9128 24.2935 74.8912 24.074 74.8918 23.8539C74.8915 23.6321 74.9131 23.4108 74.9563 23.1933C74.9924 23.0037 75.0614 22.8219 75.1604 22.6561C75.2503 22.4991 75.3753 22.3649 75.5256 22.264L75.5418 22.2748Z" fill="white"/>
</svg>
