<svg width="360" height="312" viewBox="0 0 360 312" fill="none" xmlns="http://www.w3.org/2000/svg">
<g clip-path="url(#clip0_633_15346)">
<circle opacity="0.4" cx="180" cy="156" r="116.29" stroke="#ECBA41"/>
<circle opacity="0.4" cx="182.01" cy="155.929" r="77.64" transform="rotate(8.38219 182.01 155.929)" stroke="#D1603D"/>
<path d="M194.606 51.3362C196.379 51.5975 197.912 51.1598 198.03 50.3587C198.149 49.5576 196.807 48.6963 195.033 48.435C193.26 48.1737 191.727 48.6113 191.609 49.4124C191.491 50.2136 192.832 51.0749 194.606 51.3362Z" fill="#5F1A37"/>
<path d="M201.325 59.7707C200.189 66.3883 198.843 69.5522 192.861 69.0934C188.53 68.7622 185.723 63.5934 186.514 58.2214C187.306 52.8494 192.201 48.645 196.216 50.2998C199.961 51.8447 202.414 53.4192 201.325 59.7707Z" fill="#FFEBF3"/>
<path d="M192.696 69.2642L192.693 69.2809C192.693 69.2809 192.384 69.2562 191.91 69.1807C191.432 69.116 191.131 69.0508 191.131 69.0508L191.134 69.0341C190.054 68.801 188.636 68.3628 187.641 67.5661L187.517 68.4083L187.526 68.4096C187.52 68.4409 187.508 68.4695 187.504 68.4992C187.322 69.729 189.151 71.0181 191.586 71.3769C193.963 71.7271 196.034 71.0619 196.303 69.8886L196.312 69.89L196.463 68.8661C195.279 69.3416 193.797 69.3526 192.696 69.2642Z" fill="#D89CB5"/>
<path d="M197.848 67.5842C196.883 67.8192 195.66 67.7698 195.083 67.4535C194.925 67.3677 194.811 67.2543 194.764 67.1146C194.676 66.8573 194.844 66.5957 195.119 66.4771C195.556 66.2913 197.808 66.6743 199.505 65.3798C199.937 65.051 200.285 64.6399 200.072 64.0912C200.041 64.0088 199.977 63.9635 199.903 63.9393C199.5 64.0674 198.712 64.3684 198.109 64.488C197.133 64.6796 196.139 64.518 195.562 64.2036C195.404 64.1178 195.29 64.0044 195.242 63.8647C195.155 63.6073 195.323 63.3458 195.598 63.2272C196.035 63.0414 198.671 63.2762 200.368 61.9817C200.799 61.653 201.148 61.2419 200.935 60.6931C200.904 60.6108 200.842 60.5657 200.766 60.5412C200.362 60.6712 199.575 60.9703 198.972 61.0899C197.996 61.2816 196.618 61.2681 196.041 60.9537C195.883 60.8679 195.769 60.7545 195.721 60.6148C195.634 60.3574 195.802 60.0959 196.077 59.9773C196.514 59.7915 199.149 60.0263 200.847 58.7318C201.278 58.4031 201.627 57.992 201.414 57.4432C201.284 57.1056 200.669 57.379 200.669 57.379C200.311 57.5556 199.863 57.7586 199.451 57.84C198.475 58.0317 197.097 58.0182 196.52 57.7038C196.362 57.618 196.248 57.5045 196.2 57.3649C196.113 57.1075 196.28 56.846 196.556 56.7274C196.992 56.5416 197.983 56.8031 199.563 56.2304C200.482 55.8977 201.026 55.3279 201.273 54.6952C201.11 54.1954 200.905 53.7445 200.655 53.3475C200.275 52.7477 199.726 52.1399 199.008 51.5981L198.895 52.3643L198.886 52.3629C198.616 53.538 196.545 54.2013 194.169 53.8512C191.733 53.4923 189.905 52.2032 190.086 50.9734C190.09 50.9437 190.102 50.9151 190.109 50.8839L190.099 50.8825L190.186 50.2963C189.342 50.6061 188.641 51.0296 188.106 51.4966C186.502 52.8883 185.424 55.5628 185.02 59.5932C184.646 63.2965 185.698 65.9872 187.616 67.5453C188.613 68.3556 190.045 68.7978 191.136 69.0325L191.133 69.0492C191.133 69.0492 191.435 69.1144 191.912 69.1791C192.388 69.2549 192.695 69.2793 192.695 69.2793L192.698 69.2626C193.81 69.3526 195.309 69.3441 196.497 68.854C197.27 68.5358 198.181 67.9858 198.803 67.236C198.613 67.3559 198.316 67.4712 197.848 67.5842Z" fill="#B05D80"/>
<ellipse cx="194.582" cy="50.0307" rx="3.2" ry="1.6" transform="rotate(8.38219 194.582 50.0307)" fill="#5F1A37"/>
<path d="M195.072 47.7224C192.636 47.3635 190.514 48.0704 190.333 49.3002L190.099 50.8825L190.109 50.8839C190.102 50.9151 190.091 50.9419 190.086 50.9734C189.905 52.2032 191.733 53.4923 194.169 53.8512C196.543 54.201 198.616 53.5361 198.886 52.3629L198.895 52.3642L199.155 50.602C199.336 49.3703 197.508 48.0812 195.072 47.7224ZM194.566 51.1559C192.984 50.9228 191.788 50.1477 191.895 49.4224C192.002 48.699 193.372 48.3001 194.953 48.533C196.533 48.7659 197.73 49.543 197.623 50.2665C197.516 50.9918 196.148 51.3891 194.566 51.1559Z" fill="#D89CB5"/>
<path fill-rule="evenodd" clip-rule="evenodd" d="M98.4804 91.2036C98.2649 91.47 98.1285 91.7917 98.0869 92.1318C98.0571 92.3705 98.075 92.6128 98.1397 92.8445C98.2044 93.0763 98.3145 93.2928 98.4636 93.4816C98.642 93.6852 98.844 93.8669 99.0653 94.0229C99.7425 94.5593 100.42 95.0955 101.098 95.632C102.454 96.7046 103.811 97.7779 105.165 98.8541L105.165 98.8543C105.255 98.9319 105.349 99.0061 105.443 99.0803C105.518 99.1396 105.593 99.1989 105.666 99.2598L111.525 103.901C111.665 104.014 111.819 104.109 111.983 104.181C112.299 104.317 112.647 104.361 112.986 104.307C113.326 104.254 113.644 104.106 113.903 103.88C114.132 103.648 114.344 103.399 114.537 103.136L122.892 92.5871C123.043 92.4084 123.182 92.2201 123.309 92.0233C123.528 91.6423 123.602 91.1946 123.516 90.7634C123.432 90.3393 123.2 89.9587 122.863 89.6886L119.34 86.8981C119.018 86.6435 118.698 86.3883 118.377 86.1331C117.736 85.623 117.094 85.1129 116.449 84.6086L116.449 84.6084L110.193 79.6526C110.037 79.517 109.864 79.402 109.678 79.3106C109.314 79.1414 108.903 79.0978 108.511 79.1867C108.119 79.2756 107.767 79.492 107.511 79.802L98.4804 91.2036ZM115.669 85.6187C115.668 85.6198 115.667 85.6209 115.667 85.622C115.573 85.7238 115.485 85.8308 115.403 85.9424C115.356 86.0045 115.306 86.0657 115.257 86.1272C115.169 86.2351 115.081 86.3439 115.005 86.4602C115.002 86.464 114.998 86.4677 114.994 86.4714C114.962 86.5354 114.946 86.6059 114.947 86.6774C114.948 86.7537 114.968 86.8286 115.005 86.8951C115.059 86.9775 115.13 87.0476 115.213 87.1008L115.781 87.5504C115.831 87.5952 115.889 87.6291 115.953 87.65C116.016 87.671 116.084 87.6785 116.15 87.6721C116.217 87.6657 116.282 87.6456 116.34 87.6129C116.398 87.5802 116.45 87.5358 116.49 87.4824L117.004 86.833C117.083 86.734 117.121 86.6082 117.109 86.4821C117.097 86.356 117.036 86.2395 116.94 86.1571L116.389 85.7208C116.286 85.6184 116.157 85.5472 116.015 85.5156C115.953 85.5083 115.889 85.5139 115.829 85.5321C115.77 85.5499 115.716 85.5793 115.669 85.6187ZM112.45 89.645L112.457 89.5678L107.506 91.4336L109.683 93.1581C109.682 93.1585 109.682 93.159 109.682 93.1594L111.77 94.8134C111.996 93.0932 112.221 91.3727 112.444 89.6519C112.446 89.6496 112.448 89.6473 112.45 89.645ZM106.645 97.0149C106.643 97.0183 106.641 97.0218 106.639 97.0253C106.555 97.1036 106.485 97.1949 106.416 97.2864C106.392 97.3169 106.369 97.3475 106.345 97.3776C106.303 97.4335 106.258 97.4882 106.214 97.5428C106.13 97.6461 106.046 97.7495 105.975 97.8618C105.973 97.8641 105.97 97.8664 105.968 97.8687C105.917 97.975 105.908 98.0971 105.944 98.2098C105.992 98.3294 106.076 98.4313 106.185 98.5016L106.77 98.965C106.82 99.0052 106.878 99.0351 106.94 99.053C107.002 99.0709 107.067 99.0763 107.131 99.0691C107.195 99.0619 107.257 99.042 107.313 99.0108C107.369 98.9796 107.419 98.9375 107.459 98.887L107.988 98.2197C108.056 98.1294 108.091 98.018 108.086 97.9047C108.081 97.7915 108.037 97.6835 107.961 97.5996C107.796 97.4642 107.626 97.3317 107.458 97.2C107.374 97.1345 107.291 97.0693 107.209 97.004C107.126 96.9401 107.023 96.9072 106.918 96.9108C106.818 96.9143 106.722 96.9509 106.645 97.0149ZM99.5203 93.0918C99.4981 92.9937 99.509 92.891 99.5512 92.7998C99.5763 92.7523 99.6062 92.7076 99.6405 92.6664L100.144 92.0304C100.196 91.9583 100.266 91.9011 100.347 91.8646C100.424 91.8329 100.508 91.8227 100.59 91.8352C100.673 91.8477 100.75 91.8823 100.814 91.9353C100.894 91.9983 100.974 92.061 101.054 92.1237C101.213 92.2492 101.373 92.3747 101.53 92.5025C101.616 92.5764 101.67 92.6792 101.684 92.791C101.698 92.9028 101.669 93.0158 101.605 93.108L101.024 93.8408C100.951 93.9297 100.848 93.9878 100.734 94.0035C100.62 94.0193 100.505 93.9915 100.41 93.9258L99.6737 93.3422C99.5963 93.2779 99.5424 93.1899 99.5203 93.0918ZM108.546 81.7011C108.523 81.6046 108.532 81.5032 108.571 81.4121L108.573 81.4139C108.622 81.3256 108.681 81.2429 108.747 81.167C108.798 81.1028 108.849 81.0378 108.899 80.9725C109.001 80.8414 109.104 80.7094 109.211 80.582C109.287 80.498 109.392 80.4456 109.505 80.4351C109.618 80.4245 109.731 80.4565 109.822 80.5248C109.903 80.5895 109.985 80.6539 110.067 80.7183C110.231 80.847 110.396 80.9758 110.557 81.1075C110.644 81.1838 110.699 81.2902 110.71 81.4053C110.721 81.5203 110.689 81.6354 110.618 81.7272C110.554 81.8086 110.49 81.8902 110.426 81.9718C110.297 82.135 110.169 82.2982 110.038 82.4595C109.963 82.5436 109.86 82.5969 109.748 82.6091C109.636 82.6213 109.523 82.5917 109.432 82.5258L108.701 81.9466C108.624 81.8838 108.57 81.7976 108.546 81.7011ZM101.647 94.7094C101.642 94.6343 101.657 94.5593 101.689 94.4912C101.742 94.401 101.803 94.3158 101.871 94.2367C101.922 94.1734 101.971 94.1098 102.021 94.0461C102.12 93.9188 102.219 93.7917 102.322 93.6679C102.398 93.5825 102.504 93.529 102.618 93.518C102.732 93.507 102.846 93.5394 102.937 93.6087L103.653 94.1759C103.72 94.2292 103.771 94.3002 103.799 94.3808C103.828 94.4614 103.834 94.5484 103.815 94.632C103.79 94.7254 103.742 94.8112 103.676 94.8819C103.618 94.956 103.56 95.0303 103.502 95.1047C103.385 95.2534 103.269 95.4023 103.148 95.5492C103.074 95.6328 102.971 95.6861 102.86 95.699C102.749 95.7119 102.637 95.6834 102.546 95.6191L101.91 95.1158C101.833 95.0636 101.766 94.9978 101.713 94.9217C101.673 94.8574 101.651 94.7845 101.647 94.7094ZM110.672 83.3191C110.667 83.246 110.679 83.1726 110.708 83.1053L110.71 83.1081C110.76 83.0186 110.819 82.935 110.887 82.8587C110.939 82.7941 110.99 82.7287 111.04 82.6633C111.143 82.532 111.245 82.4003 111.352 82.2725C111.428 82.1886 111.533 82.1363 111.646 82.1259C111.76 82.1155 111.872 82.1478 111.963 82.2164L112.682 82.7857C112.745 82.837 112.794 82.9044 112.823 82.9809C112.852 83.0574 112.86 83.1402 112.846 83.2207C112.827 83.3128 112.784 83.3982 112.721 83.4681C112.661 83.5438 112.601 83.6199 112.541 83.6959C112.422 83.8481 112.303 84.0002 112.181 84.1499C112.106 84.2356 112.002 84.2903 111.89 84.3035C111.777 84.3167 111.663 84.2873 111.571 84.2212L110.938 83.7196C110.861 83.6674 110.793 83.6015 110.74 83.5251C110.701 83.4628 110.678 83.3922 110.672 83.3191ZM103.796 96.4789C103.773 96.3804 103.784 96.2773 103.827 96.1857C103.875 96.1047 103.93 96.0284 103.992 95.9576C104.043 95.8934 104.094 95.8285 104.145 95.7633C104.247 95.6324 104.35 95.5006 104.456 95.3726C104.532 95.2859 104.638 95.2314 104.753 95.2201C104.868 95.2088 104.983 95.2414 105.074 95.3115L105.806 95.891C105.892 95.9657 105.946 96.0695 105.959 96.1822C105.972 96.295 105.943 96.4085 105.876 96.5006L105.3 97.2284C105.227 97.3174 105.123 97.3756 105.01 97.3913C104.896 97.4071 104.78 97.3792 104.686 97.3133C104.521 97.1857 104.358 97.0554 104.195 96.9251C104.113 96.86 104.032 96.7949 103.95 96.7302C103.872 96.6658 103.818 96.5774 103.796 96.4789ZM112.812 85.0155C112.807 84.9432 112.819 84.8707 112.848 84.8041L112.845 84.8009C112.896 84.7116 112.958 84.6284 113.028 84.5529C113.079 84.4885 113.129 84.4233 113.18 84.358C113.282 84.2267 113.384 84.0948 113.491 83.9674C113.568 83.8836 113.673 83.8315 113.786 83.8212C113.899 83.8109 114.012 83.8432 114.102 83.9118C114.184 83.9763 114.266 84.0406 114.347 84.1048C114.511 84.2335 114.676 84.3622 114.837 84.494C114.924 84.5705 114.978 84.677 114.99 84.792C115.001 84.9071 114.968 85.0221 114.897 85.1138C114.833 85.1952 114.769 85.2768 114.705 85.3584C114.577 85.5214 114.449 85.6842 114.318 85.845C114.244 85.9305 114.14 85.9851 114.027 85.9981C113.914 86.0111 113.801 85.9815 113.709 85.9152L113.076 85.4137C112.998 85.3617 112.931 85.2959 112.878 85.2196C112.84 85.1577 112.817 85.0877 112.812 85.0155ZM108.072 99.8734C108.044 99.7656 108.058 99.6512 108.112 99.5535C108.134 99.5125 108.159 99.4736 108.189 99.4374L108.692 98.8014C108.768 98.6991 108.879 98.6287 109.003 98.6042C109.064 98.5944 109.126 98.5975 109.186 98.6132C109.245 98.6289 109.301 98.6569 109.348 98.6953L110.015 99.2234C110.114 99.2926 110.183 99.3956 110.211 99.5128C110.238 99.63 110.222 99.7532 110.164 99.8589L109.595 100.577C109.517 100.677 109.403 100.742 109.278 100.759C109.152 100.776 109.025 100.744 108.923 100.669L108.272 100.154C108.177 100.085 108.106 99.9863 108.072 99.8734ZM117.092 88.4431C117.075 88.3431 117.093 88.2403 117.143 88.1519L117.143 88.1515C117.193 88.069 117.252 87.9913 117.316 87.9193L117.739 87.3852C117.785 87.3272 117.844 87.2808 117.911 87.2497C117.978 87.2185 118.051 87.2035 118.125 87.2058C118.266 87.2239 118.397 87.2883 118.497 87.3888L119.064 87.838C119.155 87.9098 119.217 88.0105 119.241 88.1231C119.266 88.2357 119.25 88.3533 119.198 88.4559C119.073 88.6172 118.946 88.7767 118.819 88.9361C118.755 89.0158 118.692 89.0955 118.628 89.1753C118.588 89.2287 118.537 89.273 118.479 89.3057C118.42 89.3383 118.356 89.3584 118.289 89.3648C118.223 89.3712 118.156 89.3637 118.092 89.3427C118.029 89.3218 117.97 89.2879 117.92 89.2432L117.236 88.7013C117.16 88.6343 117.109 88.5431 117.092 88.4431ZM110.197 101.409C110.203 101.352 110.221 101.296 110.249 101.246C110.271 101.204 110.296 101.165 110.325 101.129L110.831 100.49C110.907 100.389 111.017 100.319 111.141 100.295C111.202 100.285 111.264 100.288 111.324 100.304C111.383 100.32 111.439 100.348 111.487 100.386L112.152 100.913C112.251 100.983 112.321 101.085 112.348 101.203C112.376 101.32 112.36 101.443 112.302 101.549L111.692 102.319C111.605 102.401 111.492 102.45 111.372 102.455C111.253 102.461 111.135 102.424 111.041 102.35L110.407 101.848C110.316 101.781 110.247 101.687 110.211 101.58C110.195 101.524 110.19 101.466 110.197 101.409ZM119.223 90.0816C119.219 89.9994 119.238 89.9179 119.279 89.8462L119.279 89.8452C119.352 89.7249 119.442 89.6153 119.531 89.5059C119.584 89.4415 119.636 89.3773 119.685 89.311C119.783 89.1449 119.925 89.0093 120.096 88.9191C120.169 88.8964 120.247 88.892 120.322 88.9062C120.397 88.9204 120.468 88.9529 120.528 89.0007L121.179 89.5169C121.233 89.5557 121.278 89.605 121.313 89.6618C121.347 89.7186 121.369 89.7817 121.378 89.8474C121.387 89.913 121.383 89.9798 121.366 90.0438C121.349 90.1078 121.319 90.1676 121.278 90.2197L120.749 90.8876C120.677 90.9746 120.576 91.0337 120.465 91.0549C120.354 91.076 120.239 91.0578 120.14 91.0035L119.471 90.4735C119.405 90.4294 119.347 90.3744 119.3 90.311C119.253 90.2432 119.226 90.1637 119.223 90.0816Z" fill="white"/>
<path d="M107.503 91.4295C109.154 90.8082 110.805 90.1862 112.455 89.5637L112.447 89.6485C112.222 91.369 111.997 93.0895 111.774 94.81L109.682 93.1533C108.957 92.5797 108.23 92.0071 107.503 91.4295Z" fill="#ECBA41"/>
<path d="M96.357 173.993C96.407 173.654 96.2311 173.282 96.1679 172.926C95.9123 172.311 96.0122 171.633 96.4509 171.005C96.7267 170.7 96.8897 170.378 96.9396 170.039C97.7912 167.394 94.9308 164.086 90.5278 162.629C86.1249 161.173 81.8244 162.155 80.9728 164.8C80.7431 165.574 80.7564 166.269 80.9953 166.997C81.251 167.612 81.3773 168.323 81.2774 169.001C80.583 169.014 78.5492 168.714 78.3637 166.84C78.3005 166.484 77.995 166.208 77.6394 166.271C77.2838 166.334 77.0077 166.64 77.0709 166.995C77.2864 169.451 79.7051 170.269 81.1908 170.373C80.9779 171.034 80.6688 171.566 80.3593 172.098C79.9206 172.725 79.6909 173.5 79.7041 174.194C79.7566 176.973 83.591 179.154 88.227 179.029C92.7167 179.113 96.5225 176.788 96.3571 173.993L96.357 173.993Z" fill="#E4582D"/>
<path d="M269.255 121.964L272.185 120.396C272.407 120.278 272.572 120.075 272.645 119.834C272.718 119.593 272.692 119.332 272.573 119.11L272.124 118.271C274.477 119.429 277.322 118.468 278.5 116.1C279.046 114.967 279.123 113.662 278.714 112.471C278.304 111.279 277.441 110.297 276.312 109.739C275.61 109.392 274.823 109.23 274.051 109.255C274.09 108.631 274.005 108.005 273.801 107.414C273.598 106.822 273.28 106.277 272.865 105.809C272.45 105.341 271.948 104.959 271.385 104.686C270.823 104.413 270.213 104.254 269.59 104.218C268.332 104.141 267.096 104.568 266.154 105.403C265.213 106.239 264.641 107.416 264.567 108.675C264.561 108.905 264.546 109.139 264.578 109.36L257.53 113.131C257.308 113.25 257.142 113.452 257.069 113.694C256.997 113.935 257.023 114.195 257.142 114.418L262.528 124.485C262.647 124.707 262.85 124.873 263.091 124.947C263.332 125.02 263.592 124.994 263.814 124.875L266.744 123.308L265.191 128.455L274.399 123.528L269.255 121.964ZM275.8 113.067C276.038 113.512 276.09 114.033 275.944 114.515C275.799 114.998 275.467 115.403 275.023 115.64C274.579 115.878 274.059 115.929 273.577 115.782C273.094 115.636 272.69 115.303 272.451 114.858C272.213 114.413 272.161 113.892 272.307 113.41C272.453 112.927 272.784 112.522 273.228 112.285C273.672 112.047 274.192 111.996 274.675 112.143C275.157 112.289 275.562 112.622 275.8 113.067ZM270.983 108.09C271.221 108.535 271.273 109.056 271.128 109.539C270.982 110.022 270.651 110.426 270.207 110.664C269.763 110.901 269.243 110.953 268.76 110.806C268.278 110.659 267.873 110.327 267.635 109.882C267.397 109.437 267.345 108.916 267.491 108.433C267.636 107.951 267.968 107.546 268.412 107.308C268.856 107.071 269.376 107.02 269.858 107.166C270.341 107.313 270.745 107.645 270.983 108.09Z" fill="#E4582D"/>
<g clip-path="url(#clip1_633_15346)">
<path d="M57.1024 127.487L56.8407 129.312L57.2462 129.37C57.7624 129.444 58.1177 129.919 58.0437 130.435C57.9697 130.951 57.4954 131.306 56.9792 131.232L56.5737 131.174L55.5546 138.281C55.4925 138.714 55.3594 139.118 55.1839 139.488L59.3964 140.092C60.0784 140.19 60.7107 139.716 60.8085 139.034L62.5082 127.181C61.2765 127.766 59.8583 128.014 58.4111 127.807C57.9595 127.742 57.5237 127.632 57.1023 127.487L57.1024 127.487ZM46.5979 119.33L46.0996 122.805L44.2561 122.541C43.1039 122.376 42.0302 123.172 41.8636 124.333L40.8012 131.744C40.636 132.896 41.4415 133.971 42.5936 134.136L44.4371 134.401L43.9386 137.876C43.8408 138.558 44.3146 139.19 44.9966 139.288L51.1817 140.175C52.5457 140.37 53.8104 139.423 54.006 138.059L55.0251 130.952L54.3338 130.853C53.8175 130.779 53.4622 130.304 53.5363 129.788C53.6103 129.272 54.0845 128.917 54.6008 128.991L55.2921 129.09L55.6238 126.776C53.2937 125.313 51.9099 122.566 52.3249 119.671C52.3619 119.413 52.4175 119.158 52.482 118.903L48.0116 118.262C47.3283 118.174 46.6959 118.648 46.5981 119.33L46.5979 119.33ZM45.8009 124.888L44.7369 132.309L42.8934 132.044L43.9574 124.624L45.8009 124.888Z" fill="#5EEFF1"/>
<path d="M61.155 126.86C58.265 128.018 54.8479 126.28 53.5233 122.975C52.1987 119.67 53.47 116.054 56.3602 114.896C58.293 114.121 60.4976 114.652 62.1209 116.093C62.8782 116.77 63.389 117.72 62.4468 118.097L62.2711 118.168C61.9641 118.286 61.7069 118.505 61.5421 118.79C61.3776 119.075 61.3154 119.407 61.3663 119.732C61.4403 120.151 61.699 120.515 62.0706 120.722C62.4423 120.929 62.8875 120.957 63.2826 120.8C63.4777 120.693 63.7108 120.682 63.9151 120.77C64.1194 120.857 64.2723 121.033 64.3301 121.248C64.4772 121.69 64.5065 122.163 64.4155 122.62C64.1426 124.505 62.9069 126.111 61.155 126.86Z" fill="#F5C654"/>
<path d="M62.0964 123.6C62.178 123.804 62.1753 124.032 62.0891 124.233C62.0028 124.435 61.8399 124.594 61.6362 124.676C61.4325 124.757 61.2049 124.755 61.0032 124.668C60.8014 124.582 60.6422 124.419 60.5606 124.216C60.479 124.012 60.4815 123.784 60.5679 123.582C60.6542 123.381 60.8171 123.222 61.0207 123.14C61.2244 123.058 61.4521 123.061 61.6538 123.147C61.8555 123.234 62.0148 123.396 62.0964 123.6ZM58.4863 123.487C58.5883 123.742 58.585 124.027 58.477 124.279C58.3692 124.531 58.1656 124.73 57.9111 124.832C57.6564 124.934 57.3718 124.931 57.1196 124.823C56.8675 124.715 56.6685 124.511 56.5665 124.257C56.4644 124.002 56.4678 123.717 56.5756 123.465C56.6835 123.213 56.887 123.014 57.1417 122.912C57.3962 122.81 57.6809 122.813 57.933 122.921C58.1852 123.029 58.3843 123.233 58.4863 123.487ZM56.5635 119.802C56.6655 120.056 56.6622 120.341 56.5544 120.593C56.4464 120.845 56.2428 121.044 55.9883 121.146C55.7338 121.248 55.4491 121.245 55.1969 121.137C54.9447 121.029 54.7457 120.826 54.6437 120.571C54.5417 120.317 54.545 120.032 54.6528 119.78C54.7608 119.528 54.9644 119.328 55.2189 119.226C55.4734 119.124 55.7581 119.128 56.0103 119.236C56.2625 119.344 56.4615 119.547 56.5635 119.802ZM59.3266 116.689C59.449 116.994 59.445 117.336 59.3155 117.639C59.1861 117.941 58.9418 118.18 58.6364 118.302C58.3308 118.425 57.9892 118.421 57.6867 118.292C57.3841 118.162 57.1453 117.918 57.0229 117.612C56.9005 117.307 56.9044 116.965 57.0338 116.663C57.1632 116.36 57.4075 116.121 57.7131 115.999C58.0185 115.876 58.3602 115.88 58.6627 116.01C58.9654 116.139 59.2041 116.384 59.3266 116.689Z" fill="#FCF4E1"/>
</g>
<path fill-rule="evenodd" clip-rule="evenodd" d="M77.5997 60.432L74.0823 63.8895L85.319 75.3211L88.8364 71.8637L77.5997 60.432ZM79.7457 64.3741L77.9869 66.1028L84.0375 72.2583L85.7962 70.5296L79.7457 64.3741Z" fill="white"/>
<path fill-rule="evenodd" clip-rule="evenodd" d="M81.9966 56.1102L78.4791 59.5676L89.7158 70.9993L93.2332 67.5418L81.9966 56.1102ZM84.1425 60.0522L82.3838 61.781L88.4343 67.9365L90.193 66.2077L84.1425 60.0522Z" fill="#ECBA41"/>
<path fill-rule="evenodd" clip-rule="evenodd" d="M85.4824 52.6838L84.1649 57.4368L99.612 61.7185L100.929 56.9656L85.4824 52.6838ZM89.3119 55.0248L88.6532 57.4012L96.9708 59.7068L97.6296 57.3303L89.3119 55.0248Z" fill="white"/>
<rect x="148.4" y="12.5272" width="11.3898" height="11.3898" rx="2.0339" transform="rotate(-15.1723 148.4 12.5272)" fill="#849324"/>
<path d="M156.515 17.496L155.218 17.8478L155.185 18.4881L153.904 18.8354L154.272 14.5579L155.679 14.1763L158.153 17.6832L156.867 18.032L156.515 17.496ZM155.969 16.6586L155.324 15.6712L155.265 16.8494L155.969 16.6586Z" fill="white"/>
<rect x="145.026" y="26.5076" width="11.3898" height="11.3898" rx="2.0339" transform="rotate(-15.1723 145.026 26.5076)" fill="white"/>
<path d="M152.869 30.0396C153.119 30.0309 153.331 30.0953 153.506 30.2328C153.683 30.3656 153.803 30.5437 153.863 30.7672C153.956 31.108 153.914 31.4026 153.737 31.6511C153.563 31.895 153.266 32.074 152.844 32.1883L150.805 32.7412L149.75 28.8498L151.734 28.3117C152.13 28.2044 152.465 28.2061 152.738 28.3167C153.012 28.4273 153.194 28.6475 153.283 28.9773C153.345 29.2045 153.337 29.4132 153.258 29.6036C153.183 29.7893 153.053 29.9346 152.869 30.0396ZM151.381 30.0359L151.854 29.9077C151.964 29.8779 152.039 29.8341 152.078 29.7762C152.121 29.7173 152.13 29.6421 152.105 29.5505C152.079 29.4552 152.033 29.393 151.966 29.364C151.902 29.3302 151.815 29.3283 151.705 29.3581L151.232 29.4863L151.381 30.0359ZM152.315 31.2815C152.425 31.2517 152.5 31.2096 152.541 31.1554C152.584 31.0965 152.592 31.0195 152.566 30.9242C152.516 30.7373 152.382 30.6732 152.166 30.7318L151.611 30.8824L151.76 31.432L152.315 31.2815Z" fill="#7D7777"/>
<rect x="157.197" y="23.2073" width="11.3898" height="11.3898" rx="2.0339" transform="rotate(-15.1723 157.197 23.2073)" fill="#FCF4E1"/>
<path d="M162.337 27.5195C162.232 27.1347 162.216 26.7713 162.289 26.429C162.365 26.0859 162.525 25.7926 162.77 25.5492C163.014 25.3021 163.332 25.1254 163.724 25.0191C164.061 24.9277 164.379 24.9103 164.677 24.967C164.979 25.0191 165.243 25.1382 165.47 25.3243C165.702 25.5094 165.886 25.7485 166.025 26.0414L164.739 26.3901C164.645 26.2778 164.534 26.2017 164.405 26.1619C164.279 26.1174 164.147 26.1141 164.007 26.1518C163.802 26.2075 163.66 26.3286 163.581 26.5153C163.505 26.701 163.503 26.924 163.573 27.1841C163.644 27.4443 163.759 27.6354 163.918 27.7575C164.08 27.8786 164.264 27.9114 164.469 27.8557C164.609 27.818 164.722 27.7499 164.809 27.6514C164.899 27.5483 164.956 27.4247 164.98 27.2806L166.266 26.9318C166.295 27.2545 166.256 27.5541 166.15 27.8307C166.048 28.1062 165.88 28.3444 165.648 28.5452C165.418 28.7413 165.134 28.8851 164.797 28.9765C164.405 29.0828 164.042 29.0928 163.707 29.0064C163.372 28.9163 163.085 28.7424 162.846 28.4847C162.611 28.226 162.441 27.9042 162.337 27.5195Z" fill="#E4582D"/>
<path d="M243.242 23.9427L250.685 26.0084L254.717 30.5507L253.577 37.551L247.828 41.0532L238.702 33.1531L239.345 26.5595L243.242 23.9427Z" fill="#A8CCF9"/>
<path d="M246.898 42.799C249.103 40.4613 253.507 41.1322 255.405 34.9346C257.303 28.7375 251.063 24.5536 247.194 23.5622C243.183 22.5346 238.338 24.7231 237.542 28.3519C237.48 28.6323 237.296 28.8668 237.043 29.0024C236.25 29.4278 234.304 30.237 233.526 30.9125C233.246 31.156 233.235 31.588 233.503 31.8452C233.588 31.9258 234.061 32.4988 234.126 32.5672C234.791 33.27 233.649 34.9704 232.745 36.6091C231.799 38.3217 233.744 39.0908 234.413 39.2908C235.081 39.4904 236.497 40.1149 235.6 41.7404C235.48 41.9575 235.39 42.136 235.322 42.2821C235.165 42.6191 235.221 43.0162 235.46 43.3008C236.404 44.4252 239.481 47.0646 244.507 47.8814C244.802 47.9292 245.073 47.7062 245.085 47.4078C245.123 46.4015 245.259 44.5381 246.899 42.799L246.898 42.799ZM246.964 39.4985C245.755 39.4688 245.34 38.5005 245.199 37.8912C244.941 37.8684 244.685 37.7942 244.444 37.6613C244.052 37.4446 243.767 37.1097 243.606 36.7257C243.577 36.7545 242.15 36.3465 242.415 35.3424C242.436 35.3541 242.454 35.367 242.474 35.3783C242.496 35.39 242.517 35.4019 242.539 35.4129C243.336 35.8234 244.325 35.815 245.479 35.3876C245.673 35.316 245.771 35.1008 245.7 34.9073C245.628 34.7135 245.413 34.6148 245.219 34.6864C244.275 35.036 243.491 35.0582 242.89 34.7522C242.712 34.6616 242.564 34.547 242.44 34.4259C242.406 34.3903 242.373 34.3572 242.338 34.3191C242.303 34.2802 242.274 34.2413 242.243 34.2026C241.999 33.8815 241.907 33.5774 241.905 33.57C241.902 33.5571 241.896 33.5457 241.891 33.5334C241.704 32.8363 242.06 32.2197 242.367 31.846C240.705 31.1556 240.286 30.1711 240.248 29.4172C240.397 29.4766 240.555 29.5234 240.725 29.5466C241.239 29.6157 241.735 29.4701 242.196 29.1139C242.36 28.9879 242.39 28.7531 242.264 28.5899C242.137 28.4263 241.903 28.3962 241.74 28.5222C241.439 28.7545 241.141 28.8474 240.828 28.8062C240.546 28.7695 240.293 28.6288 240.095 28.4798C239.729 27.9536 239.667 27.2455 239.998 26.6464C240.438 25.8498 241.41 25.5348 242.226 25.8972C242.222 25.7031 242.282 25.504 242.418 25.3328C242.652 25.0375 243.064 24.9245 243.416 25.0588C243.445 25.0699 243.47 25.085 243.497 25.0984C243.428 25.4637 243.402 26.0026 243.711 26.3928C243.799 26.5036 243.904 26.5924 244.026 26.6598C244.281 26.8005 244.61 26.8479 245.01 26.8003C245.215 26.776 245.362 26.5902 245.338 26.3854C245.313 26.1801 245.128 26.0337 244.922 26.0582C244.704 26.0838 244.42 26.082 244.298 25.9294C244.161 25.7574 244.192 25.4055 244.25 25.1518C244.7 24.8743 245.281 24.8395 245.777 25.1133C246.047 25.2626 246.254 25.4826 246.387 25.7373C246.853 25.3331 247.539 25.2391 248.11 25.5546C248.423 25.7276 248.65 25.9955 248.777 26.3024C249.207 26.0886 249.732 26.0819 250.184 26.3316C250.629 26.5771 250.9 27.0133 250.955 27.4819C251.18 27.474 251.41 27.5237 251.621 27.6404C252.106 27.9081 252.349 28.4421 252.272 28.9595C252.476 28.9469 252.687 28.9893 252.879 29.0956C253.419 29.3938 253.615 30.0733 253.317 30.6135C253.306 30.6343 253.293 30.6535 253.28 30.6733C253.444 30.6867 253.608 30.7497 253.747 30.874C253.971 31.0731 254.064 31.3933 253.98 31.6809C253.928 31.8605 253.824 32.0009 253.693 32.0995C253.708 32.1067 253.722 32.1128 253.737 32.1208C254.214 32.3846 254.388 32.986 254.124 33.4639C254.035 33.6253 253.905 33.7486 253.757 33.8354C253.253 33.4503 252.499 33.2158 251.551 33.6784C251.366 33.7691 251.288 33.9928 251.379 34.1782C251.414 34.2498 251.469 34.3055 251.534 34.3413C251.637 34.3982 251.765 34.4057 251.879 34.3501C253.04 33.7836 253.626 34.7538 253.69 34.8678C253.695 34.8757 253.7 34.8818 253.705 34.889C253.72 35.4262 253.597 35.9744 253.318 36.4788C252.86 37.3078 252.08 37.8455 251.22 38.0232C251.166 38.2681 251.048 38.5071 250.848 38.7137C250.487 39.0855 249.941 39.2343 249.44 39.0996C249.148 39.0209 248.916 38.8635 248.74 38.6653C248.387 39.1366 247.822 39.5196 246.964 39.4984L246.964 39.4985Z" fill="#206DCD"/>
<path d="M245.899 29.4905C245.052 29.7733 244.393 30.556 244.257 31.4383C244.233 31.5974 244.313 31.7488 244.446 31.8223C244.483 31.843 244.525 31.8574 244.57 31.8646C244.774 31.8959 244.964 31.7558 244.996 31.5518C245.09 30.9394 245.548 30.3961 246.135 30.1995C246.331 30.1339 246.437 29.9225 246.371 29.7267C246.306 29.5308 246.094 29.4251 245.899 29.4906L245.899 29.4905Z" fill="#094287"/>
<path d="M252.679 31.7796C252.68 30.785 252.122 30.1956 251.49 29.8682C251.566 29.6154 251.652 29.2343 251.631 28.8463C251.621 28.6403 251.445 28.4817 251.239 28.4927C251.032 28.5036 250.874 28.6794 250.885 28.8853C250.898 29.1467 250.842 29.4152 250.788 29.6067C250.58 29.5561 250.383 29.5285 250.216 29.5202C250.01 29.5101 249.834 29.6691 249.824 29.8751C249.814 30.081 249.973 30.2565 250.179 30.2668C250.251 30.27 251.933 30.3694 251.931 31.779C251.931 31.92 252.009 32.043 252.125 32.1068C252.178 32.1363 252.239 32.1532 252.304 32.1533C252.511 32.1531 252.679 31.9859 252.679 31.7796L252.679 31.7796Z" fill="#094287"/>
<path d="M247.766 33.6538C247.585 34.3688 247.811 34.9973 248.389 35.3781C248.397 35.3836 248.406 35.3888 248.415 35.3935C248.584 35.4868 248.799 35.4359 248.907 35.272C249.02 35.0996 248.973 34.8678 248.801 34.7541C248.614 34.6306 248.505 34.4782 248.467 34.2876C248.401 33.9538 248.571 33.5876 248.624 33.4978C248.666 33.4508 248.696 33.3932 248.71 33.3291C248.745 33.1694 248.672 33.005 248.53 32.9242C247.409 32.288 247.794 31.1052 247.811 31.0531C247.879 30.8589 247.776 30.6466 247.582 30.5784C247.387 30.5102 247.174 30.6125 247.105 30.8076C246.904 31.3803 246.836 32.5891 247.854 33.3713C247.822 33.455 247.793 33.5491 247.766 33.6538L247.766 33.6538Z" fill="#094287"/>
<path d="M248.586 26.8039C248.383 26.7664 248.188 26.9006 248.151 27.1034C248.067 27.5574 247.888 27.8535 247.603 28.0083C247.036 28.3177 246.211 27.9879 246.195 27.9813C246.005 27.9023 245.786 27.9926 245.707 28.1826C245.633 28.3604 245.706 28.5626 245.871 28.6534C245.883 28.66 245.895 28.6661 245.908 28.6716C245.955 28.6913 247.071 29.1469 247.957 28.6668C248.447 28.4015 248.76 27.9211 248.886 27.2393C248.923 27.0365 248.79 26.8417 248.586 26.8039L248.586 26.8039Z" fill="#094287"/>
<path d="M247.747 38.1355C247.181 38.08 246.786 37.9015 246.572 37.6046C246.289 37.2109 246.397 36.7039 246.401 36.6884C246.448 36.4884 246.325 36.2881 246.126 36.2389C245.925 36.1902 245.723 36.3131 245.674 36.5136C245.666 36.5474 245.477 37.3522 245.959 38.032C246.114 38.25 246.315 38.4276 246.562 38.5642C246.865 38.7313 247.236 38.8368 247.673 38.8799C247.879 38.9 248.062 38.7497 248.082 38.5443C248.102 38.3384 247.952 38.1553 247.747 38.1356L247.747 38.1355Z" fill="#094287"/>
<path d="M292.059 93.1382L292.829 90.9675C292.942 90.6472 292.769 90.3454 292.423 90.303L288.811 89.9838C288.465 89.9414 288.103 90.1734 287.989 90.4937C287.876 90.8139 288.035 91.211 288.306 91.4072L291.302 93.4105C291.597 93.5952 291.933 93.4941 292.059 93.1382Z" fill="#FCF4E1"/>
<path d="M291.594 94.3356C291.167 94.1842 290.973 93.7148 291.125 93.2878L292.184 90.2985C292.336 89.8715 292.794 89.6533 293.209 89.7806L307.266 94.7638C307.693 94.9152 307.887 95.3846 307.736 95.8117L306.676 98.8009C306.525 99.228 306.067 99.4462 305.651 99.3189L291.594 94.3356Z" fill="#FCF4E1"/>
<path d="M294.337 90.1843L306.138 94.3681L304.524 98.9228L292.722 94.7388L294.337 90.1843Z" fill="#F5C654"/>
<path d="M303.835 93.5576L304.993 93.9682L303.378 98.5225L302.221 98.1124L303.835 93.5576Z" fill="#FCF4E1"/>
<path d="M295.482 90.5841L296.639 90.9946L295.025 95.5494L293.867 95.1389L295.482 90.5841Z" fill="#FCF4E1"/>
<path d="M299.448 94.556C297.918 94.0135 297.038 92.5399 297.48 91.2944L303.031 93.2625C302.566 94.5195 300.978 95.0985 299.448 94.556Z" fill="#FCF4E1"/>
<path d="M315.962 159.893L316.538 159.492C317.699 158.643 317.774 156.891 316.495 155.959C315.724 155.399 314.681 155.483 313.907 156.049L310.231 158.739C310.065 158.86 310.024 159.124 310.146 159.289L312.877 163.042C313.727 164.202 315.481 164.277 316.414 163C316.974 162.229 316.89 161.187 316.323 160.414L315.962 159.893Z" fill="#E4582D"/>
<path d="M323.347 156.208C322.951 156.074 322.439 155.896 321.975 155.727L321.96 155.823C321.912 156.134 321.772 156.406 321.56 156.667C321.442 156.796 321.328 156.901 321.189 157.002L320.514 161.698C320.689 161.676 320.86 161.678 321.028 161.704L323.159 162.033C323.446 162.077 323.702 162.166 323.931 162.274L324.992 155.874C324.567 156.25 323.955 156.4 323.347 156.208L323.347 156.208Z" fill="#8F67F3"/>
<path d="M319.693 163.359C318.936 163.977 317.644 165.517 317.644 165.517C317.439 165.73 317.456 166.1 317.693 166.308C317.911 166.489 318.185 166.458 318.461 166.255C318.738 166.053 319.223 165.614 319.223 165.614C319.471 165.432 319.641 165.605 319.607 165.82C319.521 166.223 319.46 166.459 319.342 166.906C319.224 167.353 318.519 169.375 318.519 169.375C318.431 169.631 318.562 169.896 318.818 169.984C319.074 170.073 319.339 169.942 319.428 169.687L320.257 167.17C320.292 167.101 320.347 167.061 320.419 167.072L320.467 167.079C320.563 167.094 320.624 167.177 320.609 167.273L319.937 170.353C319.873 170.613 320.051 170.885 320.315 170.926C320.578 170.967 320.847 170.812 320.888 170.549L321.606 167.329C321.617 167.257 321.7 167.196 321.771 167.208C321.843 167.219 321.908 167.278 321.917 167.377L321.605 170.194C321.588 170.461 321.77 170.71 322.038 170.727C322.301 170.767 322.553 170.561 322.57 170.294L322.831 167.493C322.842 167.422 322.925 167.361 322.997 167.372C323.068 167.383 323.133 167.442 323.122 167.514L323.053 169.708C323.036 169.974 323.246 170.203 323.513 170.219C323.78 170.236 324.009 170.026 324.025 169.76C324.025 169.76 324.1 166.734 324.126 165.611C324.149 164.513 324.052 163.396 322.974 163.229L320.843 162.9C320.463 162.817 320.028 163.093 319.693 163.36L319.693 163.359Z" fill="white"/>
<path d="M317.359 168.951C317.493 168.555 317.671 168.044 317.816 167.576C317.453 167.545 317.137 167.373 316.895 167.189C316.766 167.071 316.661 166.957 316.564 166.795L311.863 166.118C311.885 166.293 311.883 166.464 311.857 166.632L311.528 168.761C311.484 169.048 311.395 169.304 311.287 169.532L317.697 170.571C317.386 170.204 317.241 169.716 317.318 169.214C317.306 169.138 317.344 169.046 317.359 168.951L317.359 168.951Z" fill="#8F67F3"/>
<path d="M307.967 169.754C309.066 169.777 310.185 169.68 310.351 168.604L310.679 166.475C310.742 166.068 310.462 165.657 310.195 165.322C309.577 164.565 308.035 163.274 308.035 163.274C307.821 163.07 307.451 163.086 307.243 163.323C307.062 163.541 307.093 163.815 307.296 164.091C307.499 164.367 307.939 164.851 307.939 164.851C308.121 165.1 307.948 165.269 307.732 165.236C307.329 165.149 307.093 165.088 306.645 164.97C306.233 164.784 304.209 164.079 304.209 164.079C303.952 163.991 303.687 164.121 303.599 164.377C303.51 164.633 303.641 164.898 303.897 164.987L306.385 165.861C306.457 165.872 306.494 165.951 306.483 166.023L306.476 166.07C306.461 166.166 306.378 166.227 306.286 166.188L303.202 165.516C302.942 165.451 302.669 165.63 302.629 165.893C302.588 166.156 302.743 166.425 303.006 166.466L306.23 167.184C306.302 167.195 306.363 167.278 306.352 167.349C306.34 167.421 306.258 167.482 306.182 167.495L303.362 167.182C303.098 167.141 302.846 167.347 302.829 167.614C302.812 167.881 302.995 168.129 303.262 168.146L306.082 168.459C306.154 168.47 306.215 168.553 306.204 168.625C306.193 168.697 306.134 168.761 306.062 168.75L303.866 168.68C303.599 168.664 303.37 168.873 303.354 169.14C303.337 169.407 303.547 169.635 303.814 169.652C303.814 169.652 306.843 169.728 307.966 169.754L307.967 169.754Z" fill="white"/>
<path d="M310.589 150.222C310.455 150.617 310.278 151.129 310.108 151.593C310.471 151.624 310.788 151.795 311.053 151.983C311.182 152.101 311.287 152.215 311.385 152.377L316.086 153.054C316.064 152.879 316.066 152.708 316.092 152.541L316.42 150.412C316.465 150.124 316.553 149.869 316.662 149.641L310.255 148.578C310.566 148.945 310.735 149.436 310.658 149.939C310.647 150.01 310.604 150.126 310.59 150.222L310.589 150.222Z" fill="#8F67F3"/>
<path d="M317.265 152.722C317.202 153.129 317.482 153.539 317.749 153.874C318.368 154.631 319.909 155.922 319.909 155.922C320.123 156.127 320.493 156.11 320.702 155.873C320.882 155.656 320.851 155.382 320.648 155.106C320.446 154.829 320.006 154.345 320.006 154.345C319.823 154.097 319.997 153.927 320.212 153.961C320.616 154.047 320.851 154.108 321.299 154.226C321.747 154.344 323.771 155.049 323.771 155.049C324.027 155.137 324.293 155.007 324.381 154.751C324.469 154.495 324.339 154.23 324.083 154.142L321.563 153.312C321.491 153.301 321.454 153.222 321.465 153.15L321.472 153.102C321.487 153.006 321.57 152.946 321.662 152.984L324.746 153.656C325.006 153.721 325.279 153.543 325.319 153.28C325.36 153.016 325.205 152.747 324.942 152.707L321.718 151.989C321.646 151.978 321.585 151.895 321.597 151.823C321.608 151.751 321.667 151.687 321.766 151.678L324.586 151.991C324.85 152.031 325.102 151.825 325.119 151.558C325.16 151.295 324.953 151.043 324.686 151.026L321.866 150.713C321.794 150.702 321.733 150.619 321.744 150.548C321.755 150.476 321.814 150.411 321.91 150.426L324.106 150.496C324.373 150.513 324.602 150.303 324.618 150.036C324.635 149.769 324.425 149.541 324.158 149.524C324.158 149.524 321.129 149.449 320.006 149.422C318.906 149.399 317.787 149.496 317.621 150.572C317.468 151.406 317.394 151.885 317.265 152.722L317.265 152.722Z" fill="white"/>
<path d="M304.601 162.965C304.997 163.099 305.51 163.276 305.974 163.446L305.988 163.35C306.036 163.039 306.176 162.767 306.389 162.506C306.506 162.377 306.621 162.272 306.783 162.175L307.435 157.475C307.26 157.497 307.089 157.495 306.921 157.469L304.789 157.14C304.502 157.096 304.246 157.007 304.018 156.898L302.956 163.298C303.07 163.194 303.181 163.113 303.312 163.059C303.712 162.852 304.157 162.823 304.601 162.965L304.601 162.965Z" fill="#8F67F3"/>
<path d="M308.255 155.813C309.013 155.195 310.305 153.656 310.305 153.656C310.509 153.443 310.493 153.073 310.255 152.865C310.038 152.684 309.763 152.715 309.487 152.917C309.21 153.12 308.726 153.559 308.726 153.559C308.477 153.741 308.308 153.568 308.341 153.353C308.428 152.95 308.488 152.714 308.606 152.267C308.769 151.851 309.473 149.829 309.473 149.829C309.562 149.573 309.431 149.308 309.175 149.22C308.919 149.131 308.654 149.262 308.565 149.518L307.691 152.003C307.656 152.071 307.601 152.112 307.529 152.101L307.481 152.093C307.385 152.079 307.325 151.996 307.363 151.904L308.035 148.823C308.099 148.564 307.921 148.291 307.657 148.25C307.394 148.21 307.125 148.364 307.084 148.627L306.367 151.848C306.355 151.919 306.273 151.98 306.201 151.969C306.129 151.958 306.064 151.899 306.055 151.8L306.367 148.982C306.408 148.719 306.202 148.467 305.935 148.45C305.671 148.409 305.419 148.615 305.402 148.882L305.09 151.7C305.079 151.771 304.996 151.832 304.924 151.821C304.852 151.81 304.788 151.751 304.799 151.679L304.868 149.485C304.884 149.219 304.674 148.99 304.407 148.974C304.14 148.957 303.912 149.166 303.895 149.433C303.895 149.433 303.82 152.459 303.794 153.582C303.772 154.68 303.869 155.797 304.946 155.964L307.078 156.293C307.485 156.356 307.92 156.08 308.255 155.813L308.255 155.813Z" fill="white"/>
<circle opacity="0.4" cx="180" cy="156" r="155.5" transform="rotate(15 180 156)" stroke="#C4C4C4"/>
</g>
<defs>
<clipPath id="clip0_633_15346">
<rect width="360" height="312" fill="white"/>
</clipPath>
<clipPath id="clip1_633_15346">
<rect width="27.6923" height="30" fill="white" transform="translate(36.198 137.871) rotate(-81.84)"/>
</clipPath>
</defs>
</svg>
