<svg width="67" height="66" viewBox="0 0 67 66" fill="none" xmlns="http://www.w3.org/2000/svg">
<g clip-path="url(#clip0_879_19151)">
<path d="M66.6734 32.9796C66.6734 41.7263 63.1988 50.1148 57.0139 56.2997C50.8291 62.4846 42.4406 65.9592 33.6938 65.9592C24.9471 65.9592 16.5586 62.4846 10.3737 56.2997C4.18886 50.1148 0.714233 41.7263 0.714233 32.9796C0.714233 24.2329 4.18886 15.8444 10.3737 9.6595C16.5586 3.47463 24.9471 0 33.6938 0C42.4406 0 50.8291 3.47463 57.0139 9.6595C63.1988 15.8444 66.6734 24.2329 66.6734 32.9796ZM28.7057 20.9956C28.3975 20.7762 28.0348 20.6458 27.6574 20.6188C27.28 20.5918 26.9025 20.6691 26.5661 20.8424C26.2298 21.0157 25.9477 21.2782 25.7506 21.6012C25.5535 21.9241 25.4492 22.2951 25.4489 22.6735V43.2857C25.4492 43.6641 25.5535 44.0351 25.7506 44.358C25.9477 44.681 26.2298 44.9435 26.5661 45.1168C26.9025 45.2901 27.28 45.3674 27.6574 45.3404C28.0348 45.3134 28.3975 45.183 28.7057 44.9636L43.1342 34.6574C43.4014 34.4668 43.6192 34.215 43.7695 33.9232C43.9198 33.6314 43.9982 33.3078 43.9982 32.9796C43.9982 32.6513 43.9198 32.3278 43.7695 32.036C43.6192 31.7442 43.4014 31.4924 43.1342 31.3018L28.7057 20.9956Z" fill="#FF0000"/>
<path d="M28.7057 20.9956C28.3975 20.7762 28.0348 20.6458 27.6575 20.6188C27.2801 20.5918 26.9025 20.6691 26.5662 20.8424C26.2299 21.0157 25.9477 21.2782 25.7506 21.6012C25.5536 21.9241 25.4492 22.2951 25.449 22.6735V43.2857C25.4492 43.6641 25.5536 44.0351 25.7506 44.358C25.9477 44.681 26.2299 44.9435 26.5662 45.1168C26.9025 45.2901 27.2801 45.3674 27.6575 45.3404C28.0348 45.3134 28.3975 45.183 28.7057 44.9636L43.1343 34.6574C43.4015 34.4668 43.6193 34.215 43.7695 33.9232C43.9198 33.6314 43.9982 33.3079 43.9982 32.9796C43.9982 32.6513 43.9198 32.3278 43.7695 32.036C43.6193 31.7442 43.4015 31.4924 43.1343 31.3018L28.7057 20.9956Z" fill="white"/>
</g>
<defs>
<clipPath id="clip0_879_19151">
<rect width="65.9592" height="65.9592" fill="white" transform="translate(0.714233)"/>
</clipPath>
</defs>
</svg>
